0
SECTION
2
HEADER
9
$INSUNITS
70
1
0
ENDSEC
0
SECTION
2
TABLES
0
TABLE
2
LAYER
0
ENDTAB
0
ENDSEC
0
SECTION
2
ENTITIES
0
LINE
8
front_outsideCutPath
10
0
20
103
11
0
21
96.3125
0
LINE
8
front_outsideCutPath
10
0
20
96.3125
11
3.5
21
96.3125
0
LINE
8
front_outsideCutPath
10
3.5
20
96.3125
11
3.5
21
88.4375
0
LINE
8
front_outsideCutPath
10
3.5
20
88.4375
11
0
21
88.4375
0
LINE
8
front_outsideCutPath
10
0
20
88.4375
11
0
21
80.5625
0
LINE
8
front_outsideCutPath
10
0
20
80.5625
11
3.5
21
80.5625
0
LINE
8
front_outsideCutPath
10
3.5
20
80.5625
11
3.5
21
72.6875
0
LINE
8
front_outsideCutPath
10
3.5
20
72.6875
11
0
21
72.6875
0
LINE
8
front_outsideCutPath
10
0
20
72.6875
11
0
21
64.8125
0
LINE
8
front_outsideCutPath
10
0
20
64.8125
11
3.5
21
64.8125
0
LINE
8
front_outsideCutPath
10
3.5
20
64.8125
11
3.5
21
56.9375
0
LINE
8
front_outsideCutPath
10
3.5
20
56.9375
11
0
21
56.9375
0
LINE
8
front_outsideCutPath
10
0
20
56.9375
11
0
21
49.0625
0
LINE
8
front_outsideCutPath
10
0
20
49.0625
11
3.5
21
49.0625
0
LINE
8
front_outsideCutPath
10
3.5
20
49.0625
11
3.5
21
41.1875
0
LINE
8
front_outsideCutPath
10
3.5
20
41.1875
11
0
21
41.1875
0
LINE
8
front_outsideCutPath
10
0
20
41.1875
11
0
21
33.3125
0
LINE
8
front_outsideCutPath
10
0
20
33.3125
11
3.5
21
33.3125
0
LINE
8
front_outsideCutPath
10
3.5
20
33.3125
11
3.5
21
25.4375
0
LINE
8
front_outsideCutPath
10
3.5
20
25.4375
11
0
21
25.4375
0
LINE
8
front_outsideCutPath
10
0
20
25.4375
11
0
21
17.5625
0
LINE
8
front_outsideCutPath
10
0
20
17.5625
11
3.5
21
17.5625
0
LINE
8
front_outsideCutPath
10
3.5
20
17.5625
11
3.5
21
9.6875
0
LINE
8
front_outsideCutPath
10
3.5
20
9.6875
11
0
21
9.6875
0
LINE
8
front_outsideCutPath
10
0
20
9.6875
11
0
21
3
0
LINE
8
front_outsideCutPath
10
0
20
3
11
10.1875
21
3
0
LINE
8
front_outsideCutPath
10
10.1875
20
3
11
10.1875
21
6.5
0
LINE
8
front_outsideCutPath
10
10.1875
20
6.5
11
18.0625
21
6.5
0
LINE
8
front_outsideCutPath
10
18.0625
20
6.5
11
18.0625
21
3
0
LINE
8
front_outsideCutPath
10
18.0625
20
3
11
25.9375
21
3
0
LINE
8
front_outsideCutPath
10
25.9375
20
3
11
25.9375
21
6.5
0
LINE
8
front_outsideCutPath
10
25.9375
20
6.5
11
33.8125
21
6.5
0
LINE
8
front_outsideCutPath
10
33.8125
20
6.5
11
33.8125
21
3
0
LINE
8
front_outsideCutPath
10
33.8125
20
3
11
41.6875
21
3
0
LINE
8
front_outsideCutPath
10
41.6875
20
3
11
41.6875
21
6.5
0
LINE
8
front_outsideCutPath
10
41.6875
20
6.5
11
49.5625
21
6.5
0
LINE
8
front_outsideCutPath
10
49.5625
20
6.5
11
49.5625
21
3
0
LINE
8
front_outsideCutPath
10
49.5625
20
3
11
57.4375
21
3
0
LINE
8
front_outsideCutPath
10
57.4375
20
3
11
57.4375
21
6.5
0
LINE
8
front_outsideCutPath
10
57.4375
20
6.5
11
65.3125
21
6.5
0
LINE
8
front_outsideCutPath
10
65.3125
20
6.5
11
65.3125
21
3
0
LINE
8
front_outsideCutPath
10
65.3125
20
3
11
73.1875
21
3
0
LINE
8
front_outsideCutPath
10
73.1875
20
3
11
73.1875
21
6.5
0
LINE
8
front_outsideCutPath
10
73.1875
20
6.5
11
81.0625
21
6.5
0
LINE
8
front_outsideCutPath
10
81.0625
20
6.5
11
81.0625
21
3
0
LINE
8
front_outsideCutPath
10
81.0625
20
3
11
88.9375
21
3
0
LINE
8
front_outsideCutPath
10
88.9375
20
3
11
88.9375
21
6.5
0
LINE
8
front_outsideCutPath
10
88.9375
20
6.5
11
96.8125
21
6.5
0
LINE
8
front_outsideCutPath
10
96.8125
20
6.5
11
96.8125
21
3
0
LINE
8
front_outsideCutPath
10
96.8125
20
3
11
104.6875
21
3
0
LINE
8
front_outsideCutPath
10
104.6875
20
3
11
104.6875
21
6.5
0
LINE
8
front_outsideCutPath
10
104.6875
20
6.5
11
112.5625
21
6.5
0
LINE
8
front_outsideCutPath
10
112.5625
20
6.5
11
112.5625
21
3
0
LINE
8
front_outsideCutPath
10
112.5625
20
3
11
120.4375
21
3
0
LINE
8
front_outsideCutPath
10
120.4375
20
3
11
120.4375
21
6.5
0
LINE
8
front_outsideCutPath
10
120.4375
20
6.5
11
128.3125
21
6.5
0
LINE
8
front_outsideCutPath
10
128.3125
20
6.5
11
128.3125
21
3
0
LINE
8
front_outsideCutPath
10
128.3125
20
3
11
136.1875
21
3
0
LINE
8
front_outsideCutPath
10
136.1875
20
3
11
136.1875
21
6.5
0
LINE
8
front_outsideCutPath
10
136.1875
20
6.5
11
144.0625
21
6.5
0
LINE
8
front_outsideCutPath
10
144.0625
20
6.5
11
144.0625
21
3
0
LINE
8
front_outsideCutPath
10
144.0625
20
3
11
151.9375
21
3
0
LINE
8
front_outsideCutPath
10
151.9375
20
3
11
151.9375
21
6.5
0
LINE
8
front_outsideCutPath
10
151.9375
20
6.5
11
159.8125
21
6.5
0
LINE
8
front_outsideCutPath
10
159.8125
20
6.5
11
159.8125
21
3
0
LINE
8
front_outsideCutPath
10
159.8125
20
3
11
170
21
3
0
LINE
8
front_outsideCutPath
10
170
20
3
11
170
21
9.6875
0
LINE
8
front_outsideCutPath
10
170
20
9.6875
11
166.5
21
9.6875
0
LINE
8
front_outsideCutPath
10
166.5
20
9.6875
11
166.5
21
17.5625
0
LINE
8
front_outsideCutPath
10
166.5
20
17.5625
11
170
21
17.5625
0
LINE
8
front_outsideCutPath
10
170
20
17.5625
11
170
21
25.4375
0
LINE
8
front_outsideCutPath
10
170
20
25.4375
11
166.5
21
25.4375
0
LINE
8
front_outsideCutPath
10
166.5
20
25.4375
11
166.5
21
33.3125
0
LINE
8
front_outsideCutPath
10
166.5
20
33.3125
11
170
21
33.3125
0
LINE
8
front_outsideCutPath
10
170
20
33.3125
11
170
21
41.1875
0
LINE
8
front_outsideCutPath
10
170
20
41.1875
11
166.5
21
41.1875
0
LINE
8
front_outsideCutPath
10
166.5
20
41.1875
11
166.5
21
49.0625
0
LINE
8
front_outsideCutPath
10
166.5
20
49.0625
11
170
21
49.0625
0
LINE
8
front_outsideCutPath
10
170
20
49.0625
11
170
21
56.9375
0
LINE
8
front_outsideCutPath
10
170
20
56.9375
11
166.5
21
56.9375
0
LINE
8
front_outsideCutPath
10
166.5
20
56.9375
11
166.5
21
64.8125
0
LINE
8
front_outsideCutPath
10
166.5
20
64.8125
11
170
21
64.8125
0
LINE
8
front_outsideCutPath
10
170
20
64.8125
11
170
21
72.6875
0
LINE
8
front_outsideCutPath
10
170
20
72.6875
11
166.5
21
72.6875
0
LINE
8
front_outsideCutPath
10
166.5
20
72.6875
11
166.5
21
80.5625
0
LINE
8
front_outsideCutPath
10
166.5
20
80.5625
11
170
21
80.5625
0
LINE
8
front_outsideCutPath
10
170
20
80.5625
11
170
21
88.4375
0
LINE
8
front_outsideCutPath
10
170
20
88.4375
11
166.5
21
88.4375
0
LINE
8
front_outsideCutPath
10
166.5
20
88.4375
11
166.5
21
96.3125
0
LINE
8
front_outsideCutPath
10
166.5
20
96.3125
11
170
21
96.3125
0
LINE
8
front_outsideCutPath
10
170
20
96.3125
11
170
21
103
0
LINE
8
front_outsideCutPath
10
170
20
103
11
159.8125
21
103
0
LINE
8
front_outsideCutPath
10
159.8125
20
103
11
159.8125
21
99.5
0
LINE
8
front_outsideCutPath
10
159.8125
20
99.5
11
151.9375
21
99.5
0
LINE
8
front_outsideCutPath
10
151.9375
20
99.5
11
151.9375
21
103
0
LINE
8
front_outsideCutPath
10
151.9375
20
103
11
144.0625
21
103
0
LINE
8
front_outsideCutPath
10
144.0625
20
103
11
144.0625
21
99.5
0
LINE
8
front_outsideCutPath
10
144.0625
20
99.5
11
136.1875
21
99.5
0
LINE
8
front_outsideCutPath
10
136.1875
20
99.5
11
136.1875
21
103
0
LINE
8
front_outsideCutPath
10
136.1875
20
103
11
128.3125
21
103
0
LINE
8
front_outsideCutPath
10
128.3125
20
103
11
128.3125
21
99.5
0
LINE
8
front_outsideCutPath
10
128.3125
20
99.5
11
120.4375
21
99.5
0
LINE
8
front_outsideCutPath
10
120.4375
20
99.5
11
120.4375
21
103
0
LINE
8
front_outsideCutPath
10
120.4375
20
103
11
112.5625
21
103
0
LINE
8
front_outsideCutPath
10
112.5625
20
103
11
112.5625
21
99.5
0
LINE
8
front_outsideCutPath
10
112.5625
20
99.5
11
104.6875
21
99.5
0
LINE
8
front_outsideCutPath
10
104.6875
20
99.5
11
104.6875
21
103
0
LINE
8
front_outsideCutPath
10
104.6875
20
103
11
96.8125
21
103
0
LINE
8
front_outsideCutPath
10
96.8125
20
103
11
96.8125
21
99.5
0
LINE
8
front_outsideCutPath
10
96.8125
20
99.5
11
88.9375
21
99.5
0
LINE
8
front_outsideCutPath
10
88.9375
20
99.5
11
88.9375
21
103
0
LINE
8
front_outsideCutPath
10
88.9375
20
103
11
81.0625
21
103
0
LINE
8
front_outsideCutPath
10
81.0625
20
103
11
81.0625
21
99.5
0
LINE
8
front_outsideCutPath
10
81.0625
20
99.5
11
73.1875
21
99.5
0
LINE
8
front_outsideCutPath
10
73.1875
20
99.5
11
73.1875
21
103
0
LINE
8
front_outsideCutPath
10
73.1875
20
103
11
65.3125
21
103
0
LINE
8
front_outsideCutPath
10
65.3125
20
103
11
65.3125
21
99.5
0
LINE
8
front_outsideCutPath
10
65.3125
20
99.5
11
57.4375
21
99.5
0
LINE
8
front_outsideCutPath
10
57.4375
20
99.5
11
57.4375
21
103
0
LINE
8
front_outsideCutPath
10
57.4375
20
103
11
49.5625
21
103
0
LINE
8
front_outsideCutPath
10
49.5625
20
103
11
49.5625
21
99.5
0
LINE
8
front_outsideCutPath
10
49.5625
20
99.5
11
41.6875
21
99.5
0
LINE
8
front_outsideCutPath
10
41.6875
20
99.5
11
41.6875
21
103
0
LINE
8
front_outsideCutPath
10
41.6875
20
103
11
33.8125
21
103
0
LINE
8
front_outsideCutPath
10
33.8125
20
103
11
33.8125
21
99.5
0
LINE
8
front_outsideCutPath
10
33.8125
20
99.5
11
25.9375
21
99.5
0
LINE
8
front_outsideCutPath
10
25.9375
20
99.5
11
25.9375
21
103
0
LINE
8
front_outsideCutPath
10
25.9375
20
103
11
18.0625
21
103
0
LINE
8
front_outsideCutPath
10
18.0625
20
103
11
18.0625
21
99.5
0
LINE
8
front_outsideCutPath
10
18.0625
20
99.5
11
10.1875
21
99.5
0
LINE
8
front_outsideCutPath
10
10.1875
20
99.5
11
10.1875
21
103
0
LINE
8
front_outsideCutPath
10
10.1875
20
103
11
0
21
103
0
LINE
8
left_outsideCutPath
10
176.5
20
103
11
176.5
21
96.3125
0
LINE
8
left_outsideCutPath
10
176.5
20
96.3125
11
173
21
96.3125
0
LINE
8
left_outsideCutPath
10
173
20
96.3125
11
173
21
88.4375
0
LINE
8
left_outsideCutPath
10
173
20
88.4375
11
176.5
21
88.4375
0
LINE
8
left_outsideCutPath
10
176.5
20
88.4375
11
176.5
21
80.5625
0
LINE
8
left_outsideCutPath
10
176.5
20
80.5625
11
173
21
80.5625
0
LINE
8
left_outsideCutPath
10
173
20
80.5625
11
173
21
72.6875
0
LINE
8
left_outsideCutPath
10
173
20
72.6875
11
176.5
21
72.6875
0
LINE
8
left_outsideCutPath
10
176.5
20
72.6875
11
176.5
21
64.8125
0
LINE
8
left_outsideCutPath
10
176.5
20
64.8125
11
173
21
64.8125
0
LINE
8
left_outsideCutPath
10
173
20
64.8125
11
173
21
56.9375
0
LINE
8
left_outsideCutPath
10
173
20
56.9375
11
176.5
21
56.9375
0
LINE
8
left_outsideCutPath
10
176.5
20
56.9375
11
176.5
21
49.0625
0
LINE
8
left_outsideCutPath
10
176.5
20
49.0625
11
173
21
49.0625
0
LINE
8
left_outsideCutPath
10
173
20
49.0625
11
173
21
41.1875
0
LINE
8
left_outsideCutPath
10
173
20
41.1875
11
176.5
21
41.1875
0
LINE
8
left_outsideCutPath
10
176.5
20
41.1875
11
176.5
21
33.3125
0
LINE
8
left_outsideCutPath
10
176.5
20
33.3125
11
173
21
33.3125
0
LINE
8
left_outsideCutPath
10
173
20
33.3125
11
173
21
25.4375
0
LINE
8
left_outsideCutPath
10
173
20
25.4375
11
176.5
21
25.4375
0
LINE
8
left_outsideCutPath
10
176.5
20
25.4375
11
176.5
21
17.5625
0
LINE
8
left_outsideCutPath
10
176.5
20
17.5625
11
173
21
17.5625
0
LINE
8
left_outsideCutPath
10
173
20
17.5625
11
173
21
9.6875
0
LINE
8
left_outsideCutPath
10
173
20
9.6875
11
176.5
21
9.6875
0
LINE
8
left_outsideCutPath
10
176.5
20
9.6875
11
176.5
21
3
0
LINE
8
left_outsideCutPath
10
176.5
20
3
11
183.6875
21
3
0
LINE
8
left_outsideCutPath
10
183.6875
20
3
11
183.6875
21
6.5
0
LINE
8
left_outsideCutPath
10
183.6875
20
6.5
11
191.5625
21
6.5
0
LINE
8
left_outsideCutPath
10
191.5625
20
6.5
11
191.5625
21
3
0
LINE
8
left_outsideCutPath
10
191.5625
20
3
11
199.4375
21
3
0
LINE
8
left_outsideCutPath
10
199.4375
20
3
11
199.4375
21
6.5
0
LINE
8
left_outsideCutPath
10
199.4375
20
6.5
11
207.3125
21
6.5
0
LINE
8
left_outsideCutPath
10
207.3125
20
6.5
11
207.3125
21
3
0
LINE
8
left_outsideCutPath
10
207.3125
20
3
11
214.5
21
3
0
LINE
8
left_outsideCutPath
10
214.5
20
3
11
214.5
21
9.6875
0
LINE
8
left_outsideCutPath
10
214.5
20
9.6875
11
218
21
9.6875
0
LINE
8
left_outsideCutPath
10
218
20
9.6875
11
218
21
17.5625
0
LINE
8
left_outsideCutPath
10
218
20
17.5625
11
214.5
21
17.5625
0
LINE
8
left_outsideCutPath
10
214.5
20
17.5625
11
214.5
21
25.4375
0
LINE
8
left_outsideCutPath
10
214.5
20
25.4375
11
218
21
25.4375
0
LINE
8
left_outsideCutPath
10
218
20
25.4375
11
218
21
33.3125
0
LINE
8
left_outsideCutPath
10
218
20
33.3125
11
214.5
21
33.3125
0
LINE
8
left_outsideCutPath
10
214.5
20
33.3125
11
214.5
21
41.1875
0
LINE
8
left_outsideCutPath
10
214.5
20
41.1875
11
218
21
41.1875
0
LINE
8
left_outsideCutPath
10
218
20
41.1875
11
218
21
49.0625
0
LINE
8
left_outsideCutPath
10
218
20
49.0625
11
214.5
21
49.0625
0
LINE
8
left_outsideCutPath
10
214.5
20
49.0625
11
214.5
21
56.9375
0
LINE
8
left_outsideCutPath
10
214.5
20
56.9375
11
218
21
56.9375
0
LINE
8
left_outsideCutPath
10
218
20
56.9375
11
218
21
64.8125
0
LINE
8
left_outsideCutPath
10
218
20
64.8125
11
214.5
21
64.8125
0
LINE
8
left_outsideCutPath
10
214.5
20
64.8125
11
214.5
21
72.6875
0
LINE
8
left_outsideCutPath
10
214.5
20
72.6875
11
218
21
72.6875
0
LINE
8
left_outsideCutPath
10
218
20
72.6875
11
218
21
80.5625
0
LINE
8
left_outsideCutPath
10
218
20
80.5625
11
214.5
21
80.5625
0
LINE
8
left_outsideCutPath
10
214.5
20
80.5625
11
214.5
21
88.4375
0
LINE
8
left_outsideCutPath
10
214.5
20
88.4375
11
218
21
88.4375
0
LINE
8
left_outsideCutPath
10
218
20
88.4375
11
218
21
96.3125
0
LINE
8
left_outsideCutPath
10
218
20
96.3125
11
214.5
21
96.3125
0
LINE
8
left_outsideCutPath
10
214.5
20
96.3125
11
214.5
21
103
0
LINE
8
left_outsideCutPath
10
214.5
20
103
11
207.3125
21
103
0
LINE
8
left_outsideCutPath
10
207.3125
20
103
11
207.3125
21
99.5
0
LINE
8
left_outsideCutPath
10
207.3125
20
99.5
11
199.4375
21
99.5
0
LINE
8
left_outsideCutPath
10
199.4375
20
99.5
11
199.4375
21
103
0
LINE
8
left_outsideCutPath
10
199.4375
20
103
11
191.5625
21
103
0
LINE
8
left_outsideCutPath
10
191.5625
20
103
11
191.5625
21
99.5
0
LINE
8
left_outsideCutPath
10
191.5625
20
99.5
11
183.6875
21
99.5
0
LINE
8
left_outsideCutPath
10
183.6875
20
99.5
11
183.6875
21
103
0
LINE
8
left_outsideCutPath
10
183.6875
20
103
11
176.5
21
103
0
LINE
8
top_outsideCutPath
10
224.5
20
44.5
11
224.5
21
37.3125
0
LINE
8
top_outsideCutPath
10
224.5
20
37.3125
11
221
21
37.3125
0
LINE
8
top_outsideCutPath
10
221
20
37.3125
11
221
21
29.4375
0
LINE
8
top_outsideCutPath
10
221
20
29.4375
11
224.5
21
29.4375
0
LINE
8
top_outsideCutPath
10
224.5
20
29.4375
11
224.5
21
21.5625
0
LINE
8
top_outsideCutPath
10
224.5
20
21.5625
11
221
21
21.5625
0
LINE
8
top_outsideCutPath
10
221
20
21.5625
11
221
21
13.6875
0
LINE
8
top_outsideCutPath
10
221
20
13.6875
11
224.5
21
13.6875
0
LINE
8
top_outsideCutPath
10
224.5
20
13.6875
11
224.5
21
6.5
0
LINE
8
top_outsideCutPath
10
224.5
20
6.5
11
231.1875
21
6.5
0
LINE
8
top_outsideCutPath
10
231.1875
20
6.5
11
231.1875
21
3
0
LINE
8
top_outsideCutPath
10
231.1875
20
3
11
239.0625
21
3
0
LINE
8
top_outsideCutPath
10
239.0625
20
3
11
239.0625
21
6.5
0
LINE
8
top_outsideCutPath
10
239.0625
20
6.5
11
246.9375
21
6.5
0
LINE
8
top_outsideCutPath
10
246.9375
20
6.5
11
246.9375
21
3
0
LINE
8
top_outsideCutPath
10
246.9375
20
3
11
254.8125
21
3
0
LINE
8
top_outsideCutPath
10
254.8125
20
3
11
254.8125
21
6.5
0
LINE
8
top_outsideCutPath
10
254.8125
20
6.5
11
262.6875
21
6.5
0
LINE
8
top_outsideCutPath
10
262.6875
20
6.5
11
262.6875
21
3
0
LINE
8
top_outsideCutPath
10
262.6875
20
3
11
270.5625
21
3
0
LINE
8
top_outsideCutPath
10
270.5625
20
3
11
270.5625
21
6.5
0
LINE
8
top_outsideCutPath
10
270.5625
20
6.5
11
278.4375
21
6.5
0
LINE
8
top_outsideCutPath
10
278.4375
20
6.5
11
278.4375
21
3
0
LINE
8
top_outsideCutPath
10
278.4375
20
3
11
286.3125
21
3
0
LINE
8
top_outsideCutPath
10
286.3125
20
3
11
286.3125
21
6.5
0
LINE
8
top_outsideCutPath
10
286.3125
20
6.5
11
294.1875
21
6.5
0
LINE
8
top_outsideCutPath
10
294.1875
20
6.5
11
294.1875
21
3
0
LINE
8
top_outsideCutPath
10
294.1875
20
3
11
302.0625
21
3
0
LINE
8
top_outsideCutPath
10
302.0625
20
3
11
302.0625
21
6.5
0
LINE
8
top_outsideCutPath
10
302.0625
20
6.5
11
309.9375
21
6.5
0
LINE
8
top_outsideCutPath
10
309.9375
20
6.5
11
309.9375
21
3
0
LINE
8
top_outsideCutPath
10
309.9375
20
3
11
317.8125
21
3
0
LINE
8
top_outsideCutPath
10
317.8125
20
3
11
317.8125
21
6.5
0
LINE
8
top_outsideCutPath
10
317.8125
20
6.5
11
325.6875
21
6.5
0
LINE
8
top_outsideCutPath
10
325.6875
20
6.5
11
325.6875
21
3
0
LINE
8
top_outsideCutPath
10
325.6875
20
3
11
333.5625
21
3
0
LINE
8
top_outsideCutPath
10
333.5625
20
3
11
333.5625
21
6.5
0
LINE
8
top_outsideCutPath
10
333.5625
20
6.5
11
341.4375
21
6.5
0
LINE
8
top_outsideCutPath
10
341.4375
20
6.5
11
341.4375
21
3
0
LINE
8
top_outsideCutPath
10
341.4375
20
3
11
349.3125
21
3
0
LINE
8
top_outsideCutPath
10
349.3125
20
3
11
349.3125
21
6.5
0
LINE
8
top_outsideCutPath
10
349.3125
20
6.5
11
357.1875
21
6.5
0
LINE
8
top_outsideCutPath
10
357.1875
20
6.5
11
357.1875
21
3
0
LINE
8
top_outsideCutPath
10
357.1875
20
3
11
365.0625
21
3
0
LINE
8
top_outsideCutPath
10
365.0625
20
3
11
365.0625
21
6.5
0
LINE
8
top_outsideCutPath
10
365.0625
20
6.5
11
372.9375
21
6.5
0
LINE
8
top_outsideCutPath
10
372.9375
20
6.5
11
372.9375
21
3
0
LINE
8
top_outsideCutPath
10
372.9375
20
3
11
380.8125
21
3
0
LINE
8
top_outsideCutPath
10
380.8125
20
3
11
380.8125
21
6.5
0
LINE
8
top_outsideCutPath
10
380.8125
20
6.5
11
387.5
21
6.5
0
LINE
8
top_outsideCutPath
10
387.5
20
6.5
11
387.5
21
13.6875
0
LINE
8
top_outsideCutPath
10
387.5
20
13.6875
11
391
21
13.6875
0
LINE
8
top_outsideCutPath
10
391
20
13.6875
11
391
21
21.5625
0
LINE
8
top_outsideCutPath
10
391
20
21.5625
11
387.5
21
21.5625
0
LINE
8
top_outsideCutPath
10
387.5
20
21.5625
11
387.5
21
29.4375
0
LINE
8
top_outsideCutPath
10
387.5
20
29.4375
11
391
21
29.4375
0
LINE
8
top_outsideCutPath
10
391
20
29.4375
11
391
21
37.3125
0
LINE
8
top_outsideCutPath
10
391
20
37.3125
11
387.5
21
37.3125
0
LINE
8
top_outsideCutPath
10
387.5
20
37.3125
11
387.5
21
44.5
0
LINE
8
top_outsideCutPath
10
387.5
20
44.5
11
380.8125
21
44.5
0
LINE
8
top_outsideCutPath
10
380.8125
20
44.5
11
380.8125
21
48
0
LINE
8
top_outsideCutPath
10
380.8125
20
48
11
372.9375
21
48
0
LINE
8
top_outsideCutPath
10
372.9375
20
48
11
372.9375
21
44.5
0
LINE
8
top_outsideCutPath
10
372.9375
20
44.5
11
365.0625
21
44.5
0
LINE
8
top_outsideCutPath
10
365.0625
20
44.5
11
365.0625
21
48
0
LINE
8
top_outsideCutPath
10
365.0625
20
48
11
357.1875
21
48
0
LINE
8
top_outsideCutPath
10
357.1875
20
48
11
357.1875
21
44.5
0
LINE
8
top_outsideCutPath
10
357.1875
20
44.5
11
349.3125
21
44.5
0
LINE
8
top_outsideCutPath
10
349.3125
20
44.5
11
349.3125
21
48
0
LINE
8
top_outsideCutPath
10
349.3125
20
48
11
341.4375
21
48
0
LINE
8
top_outsideCutPath
10
341.4375
20
48
11
341.4375
21
44.5
0
LINE
8
top_outsideCutPath
10
341.4375
20
44.5
11
333.5625
21
44.5
0
LINE
8
top_outsideCutPath
10
333.5625
20
44.5
11
333.5625
21
48
0
LINE
8
top_outsideCutPath
10
333.5625
20
48
11
325.6875
21
48
0
LINE
8
top_outsideCutPath
10
325.6875
20
48
11
325.6875
21
44.5
0
LINE
8
top_outsideCutPath
10
325.6875
20
44.5
11
317.8125
21
44.5
0
LINE
8
top_outsideCutPath
10
317.8125
20
44.5
11
317.8125
21
48
0
LINE
8
top_outsideCutPath
10
317.8125
20
48
11
309.9375
21
48
0
LINE
8
top_outsideCutPath
10
309.9375
20
48
11
309.9375
21
44.5
0
LINE
8
top_outsideCutPath
10
309.9375
20
44.5
11
302.0625
21
44.5
0
LINE
8
top_outsideCutPath
10
302.0625
20
44.5
11
302.0625
21
48
0
LINE
8
top_outsideCutPath
10
302.0625
20
48
11
294.1875
21
48
0
LINE
8
top_outsideCutPath
10
294.1875
20
48
11
294.1875
21
44.5
0
LINE
8
top_outsideCutPath
10
294.1875
20
44.5
11
286.3125
21
44.5
0
LINE
8
top_outsideCutPath
10
286.3125
20
44.5
11
286.3125
21
48
0
LINE
8
top_outsideCutPath
10
286.3125
20
48
11
278.4375
21
48
0
LINE
8
top_outsideCutPath
10
278.4375
20
48
11
278.4375
21
44.5
0
LINE
8
top_outsideCutPath
10
278.4375
20
44.5
11
270.5625
21
44.5
0
LINE
8
top_outsideCutPath
10
270.5625
20
44.5
11
270.5625
21
48
0
LINE
8
top_outsideCutPath
10
270.5625
20
48
11
262.6875
21
48
0
LINE
8
top_outsideCutPath
10
262.6875
20
48
11
262.6875
21
44.5
0
LINE
8
top_outsideCutPath
10
262.6875
20
44.5
11
254.8125
21
44.5
0
LINE
8
top_outsideCutPath
10
254.8125
20
44.5
11
254.8125
21
48
0
LINE
8
top_outsideCutPath
10
254.8125
20
48
11
246.9375
21
48
0
LINE
8
top_outsideCutPath
10
246.9375
20
48
11
246.9375
21
44.5
0
LINE
8
top_outsideCutPath
10
246.9375
20
44.5
11
239.0625
21
44.5
0
LINE
8
top_outsideCutPath
10
239.0625
20
44.5
11
239.0625
21
48
0
LINE
8
top_outsideCutPath
10
239.0625
20
48
11
231.1875
21
48
0
LINE
8
top_outsideCutPath
10
231.1875
20
48
11
231.1875
21
44.5
0
LINE
8
top_outsideCutPath
10
231.1875
20
44.5
11
224.5
21
44.5
0
LINE
8
back_outsideCutPath
10
0
20
206
11
0
21
199.3125
0
LINE
8
back_outsideCutPath
10
0
20
199.3125
11
3.5
21
199.3125
0
LINE
8
back_outsideCutPath
10
3.5
20
199.3125
11
3.5
21
191.4375
0
LINE
8
back_outsideCutPath
10
3.5
20
191.4375
11
0
21
191.4375
0
LINE
8
back_outsideCutPath
10
0
20
191.4375
11
0
21
183.5625
0
LINE
8
back_outsideCutPath
10
0
20
183.5625
11
3.5
21
183.5625
0
LINE
8
back_outsideCutPath
10
3.5
20
183.5625
11
3.5
21
175.6875
0
LINE
8
back_outsideCutPath
10
3.5
20
175.6875
11
0
21
175.6875
0
LINE
8
back_outsideCutPath
10
0
20
175.6875
11
0
21
167.8125
0
LINE
8
back_outsideCutPath
10
0
20
167.8125
11
3.5
21
167.8125
0
LINE
8
back_outsideCutPath
10
3.5
20
167.8125
11
3.5
21
159.9375
0
LINE
8
back_outsideCutPath
10
3.5
20
159.9375
11
0
21
159.9375
0
LINE
8
back_outsideCutPath
10
0
20
159.9375
11
0
21
152.0625
0
LINE
8
back_outsideCutPath
10
0
20
152.0625
11
3.5
21
152.0625
0
LINE
8
back_outsideCutPath
10
3.5
20
152.0625
11
3.5
21
144.1875
0
LINE
8
back_outsideCutPath
10
3.5
20
144.1875
11
0
21
144.1875
0
LINE
8
back_outsideCutPath
10
0
20
144.1875
11
0
21
136.3125
0
LINE
8
back_outsideCutPath
10
0
20
136.3125
11
3.5
21
136.3125
0
LINE
8
back_outsideCutPath
10
3.5
20
136.3125
11
3.5
21
128.4375
0
LINE
8
back_outsideCutPath
10
3.5
20
128.4375
11
0
21
128.4375
0
LINE
8
back_outsideCutPath
10
0
20
128.4375
11
0
21
120.5625
0
LINE
8
back_outsideCutPath
10
0
20
120.5625
11
3.5
21
120.5625
0
LINE
8
back_outsideCutPath
10
3.5
20
120.5625
11
3.5
21
112.6875
0
LINE
8
back_outsideCutPath
10
3.5
20
112.6875
11
0
21
112.6875
0
LINE
8
back_outsideCutPath
10
0
20
112.6875
11
0
21
106
0
LINE
8
back_outsideCutPath
10
0
20
106
11
10.1875
21
106
0
LINE
8
back_outsideCutPath
10
10.1875
20
106
11
10.1875
21
109.5
0
LINE
8
back_outsideCutPath
10
10.1875
20
109.5
11
18.0625
21
109.5
0
LINE
8
back_outsideCutPath
10
18.0625
20
109.5
11
18.0625
21
106
0
LINE
8
back_outsideCutPath
10
18.0625
20
106
11
25.9375
21
106
0
LINE
8
back_outsideCutPath
10
25.9375
20
106
11
25.9375
21
109.5
0
LINE
8
back_outsideCutPath
10
25.9375
20
109.5
11
33.8125
21
109.5
0
LINE
8
back_outsideCutPath
10
33.8125
20
109.5
11
33.8125
21
106
0
LINE
8
back_outsideCutPath
10
33.8125
20
106
11
41.6875
21
106
0
LINE
8
back_outsideCutPath
10
41.6875
20
106
11
41.6875
21
109.5
0
LINE
8
back_outsideCutPath
10
41.6875
20
109.5
11
49.5625
21
109.5
0
LINE
8
back_outsideCutPath
10
49.5625
20
109.5
11
49.5625
21
106
0
LINE
8
back_outsideCutPath
10
49.5625
20
106
11
57.4375
21
106
0
LINE
8
back_outsideCutPath
10
57.4375
20
106
11
57.4375
21
109.5
0
LINE
8
back_outsideCutPath
10
57.4375
20
109.5
11
65.3125
21
109.5
0
LINE
8
back_outsideCutPath
10
65.3125
20
109.5
11
65.3125
21
106
0
LINE
8
back_outsideCutPath
10
65.3125
20
106
11
73.1875
21
106
0
LINE
8
back_outsideCutPath
10
73.1875
20
106
11
73.1875
21
109.5
0
LINE
8
back_outsideCutPath
10
73.1875
20
109.5
11
81.0625
21
109.5
0
LINE
8
back_outsideCutPath
10
81.0625
20
109.5
11
81.0625
21
106
0
LINE
8
back_outsideCutPath
10
81.0625
20
106
11
88.9375
21
106
0
LINE
8
back_outsideCutPath
10
88.9375
20
106
11
88.9375
21
109.5
0
LINE
8
back_outsideCutPath
10
88.9375
20
109.5
11
96.8125
21
109.5
0
LINE
8
back_outsideCutPath
10
96.8125
20
109.5
11
96.8125
21
106
0
LINE
8
back_outsideCutPath
10
96.8125
20
106
11
104.6875
21
106
0
LINE
8
back_outsideCutPath
10
104.6875
20
106
11
104.6875
21
109.5
0
LINE
8
back_outsideCutPath
10
104.6875
20
109.5
11
112.5625
21
109.5
0
LINE
8
back_outsideCutPath
10
112.5625
20
109.5
11
112.5625
21
106
0
LINE
8
back_outsideCutPath
10
112.5625
20
106
11
120.4375
21
106
0
LINE
8
back_outsideCutPath
10
120.4375
20
106
11
120.4375
21
109.5
0
LINE
8
back_outsideCutPath
10
120.4375
20
109.5
11
128.3125
21
109.5
0
LINE
8
back_outsideCutPath
10
128.3125
20
109.5
11
128.3125
21
106
0
LINE
8
back_outsideCutPath
10
128.3125
20
106
11
136.1875
21
106
0
LINE
8
back_outsideCutPath
10
136.1875
20
106
11
136.1875
21
109.5
0
LINE
8
back_outsideCutPath
10
136.1875
20
109.5
11
144.0625
21
109.5
0
LINE
8
back_outsideCutPath
10
144.0625
20
109.5
11
144.0625
21
106
0
LINE
8
back_outsideCutPath
10
144.0625
20
106
11
151.9375
21
106
0
LINE
8
back_outsideCutPath
10
151.9375
20
106
11
151.9375
21
109.5
0
LINE
8
back_outsideCutPath
10
151.9375
20
109.5
11
159.8125
21
109.5
0
LINE
8
back_outsideCutPath
10
159.8125
20
109.5
11
159.8125
21
106
0
LINE
8
back_outsideCutPath
10
159.8125
20
106
11
170
21
106
0
LINE
8
back_outsideCutPath
10
170
20
106
11
170
21
112.6875
0
LINE
8
back_outsideCutPath
10
170
20
112.6875
11
166.5
21
112.6875
0
LINE
8
back_outsideCutPath
10
166.5
20
112.6875
11
166.5
21
120.5625
0
LINE
8
back_outsideCutPath
10
166.5
20
120.5625
11
170
21
120.5625
0
LINE
8
back_outsideCutPath
10
170
20
120.5625
11
170
21
128.4375
0
LINE
8
back_outsideCutPath
10
170
20
128.4375
11
166.5
21
128.4375
0
LINE
8
back_outsideCutPath
10
166.5
20
128.4375
11
166.5
21
136.3125
0
LINE
8
back_outsideCutPath
10
166.5
20
136.3125
11
170
21
136.3125
0
LINE
8
back_outsideCutPath
10
170
20
136.3125
11
170
21
144.1875
0
LINE
8
back_outsideCutPath
10
170
20
144.1875
11
166.5
21
144.1875
0
LINE
8
back_outsideCutPath
10
166.5
20
144.1875
11
166.5
21
152.0625
0
LINE
8
back_outsideCutPath
10
166.5
20
152.0625
11
170
21
152.0625
0
LINE
8
back_outsideCutPath
10
170
20
152.0625
11
170
21
159.9375
0
LINE
8
back_outsideCutPath
10
170
20
159.9375
11
166.5
21
159.9375
0
LINE
8
back_outsideCutPath
10
166.5
20
159.9375
11
166.5
21
167.8125
0
LINE
8
back_outsideCutPath
10
166.5
20
167.8125
11
170
21
167.8125
0
LINE
8
back_outsideCutPath
10
170
20
167.8125
11
170
21
175.6875
0
LINE
8
back_outsideCutPath
10
170
20
175.6875
11
166.5
21
175.6875
0
LINE
8
back_outsideCutPath
10
166.5
20
175.6875
11
166.5
21
183.5625
0
LINE
8
back_outsideCutPath
10
166.5
20
183.5625
11
170
21
183.5625
0
LINE
8
back_outsideCutPath
10
170
20
183.5625
11
170
21
191.4375
0
LINE
8
back_outsideCutPath
10
170
20
191.4375
11
166.5
21
191.4375
0
LINE
8
back_outsideCutPath
10
166.5
20
191.4375
11
166.5
21
199.3125
0
LINE
8
back_outsideCutPath
10
166.5
20
199.3125
11
170
21
199.3125
0
LINE
8
back_outsideCutPath
10
170
20
199.3125
11
170
21
206
0
LINE
8
back_outsideCutPath
10
170
20
206
11
159.8125
21
206
0
LINE
8
back_outsideCutPath
10
159.8125
20
206
11
159.8125
21
202.5
0
LINE
8
back_outsideCutPath
10
159.8125
20
202.5
11
151.9375
21
202.5
0
LINE
8
back_outsideCutPath
10
151.9375
20
202.5
11
151.9375
21
206
0
LINE
8
back_outsideCutPath
10
151.9375
20
206
11
144.0625
21
206
0
LINE
8
back_outsideCutPath
10
144.0625
20
206
11
144.0625
21
202.5
0
LINE
8
back_outsideCutPath
10
144.0625
20
202.5
11
136.1875
21
202.5
0
LINE
8
back_outsideCutPath
10
136.1875
20
202.5
11
136.1875
21
206
0
LINE
8
back_outsideCutPath
10
136.1875
20
206
11
128.3125
21
206
0
LINE
8
back_outsideCutPath
10
128.3125
20
206
11
128.3125
21
202.5
0
LINE
8
back_outsideCutPath
10
128.3125
20
202.5
11
120.4375
21
202.5
0
LINE
8
back_outsideCutPath
10
120.4375
20
202.5
11
120.4375
21
206
0
LINE
8
back_outsideCutPath
10
120.4375
20
206
11
112.5625
21
206
0
LINE
8
back_outsideCutPath
10
112.5625
20
206
11
112.5625
21
202.5
0
LINE
8
back_outsideCutPath
10
112.5625
20
202.5
11
104.6875
21
202.5
0
LINE
8
back_outsideCutPath
10
104.6875
20
202.5
11
104.6875
21
206
0
LINE
8
back_outsideCutPath
10
104.6875
20
206
11
96.8125
21
206
0
LINE
8
back_outsideCutPath
10
96.8125
20
206
11
96.8125
21
202.5
0
LINE
8
back_outsideCutPath
10
96.8125
20
202.5
11
88.9375
21
202.5
0
LINE
8
back_outsideCutPath
10
88.9375
20
202.5
11
88.9375
21
206
0
LINE
8
back_outsideCutPath
10
88.9375
20
206
11
81.0625
21
206
0
LINE
8
back_outsideCutPath
10
81.0625
20
206
11
81.0625
21
202.5
0
LINE
8
back_outsideCutPath
10
81.0625
20
202.5
11
73.1875
21
202.5
0
LINE
8
back_outsideCutPath
10
73.1875
20
202.5
11
73.1875
21
206
0
LINE
8
back_outsideCutPath
10
73.1875
20
206
11
65.3125
21
206
0
LINE
8
back_outsideCutPath
10
65.3125
20
206
11
65.3125
21
202.5
0
LINE
8
back_outsideCutPath
10
65.3125
20
202.5
11
57.4375
21
202.5
0
LINE
8
back_outsideCutPath
10
57.4375
20
202.5
11
57.4375
21
206
0
LINE
8
back_outsideCutPath
10
57.4375
20
206
11
49.5625
21
206
0
LINE
8
back_outsideCutPath
10
49.5625
20
206
11
49.5625
21
202.5
0
LINE
8
back_outsideCutPath
10
49.5625
20
202.5
11
41.6875
21
202.5
0
LINE
8
back_outsideCutPath
10
41.6875
20
202.5
11
41.6875
21
206
0
LINE
8
back_outsideCutPath
10
41.6875
20
206
11
33.8125
21
206
0
LINE
8
back_outsideCutPath
10
33.8125
20
206
11
33.8125
21
202.5
0
LINE
8
back_outsideCutPath
10
33.8125
20
202.5
11
25.9375
21
202.5
0
LINE
8
back_outsideCutPath
10
25.9375
20
202.5
11
25.9375
21
206
0
LINE
8
back_outsideCutPath
10
25.9375
20
206
11
18.0625
21
206
0
LINE
8
back_outsideCutPath
10
18.0625
20
206
11
18.0625
21
202.5
0
LINE
8
back_outsideCutPath
10
18.0625
20
202.5
11
10.1875
21
202.5
0
LINE
8
back_outsideCutPath
10
10.1875
20
202.5
11
10.1875
21
206
0
LINE
8
back_outsideCutPath
10
10.1875
20
206
11
0
21
206
0
LINE
8
right_outsideCutPath
10
176.5
20
206
11
176.5
21
199.3125
0
LINE
8
right_outsideCutPath
10
176.5
20
199.3125
11
173
21
199.3125
0
LINE
8
right_outsideCutPath
10
173
20
199.3125
11
173
21
191.4375
0
LINE
8
right_outsideCutPath
10
173
20
191.4375
11
176.5
21
191.4375
0
LINE
8
right_outsideCutPath
10
176.5
20
191.4375
11
176.5
21
183.5625
0
LINE
8
right_outsideCutPath
10
176.5
20
183.5625
11
173
21
183.5625
0
LINE
8
right_outsideCutPath
10
173
20
183.5625
11
173
21
175.6875
0
LINE
8
right_outsideCutPath
10
173
20
175.6875
11
176.5
21
175.6875
0
LINE
8
right_outsideCutPath
10
176.5
20
175.6875
11
176.5
21
167.8125
0
LINE
8
right_outsideCutPath
10
176.5
20
167.8125
11
173
21
167.8125
0
LINE
8
right_outsideCutPath
10
173
20
167.8125
11
173
21
159.9375
0
LINE
8
right_outsideCutPath
10
173
20
159.9375
11
176.5
21
159.9375
0
LINE
8
right_outsideCutPath
10
176.5
20
159.9375
11
176.5
21
152.0625
0
LINE
8
right_outsideCutPath
10
176.5
20
152.0625
11
173
21
152.0625
0
LINE
8
right_outsideCutPath
10
173
20
152.0625
11
173
21
144.1875
0
LINE
8
right_outsideCutPath
10
173
20
144.1875
11
176.5
21
144.1875
0
LINE
8
right_outsideCutPath
10
176.5
20
144.1875
11
176.5
21
136.3125
0
LINE
8
right_outsideCutPath
10
176.5
20
136.3125
11
173
21
136.3125
0
LINE
8
right_outsideCutPath
10
173
20
136.3125
11
173
21
128.4375
0
LINE
8
right_outsideCutPath
10
173
20
128.4375
11
176.5
21
128.4375
0
LINE
8
right_outsideCutPath
10
176.5
20
128.4375
11
176.5
21
120.5625
0
LINE
8
right_outsideCutPath
10
176.5
20
120.5625
11
173
21
120.5625
0
LINE
8
right_outsideCutPath
10
173
20
120.5625
11
173
21
112.6875
0
LINE
8
right_outsideCutPath
10
173
20
112.6875
11
176.5
21
112.6875
0
LINE
8
right_outsideCutPath
10
176.5
20
112.6875
11
176.5
21
106
0
LINE
8
right_outsideCutPath
10
176.5
20
106
11
183.6875
21
106
0
LINE
8
right_outsideCutPath
10
183.6875
20
106
11
183.6875
21
109.5
0
LINE
8
right_outsideCutPath
10
183.6875
20
109.5
11
191.5625
21
109.5
0
LINE
8
right_outsideCutPath
10
191.5625
20
109.5
11
191.5625
21
106
0
LINE
8
right_outsideCutPath
10
191.5625
20
106
11
199.4375
21
106
0
LINE
8
right_outsideCutPath
10
199.4375
20
106
11
199.4375
21
109.5
0
LINE
8
right_outsideCutPath
10
199.4375
20
109.5
11
207.3125
21
109.5
0
LINE
8
right_outsideCutPath
10
207.3125
20
109.5
11
207.3125
21
106
0
LINE
8
right_outsideCutPath
10
207.3125
20
106
11
214.5
21
106
0
LINE
8
right_outsideCutPath
10
214.5
20
106
11
214.5
21
112.6875
0
LINE
8
right_outsideCutPath
10
214.5
20
112.6875
11
218
21
112.6875
0
LINE
8
right_outsideCutPath
10
218
20
112.6875
11
218
21
120.5625
0
LINE
8
right_outsideCutPath
10
218
20
120.5625
11
214.5
21
120.5625
0
LINE
8
right_outsideCutPath
10
214.5
20
120.5625
11
214.5
21
128.4375
0
LINE
8
right_outsideCutPath
10
214.5
20
128.4375
11
218
21
128.4375
0
LINE
8
right_outsideCutPath
10
218
20
128.4375
11
218
21
136.3125
0
LINE
8
right_outsideCutPath
10
218
20
136.3125
11
214.5
21
136.3125
0
LINE
8
right_outsideCutPath
10
214.5
20
136.3125
11
214.5
21
144.1875
0
LINE
8
right_outsideCutPath
10
214.5
20
144.1875
11
218
21
144.1875
0
LINE
8
right_outsideCutPath
10
218
20
144.1875
11
218
21
152.0625
0
LINE
8
right_outsideCutPath
10
218
20
152.0625
11
214.5
21
152.0625
0
LINE
8
right_outsideCutPath
10
214.5
20
152.0625
11
214.5
21
159.9375
0
LINE
8
right_outsideCutPath
10
214.5
20
159.9375
11
218
21
159.9375
0
LINE
8
right_outsideCutPath
10
218
20
159.9375
11
218
21
167.8125
0
LINE
8
right_outsideCutPath
10
218
20
167.8125
11
214.5
21
167.8125
0
LINE
8
right_outsideCutPath
10
214.5
20
167.8125
11
214.5
21
175.6875
0
LINE
8
right_outsideCutPath
10
214.5
20
175.6875
11
218
21
175.6875
0
LINE
8
right_outsideCutPath
10
218
20
175.6875
11
218
21
183.5625
0
LINE
8
right_outsideCutPath
10
218
20
183.5625
11
214.5
21
183.5625
0
LINE
8
right_outsideCutPath
10
214.5
20
183.5625
11
214.5
21
191.4375
0
LINE
8
right_outsideCutPath
10
214.5
20
191.4375
11
218
21
191.4375
0
LINE
8
right_outsideCutPath
10
218
20
191.4375
11
218
21
199.3125
0
LINE
8
right_outsideCutPath
10
218
20
199.3125
11
214.5
21
199.3125
0
LINE
8
right_outsideCutPath
10
214.5
20
199.3125
11
214.5
21
206
0
LINE
8
right_outsideCutPath
10
214.5
20
206
11
207.3125
21
206
0
LINE
8
right_outsideCutPath
10
207.3125
20
206
11
207.3125
21
202.5
0
LINE
8
right_outsideCutPath
10
207.3125
20
202.5
11
199.4375
21
202.5
0
LINE
8
right_outsideCutPath
10
199.4375
20
202.5
11
199.4375
21
206
0
LINE
8
right_outsideCutPath
10
199.4375
20
206
11
191.5625
21
206
0
LINE
8
right_outsideCutPath
10
191.5625
20
206
11
191.5625
21
202.5
0
LINE
8
right_outsideCutPath
10
191.5625
20
202.5
11
183.6875
21
202.5
0
LINE
8
right_outsideCutPath
10
183.6875
20
202.5
11
183.6875
21
206
0
LINE
8
right_outsideCutPath
10
183.6875
20
206
11
176.5
21
206
0
LINE
8
bottom_outsideCutPath
10
224.5
20
92.5
11
224.5
21
85.3125
0
LINE
8
bottom_outsideCutPath
10
224.5
20
85.3125
11
221
21
85.3125
0
LINE
8
bottom_outsideCutPath
10
221
20
85.3125
11
221
21
77.4375
0
LINE
8
bottom_outsideCutPath
10
221
20
77.4375
11
224.5
21
77.4375
0
LINE
8
bottom_outsideCutPath
10
224.5
20
77.4375
11
224.5
21
69.5625
0
LINE
8
bottom_outsideCutPath
10
224.5
20
69.5625
11
221
21
69.5625
0
LINE
8
bottom_outsideCutPath
10
221
20
69.5625
11
221
21
61.6875
0
LINE
8
bottom_outsideCutPath
10
221
20
61.6875
11
224.5
21
61.6875
0
LINE
8
bottom_outsideCutPath
10
224.5
20
61.6875
11
224.5
21
54.5
0
LINE
8
bottom_outsideCutPath
10
224.5
20
54.5
11
231.1875
21
54.5
0
LINE
8
bottom_outsideCutPath
10
231.1875
20
54.5
11
231.1875
21
51
0
LINE
8
bottom_outsideCutPath
10
231.1875
20
51
11
239.0625
21
51
0
LINE
8
bottom_outsideCutPath
10
239.0625
20
51
11
239.0625
21
54.5
0
LINE
8
bottom_outsideCutPath
10
239.0625
20
54.5
11
246.9375
21
54.5
0
LINE
8
bottom_outsideCutPath
10
246.9375
20
54.5
11
246.9375
21
51
0
LINE
8
bottom_outsideCutPath
10
246.9375
20
51
11
254.8125
21
51
0
LINE
8
bottom_outsideCutPath
10
254.8125
20
51
11
254.8125
21
54.5
0
LINE
8
bottom_outsideCutPath
10
254.8125
20
54.5
11
262.6875
21
54.5
0
LINE
8
bottom_outsideCutPath
10
262.6875
20
54.5
11
262.6875
21
51
0
LINE
8
bottom_outsideCutPath
10
262.6875
20
51
11
270.5625
21
51
0
LINE
8
bottom_outsideCutPath
10
270.5625
20
51
11
270.5625
21
54.5
0
LINE
8
bottom_outsideCutPath
10
270.5625
20
54.5
11
278.4375
21
54.5
0
LINE
8
bottom_outsideCutPath
10
278.4375
20
54.5
11
278.4375
21
51
0
LINE
8
bottom_outsideCutPath
10
278.4375
20
51
11
286.3125
21
51
0
LINE
8
bottom_outsideCutPath
10
286.3125
20
51
11
286.3125
21
54.5
0
LINE
8
bottom_outsideCutPath
10
286.3125
20
54.5
11
294.1875
21
54.5
0
LINE
8
bottom_outsideCutPath
10
294.1875
20
54.5
11
294.1875
21
51
0
LINE
8
bottom_outsideCutPath
10
294.1875
20
51
11
302.0625
21
51
0
LINE
8
bottom_outsideCutPath
10
302.0625
20
51
11
302.0625
21
54.5
0
LINE
8
bottom_outsideCutPath
10
302.0625
20
54.5
11
309.9375
21
54.5
0
LINE
8
bottom_outsideCutPath
10
309.9375
20
54.5
11
309.9375
21
51
0
LINE
8
bottom_outsideCutPath
10
309.9375
20
51
11
317.8125
21
51
0
LINE
8
bottom_outsideCutPath
10
317.8125
20
51
11
317.8125
21
54.5
0
LINE
8
bottom_outsideCutPath
10
317.8125
20
54.5
11
325.6875
21
54.5
0
LINE
8
bottom_outsideCutPath
10
325.6875
20
54.5
11
325.6875
21
51
0
LINE
8
bottom_outsideCutPath
10
325.6875
20
51
11
333.5625
21
51
0
LINE
8
bottom_outsideCutPath
10
333.5625
20
51
11
333.5625
21
54.5
0
LINE
8
bottom_outsideCutPath
10
333.5625
20
54.5
11
341.4375
21
54.5
0
LINE
8
bottom_outsideCutPath
10
341.4375
20
54.5
11
341.4375
21
51
0
LINE
8
bottom_outsideCutPath
10
341.4375
20
51
11
349.3125
21
51
0
LINE
8
bottom_outsideCutPath
10
349.3125
20
51
11
349.3125
21
54.5
0
LINE
8
bottom_outsideCutPath
10
349.3125
20
54.5
11
357.1875
21
54.5
0
LINE
8
bottom_outsideCutPath
10
357.1875
20
54.5
11
357.1875
21
51
0
LINE
8
bottom_outsideCutPath
10
357.1875
20
51
11
365.0625
21
51
0
LINE
8
bottom_outsideCutPath
10
365.0625
20
51
11
365.0625
21
54.5
0
LINE
8
bottom_outsideCutPath
10
365.0625
20
54.5
11
372.9375
21
54.5
0
LINE
8
bottom_outsideCutPath
10
372.9375
20
54.5
11
372.9375
21
51
0
LINE
8
bottom_outsideCutPath
10
372.9375
20
51
11
380.8125
21
51
0
LINE
8
bottom_outsideCutPath
10
380.8125
20
51
11
380.8125
21
54.5
0
LINE
8
bottom_outsideCutPath
10
380.8125
20
54.5
11
387.5
21
54.5
0
LINE
8
bottom_outsideCutPath
10
387.5
20
54.5
11
387.5
21
61.6875
0
LINE
8
bottom_outsideCutPath
10
387.5
20
61.6875
11
391
21
61.6875
0
LINE
8
bottom_outsideCutPath
10
391
20
61.6875
11
391
21
69.5625
0
LINE
8
bottom_outsideCutPath
10
391
20
69.5625
11
387.5
21
69.5625
0
LINE
8
bottom_outsideCutPath
10
387.5
20
69.5625
11
387.5
21
77.4375
0
LINE
8
bottom_outsideCutPath
10
387.5
20
77.4375
11
391
21
77.4375
0
LINE
8
bottom_outsideCutPath
10
391
20
77.4375
11
391
21
85.3125
0
LINE
8
bottom_outsideCutPath
10
391
20
85.3125
11
387.5
21
85.3125
0
LINE
8
bottom_outsideCutPath
10
387.5
20
85.3125
11
387.5
21
92.5
0
LINE
8
bottom_outsideCutPath
10
387.5
20
92.5
11
380.8125
21
92.5
0
LINE
8
bottom_outsideCutPath
10
380.8125
20
92.5
11
380.8125
21
96
0
LINE
8
bottom_outsideCutPath
10
380.8125
20
96
11
372.9375
21
96
0
LINE
8
bottom_outsideCutPath
10
372.9375
20
96
11
372.9375
21
92.5
0
LINE
8
bottom_outsideCutPath
10
372.9375
20
92.5
11
365.0625
21
92.5
0
LINE
8
bottom_outsideCutPath
10
365.0625
20
92.5
11
365.0625
21
96
0
LINE
8
bottom_outsideCutPath
10
365.0625
20
96
11
357.1875
21
96
0
LINE
8
bottom_outsideCutPath
10
357.1875
20
96
11
357.1875
21
92.5
0
LINE
8
bottom_outsideCutPath
10
357.1875
20
92.5
11
349.3125
21
92.5
0
LINE
8
bottom_outsideCutPath
10
349.3125
20
92.5
11
349.3125
21
96
0
LINE
8
bottom_outsideCutPath
10
349.3125
20
96
11
341.4375
21
96
0
LINE
8
bottom_outsideCutPath
10
341.4375
20
96
11
341.4375
21
92.5
0
LINE
8
bottom_outsideCutPath
10
341.4375
20
92.5
11
333.5625
21
92.5
0
LINE
8
bottom_outsideCutPath
10
333.5625
20
92.5
11
333.5625
21
96
0
LINE
8
bottom_outsideCutPath
10
333.5625
20
96
11
325.6875
21
96
0
LINE
8
bottom_outsideCutPath
10
325.6875
20
96
11
325.6875
21
92.5
0
LINE
8
bottom_outsideCutPath
10
325.6875
20
92.5
11
317.8125
21
92.5
0
LINE
8
bottom_outsideCutPath
10
317.8125
20
92.5
11
317.8125
21
96
0
LINE
8
bottom_outsideCutPath
10
317.8125
20
96
11
309.9375
21
96
0
LINE
8
bottom_outsideCutPath
10
309.9375
20
96
11
309.9375
21
92.5
0
LINE
8
bottom_outsideCutPath
10
309.9375
20
92.5
11
302.0625
21
92.5
0
LINE
8
bottom_outsideCutPath
10
302.0625
20
92.5
11
302.0625
21
96
0
LINE
8
bottom_outsideCutPath
10
302.0625
20
96
11
294.1875
21
96
0
LINE
8
bottom_outsideCutPath
10
294.1875
20
96
11
294.1875
21
92.5
0
LINE
8
bottom_outsideCutPath
10
294.1875
20
92.5
11
286.3125
21
92.5
0
LINE
8
bottom_outsideCutPath
10
286.3125
20
92.5
11
286.3125
21
96
0
LINE
8
bottom_outsideCutPath
10
286.3125
20
96
11
278.4375
21
96
0
LINE
8
bottom_outsideCutPath
10
278.4375
20
96
11
278.4375
21
92.5
0
LINE
8
bottom_outsideCutPath
10
278.4375
20
92.5
11
270.5625
21
92.5
0
LINE
8
bottom_outsideCutPath
10
270.5625
20
92.5
11
270.5625
21
96
0
LINE
8
bottom_outsideCutPath
10
270.5625
20
96
11
262.6875
21
96
0
LINE
8
bottom_outsideCutPath
10
262.6875
20
96
11
262.6875
21
92.5
0
LINE
8
bottom_outsideCutPath
10
262.6875
20
92.5
11
254.8125
21
92.5
0
LINE
8
bottom_outsideCutPath
10
254.8125
20
92.5
11
254.8125
21
96
0
LINE
8
bottom_outsideCutPath
10
254.8125
20
96
11
246.9375
21
96
0
LINE
8
bottom_outsideCutPath
10
246.9375
20
96
11
246.9375
21
92.5
0
LINE
8
bottom_outsideCutPath
10
246.9375
20
92.5
11
239.0625
21
92.5
0
LINE
8
bottom_outsideCutPath
10
239.0625
20
92.5
11
239.0625
21
96
0
LINE
8
bottom_outsideCutPath
10
239.0625
20
96
11
231.1875
21
96
0
LINE
8
bottom_outsideCutPath
10
231.1875
20
96
11
231.1875
21
92.5
0
LINE
8
bottom_outsideCutPath
10
231.1875
20
92.5
11
224.5
21
92.5
0
ENDSEC
0
EOF