  0
SECTION
  2
HEADER
  9
$ACADVER
  1
AC1009
  0
ENDSEC
  0
SECTION
  2
ENTITIES
  0
POLYLINE
  5
90
  8
Layer_0
  70
1
  66
1
  10
0
  20
0
  30
0
  0
VERTEX
  5
90
  8
Layer_0
  10
149.70416
  20
392.40854
  0
VERTEX
  5
91
  8
Layer_0
  10
149.6604
  20
394.13824
  0
VERTEX
  5
92
  8
Layer_0
  10
149.53064
  20
395.84521
  0
VERTEX
  5
93
  8
Layer_0
  10
149.31683
  20
397.5274
  0
VERTEX
  5
94
  8
Layer_0
  10
149.02124
  20
399.18265
  0
VERTEX
  5
95
  8
Layer_0
  10
148.64587
  20
400.80887
  0
VERTEX
  5
96
  8
Layer_0
  10
148.19299
  20
402.4039
  0
VERTEX
  5
97
  8
Layer_0
  10
147.66455
  20
403.9657
  0
VERTEX
  5
98
  8
Layer_0
  10
147.06262
  20
405.4921
  0
VERTEX
  5
99
  8
Layer_0
  10
146.38947
  20
406.98102
  0
VERTEX
  5
9a
  8
Layer_0
  10
145.64722
  20
408.43033
  0
VERTEX
  5
9b
  8
Layer_0
  10
144.83789
  20
409.83792
  0
VERTEX
  5
9c
  8
Layer_0
  10
143.96356
  20
411.20169
  0
VERTEX
  5
9d
  8
Layer_0
  10
143.02643
  20
412.51953
  0
VERTEX
  5
9e
  8
Layer_0
  10
142.02863
  20
413.78931
  0
VERTEX
  5
9f
  8
Layer_0
  10
140.97217
  20
415.00891
  0
VERTEX
  5
a0
  8
Layer_0
  10
139.85919
  20
416.17627
  0
VERTEX
  5
a1
  8
Layer_0
  10
138.69183
  20
417.28925
  0
VERTEX
  5
a2
  8
Layer_0
  10
137.47223
  20
418.3457
  0
VERTEX
  5
a3
  8
Layer_0
  10
136.20245
  20
419.34357
  0
VERTEX
  5
a4
  8
Layer_0
  10
134.88464
  20
420.2807
  0
VERTEX
  5
a5
  8
Layer_0
  10
133.52087
  20
421.15497
  0
VERTEX
  5
a6
  8
Layer_0
  10
132.11328
  20
421.96432
  0
VERTEX
  5
a7
  8
Layer_0
  10
130.664
  20
422.70663
  0
VERTEX
  5
a8
  8
Layer_0
  10
129.17505
  20
423.37976
  0
VERTEX
  5
a9
  8
Layer_0
  10
127.64862
  20
423.9816
  0
VERTEX
  5
aa
  8
Layer_0
  10
126.08679
  20
424.51007
  0
VERTEX
  5
ab
  8
Layer_0
  10
124.49176
  20
424.96298
  0
VERTEX
  5
ac
  8
Layer_0
  10
122.8656
  20
425.33832
  0
VERTEX
  5
ad
  8
Layer_0
  10
121.21033
  20
425.63391
  0
VERTEX
  5
ae
  8
Layer_0
  10
119.5282
  20
425.84766
  0
VERTEX
  5
af
  8
Layer_0
  10
117.82117
  20
425.97748
  0
VERTEX
  5
b0
  8
Layer_0
  10
116.09149
  20
426.02121
  0
VERTEX
  5
b1
  8
Layer_0
  10
114.36182
  20
425.97748
  0
VERTEX
  5
b2
  8
Layer_0
  10
112.65479
  20
425.84766
  0
VERTEX
  5
b3
  8
Layer_0
  10
110.97266
  20
425.63391
  0
VERTEX
  5
b4
  8
Layer_0
  10
109.31738
  20
425.33832
  0
VERTEX
  5
b5
  8
Layer_0
  10
107.69122
  20
424.96298
  0
VERTEX
  5
b6
  8
Layer_0
  10
106.09619
  20
424.51007
  0
VERTEX
  5
b7
  8
Layer_0
  10
104.53436
  20
423.9816
  0
VERTEX
  5
b8
  8
Layer_0
  10
103.00793
  20
423.37976
  0
VERTEX
  5
b9
  8
Layer_0
  10
101.51898
  20
422.70663
  0
VERTEX
  5
ba
  8
Layer_0
  10
100.0697
  20
421.96432
  0
VERTEX
  5
bb
  8
Layer_0
  10
98.662109
  20
421.15497
  0
VERTEX
  5
bc
  8
Layer_0
  10
97.29834
  20
420.2807
  0
VERTEX
  5
bd
  8
Layer_0
  10
95.98053
  20
419.34357
  0
VERTEX
  5
be
  8
Layer_0
  10
94.710693
  20
418.3457
  0
VERTEX
  5
bf
  8
Layer_0
  10
93.491089
  20
417.28925
  0
VERTEX
  5
c0
  8
Layer_0
  10
92.32373
  20
416.17627
  0
VERTEX
  5
c1
  8
Layer_0
  10
91.210815
  20
415.00891
  0
VERTEX
  5
c2
  8
Layer_0
  10
90.154297
  20
413.78931
  0
VERTEX
  5
c3
  8
Layer_0
  10
89.156494
  20
412.51953
  0
VERTEX
  5
c4
  8
Layer_0
  10
88.21936
  20
411.20169
  0
VERTEX
  5
c5
  8
Layer_0
  10
87.345093
  20
409.83792
  0
VERTEX
  5
c6
  8
Layer_0
  10
86.535645
  20
408.43033
  0
VERTEX
  5
c7
  8
Layer_0
  10
85.793396
  20
406.98102
  0
VERTEX
  5
c8
  8
Layer_0
  10
85.1203
  20
405.4921
  0
VERTEX
  5
c9
  8
Layer_0
  10
84.518433
  20
403.9657
  0
VERTEX
  5
ca
  8
Layer_0
  10
83.98999
  20
402.4039
  0
VERTEX
  5
cb
  8
Layer_0
  10
83.537109
  20
400.80887
  0
VERTEX
  5
cc
  8
Layer_0
  10
83.161743
  20
399.18265
  0
VERTEX
  5
cd
  8
Layer_0
  10
82.86615
  20
397.5274
  0
VERTEX
  5
ce
  8
Layer_0
  10
82.652344
  20
395.84521
  0
VERTEX
  5
cf
  8
Layer_0
  10
82.522583
  20
394.13824
  0
VERTEX
  5
d0
  8
Layer_0
  10
82.478821
  20
392.40854
  0
VERTEX
  5
d1
  8
Layer_0
  10
82.522583
  20
390.67883
  0
VERTEX
  5
d2
  8
Layer_0
  10
82.652344
  20
388.97183
  0
VERTEX
  5
d3
  8
Layer_0
  10
82.86615
  20
387.28964
  0
VERTEX
  5
d4
  8
Layer_0
  10
83.161743
  20
385.6344
  0
VERTEX
  5
d5
  8
Layer_0
  10
83.537109
  20
384.00818
  0
VERTEX
  5
d6
  8
Layer_0
  10
83.98999
  20
382.41315
  0
VERTEX
  5
d7
  8
Layer_0
  10
84.518433
  20
380.85138
  0
VERTEX
  5
d8
  8
Layer_0
  10
85.1203
  20
379.32495
  0
VERTEX
  5
d9
  8
Layer_0
  10
85.793396
  20
377.83606
  0
VERTEX
  5
da
  8
Layer_0
  10
86.535645
  20
376.38672
  0
VERTEX
  5
db
  8
Layer_0
  10
87.345093
  20
374.97913
  0
VERTEX
  5
dc
  8
Layer_0
  10
88.21936
  20
373.61536
  0
VERTEX
  5
dd
  8
Layer_0
  10
89.156494
  20
372.29752
  0
VERTEX
  5
de
  8
Layer_0
  10
90.154297
  20
371.02774
  0
VERTEX
  5
df
  8
Layer_0
  10
91.210815
  20
369.80814
  0
VERTEX
  5
e0
  8
Layer_0
  10
92.32373
  20
368.64078
  0
VERTEX
  5
e1
  8
Layer_0
  10
93.491089
  20
367.5278
  0
VERTEX
  5
e2
  8
Layer_0
  10
94.710693
  20
366.47134
  0
VERTEX
  5
e3
  8
Layer_0
  10
95.98053
  20
365.47351
  0
VERTEX
  5
e4
  8
Layer_0
  10
97.29834
  20
364.53638
  0
VERTEX
  5
e5
  8
Layer_0
  10
98.662109
  20
363.66208
  0
VERTEX
  5
e6
  8
Layer_0
  10
100.0697
  20
362.85272
  0
VERTEX
  5
e7
  8
Layer_0
  10
101.51898
  20
362.11044
  0
VERTEX
  5
e8
  8
Layer_0
  10
103.00793
  20
361.43732
  0
VERTEX
  5
e9
  8
Layer_0
  10
104.53436
  20
360.83548
  0
VERTEX
  5
ea
  8
Layer_0
  10
106.09619
  20
360.30701
  0
VERTEX
  5
eb
  8
Layer_0
  10
107.69122
  20
359.8541
  0
VERTEX
  5
ec
  8
Layer_0
  10
109.31738
  20
359.47876
  0
VERTEX
  5
ed
  8
Layer_0
  10
110.97266
  20
359.18317
  0
VERTEX
  5
ee
  8
Layer_0
  10
112.65479
  20
358.96942
  0
VERTEX
  5
ef
  8
Layer_0
  10
114.36182
  20
358.8396
  0
VERTEX
  5
f0
  8
Layer_0
  10
116.09149
  20
358.79587
  0
VERTEX
  5
f1
  8
Layer_0
  10
117.82117
  20
358.8396
  0
VERTEX
  5
f2
  8
Layer_0
  10
119.5282
  20
358.96942
  0
VERTEX
  5
f3
  8
Layer_0
  10
121.21033
  20
359.18317
  0
VERTEX
  5
f4
  8
Layer_0
  10
122.8656
  20
359.47876
  0
VERTEX
  5
f5
  8
Layer_0
  10
124.49176
  20
359.8541
  0
VERTEX
  5
f6
  8
Layer_0
  10
126.08679
  20
360.30701
  0
VERTEX
  5
f7
  8
Layer_0
  10
127.64862
  20
360.83548
  0
VERTEX
  5
f8
  8
Layer_0
  10
129.17505
  20
361.43732
  0
VERTEX
  5
f9
  8
Layer_0
  10
130.664
  20
362.11044
  0
VERTEX
  5
fa
  8
Layer_0
  10
132.11328
  20
362.85272
  0
VERTEX
  5
fb
  8
Layer_0
  10
133.52087
  20
363.66208
  0
VERTEX
  5
fc
  8
Layer_0
  10
134.88464
  20
364.53638
  0
VERTEX
  5
fd
  8
Layer_0
  10
136.20245
  20
365.47351
  0
VERTEX
  5
fe
  8
Layer_0
  10
137.47223
  20
366.47134
  0
VERTEX
  5
ff
  8
Layer_0
  10
138.69183
  20
367.5278
  0
VERTEX
  5
100
  8
Layer_0
  10
139.85919
  20
368.64078
  0
VERTEX
  5
101
  8
Layer_0
  10
140.97217
  20
369.80814
  0
VERTEX
  5
102
  8
Layer_0
  10
142.02863
  20
371.02774
  0
VERTEX
  5
103
  8
Layer_0
  10
143.02643
  20
372.29752
  0
VERTEX
  5
104
  8
Layer_0
  10
143.96356
  20
373.61536
  0
VERTEX
  5
105
  8
Layer_0
  10
144.83789
  20
374.97913
  0
VERTEX
  5
106
  8
Layer_0
  10
145.64722
  20
376.38672
  0
VERTEX
  5
107
  8
Layer_0
  10
146.38947
  20
377.83606
  0
VERTEX
  5
108
  8
Layer_0
  10
147.06262
  20
379.32495
  0
VERTEX
  5
109
  8
Layer_0
  10
147.66455
  20
380.85138
  0
VERTEX
  5
10a
  8
Layer_0
  10
148.19299
  20
382.41315
  0
VERTEX
  5
10b
  8
Layer_0
  10
148.64587
  20
384.00818
  0
VERTEX
  5
10c
  8
Layer_0
  10
149.02124
  20
385.6344
  0
VERTEX
  5
10d
  8
Layer_0
  10
149.31683
  20
387.28964
  0
VERTEX
  5
10e
  8
Layer_0
  10
149.53064
  20
388.97183
  0
VERTEX
  5
10f
  8
Layer_0
  10
149.6604
  20
390.67883
  0
VERTEX
  5
110
  8
Layer_0
  10
149.70416
  20
392.40854
  0
SEQEND
  0
POLYLINE
  5
112
  8
Layer_1
  70
1
  66
1
  10
0
  20
0
  30
0
  0
VERTEX
  5
112
  8
Layer_1
  10
114.76202
  20
424.892
  0
VERTEX
  5
113
  8
Layer_1
  10
113.34296
  20
424.80286
  0
VERTEX
  5
114
  8
Layer_1
  10
111.92987
  20
424.65176
  0
VERTEX
  5
115
  8
Layer_1
  10
110.52478
  20
424.43903
  0
VERTEX
  5
116
  8
Layer_1
  10
109.12958
  20
424.16495
  0
VERTEX
  5
117
  8
Layer_1
  10
107.74768
  20
423.83014
  0
VERTEX
  5
118
  8
Layer_1
  10
106.38245
  20
423.43536
  0
VERTEX
  5
119
  8
Layer_1
  10
105.03577
  20
422.98132
  0
VERTEX
  5
11a
  8
Layer_1
  10
103.70953
  20
422.4686
  0
VERTEX
  5
11b
  8
Layer_1
  10
102.4071
  20
421.89832
  0
VERTEX
  5
11c
  8
Layer_1
  10
101.13141
  20
421.27191
  0
VERTEX
  5
11d
  8
Layer_1
  10
99.884338
  20
420.59033
  0
VERTEX
  5
11e
  8
Layer_1
  10
98.667664
  20
419.85449
  0
VERTEX
  5
11f
  8
Layer_1
  10
97.484314
  20
419.06619
  0
VERTEX
  5
120
  8
Layer_1
  10
96.337158
  20
418.22729
  0
VERTEX
  5
121
  8
Layer_1
  10
95.227783
  20
417.33905
  0
VERTEX
  5
122
  8
Layer_1
  10
94.157776
  20
416.40271
  0
VERTEX
  5
123
  8
Layer_1
  10
114.76202
  20
424.892
  0
SEQEND
  0
POLYLINE
  5
125
  8
Layer_1
  70
1
  66
1
  10
0
  20
0
  30
0
  0
VERTEX
  5
125
  8
Layer_1
  10
90.870361
  20
412.91791
  0
VERTEX
  5
126
  8
Layer_1
  10
90.575439
  20
412.55515
  0
VERTEX
  5
127
  8
Layer_1
  10
90.291138
  20
412.18393
  0
VERTEX
  5
128
  8
Layer_1
  10
90.006836
  20
411.81287
  0
VERTEX
  5
129
  8
Layer_1
  10
89.733276
  20
411.43372
  0
VERTEX
  5
12a
  8
Layer_1
  10
89.459778
  20
411.0545
  0
VERTEX
  5
12b
  8
Layer_1
  10
89.197266
  20
410.66766
  0
VERTEX
  5
12c
  8
Layer_1
  10
88.934753
  20
410.28082
  0
VERTEX
  5
12d
  8
Layer_1
  10
88.683533
  20
409.88654
  0
VERTEX
  5
12e
  8
Layer_1
  10
123.23779
  20
424.12357
  0
VERTEX
  5
12f
  8
Layer_1
  10
122.78174
  20
424.22635
  0
VERTEX
  5
130
  8
Layer_1
  10
122.32294
  20
424.31601
  0
VERTEX
  5
131
  8
Layer_1
  10
121.86407
  20
424.40567
  0
VERTEX
  5
132
  8
Layer_1
  10
121.40283
  20
424.48203
  0
VERTEX
  5
133
  8
Layer_1
  10
120.94159
  20
424.5585
  0
VERTEX
  5
134
  8
Layer_1
  10
120.47839
  20
424.62164
  0
VERTEX
  5
135
  8
Layer_1
  10
120.01508
  20
424.68472
  0
VERTEX
  5
136
  8
Layer_1
  10
119.55023
  20
424.7345
  0
VERTEX
  5
137
  8
Layer_1
  10
90.870361
  20
412.91791
  0
SEQEND
  0
POLYLINE
  5
139
  8
Layer_1
  70
1
  66
1
  10
0
  20
0
  30
0
  0
VERTEX
  5
139
  8
Layer_1
  10
126.32562
  20
423.26547
  0
VERTEX
  5
13a
  8
Layer_1
  10
87.096313
  20
407.10226
  0
VERTEX
  5
13b
  8
Layer_1
  10
86.934021
  20
406.78177
  0
VERTEX
  5
13c
  8
Layer_1
  10
86.77887
  20
406.45776
  0
VERTEX
  5
13d
  8
Layer_1
  10
86.623657
  20
406.13376
  0
VERTEX
  5
13e
  8
Layer_1
  10
86.475769
  20
405.80643
  0
VERTEX
  5
13f
  8
Layer_1
  10
86.327759
  20
405.479
  0
VERTEX
  5
140
  8
Layer_1
  10
86.187012
  20
405.14844
  0
VERTEX
  5
141
  8
Layer_1
  10
86.046326
  20
404.81799
  0
VERTEX
  5
142
  8
Layer_1
  10
85.912964
  20
404.48438
  0
VERTEX
  5
143
  8
Layer_1
  10
129.00983
  20
422.241
  0
VERTEX
  5
144
  8
Layer_1
  10
128.68018
  20
422.38382
  0
VERTEX
  5
145
  8
Layer_1
  10
128.34741
  20
422.51932
  0
VERTEX
  5
146
  8
Layer_1
  10
128.01465
  20
422.65475
  0
VERTEX
  5
147
  8
Layer_1
  10
127.67902
  20
422.78287
  0
VERTEX
  5
148
  8
Layer_1
  10
127.34338
  20
422.91098
  0
VERTEX
  5
149
  8
Layer_1
  10
127.00494
  20
423.03159
  0
VERTEX
  5
14a
  8
Layer_1
  10
126.66656
  20
423.15225
  0
VERTEX
  5
14b
  8
Layer_1
  10
126.32562
  20
423.26547
  0
SEQEND
  0
POLYLINE
  5
14d
  8
Layer_1
  70
1
  66
1
  10
0
  20
0
  30
0
  0
VERTEX
  5
14d
  8
Layer_1
  10
85.031921
  20
401.99112
  0
VERTEX
  5
14e
  8
Layer_1
  10
84.940735
  20
401.69501
  0
VERTEX
  5
14f
  8
Layer_1
  10
84.855103
  20
401.39734
  0
VERTEX
  5
150
  8
Layer_1
  10
84.769653
  20
401.09961
  0
VERTEX
  5
151
  8
Layer_1
  10
84.689697
  20
400.80035
  0
VERTEX
  5
152
  8
Layer_1
  10
84.609863
  20
400.50116
  0
VERTEX
  5
153
  8
Layer_1
  10
84.535706
  20
400.20035
  0
VERTEX
  5
154
  8
Layer_1
  10
84.461548
  20
399.8996
  0
VERTEX
  5
155
  8
Layer_1
  10
84.393127
  20
399.59744
  0
VERTEX
  5
156
  8
Layer_1
  10
133.53101
  20
419.84317
  0
VERTEX
  5
157
  8
Layer_1
  10
133.26965
  20
420.00943
  0
VERTEX
  5
158
  8
Layer_1
  10
133.00519
  20
420.17062
  0
VERTEX
  5
159
  8
Layer_1
  10
132.74066
  20
420.33185
  0
VERTEX
  5
15a
  8
Layer_1
  10
132.47321
  20
420.48795
  0
VERTEX
  5
15b
  8
Layer_1
  10
132.20563
  20
420.6441
  0
VERTEX
  5
15c
  8
Layer_1
  10
131.93518
  20
420.79514
  0
VERTEX
  5
15d
  8
Layer_1
  10
131.66473
  20
420.94611
  0
VERTEX
  5
15e
  8
Layer_1
  10
131.39148
  20
421.09201
  0
VERTEX
  5
15f
  8
Layer_1
  10
85.031921
  20
401.99112
  0
SEQEND
  0
POLYLINE
  5
161
  8
Layer_1
  70
1
  66
1
  10
0
  20
0
  30
0
  0
VERTEX
  5
161
  8
Layer_1
  10
83.957153
  20
397.28751
  0
VERTEX
  5
162
  8
Layer_1
  10
83.914917
  20
397.00906
  0
VERTEX
  5
163
  8
Layer_1
  10
83.877563
  20
396.73001
  0
VERTEX
  5
164
  8
Layer_1
  10
83.840271
  20
396.45084
  0
VERTEX
  5
165
  8
Layer_1
  10
83.807678
  20
396.17105
  0
VERTEX
  5
166
  8
Layer_1
  10
83.775208
  20
395.8913
  0
VERTEX
  5
167
  8
Layer_1
  10
83.747559
  20
395.61105
  0
VERTEX
  5
168
  8
Layer_1
  10
83.71991
  20
395.33078
  0
VERTEX
  5
169
  8
Layer_1
  10
83.697083
  20
395.05002
  0
VERTEX
  5
16a
  8
Layer_1
  10
137.22852
  20
417.10587
  0
VERTEX
  5
16b
  8
Layer_1
  10
137.01459
  20
417.28909
  0
VERTEX
  5
16c
  8
Layer_1
  10
136.79749
  20
417.46851
  0
VERTEX
  5
16d
  8
Layer_1
  10
136.58038
  20
417.64798
  0
VERTEX
  5
16e
  8
Layer_1
  10
136.36023
  20
417.82361
  0
VERTEX
  5
16f
  8
Layer_1
  10
136.14014
  20
417.99927
  0
VERTEX
  5
170
  8
Layer_1
  10
135.91693
  20
418.17108
  0
VERTEX
  5
171
  8
Layer_1
  10
135.69379
  20
418.34286
  0
VERTEX
  5
172
  8
Layer_1
  10
135.46765
  20
418.51077
  0
VERTEX
  5
173
  8
Layer_1
  10
83.957153
  20
397.28751
  0
SEQEND
  0
POLYLINE
  5
175
  8
Layer_1
  70
1
  66
1
  10
0
  20
0
  30
0
  0
VERTEX
  5
175
  8
Layer_1
  10
83.593689
  20
392.87717
  0
VERTEX
  5
176
  8
Layer_1
  10
83.589966
  20
392.61279
  0
VERTEX
  5
177
  8
Layer_1
  10
83.590515
  20
392.34842
  0
VERTEX
  5
178
  8
Layer_1
  10
83.591064
  20
392.08401
  0
VERTEX
  5
179
  8
Layer_1
  10
83.595947
  20
391.81964
  0
VERTEX
  5
17a
  8
Layer_1
  10
83.60083
  20
391.55536
  0
VERTEX
  5
17b
  8
Layer_1
  10
83.610046
  20
391.29108
  0
VERTEX
  5
17c
  8
Layer_1
  10
83.619202
  20
391.02692
  0
VERTEX
  5
17d
  8
Layer_1
  10
83.632629
  20
390.76285
  0
VERTEX
  5
17e
  8
Layer_1
  10
140.29425
  20
414.10846
  0
VERTEX
  5
17f
  8
Layer_1
  10
140.1178
  20
414.30536
  0
VERTEX
  5
180
  8
Layer_1
  10
139.93823
  20
414.49936
  0
VERTEX
  5
181
  8
Layer_1
  10
139.75867
  20
414.6933
  0
VERTEX
  5
182
  8
Layer_1
  10
139.57587
  20
414.88437
  0
VERTEX
  5
183
  8
Layer_1
  10
139.39313
  20
415.07541
  0
VERTEX
  5
184
  8
Layer_1
  10
139.20734
  20
415.26343
  0
VERTEX
  5
185
  8
Layer_1
  10
139.02148
  20
415.45148
  0
VERTEX
  5
186
  8
Layer_1
  10
138.83258
  20
415.63647
  0
VERTEX
  5
187
  8
Layer_1
  10
83.593689
  20
392.87717
  0
SEQEND
  0
POLYLINE
  5
189
  8
Layer_1
  70
1
  66
1
  10
0
  20
0
  30
0
  0
VERTEX
  5
189
  8
Layer_1
  10
83.803589
  20
388.70294
  0
VERTEX
  5
18a
  8
Layer_1
  10
83.832642
  20
388.45078
  0
VERTEX
  5
18b
  8
Layer_1
  10
83.86554
  20
388.1991
  0
VERTEX
  5
18c
  8
Layer_1
  10
83.89856
  20
387.94745
  0
VERTEX
  5
18d
  8
Layer_1
  10
83.935425
  20
387.69626
  0
VERTEX
  5
18e
  8
Layer_1
  10
83.972351
  20
387.44513
  0
VERTEX
  5
18f
  8
Layer_1
  10
84.013123
  20
387.19461
  0
VERTEX
  5
190
  8
Layer_1
  10
84.053955
  20
386.94406
  0
VERTEX
  5
191
  8
Layer_1
  10
84.098633
  20
386.69418
  0
VERTEX
  5
192
  8
Layer_1
  10
142.82971
  20
410.89246
  0
VERTEX
  5
193
  8
Layer_1
  10
142.68542
  20
411.10123
  0
VERTEX
  5
194
  8
Layer_1
  10
142.5379
  20
411.3078
  0
VERTEX
  5
195
  8
Layer_1
  10
142.39038
  20
411.51437
  0
VERTEX
  5
196
  8
Layer_1
  10
142.23969
  20
411.7186
  0
VERTEX
  5
197
  8
Layer_1
  10
142.08899
  20
411.92279
  0
VERTEX
  5
198
  8
Layer_1
  10
141.935
  20
412.12469
  0
VERTEX
  5
199
  8
Layer_1
  10
141.78113
  20
412.32654
  0
VERTEX
  5
19a
  8
Layer_1
  10
141.62408
  20
412.526
  0
VERTEX
  5
19b
  8
Layer_1
  10
83.803589
  20
388.70294
  0
SEQEND
  0
POLYLINE
  5
19d
  8
Layer_1
  70
1
  66
1
  10
0
  20
0
  30
0
  0
VERTEX
  5
19d
  8
Layer_1
  10
84.512146
  20
384.73419
  0
VERTEX
  5
19e
  8
Layer_1
  10
84.57074
  20
384.49313
  0
VERTEX
  5
19f
  8
Layer_1
  10
84.633118
  20
384.25299
  0
VERTEX
  5
1a0
  8
Layer_1
  10
84.695435
  20
384.01288
  0
VERTEX
  5
1a1
  8
Layer_1
  10
84.761414
  20
383.77377
  0
VERTEX
  5
1a2
  8
Layer_1
  10
84.827515
  20
383.53461
  0
VERTEX
  5
1a3
  8
Layer_1
  10
84.897034
  20
383.29657
  0
VERTEX
  5
1a4
  8
Layer_1
  10
84.966736
  20
383.05832
  0
VERTEX
  5
1a5
  8
Layer_1
  10
85.039978
  20
382.82138
  0
VERTEX
  5
1a6
  8
Layer_1
  10
144.88983
  20
407.48056
  0
VERTEX
  5
1a7
  8
Layer_1
  10
144.77484
  20
407.70032
  0
VERTEX
  5
1a8
  8
Layer_1
  10
144.65649
  20
407.91843
  0
VERTEX
  5
1a9
  8
Layer_1
  10
144.53827
  20
408.13647
  0
VERTEX
  5
1aa
  8
Layer_1
  10
144.41663
  20
408.35269
  0
VERTEX
  5
1ab
  8
Layer_1
  10
144.29498
  20
408.56891
  0
VERTEX
  5
1ac
  8
Layer_1
  10
144.17004
  20
408.78333
  0
VERTEX
  5
1ad
  8
Layer_1
  10
144.04517
  20
408.99762
  0
VERTEX
  5
1ae
  8
Layer_1
  10
143.91699
  20
409.21005
  0
VERTEX
  5
1af
  8
Layer_1
  10
84.512146
  20
384.73419
  0
SEQEND
  0
POLYLINE
  5
1b1
  8
Layer_1
  70
1
  66
1
  10
0
  20
0
  30
0
  0
VERTEX
  5
1b1
  8
Layer_1
  10
85.679688
  20
380.95468
  0
VERTEX
  5
1b2
  8
Layer_1
  10
85.766602
  20
380.72418
  0
VERTEX
  5
1b3
  8
Layer_1
  10
85.856934
  20
380.49509
  0
VERTEX
  5
1b4
  8
Layer_1
  10
85.947205
  20
380.26608
  0
VERTEX
  5
1b5
  8
Layer_1
  10
86.041077
  20
380.0383
  0
VERTEX
  5
1b6
  8
Layer_1
  10
86.134888
  20
379.81064
  0
VERTEX
  5
1b7
  8
Layer_1
  10
86.232178
  20
379.58438
  0
VERTEX
  5
1b8
  8
Layer_1
  10
86.329346
  20
379.35822
  0
VERTEX
  5
1b9
  8
Layer_1
  10
86.429993
  20
379.13351
  0
VERTEX
  5
1ba
  8
Layer_1
  10
146.50122
  20
403.88376
  0
VERTEX
  5
1bb
  8
Layer_1
  10
146.41431
  20
404.11423
  0
VERTEX
  5
1bc
  8
Layer_1
  10
146.32397
  20
404.34332
  0
VERTEX
  5
1bd
  8
Layer_1
  10
146.23364
  20
404.57236
  0
VERTEX
  5
1be
  8
Layer_1
  10
146.13983
  20
404.80008
  0
VERTEX
  5
1bf
  8
Layer_1
  10
146.04602
  20
405.02774
  0
VERTEX
  5
1c0
  8
Layer_1
  10
145.94873
  20
405.25397
  0
VERTEX
  5
1c1
  8
Layer_1
  10
145.85144
  20
405.48022
  0
VERTEX
  5
1c2
  8
Layer_1
  10
145.75079
  20
405.70493
  0
VERTEX
  5
1c3
  8
Layer_1
  10
85.679688
  20
380.95468
  0
SEQEND
  0
POLYLINE
  5
1c5
  8
Layer_1
  70
1
  66
1
  10
0
  20
0
  30
0
  0
VERTEX
  5
1c5
  8
Layer_1
  10
147.14093
  20
402.01703
  0
VERTEX
  5
1c6
  8
Layer_1
  10
87.291016
  20
377.35785
  0
VERTEX
  5
1c7
  8
Layer_1
  10
87.405945
  20
377.13803
  0
VERTEX
  5
1c8
  8
Layer_1
  10
87.524292
  20
376.91995
  0
VERTEX
  5
1c9
  8
Layer_1
  10
87.642639
  20
376.70197
  0
VERTEX
  5
1ca
  8
Layer_1
  10
87.764282
  20
376.48569
  0
VERTEX
  5
1cb
  8
Layer_1
  10
87.885803
  20
376.26947
  0
VERTEX
  5
1cc
  8
Layer_1
  10
88.010864
  20
376.05508
  0
VERTEX
  5
1cd
  8
Layer_1
  10
88.135742
  20
375.84076
  0
VERTEX
  5
1ce
  8
Layer_1
  10
88.263916
  20
375.62839
  0
VERTEX
  5
1cf
  8
Layer_1
  10
147.66876
  20
400.10416
  0
VERTEX
  5
1d0
  8
Layer_1
  10
147.61011
  20
400.34525
  0
VERTEX
  5
1d1
  8
Layer_1
  10
147.54773
  20
400.58539
  0
VERTEX
  5
1d2
  8
Layer_1
  10
147.48541
  20
400.8255
  0
VERTEX
  5
1d3
  8
Layer_1
  10
147.41949
  20
401.06461
  0
VERTEX
  5
1d4
  8
Layer_1
  10
147.35345
  20
401.30377
  0
VERTEX
  5
1d5
  8
Layer_1
  10
147.28381
  20
401.54187
  0
VERTEX
  5
1d6
  8
Layer_1
  10
147.21417
  20
401.78
  0
VERTEX
  5
1d7
  8
Layer_1
  10
147.14093
  20
402.01703
  0
SEQEND
  0
POLYLINE
  5
1d9
  8
Layer_1
  70
1
  66
1
  10
0
  20
0
  30
0
  0
VERTEX
  5
1d9
  8
Layer_1
  10
148.08228
  20
398.1442
  0
VERTEX
  5
1da
  8
Layer_1
  10
89.351135
  20
373.94595
  0
VERTEX
  5
1db
  8
Layer_1
  10
89.495483
  20
373.73715
  0
VERTEX
  5
1dc
  8
Layer_1
  10
89.642944
  20
373.53058
  0
VERTEX
  5
1dd
  8
Layer_1
  10
89.790466
  20
373.32401
  0
VERTEX
  5
1de
  8
Layer_1
  10
89.941284
  20
373.11975
  0
VERTEX
  5
1df
  8
Layer_1
  10
90.091919
  20
372.91553
  0
VERTEX
  5
1e0
  8
Layer_1
  10
90.24585
  20
372.71375
  0
VERTEX
  5
1e1
  8
Layer_1
  10
90.39978
  20
372.51187
  0
VERTEX
  5
1e2
  8
Layer_1
  10
90.556824
  20
372.31238
  0
VERTEX
  5
1e3
  8
Layer_1
  10
148.3772
  20
396.13541
  0
VERTEX
  5
1e4
  8
Layer_1
  10
148.34827
  20
396.3876
  0
VERTEX
  5
1e5
  8
Layer_1
  10
148.31525
  20
396.63931
  0
VERTEX
  5
1e6
  8
Layer_1
  10
148.28229
  20
396.89096
  0
VERTEX
  5
1e7
  8
Layer_1
  10
148.24542
  20
397.14215
  0
VERTEX
  5
1e8
  8
Layer_1
  10
148.20856
  20
397.39328
  0
VERTEX
  5
1e9
  8
Layer_1
  10
148.16779
  20
397.64383
  0
VERTEX
  5
1ea
  8
Layer_1
  10
148.12695
  20
397.89432
  0
VERTEX
  5
1eb
  8
Layer_1
  10
148.08228
  20
398.1442
  0
SEQEND
  0
POLYLINE
  5
1ed
  8
Layer_1
  70
1
  66
1
  10
0
  20
0
  30
0
  0
VERTEX
  5
1ed
  8
Layer_1
  10
91.886597
  20
370.72998
  0
VERTEX
  5
1ee
  8
Layer_1
  10
92.062988
  20
370.53305
  0
VERTEX
  5
1ef
  8
Layer_1
  10
92.242615
  20
370.33905
  0
VERTEX
  5
1f0
  8
Layer_1
  10
92.42218
  20
370.14508
  0
VERTEX
  5
1f1
  8
Layer_1
  10
92.60498
  20
369.95401
  0
VERTEX
  5
1f2
  8
Layer_1
  10
92.78772
  20
369.763
  0
VERTEX
  5
1f3
  8
Layer_1
  10
92.973572
  20
369.57495
  0
VERTEX
  5
1f4
  8
Layer_1
  10
93.159424
  20
369.3869
  0
VERTEX
  5
1f5
  8
Layer_1
  10
93.348267
  20
369.2019
  0
VERTEX
  5
1f6
  8
Layer_1
  10
148.58722
  20
391.96124
  0
VERTEX
  5
1f7
  8
Layer_1
  10
148.59094
  20
392.22565
  0
VERTEX
  5
1f8
  8
Layer_1
  10
148.59033
  20
392.48996
  0
VERTEX
  5
1f9
  8
Layer_1
  10
148.58972
  20
392.75436
  0
VERTEX
  5
1fa
  8
Layer_1
  10
148.5849
  20
393.01871
  0
VERTEX
  5
1fb
  8
Layer_1
  10
148.58002
  20
393.28302
  0
VERTEX
  5
1fc
  8
Layer_1
  10
148.57086
  20
393.54727
  0
VERTEX
  5
1fd
  8
Layer_1
  10
148.56171
  20
393.81146
  0
VERTEX
  5
1fe
  8
Layer_1
  10
148.54816
  20
394.07553
  0
VERTEX
  5
1ff
  8
Layer_1
  10
91.886597
  20
370.72998
  0
SEQEND
  0
POLYLINE
  5
201
  8
Layer_1
  70
1
  66
1
  10
0
  20
0
  30
0
  0
VERTEX
  5
201
  8
Layer_1
  10
94.952393
  20
367.73251
  0
VERTEX
  5
202
  8
Layer_1
  10
95.166321
  20
367.54929
  0
VERTEX
  5
203
  8
Layer_1
  10
95.383423
  20
367.3699
  0
VERTEX
  5
204
  8
Layer_1
  10
95.600525
  20
367.1904
  0
VERTEX
  5
205
  8
Layer_1
  10
95.820679
  20
367.0148
  0
VERTEX
  5
206
  8
Layer_1
  10
96.040771
  20
366.83911
  0
VERTEX
  5
207
  8
Layer_1
  10
96.263855
  20
366.66733
  0
VERTEX
  5
208
  8
Layer_1
  10
96.487061
  20
366.49554
  0
VERTEX
  5
209
  8
Layer_1
  10
96.713196
  20
366.32764
  0
VERTEX
  5
20a
  8
Layer_1
  10
148.22375
  20
387.55087
  0
VERTEX
  5
20b
  8
Layer_1
  10
148.26593
  20
387.82935
  0
VERTEX
  5
20c
  8
Layer_1
  10
148.30334
  20
388.1084
  0
VERTEX
  5
20d
  8
Layer_1
  10
148.34064
  20
388.38754
  0
VERTEX
  5
20e
  8
Layer_1
  10
148.37311
  20
388.66739
  0
VERTEX
  5
20f
  8
Layer_1
  10
148.4057
  20
388.94711
  0
VERTEX
  5
210
  8
Layer_1
  10
148.43329
  20
389.22739
  0
VERTEX
  5
211
  8
Layer_1
  10
148.46094
  20
389.5076
  0
VERTEX
  5
212
  8
Layer_1
  10
148.4837
  20
389.78833
  0
VERTEX
  5
213
  8
Layer_1
  10
94.952393
  20
367.73251
  0
SEQEND
  0
POLYLINE
  5
215
  8
Layer_1
  70
1
  66
1
  10
0
  20
0
  30
0
  0
VERTEX
  5
215
  8
Layer_1
  10
98.649902
  20
364.99524
  0
VERTEX
  5
216
  8
Layer_1
  10
98.911255
  20
364.82898
  0
VERTEX
  5
217
  8
Layer_1
  10
99.17572
  20
364.66776
  0
VERTEX
  5
218
  8
Layer_1
  10
99.440247
  20
364.50653
  0
VERTEX
  5
219
  8
Layer_1
  10
99.707703
  20
364.35043
  0
VERTEX
  5
21a
  8
Layer_1
  10
99.97522
  20
364.19431
  0
VERTEX
  5
21b
  8
Layer_1
  10
100.24573
  20
364.04324
  0
VERTEX
  5
21c
  8
Layer_1
  10
100.51611
  20
363.8923
  0
VERTEX
  5
21d
  8
Layer_1
  10
100.78943
  20
363.7464
  0
VERTEX
  5
21e
  8
Layer_1
  10
147.14886
  20
382.84732
  0
VERTEX
  5
21f
  8
Layer_1
  10
147.24017
  20
383.14337
  0
VERTEX
  5
220
  8
Layer_1
  10
147.32581
  20
383.44107
  0
VERTEX
  5
221
  8
Layer_1
  10
147.41125
  20
383.73874
  0
VERTEX
  5
222
  8
Layer_1
  10
147.49121
  20
384.03802
  0
VERTEX
  5
223
  8
Layer_1
  10
147.57104
  20
384.33722
  0
VERTEX
  5
224
  8
Layer_1
  10
147.6452
  20
384.63806
  0
VERTEX
  5
225
  8
Layer_1
  10
147.71936
  20
384.93884
  0
VERTEX
  5
226
  8
Layer_1
  10
147.78778
  20
385.24088
  0
VERTEX
  5
227
  8
Layer_1
  10
98.649902
  20
364.99524
  0
SEQEND
  0
POLYLINE
  5
229
  8
Layer_1
  70
1
  66
1
  10
0
  20
0
  30
0
  0
VERTEX
  5
229
  8
Layer_1
  10
103.17108
  20
362.59738
  0
VERTEX
  5
22a
  8
Layer_1
  10
103.50079
  20
362.45456
  0
VERTEX
  5
22b
  8
Layer_1
  10
103.8335
  20
362.31909
  0
VERTEX
  5
22c
  8
Layer_1
  10
104.1662
  20
362.18362
  0
VERTEX
  5
22d
  8
Layer_1
  10
104.50189
  20
362.05551
  0
VERTEX
  5
22e
  8
Layer_1
  10
104.83752
  20
361.92743
  0
VERTEX
  5
22f
  8
Layer_1
  10
105.1759
  20
361.80679
  0
VERTEX
  5
230
  8
Layer_1
  10
105.51422
  20
361.68613
  0
VERTEX
  5
231
  8
Layer_1
  10
105.85529
  20
361.57294
  0
VERTEX
  5
232
  8
Layer_1
  10
145.08453
  20
377.73618
  0
VERTEX
  5
233
  8
Layer_1
  10
145.24683
  20
378.05661
  0
VERTEX
  5
234
  8
Layer_1
  10
145.40204
  20
378.38062
  0
VERTEX
  5
235
  8
Layer_1
  10
145.55713
  20
378.70462
  0
VERTEX
  5
236
  8
Layer_1
  10
145.70514
  20
379.03195
  0
VERTEX
  5
237
  8
Layer_1
  10
145.85315
  20
379.35938
  0
VERTEX
  5
238
  8
Layer_1
  10
145.99384
  20
379.68988
  0
VERTEX
  5
239
  8
Layer_1
  10
146.13458
  20
380.02045
  0
VERTEX
  5
23a
  8
Layer_1
  10
146.26794
  20
380.354
  0
VERTEX
  5
23b
  8
Layer_1
  10
103.17108
  20
362.59738
  0
SEQEND
  0
POLYLINE
  5
23d
  8
Layer_1
  70
1
  66
1
  10
0
  20
0
  30
0
  0
VERTEX
  5
23d
  8
Layer_1
  10
108.94299
  20
360.71484
  0
VERTEX
  5
23e
  8
Layer_1
  10
109.39917
  20
360.61203
  0
VERTEX
  5
23f
  8
Layer_1
  10
109.85797
  20
360.5224
  0
VERTEX
  5
240
  8
Layer_1
  10
110.31683
  20
360.43274
  0
VERTEX
  5
241
  8
Layer_1
  10
110.77808
  20
360.35626
  0
VERTEX
  5
242
  8
Layer_1
  10
111.23932
  20
360.27991
  0
VERTEX
  5
243
  8
Layer_1
  10
111.70251
  20
360.21674
  0
VERTEX
  5
244
  8
Layer_1
  10
112.16577
  20
360.15369
  0
VERTEX
  5
245
  8
Layer_1
  10
112.63062
  20
360.10388
  0
VERTEX
  5
246
  8
Layer_1
  10
141.31049
  20
371.92047
  0
VERTEX
  5
247
  8
Layer_1
  10
141.60547
  20
372.28326
  0
VERTEX
  5
248
  8
Layer_1
  10
141.88971
  20
372.65445
  0
VERTEX
  5
249
  8
Layer_1
  10
142.17401
  20
373.02551
  0
VERTEX
  5
24a
  8
Layer_1
  10
142.44763
  20
373.40466
  0
VERTEX
  5
24b
  8
Layer_1
  10
142.72107
  20
373.78378
  0
VERTEX
  5
24c
  8
Layer_1
  10
142.98364
  20
374.17075
  0
VERTEX
  5
24d
  8
Layer_1
  10
143.24609
  20
374.55759
  0
VERTEX
  5
24e
  8
Layer_1
  10
143.49738
  20
374.9519
  0
VERTEX
  5
24f
  8
Layer_1
  10
108.94299
  20
360.71484
  0
SEQEND
  0
POLYLINE
  5
251
  8
Layer_1
  70
1
  66
1
  10
0
  20
0
  30
0
  0
VERTEX
  5
251
  8
Layer_1
  10
138.02313
  20
368.43567
  0
VERTEX
  5
252
  8
Layer_1
  10
117.41888
  20
359.94629
  0
VERTEX
  5
253
  8
Layer_1
  10
118.83795
  20
360.03549
  0
VERTEX
  5
254
  8
Layer_1
  10
120.25104
  20
360.18658
  0
VERTEX
  5
255
  8
Layer_1
  10
121.65613
  20
360.39929
  0
VERTEX
  5
256
  8
Layer_1
  10
123.05133
  20
360.67343
  0
VERTEX
  5
257
  8
Layer_1
  10
124.43317
  20
361.00827
  0
VERTEX
  5
258
  8
Layer_1
  10
125.79846
  20
361.40302
  0
VERTEX
  5
259
  8
Layer_1
  10
127.14514
  20
361.85706
  0
VERTEX
  5
25a
  8
Layer_1
  10
128.47137
  20
362.36981
  0
VERTEX
  5
25b
  8
Layer_1
  10
129.7738
  20
362.94009
  0
VERTEX
  5
25c
  8
Layer_1
  10
131.04944
  20
363.5665
  0
VERTEX
  5
25d
  8
Layer_1
  10
132.29645
  20
364.24805
  0
VERTEX
  5
25e
  8
Layer_1
  10
133.51312
  20
364.98389
  0
VERTEX
  5
25f
  8
Layer_1
  10
134.69653
  20
365.77216
  0
VERTEX
  5
260
  8
Layer_1
  10
135.84369
  20
366.61108
  0
VERTEX
  5
261
  8
Layer_1
  10
136.95306
  20
367.49933
  0
VERTEX
  5
262
  8
Layer_1
  10
138.02313
  20
368.43567
  0
SEQEND
  0
POLYLINE
  5
264
  8
Layer_1
  70
1
  66
1
  10
0
  20
0
  30
0
  0
VERTEX
  5
264
  8
Layer_1
  10
178.66016
  20
416.45389
  0
VERTEX
  5
265
  8
Layer_1
  10
178.61597
  20
417.32822
  0
VERTEX
  5
266
  8
Layer_1
  10
178.48645
  20
418.17728
  0
VERTEX
  5
267
  8
Layer_1
  10
178.27576
  20
418.9968
  0
VERTEX
  5
268
  8
Layer_1
  10
177.98816
  20
419.78244
  0
VERTEX
  5
269
  8
Layer_1
  10
177.62805
  20
420.52994
  0
VERTEX
  5
26a
  8
Layer_1
  10
177.19971
  20
421.23502
  0
VERTEX
  5
26b
  8
Layer_1
  10
176.7074
  20
421.89331
  0
VERTEX
  5
26c
  8
Layer_1
  10
176.15552
  20
422.50061
  0
VERTEX
  5
26d
  8
Layer_1
  10
175.54822
  20
423.05249
  0
VERTEX
  5
26e
  8
Layer_1
  10
174.89001
  20
423.54477
  0
VERTEX
  5
26f
  8
Layer_1
  10
174.18494
  20
423.97311
  0
VERTEX
  5
270
  8
Layer_1
  10
173.43738
  20
424.33319
  0
VERTEX
  5
271
  8
Layer_1
  10
172.65173
  20
424.62076
  0
VERTEX
  5
272
  8
Layer_1
  10
171.83228
  20
424.83148
  0
VERTEX
  5
273
  8
Layer_1
  10
170.98322
  20
424.96106
  0
VERTEX
  5
274
  8
Layer_1
  10
170.10883
  20
425.00522
  0
VERTEX
  5
275
  8
Layer_1
  10
169.23444
  20
424.96106
  0
VERTEX
  5
276
  8
Layer_1
  10
168.38538
  20
424.83148
  0
VERTEX
  5
277
  8
Layer_1
  10
167.56592
  20
424.62076
  0
VERTEX
  5
278
  8
Layer_1
  10
166.78027
  20
424.33319
  0
VERTEX
  5
279
  8
Layer_1
  10
166.03271
  20
423.97311
  0
VERTEX
  5
27a
  8
Layer_1
  10
165.32764
  20
423.54477
  0
VERTEX
  5
27b
  8
Layer_1
  10
164.66943
  20
423.05249
  0
VERTEX
  5
27c
  8
Layer_1
  10
164.06213
  20
422.50061
  0
VERTEX
  5
27d
  8
Layer_1
  10
163.51025
  20
421.89331
  0
VERTEX
  5
27e
  8
Layer_1
  10
163.01794
  20
421.23502
  0
VERTEX
  5
27f
  8
Layer_1
  10
162.5896
  20
420.52994
  0
VERTEX
  5
280
  8
Layer_1
  10
162.22949
  20
419.78244
  0
VERTEX
  5
281
  8
Layer_1
  10
161.94189
  20
418.9968
  0
VERTEX
  5
282
  8
Layer_1
  10
161.7312
  20
418.17728
  0
VERTEX
  5
283
  8
Layer_1
  10
161.60168
  20
417.32822
  0
VERTEX
  5
284
  8
Layer_1
  10
161.5575
  20
416.45389
  0
VERTEX
  5
285
  8
Layer_1
  10
161.60168
  20
415.57956
  0
VERTEX
  5
286
  8
Layer_1
  10
161.7312
  20
414.7305
  0
VERTEX
  5
287
  8
Layer_1
  10
161.94189
  20
413.91098
  0
VERTEX
  5
288
  8
Layer_1
  10
162.22949
  20
413.12531
  0
VERTEX
  5
289
  8
Layer_1
  10
162.5896
  20
412.37781
  0
VERTEX
  5
28a
  8
Layer_1
  10
163.01794
  20
411.67273
  0
VERTEX
  5
28b
  8
Layer_1
  10
163.51025
  20
411.0144
  0
VERTEX
  5
28c
  8
Layer_1
  10
164.06213
  20
410.40717
  0
VERTEX
  5
28d
  8
Layer_1
  10
164.66943
  20
409.85522
  0
VERTEX
  5
28e
  8
Layer_1
  10
165.32764
  20
409.36298
  0
VERTEX
  5
28f
  8
Layer_1
  10
166.03271
  20
408.93463
  0
VERTEX
  5
290
  8
Layer_1
  10
166.78027
  20
408.57455
  0
VERTEX
  5
291
  8
Layer_1
  10
167.56592
  20
408.28699
  0
VERTEX
  5
292
  8
Layer_1
  10
168.38538
  20
408.07629
  0
VERTEX
  5
293
  8
Layer_1
  10
169.23444
  20
407.94672
  0
VERTEX
  5
294
  8
Layer_1
  10
170.10883
  20
407.90256
  0
VERTEX
  5
295
  8
Layer_1
  10
170.98322
  20
407.94672
  0
VERTEX
  5
296
  8
Layer_1
  10
171.83228
  20
408.07629
  0
VERTEX
  5
297
  8
Layer_1
  10
172.65173
  20
408.28699
  0
VERTEX
  5
298
  8
Layer_1
  10
173.43738
  20
408.57455
  0
VERTEX
  5
299
  8
Layer_1
  10
174.18494
  20
408.93463
  0
VERTEX
  5
29a
  8
Layer_1
  10
174.89001
  20
409.36298
  0
VERTEX
  5
29b
  8
Layer_1
  10
175.54822
  20
409.85522
  0
VERTEX
  5
29c
  8
Layer_1
  10
176.15552
  20
410.40717
  0
VERTEX
  5
29d
  8
Layer_1
  10
176.7074
  20
411.0144
  0
VERTEX
  5
29e
  8
Layer_1
  10
177.19971
  20
411.67273
  0
VERTEX
  5
29f
  8
Layer_1
  10
177.62805
  20
412.37781
  0
VERTEX
  5
2a0
  8
Layer_1
  10
177.98816
  20
413.12531
  0
VERTEX
  5
2a1
  8
Layer_1
  10
178.27576
  20
413.91098
  0
VERTEX
  5
2a2
  8
Layer_1
  10
178.48645
  20
414.7305
  0
VERTEX
  5
2a3
  8
Layer_1
  10
178.61597
  20
415.57956
  0
VERTEX
  5
2a4
  8
Layer_1
  10
178.66016
  20
416.45389
  0
SEQEND
  0
POLYLINE
  5
2a6
  8
Layer_0
  70
1
  66
1
  10
0
  20
0
  30
0
  0
VERTEX
  5
2a6
  8
Layer_0
  10
179.7608
  20
416.45389
  0
VERTEX
  5
2a7
  8
Layer_0
  10
179.74823
  20
416.95056
  0
VERTEX
  5
2a8
  8
Layer_0
  10
179.71094
  20
417.44073
  0
VERTEX
  5
2a9
  8
Layer_0
  10
179.64954
  20
417.92377
  0
VERTEX
  5
2aa
  8
Layer_0
  10
179.5647
  20
418.39908
  0
VERTEX
  5
2ab
  8
Layer_0
  10
179.3269
  20
419.3241
  0
VERTEX
  5
2ac
  8
Layer_0
  10
179.00232
  20
420.21085
  0
VERTEX
  5
2ad
  8
Layer_0
  10
178.59583
  20
421.05457
  0
VERTEX
  5
2ae
  8
Layer_0
  10
178.11243
  20
421.85037
  0
VERTEX
  5
2af
  8
Layer_0
  10
177.55676
  20
422.59341
  0
VERTEX
  5
2b0
  8
Layer_0
  10
176.93378
  20
423.27884
  0
VERTEX
  5
2b1
  8
Layer_0
  10
176.24835
  20
423.90179
  0
VERTEX
  5
2b2
  8
Layer_0
  10
175.50531
  20
424.45746
  0
VERTEX
  5
2b3
  8
Layer_0
  10
174.70947
  20
424.94092
  0
VERTEX
  5
2b4
  8
Layer_0
  10
173.86578
  20
425.34735
  0
VERTEX
  5
2b5
  8
Layer_0
  10
172.979
  20
425.67194
  0
VERTEX
  5
2b6
  8
Layer_0
  10
172.05408
  20
425.90976
  0
VERTEX
  5
2b7
  8
Layer_0
  10
171.57874
  20
425.99466
  0
VERTEX
  5
2b8
  8
Layer_0
  10
171.0957
  20
426.05603
  0
VERTEX
  5
2b9
  8
Layer_0
  10
170.60553
  20
426.09332
  0
VERTEX
  5
2ba
  8
Layer_0
  10
170.10883
  20
426.10587
  0
VERTEX
  5
2bb
  8
Layer_0
  10
169.61212
  20
426.09332
  0
VERTEX
  5
2bc
  8
Layer_0
  10
169.12195
  20
426.05603
  0
VERTEX
  5
2bd
  8
Layer_0
  10
168.63892
  20
425.99466
  0
VERTEX
  5
2be
  8
Layer_0
  10
168.16357
  20
425.90976
  0
VERTEX
  5
2bf
  8
Layer_0
  10
167.23865
  20
425.67194
  0
VERTEX
  5
2c0
  8
Layer_0
  10
166.35181
  20
425.34735
  0
VERTEX
  5
2c1
  8
Layer_0
  10
165.50806
  20
424.94092
  0
VERTEX
  5
2c2
  8
Layer_0
  10
164.71228
  20
424.45746
  0
VERTEX
  5
2c3
  8
Layer_0
  10
163.96924
  20
423.90179
  0
VERTEX
  5
2c4
  8
Layer_0
  10
163.28381
  20
423.27884
  0
VERTEX
  5
2c5
  8
Layer_0
  10
162.66089
  20
422.59341
  0
VERTEX
  5
2c6
  8
Layer_0
  10
162.10522
  20
421.85037
  0
VERTEX
  5
2c7
  8
Layer_0
  10
161.6217
  20
421.05457
  0
VERTEX
  5
2c8
  8
Layer_0
  10
161.21533
  20
420.21085
  0
VERTEX
  5
2c9
  8
Layer_0
  10
160.89075
  20
419.3241
  0
VERTEX
  5
2ca
  8
Layer_0
  10
160.65283
  20
418.39908
  0
VERTEX
  5
2cb
  8
Layer_0
  10
160.56799
  20
417.92377
  0
VERTEX
  5
2cc
  8
Layer_0
  10
160.50659
  20
417.44073
  0
VERTEX
  5
2cd
  8
Layer_0
  10
160.46936
  20
416.95056
  0
VERTEX
  5
2ce
  8
Layer_0
  10
160.45679
  20
416.45389
  0
VERTEX
  5
2cf
  8
Layer_0
  10
160.46936
  20
415.95721
  0
VERTEX
  5
2d0
  8
Layer_0
  10
160.50659
  20
415.46704
  0
VERTEX
  5
2d1
  8
Layer_0
  10
160.56799
  20
414.98401
  0
VERTEX
  5
2d2
  8
Layer_0
  10
160.65283
  20
414.5087
  0
VERTEX
  5
2d3
  8
Layer_0
  10
160.89075
  20
413.58368
  0
VERTEX
  5
2d4
  8
Layer_0
  10
161.21533
  20
412.6969
  0
VERTEX
  5
2d5
  8
Layer_0
  10
161.6217
  20
411.85318
  0
VERTEX
  5
2d6
  8
Layer_0
  10
162.10522
  20
411.05737
  0
VERTEX
  5
2d7
  8
Layer_0
  10
162.66089
  20
410.31433
  0
VERTEX
  5
2d8
  8
Layer_0
  10
163.28381
  20
409.62891
  0
VERTEX
  5
2d9
  8
Layer_0
  10
163.96924
  20
409.00592
  0
VERTEX
  5
2da
  8
Layer_0
  10
164.71228
  20
408.45029
  0
VERTEX
  5
2db
  8
Layer_0
  10
165.50806
  20
407.9668
  0
VERTEX
  5
2dc
  8
Layer_0
  10
166.35181
  20
407.56036
  0
VERTEX
  5
2dd
  8
Layer_0
  10
167.23865
  20
407.23578
  0
VERTEX
  5
2de
  8
Layer_0
  10
168.16357
  20
406.99796
  0
VERTEX
  5
2df
  8
Layer_0
  10
168.63892
  20
406.91306
  0
VERTEX
  5
2e0
  8
Layer_0
  10
169.12195
  20
406.85168
  0
VERTEX
  5
2e1
  8
Layer_0
  10
169.61212
  20
406.81439
  0
VERTEX
  5
2e2
  8
Layer_0
  10
170.10883
  20
406.80185
  0
VERTEX
  5
2e3
  8
Layer_0
  10
170.60553
  20
406.81439
  0
VERTEX
  5
2e4
  8
Layer_0
  10
171.0957
  20
406.85168
  0
VERTEX
  5
2e5
  8
Layer_0
  10
171.57874
  20
406.91306
  0
VERTEX
  5
2e6
  8
Layer_0
  10
172.05408
  20
406.99796
  0
VERTEX
  5
2e7
  8
Layer_0
  10
172.979
  20
407.23578
  0
VERTEX
  5
2e8
  8
Layer_0
  10
173.86578
  20
407.56036
  0
VERTEX
  5
2e9
  8
Layer_0
  10
174.70947
  20
407.9668
  0
VERTEX
  5
2ea
  8
Layer_0
  10
175.50531
  20
408.45029
  0
VERTEX
  5
2eb
  8
Layer_0
  10
176.24835
  20
409.00592
  0
VERTEX
  5
2ec
  8
Layer_0
  10
176.93378
  20
409.62891
  0
VERTEX
  5
2ed
  8
Layer_0
  10
177.55676
  20
410.31433
  0
VERTEX
  5
2ee
  8
Layer_0
  10
178.11243
  20
411.05737
  0
VERTEX
  5
2ef
  8
Layer_0
  10
178.59583
  20
411.85318
  0
VERTEX
  5
2f0
  8
Layer_0
  10
179.00232
  20
412.6969
  0
VERTEX
  5
2f1
  8
Layer_0
  10
179.3269
  20
413.58368
  0
VERTEX
  5
2f2
  8
Layer_0
  10
179.5647
  20
414.5087
  0
VERTEX
  5
2f3
  8
Layer_0
  10
179.64954
  20
414.98401
  0
VERTEX
  5
2f4
  8
Layer_0
  10
179.71094
  20
415.46704
  0
VERTEX
  5
2f5
  8
Layer_0
  10
179.74823
  20
415.95721
  0
VERTEX
  5
2f6
  8
Layer_0
  10
179.7608
  20
416.45389
  0
SEQEND
  0
POLYLINE
  5
2f8
  8
Layer_1
  70
1
  66
1
  10
0
  20
0
  30
0
  0
VERTEX
  5
2f8
  8
Layer_1
  10
178.66016
  20
368.44788
  0
VERTEX
  5
2f9
  8
Layer_1
  10
178.61597
  20
369.3222
  0
VERTEX
  5
2fa
  8
Layer_1
  10
178.48645
  20
370.17126
  0
VERTEX
  5
2fb
  8
Layer_1
  10
178.27576
  20
370.99078
  0
VERTEX
  5
2fc
  8
Layer_1
  10
177.98816
  20
371.77643
  0
VERTEX
  5
2fd
  8
Layer_1
  10
177.62805
  20
372.52393
  0
VERTEX
  5
2fe
  8
Layer_1
  10
177.19971
  20
373.229
  0
VERTEX
  5
2ff
  8
Layer_1
  10
176.7074
  20
373.88733
  0
VERTEX
  5
300
  8
Layer_1
  10
176.15552
  20
374.49457
  0
VERTEX
  5
301
  8
Layer_1
  10
175.54822
  20
375.04651
  0
VERTEX
  5
302
  8
Layer_1
  10
174.89001
  20
375.53876
  0
VERTEX
  5
303
  8
Layer_1
  10
174.18494
  20
375.9671
  0
VERTEX
  5
304
  8
Layer_1
  10
173.43738
  20
376.32718
  0
VERTEX
  5
305
  8
Layer_1
  10
172.65173
  20
376.61475
  0
VERTEX
  5
306
  8
Layer_1
  10
171.83228
  20
376.82544
  0
VERTEX
  5
307
  8
Layer_1
  10
170.98322
  20
376.95502
  0
VERTEX
  5
308
  8
Layer_1
  10
170.10883
  20
376.99918
  0
VERTEX
  5
309
  8
Layer_1
  10
169.23444
  20
376.95502
  0
VERTEX
  5
30a
  8
Layer_1
  10
168.38538
  20
376.82544
  0
VERTEX
  5
30b
  8
Layer_1
  10
167.56592
  20
376.61475
  0
VERTEX
  5
30c
  8
Layer_1
  10
166.78027
  20
376.32718
  0
VERTEX
  5
30d
  8
Layer_1
  10
166.03271
  20
375.9671
  0
VERTEX
  5
30e
  8
Layer_1
  10
165.32764
  20
375.53876
  0
VERTEX
  5
30f
  8
Layer_1
  10
164.66943
  20
375.04651
  0
VERTEX
  5
310
  8
Layer_1
  10
164.06213
  20
374.49457
  0
VERTEX
  5
311
  8
Layer_1
  10
163.51025
  20
373.88733
  0
VERTEX
  5
312
  8
Layer_1
  10
163.01794
  20
373.229
  0
VERTEX
  5
313
  8
Layer_1
  10
162.5896
  20
372.52393
  0
VERTEX
  5
314
  8
Layer_1
  10
162.22949
  20
371.77643
  0
VERTEX
  5
315
  8
Layer_1
  10
161.94189
  20
370.99078
  0
VERTEX
  5
316
  8
Layer_1
  10
161.7312
  20
370.17126
  0
VERTEX
  5
317
  8
Layer_1
  10
161.60168
  20
369.3222
  0
VERTEX
  5
318
  8
Layer_1
  10
161.5575
  20
368.44788
  0
VERTEX
  5
319
  8
Layer_1
  10
161.60168
  20
367.57355
  0
VERTEX
  5
31a
  8
Layer_1
  10
161.7312
  20
366.72449
  0
VERTEX
  5
31b
  8
Layer_1
  10
161.94189
  20
365.90497
  0
VERTEX
  5
31c
  8
Layer_1
  10
162.22949
  20
365.11929
  0
VERTEX
  5
31d
  8
Layer_1
  10
162.5896
  20
364.3718
  0
VERTEX
  5
31e
  8
Layer_1
  10
163.01794
  20
363.66672
  0
VERTEX
  5
31f
  8
Layer_1
  10
163.51025
  20
363.00842
  0
VERTEX
  5
320
  8
Layer_1
  10
164.06213
  20
362.40115
  0
VERTEX
  5
321
  8
Layer_1
  10
164.66943
  20
361.84924
  0
VERTEX
  5
322
  8
Layer_1
  10
165.32764
  20
361.35696
  0
VERTEX
  5
323
  8
Layer_1
  10
166.03271
  20
360.92862
  0
VERTEX
  5
324
  8
Layer_1
  10
166.78027
  20
360.56854
  0
VERTEX
  5
325
  8
Layer_1
  10
167.56592
  20
360.28098
  0
VERTEX
  5
326
  8
Layer_1
  10
168.38538
  20
360.07025
  0
VERTEX
  5
327
  8
Layer_1
  10
169.23444
  20
359.94067
  0
VERTEX
  5
328
  8
Layer_1
  10
170.10883
  20
359.89651
  0
VERTEX
  5
329
  8
Layer_1
  10
170.98322
  20
359.94067
  0
VERTEX
  5
32a
  8
Layer_1
  10
171.83228
  20
360.07025
  0
VERTEX
  5
32b
  8
Layer_1
  10
172.65173
  20
360.28098
  0
VERTEX
  5
32c
  8
Layer_1
  10
173.43738
  20
360.56854
  0
VERTEX
  5
32d
  8
Layer_1
  10
174.18494
  20
360.92862
  0
VERTEX
  5
32e
  8
Layer_1
  10
174.89001
  20
361.35696
  0
VERTEX
  5
32f
  8
Layer_1
  10
175.54822
  20
361.84924
  0
VERTEX
  5
330
  8
Layer_1
  10
176.15552
  20
362.40115
  0
VERTEX
  5
331
  8
Layer_1
  10
176.7074
  20
363.00842
  0
VERTEX
  5
332
  8
Layer_1
  10
177.19971
  20
363.66672
  0
VERTEX
  5
333
  8
Layer_1
  10
177.62805
  20
364.3718
  0
VERTEX
  5
334
  8
Layer_1
  10
177.98816
  20
365.11929
  0
VERTEX
  5
335
  8
Layer_1
  10
178.27576
  20
365.90497
  0
VERTEX
  5
336
  8
Layer_1
  10
178.48645
  20
366.72449
  0
VERTEX
  5
337
  8
Layer_1
  10
178.61597
  20
367.57355
  0
VERTEX
  5
338
  8
Layer_1
  10
178.66016
  20
368.44788
  0
SEQEND
  0
POLYLINE
  5
33a
  8
Layer_0
  70
1
  66
1
  10
0
  20
0
  30
0
  0
VERTEX
  5
33a
  8
Layer_0
  10
179.7608
  20
368.44788
  0
VERTEX
  5
33b
  8
Layer_0
  10
179.74823
  20
368.94458
  0
VERTEX
  5
33c
  8
Layer_0
  10
179.71094
  20
369.43472
  0
VERTEX
  5
33d
  8
Layer_0
  10
179.64954
  20
369.91776
  0
VERTEX
  5
33e
  8
Layer_0
  10
179.5647
  20
370.39307
  0
VERTEX
  5
33f
  8
Layer_0
  10
179.3269
  20
371.31805
  0
VERTEX
  5
340
  8
Layer_0
  10
179.00232
  20
372.20483
  0
VERTEX
  5
341
  8
Layer_0
  10
178.59583
  20
373.04855
  0
VERTEX
  5
342
  8
Layer_0
  10
178.11243
  20
373.84436
  0
VERTEX
  5
343
  8
Layer_0
  10
177.55676
  20
374.5874
  0
VERTEX
  5
344
  8
Layer_0
  10
176.93378
  20
375.27283
  0
VERTEX
  5
345
  8
Layer_0
  10
176.24835
  20
375.89581
  0
VERTEX
  5
346
  8
Layer_0
  10
175.50531
  20
376.45145
  0
VERTEX
  5
347
  8
Layer_0
  10
174.70947
  20
376.93494
  0
VERTEX
  5
348
  8
Layer_0
  10
173.86578
  20
377.34137
  0
VERTEX
  5
349
  8
Layer_0
  10
172.979
  20
377.66595
  0
VERTEX
  5
34a
  8
Layer_0
  10
172.05408
  20
377.90378
  0
VERTEX
  5
34b
  8
Layer_0
  10
171.57874
  20
377.98868
  0
VERTEX
  5
34c
  8
Layer_0
  10
171.0957
  20
378.05005
  0
VERTEX
  5
34d
  8
Layer_0
  10
170.60553
  20
378.08734
  0
VERTEX
  5
34e
  8
Layer_0
  10
170.10883
  20
378.09988
  0
VERTEX
  5
34f
  8
Layer_0
  10
169.61212
  20
378.08734
  0
VERTEX
  5
350
  8
Layer_0
  10
169.12195
  20
378.05005
  0
VERTEX
  5
351
  8
Layer_0
  10
168.63892
  20
377.98868
  0
VERTEX
  5
352
  8
Layer_0
  10
168.16357
  20
377.90378
  0
VERTEX
  5
353
  8
Layer_0
  10
167.23865
  20
377.66595
  0
VERTEX
  5
354
  8
Layer_0
  10
166.35181
  20
377.34137
  0
VERTEX
  5
355
  8
Layer_0
  10
165.50806
  20
376.93494
  0
VERTEX
  5
356
  8
Layer_0
  10
164.71228
  20
376.45145
  0
VERTEX
  5
357
  8
Layer_0
  10
163.96924
  20
375.89581
  0
VERTEX
  5
358
  8
Layer_0
  10
163.28381
  20
375.27283
  0
VERTEX
  5
359
  8
Layer_0
  10
162.66089
  20
374.5874
  0
VERTEX
  5
35a
  8
Layer_0
  10
162.10522
  20
373.84436
  0
VERTEX
  5
35b
  8
Layer_0
  10
161.6217
  20
373.04855
  0
VERTEX
  5
35c
  8
Layer_0
  10
161.21533
  20
372.20483
  0
VERTEX
  5
35d
  8
Layer_0
  10
160.89075
  20
371.31805
  0
VERTEX
  5
35e
  8
Layer_0
  10
160.65283
  20
370.39307
  0
VERTEX
  5
35f
  8
Layer_0
  10
160.56799
  20
369.91776
  0
VERTEX
  5
360
  8
Layer_0
  10
160.50659
  20
369.43472
  0
VERTEX
  5
361
  8
Layer_0
  10
160.46936
  20
368.94458
  0
VERTEX
  5
362
  8
Layer_0
  10
160.45679
  20
368.44788
  0
VERTEX
  5
363
  8
Layer_0
  10
160.46936
  20
367.95117
  0
VERTEX
  5
364
  8
Layer_0
  10
160.50659
  20
367.46103
  0
VERTEX
  5
365
  8
Layer_0
  10
160.56799
  20
366.97797
  0
VERTEX
  5
366
  8
Layer_0
  10
160.65283
  20
366.50269
  0
VERTEX
  5
367
  8
Layer_0
  10
160.89075
  20
365.5777
  0
VERTEX
  5
368
  8
Layer_0
  10
161.21533
  20
364.69089
  0
VERTEX
  5
369
  8
Layer_0
  10
161.6217
  20
363.84717
  0
VERTEX
  5
36a
  8
Layer_0
  10
162.10522
  20
363.05136
  0
VERTEX
  5
36b
  8
Layer_0
  10
162.66089
  20
362.30832
  0
VERTEX
  5
36c
  8
Layer_0
  10
163.28381
  20
361.62289
  0
VERTEX
  5
36d
  8
Layer_0
  10
163.96924
  20
360.99994
  0
VERTEX
  5
36e
  8
Layer_0
  10
164.71228
  20
360.44427
  0
VERTEX
  5
36f
  8
Layer_0
  10
165.50806
  20
359.96082
  0
VERTEX
  5
370
  8
Layer_0
  10
166.35181
  20
359.55438
  0
VERTEX
  5
371
  8
Layer_0
  10
167.23865
  20
359.2298
  0
VERTEX
  5
372
  8
Layer_0
  10
168.16357
  20
358.99197
  0
VERTEX
  5
373
  8
Layer_0
  10
168.63892
  20
358.90707
  0
VERTEX
  5
374
  8
Layer_0
  10
169.12195
  20
358.8457
  0
VERTEX
  5
375
  8
Layer_0
  10
169.61212
  20
358.80841
  0
VERTEX
  5
376
  8
Layer_0
  10
170.10883
  20
358.79587
  0
VERTEX
  5
377
  8
Layer_0
  10
170.60553
  20
358.80841
  0
VERTEX
  5
378
  8
Layer_0
  10
171.0957
  20
358.8457
  0
VERTEX
  5
379
  8
Layer_0
  10
171.57874
  20
358.90707
  0
VERTEX
  5
37a
  8
Layer_0
  10
172.05408
  20
358.99197
  0
VERTEX
  5
37b
  8
Layer_0
  10
172.979
  20
359.2298
  0
VERTEX
  5
37c
  8
Layer_0
  10
173.86578
  20
359.55438
  0
VERTEX
  5
37d
  8
Layer_0
  10
174.70947
  20
359.96082
  0
VERTEX
  5
37e
  8
Layer_0
  10
175.50531
  20
360.44427
  0
VERTEX
  5
37f
  8
Layer_0
  10
176.24835
  20
360.99994
  0
VERTEX
  5
380
  8
Layer_0
  10
176.93378
  20
361.62289
  0
VERTEX
  5
381
  8
Layer_0
  10
177.55676
  20
362.30832
  0
VERTEX
  5
382
  8
Layer_0
  10
178.11243
  20
363.05136
  0
VERTEX
  5
383
  8
Layer_0
  10
178.59583
  20
363.84717
  0
VERTEX
  5
384
  8
Layer_0
  10
179.00232
  20
364.69089
  0
VERTEX
  5
385
  8
Layer_0
  10
179.3269
  20
365.5777
  0
VERTEX
  5
386
  8
Layer_0
  10
179.5647
  20
366.50269
  0
VERTEX
  5
387
  8
Layer_0
  10
179.64954
  20
366.97797
  0
VERTEX
  5
388
  8
Layer_0
  10
179.71094
  20
367.46103
  0
VERTEX
  5
389
  8
Layer_0
  10
179.74823
  20
367.95117
  0
VERTEX
  5
38a
  8
Layer_0
  10
179.7608
  20
368.44788
  0
SEQEND
  0
POLYLINE
  5
38c
  8
Layer_1
  70
1
  66
1
  10
0
  20
0
  30
0
  0
VERTEX
  5
38c
  8
Layer_1
  10
177.22083
  20
398.92786
  0
VERTEX
  5
38d
  8
Layer_1
  10
177.20105
  20
399.1326
  0
VERTEX
  5
38e
  8
Layer_1
  10
177.14429
  20
399.3233
  0
VERTEX
  5
38f
  8
Layer_1
  10
177.05444
  20
399.49588
  0
VERTEX
  5
390
  8
Layer_1
  10
176.93561
  20
399.64624
  0
VERTEX
  5
391
  8
Layer_1
  10
176.7915
  20
399.77032
  0
VERTEX
  5
392
  8
Layer_1
  10
176.6261
  20
399.86398
  0
VERTEX
  5
393
  8
Layer_1
  10
176.44336
  20
399.92322
  0
VERTEX
  5
394
  8
Layer_1
  10
176.24713
  20
399.94385
  0
VERTEX
  5
395
  8
Layer_1
  10
176.0509
  20
399.92322
  0
VERTEX
  5
396
  8
Layer_1
  10
175.86816
  20
399.86398
  0
VERTEX
  5
397
  8
Layer_1
  10
175.70276
  20
399.77032
  0
VERTEX
  5
398
  8
Layer_1
  10
175.55865
  20
399.64624
  0
VERTEX
  5
399
  8
Layer_1
  10
175.43982
  20
399.49588
  0
VERTEX
  5
39a
  8
Layer_1
  10
175.35004
  20
399.3233
  0
VERTEX
  5
39b
  8
Layer_1
  10
175.29327
  20
399.1326
  0
VERTEX
  5
39c
  8
Layer_1
  10
175.2735
  20
398.92786
  0
VERTEX
  5
39d
  8
Layer_1
  10
175.29327
  20
398.72311
  0
VERTEX
  5
39e
  8
Layer_1
  10
175.35004
  20
398.53241
  0
VERTEX
  5
39f
  8
Layer_1
  10
175.43982
  20
398.35983
  0
VERTEX
  5
3a0
  8
Layer_1
  10
175.55865
  20
398.20947
  0
VERTEX
  5
3a1
  8
Layer_1
  10
175.70276
  20
398.08539
  0
VERTEX
  5
3a2
  8
Layer_1
  10
175.86816
  20
397.99173
  0
VERTEX
  5
3a3
  8
Layer_1
  10
176.0509
  20
397.9325
  0
VERTEX
  5
3a4
  8
Layer_1
  10
176.24713
  20
397.91187
  0
VERTEX
  5
3a5
  8
Layer_1
  10
176.44336
  20
397.9325
  0
VERTEX
  5
3a6
  8
Layer_1
  10
176.6261
  20
397.99173
  0
VERTEX
  5
3a7
  8
Layer_1
  10
176.7915
  20
398.08539
  0
VERTEX
  5
3a8
  8
Layer_1
  10
176.93561
  20
398.20947
  0
VERTEX
  5
3a9
  8
Layer_1
  10
177.05444
  20
398.35983
  0
VERTEX
  5
3aa
  8
Layer_1
  10
177.14429
  20
398.53241
  0
VERTEX
  5
3ab
  8
Layer_1
  10
177.20105
  20
398.72311
  0
VERTEX
  5
3ac
  8
Layer_1
  10
177.22083
  20
398.92786
  0
SEQEND
  0
POLYLINE
  5
3ae
  8
Layer_0
  70
1
  66
1
  10
0
  20
0
  30
0
  0
VERTEX
  5
3ae
  8
Layer_0
  10
178.32147
  20
398.92786
  0
VERTEX
  5
3af
  8
Layer_0
  10
178.27936
  20
399.35443
  0
VERTEX
  5
3b0
  8
Layer_0
  10
178.15845
  20
399.75174
  0
VERTEX
  5
3b1
  8
Layer_0
  10
177.96716
  20
400.1113
  0
VERTEX
  5
3b2
  8
Layer_0
  10
177.71387
  20
400.42456
  0
VERTEX
  5
3b3
  8
Layer_0
  10
177.40686
  20
400.68301
  0
VERTEX
  5
3b4
  8
Layer_0
  10
177.05457
  20
400.87817
  0
VERTEX
  5
3b5
  8
Layer_0
  10
176.66516
  20
401.00153
  0
VERTEX
  5
3b6
  8
Layer_0
  10
176.24713
  20
401.04453
  0
VERTEX
  5
3b7
  8
Layer_0
  10
175.8291
  20
401.00153
  0
VERTEX
  5
3b8
  8
Layer_0
  10
175.4397
  20
400.87817
  0
VERTEX
  5
3b9
  8
Layer_0
  10
175.0874
  20
400.68301
  0
VERTEX
  5
3ba
  8
Layer_0
  10
174.7804
  20
400.42456
  0
VERTEX
  5
3bb
  8
Layer_0
  10
174.5271
  20
400.1113
  0
VERTEX
  5
3bc
  8
Layer_0
  10
174.33582
  20
399.75174
  0
VERTEX
  5
3bd
  8
Layer_0
  10
174.2149
  20
399.35443
  0
VERTEX
  5
3be
  8
Layer_0
  10
174.17279
  20
398.92786
  0
VERTEX
  5
3bf
  8
Layer_0
  10
174.2149
  20
398.50128
  0
VERTEX
  5
3c0
  8
Layer_0
  10
174.33582
  20
398.10397
  0
VERTEX
  5
3c1
  8
Layer_0
  10
174.5271
  20
397.74442
  0
VERTEX
  5
3c2
  8
Layer_0
  10
174.7804
  20
397.43115
  0
VERTEX
  5
3c3
  8
Layer_0
  10
175.0874
  20
397.1727
  0
VERTEX
  5
3c4
  8
Layer_0
  10
175.4397
  20
396.97754
  0
VERTEX
  5
3c5
  8
Layer_0
  10
175.8291
  20
396.85419
  0
VERTEX
  5
3c6
  8
Layer_0
  10
176.24713
  20
396.81119
  0
VERTEX
  5
3c7
  8
Layer_0
  10
176.66516
  20
396.85419
  0
VERTEX
  5
3c8
  8
Layer_0
  10
177.05457
  20
396.97754
  0
VERTEX
  5
3c9
  8
Layer_0
  10
177.40686
  20
397.1727
  0
VERTEX
  5
3ca
  8
Layer_0
  10
177.71387
  20
397.43115
  0
VERTEX
  5
3cb
  8
Layer_0
  10
177.96716
  20
397.74442
  0
VERTEX
  5
3cc
  8
Layer_0
  10
178.15845
  20
398.10397
  0
VERTEX
  5
3cd
  8
Layer_0
  10
178.27936
  20
398.50128
  0
VERTEX
  5
3ce
  8
Layer_0
  10
178.32147
  20
398.92786
  0
SEQEND
  0
POLYLINE
  5
3d0
  8
Layer_1
  70
1
  66
1
  10
0
  20
0
  30
0
  0
VERTEX
  5
3d0
  8
Layer_1
  10
167.90747
  20
398.88553
  0
VERTEX
  5
3d1
  8
Layer_1
  10
167.89459
  20
399.1409
  0
VERTEX
  5
3d2
  8
Layer_1
  10
167.85675
  20
399.38889
  0
VERTEX
  5
3d3
  8
Layer_1
  10
167.79517
  20
399.62823
  0
VERTEX
  5
3d4
  8
Layer_1
  10
167.71118
  20
399.85773
  0
VERTEX
  5
3d5
  8
Layer_1
  10
167.48096
  20
400.28201
  0
VERTEX
  5
3d6
  8
Layer_1
  10
167.1759
  20
400.65164
  0
VERTEX
  5
3d7
  8
Layer_1
  10
166.80621
  20
400.95663
  0
VERTEX
  5
3d8
  8
Layer_1
  10
166.38196
  20
401.18692
  0
VERTEX
  5
3d9
  8
Layer_1
  10
166.15247
  20
401.2709
  0
VERTEX
  5
3da
  8
Layer_1
  10
165.91309
  20
401.33246
  0
VERTEX
  5
3db
  8
Layer_1
  10
165.66516
  20
401.3703
  0
VERTEX
  5
3dc
  8
Layer_1
  10
165.40979
  20
401.38321
  0
VERTEX
  5
3dd
  8
Layer_1
  10
165.15442
  20
401.3703
  0
VERTEX
  5
3de
  8
Layer_1
  10
164.90649
  20
401.33246
  0
VERTEX
  5
3df
  8
Layer_1
  10
164.66711
  20
401.2709
  0
VERTEX
  5
3e0
  8
Layer_1
  10
164.43762
  20
401.18692
  0
VERTEX
  5
3e1
  8
Layer_1
  10
164.01337
  20
400.95663
  0
VERTEX
  5
3e2
  8
Layer_1
  10
163.64368
  20
400.65164
  0
VERTEX
  5
3e3
  8
Layer_1
  10
163.33862
  20
400.28201
  0
VERTEX
  5
3e4
  8
Layer_1
  10
163.1084
  20
399.85773
  0
VERTEX
  5
3e5
  8
Layer_1
  10
163.02441
  20
399.62823
  0
VERTEX
  5
3e6
  8
Layer_1
  10
162.96283
  20
399.38889
  0
VERTEX
  5
3e7
  8
Layer_1
  10
162.92499
  20
399.1409
  0
VERTEX
  5
3e8
  8
Layer_1
  10
162.91211
  20
398.88553
  0
VERTEX
  5
3e9
  8
Layer_1
  10
162.92499
  20
398.63016
  0
VERTEX
  5
3ea
  8
Layer_1
  10
162.96283
  20
398.38217
  0
VERTEX
  5
3eb
  8
Layer_1
  10
163.02441
  20
398.14282
  0
VERTEX
  5
3ec
  8
Layer_1
  10
163.1084
  20
397.91333
  0
VERTEX
  5
3ed
  8
Layer_1
  10
163.33862
  20
397.48904
  0
VERTEX
  5
3ee
  8
Layer_1
  10
163.64368
  20
397.11942
  0
VERTEX
  5
3ef
  8
Layer_1
  10
164.01337
  20
396.81442
  0
VERTEX
  5
3f0
  8
Layer_1
  10
164.43762
  20
396.58414
  0
VERTEX
  5
3f1
  8
Layer_1
  10
164.66711
  20
396.50015
  0
VERTEX
  5
3f2
  8
Layer_1
  10
164.90649
  20
396.4386
  0
VERTEX
  5
3f3
  8
Layer_1
  10
165.15442
  20
396.40076
  0
VERTEX
  5
3f4
  8
Layer_1
  10
165.40979
  20
396.38785
  0
VERTEX
  5
3f5
  8
Layer_1
  10
165.66516
  20
396.40076
  0
VERTEX
  5
3f6
  8
Layer_1
  10
165.91309
  20
396.4386
  0
VERTEX
  5
3f7
  8
Layer_1
  10
166.15247
  20
396.50015
  0
VERTEX
  5
3f8
  8
Layer_1
  10
166.38196
  20
396.58414
  0
VERTEX
  5
3f9
  8
Layer_1
  10
166.80621
  20
396.81442
  0
VERTEX
  5
3fa
  8
Layer_1
  10
167.1759
  20
397.11942
  0
VERTEX
  5
3fb
  8
Layer_1
  10
167.48096
  20
397.48904
  0
VERTEX
  5
3fc
  8
Layer_1
  10
167.71118
  20
397.91333
  0
VERTEX
  5
3fd
  8
Layer_1
  10
167.79517
  20
398.14282
  0
VERTEX
  5
3fe
  8
Layer_1
  10
167.85675
  20
398.38217
  0
VERTEX
  5
3ff
  8
Layer_1
  10
167.89459
  20
398.63016
  0
VERTEX
  5
400
  8
Layer_1
  10
167.90747
  20
398.88553
  0
SEQEND
  0
POLYLINE
  5
402
  8
Layer_0
  70
1
  66
1
  10
0
  20
0
  30
0
  0
VERTEX
  5
402
  8
Layer_0
  10
169.00812
  20
398.88553
  0
VERTEX
  5
403
  8
Layer_0
  10
168.9895
  20
399.25345
  0
VERTEX
  5
404
  8
Layer_0
  10
168.935
  20
399.61072
  0
VERTEX
  5
405
  8
Layer_0
  10
168.84631
  20
399.95557
  0
VERTEX
  5
406
  8
Layer_0
  10
168.72534
  20
400.28616
  0
VERTEX
  5
407
  8
Layer_0
  10
168.57385
  20
400.60071
  0
VERTEX
  5
408
  8
Layer_0
  10
168.39355
  20
400.89737
  0
VERTEX
  5
409
  8
Layer_0
  10
168.18646
  20
401.17441
  0
VERTEX
  5
40a
  8
Layer_0
  10
167.95422
  20
401.42993
  0
VERTEX
  5
40b
  8
Layer_0
  10
167.69873
  20
401.66217
  0
VERTEX
  5
40c
  8
Layer_0
  10
167.42169
  20
401.86932
  0
VERTEX
  5
40d
  8
Layer_0
  10
167.125
  20
402.04956
  0
VERTEX
  5
40e
  8
Layer_0
  10
166.81042
  20
402.20108
  0
VERTEX
  5
40f
  8
Layer_0
  10
166.47986
  20
402.32208
  0
VERTEX
  5
410
  8
Layer_0
  10
166.13501
  20
402.41074
  0
VERTEX
  5
411
  8
Layer_0
  10
165.77771
  20
402.46527
  0
VERTEX
  5
412
  8
Layer_0
  10
165.40979
  20
402.48386
  0
VERTEX
  5
413
  8
Layer_0
  10
165.04187
  20
402.46527
  0
VERTEX
  5
414
  8
Layer_0
  10
164.68457
  20
402.41074
  0
VERTEX
  5
415
  8
Layer_0
  10
164.33972
  20
402.32208
  0
VERTEX
  5
416
  8
Layer_0
  10
164.00916
  20
402.20108
  0
VERTEX
  5
417
  8
Layer_0
  10
163.69458
  20
402.04956
  0
VERTEX
  5
418
  8
Layer_0
  10
163.39789
  20
401.86932
  0
VERTEX
  5
419
  8
Layer_0
  10
163.12085
  20
401.66217
  0
VERTEX
  5
41a
  8
Layer_0
  10
162.86536
  20
401.42993
  0
VERTEX
  5
41b
  8
Layer_0
  10
162.63312
  20
401.17441
  0
VERTEX
  5
41c
  8
Layer_0
  10
162.42603
  20
400.89737
  0
VERTEX
  5
41d
  8
Layer_0
  10
162.24573
  20
400.60071
  0
VERTEX
  5
41e
  8
Layer_0
  10
162.09424
  20
400.28616
  0
VERTEX
  5
41f
  8
Layer_0
  10
161.97327
  20
399.95557
  0
VERTEX
  5
420
  8
Layer_0
  10
161.88458
  20
399.61072
  0
VERTEX
  5
421
  8
Layer_0
  10
161.83008
  20
399.25345
  0
VERTEX
  5
422
  8
Layer_0
  10
161.81146
  20
398.88553
  0
VERTEX
  5
423
  8
Layer_0
  10
161.83008
  20
398.51761
  0
VERTEX
  5
424
  8
Layer_0
  10
161.88458
  20
398.16034
  0
VERTEX
  5
425
  8
Layer_0
  10
161.97327
  20
397.81549
  0
VERTEX
  5
426
  8
Layer_0
  10
162.09424
  20
397.48489
  0
VERTEX
  5
427
  8
Layer_0
  10
162.24573
  20
397.17035
  0
VERTEX
  5
428
  8
Layer_0
  10
162.42603
  20
396.87369
  0
VERTEX
  5
429
  8
Layer_0
  10
162.63312
  20
396.59665
  0
VERTEX
  5
42a
  8
Layer_0
  10
162.86536
  20
396.34113
  0
VERTEX
  5
42b
  8
Layer_0
  10
163.12085
  20
396.10889
  0
VERTEX
  5
42c
  8
Layer_0
  10
163.39789
  20
395.90173
  0
VERTEX
  5
42d
  8
Layer_0
  10
163.69458
  20
395.7215
  0
VERTEX
  5
42e
  8
Layer_0
  10
164.00916
  20
395.56998
  0
VERTEX
  5
42f
  8
Layer_0
  10
164.33972
  20
395.44897
  0
VERTEX
  5
430
  8
Layer_0
  10
164.68457
  20
395.36032
  0
VERTEX
  5
431
  8
Layer_0
  10
165.04187
  20
395.30579
  0
VERTEX
  5
432
  8
Layer_0
  10
165.40979
  20
395.2872
  0
VERTEX
  5
433
  8
Layer_0
  10
165.77771
  20
395.30579
  0
VERTEX
  5
434
  8
Layer_0
  10
166.13501
  20
395.36032
  0
VERTEX
  5
435
  8
Layer_0
  10
166.47986
  20
395.44897
  0
VERTEX
  5
436
  8
Layer_0
  10
166.81042
  20
395.56998
  0
VERTEX
  5
437
  8
Layer_0
  10
167.125
  20
395.7215
  0
VERTEX
  5
438
  8
Layer_0
  10
167.42169
  20
395.90173
  0
VERTEX
  5
439
  8
Layer_0
  10
167.69873
  20
396.10889
  0
VERTEX
  5
43a
  8
Layer_0
  10
167.95422
  20
396.34113
  0
VERTEX
  5
43b
  8
Layer_0
  10
168.18646
  20
396.59665
  0
VERTEX
  5
43c
  8
Layer_0
  10
168.39355
  20
396.87369
  0
VERTEX
  5
43d
  8
Layer_0
  10
168.57385
  20
397.17035
  0
VERTEX
  5
43e
  8
Layer_0
  10
168.72534
  20
397.48489
  0
VERTEX
  5
43f
  8
Layer_0
  10
168.84631
  20
397.81549
  0
VERTEX
  5
440
  8
Layer_0
  10
168.935
  20
398.16034
  0
VERTEX
  5
441
  8
Layer_0
  10
168.9895
  20
398.51761
  0
VERTEX
  5
442
  8
Layer_0
  10
169.00812
  20
398.88553
  0
SEQEND
  0
POLYLINE
  5
444
  8
Layer_1
  70
1
  66
1
  10
0
  20
0
  30
0
  0
VERTEX
  5
444
  8
Layer_1
  10
169.17749
  20
386.4819
  0
VERTEX
  5
445
  8
Layer_1
  10
173.32611
  20
386.4819
  0
VERTEX
  5
446
  8
Layer_1
  10
173.32611
  20
384.36523
  0
VERTEX
  5
447
  8
Layer_1
  10
169.17749
  20
384.36523
  0
VERTEX
  5
448
  8
Layer_1
  10
169.17749
  20
386.4819
  0
SEQEND
  0
POLYLINE
  5
44a
  8
Layer_0
  70
1
  66
1
  10
0
  20
0
  30
0
  0
VERTEX
  5
44a
  8
Layer_0
  10
168.07678
  20
387.58252
  0
VERTEX
  5
44b
  8
Layer_0
  10
174.42682
  20
387.58252
  0
VERTEX
  5
44c
  8
Layer_0
  10
174.42682
  20
383.26453
  0
VERTEX
  5
44d
  8
Layer_0
  10
168.07678
  20
383.26453
  0
VERTEX
  5
44e
  8
Layer_0
  10
168.07678
  20
387.58252
  0
SEQEND
  0
POLYLINE
  5
450
  8
Layer_0
  66
1
  10
0
  20
0
  30
0
  0
VERTEX
  5
450
  8
Layer_0
  10
185.09479
  20
352.69986
  0
VERTEX
  5
451
  8
Layer_0
  10
185.09479
  20
432.20184
  0
SEQEND
  0
POLYLINE
  5
453
  8
Layer_0
  66
1
  10
0
  20
0
  30
0
  0
VERTEX
  5
453
  8
Layer_0
  10
68.08551
  20
410.44254
  0
VERTEX
  5
454
  8
Layer_0
  10
87.728149
  20
410.44254
  0
SEQEND
  0
POLYLINE
  5
456
  8
Layer_0
  66
1
  10
0
  20
0
  30
0
  0
VERTEX
  5
456
  8
Layer_0
  10
144.45483
  20
410.44254
  0
VERTEX
  5
457
  8
Layer_0
  10
162.57349
  20
410.44254
  0
SEQEND
  0
POLYLINE
  5
459
  8
Layer_0
  66
1
  10
0
  20
0
  30
0
  0
VERTEX
  5
459
  8
Layer_0
  10
177.6441
  20
410.44254
  0
VERTEX
  5
45a
  8
Layer_0
  10
194.06946
  20
410.44254
  0
SEQEND
  0
POLYLINE
  5
45c
  8
Layer_0
  66
1
  10
0
  20
0
  30
0
  0
VERTEX
  5
45c
  8
Layer_0
  10
68.08551
  20
422.38052
  0
VERTEX
  5
45d
  8
Layer_0
  10
101.10547
  20
422.38052
  0
SEQEND
  0
POLYLINE
  5
45f
  8
Layer_0
  66
1
  10
0
  20
0
  30
0
  0
VERTEX
  5
45f
  8
Layer_0
  10
131.24677
  20
422.38052
  0
VERTEX
  5
460
  8
Layer_0
  10
162.57349
  20
422.38052
  0
SEQEND
  0
POLYLINE
  5
462
  8
Layer_0
  66
1
  10
0
  20
0
  30
0
  0
VERTEX
  5
462
  8
Layer_0
  10
177.6441
  20
422.38052
  0
VERTEX
  5
463
  8
Layer_0
  10
194.06946
  20
422.38052
  0
SEQEND
  0
POLYLINE
  5
465
  8
Layer_0
  66
1
  10
0
  20
0
  30
0
  0
VERTEX
  5
465
  8
Layer_0
  10
68.08551
  20
398.41983
  0
VERTEX
  5
466
  8
Layer_0
  10
83.071472
  20
398.41983
  0
SEQEND
  0
POLYLINE
  5
468
  8
Layer_0
  66
1
  10
0
  20
0
  30
0
  0
VERTEX
  5
468
  8
Layer_0
  10
149.11145
  20
386.39719
  0
VERTEX
  5
469
  8
Layer_0
  10
168.07678
  20
386.39719
  0
SEQEND
  0
POLYLINE
  5
46b
  8
Layer_0
  66
1
  10
0
  20
0
  30
0
  0
VERTEX
  5
46b
  8
Layer_0
  10
174.42682
  20
386.39719
  0
VERTEX
  5
46c
  8
Layer_0
  10
194.06946
  20
386.39719
  0
SEQEND
  0
POLYLINE
  5
46e
  8
Layer_0
  66
1
  10
0
  20
0
  30
0
  0
VERTEX
  5
46e
  8
Layer_0
  10
68.08551
  20
386.39719
  0
VERTEX
  5
46f
  8
Layer_0
  10
83.071472
  20
386.39719
  0
SEQEND
  0
POLYLINE
  5
471
  8
Layer_0
  66
1
  10
0
  20
0
  30
0
  0
VERTEX
  5
471
  8
Layer_0
  10
149.11145
  20
398.41983
  0
VERTEX
  5
472
  8
Layer_0
  10
161.89612
  20
398.41983
  0
SEQEND
  0
POLYLINE
  5
474
  8
Layer_0
  66
1
  10
0
  20
0
  30
0
  0
VERTEX
  5
474
  8
Layer_0
  10
169.00812
  20
398.41983
  0
VERTEX
  5
475
  8
Layer_0
  10
174.17279
  20
398.41983
  0
SEQEND
  0
POLYLINE
  5
477
  8
Layer_0
  66
1
  10
0
  20
0
  30
0
  0
VERTEX
  5
477
  8
Layer_0
  10
178.32147
  20
398.41983
  0
VERTEX
  5
478
  8
Layer_0
  10
194.06946
  20
398.41983
  0
SEQEND
  0
POLYLINE
  5
47a
  8
Layer_0
  66
1
  10
0
  20
0
  30
0
  0
VERTEX
  5
47a
  8
Layer_0
  10
68.08551
  20
374.4592
  0
VERTEX
  5
47b
  8
Layer_0
  10
87.728149
  20
374.4592
  0
SEQEND
  0
POLYLINE
  5
47d
  8
Layer_0
  66
1
  10
0
  20
0
  30
0
  0
VERTEX
  5
47d
  8
Layer_0
  10
144.45483
  20
374.4592
  0
VERTEX
  5
47e
  8
Layer_0
  10
162.57349
  20
374.4592
  0
SEQEND
  0
POLYLINE
  5
480
  8
Layer_0
  66
1
  10
0
  20
0
  30
0
  0
VERTEX
  5
480
  8
Layer_0
  10
177.6441
  20
374.4592
  0
VERTEX
  5
481
  8
Layer_0
  10
194.06946
  20
374.4592
  0
SEQEND
  0
POLYLINE
  5
483
  8
Layer_0
  66
1
  10
0
  20
0
  30
0
  0
VERTEX
  5
483
  8
Layer_0
  10
68.08551
  20
362.43652
  0
VERTEX
  5
484
  8
Layer_0
  10
100.93616
  20
362.43652
  0
SEQEND
  0
POLYLINE
  5
486
  8
Layer_0
  66
1
  10
0
  20
0
  30
0
  0
VERTEX
  5
486
  8
Layer_0
  10
131.24677
  20
362.43652
  0
VERTEX
  5
487
  8
Layer_0
  10
162.57349
  20
362.43652
  0
SEQEND
  0
POLYLINE
  5
489
  8
Layer_0
  66
1
  10
0
  20
0
  30
0
  0
VERTEX
  5
489
  8
Layer_0
  10
177.6441
  20
362.43652
  0
VERTEX
  5
48a
  8
Layer_0
  10
194.06946
  20
362.43652
  0
SEQEND
  0
POLYLINE
  5
48c
  8
Layer_0
  66
1
  10
0
  20
0
  30
0
  0
VERTEX
  5
48c
  8
Layer_0
  10
173.07214
  20
352.69986
  0
VERTEX
  5
48d
  8
Layer_0
  10
173.07214
  20
359.21921
  0
SEQEND
  0
POLYLINE
  5
48f
  8
Layer_0
  66
1
  10
0
  20
0
  30
0
  0
VERTEX
  5
48f
  8
Layer_0
  10
173.07214
  20
407.22519
  0
VERTEX
  5
490
  8
Layer_0
  10
173.07214
  20
387.58252
  0
SEQEND
  0
POLYLINE
  5
492
  8
Layer_0
  66
1
  10
0
  20
0
  30
0
  0
VERTEX
  5
492
  8
Layer_0
  10
173.07214
  20
383.26453
  0
VERTEX
  5
493
  8
Layer_0
  10
173.07214
  20
377.59186
  0
SEQEND
  0
POLYLINE
  5
495
  8
Layer_0
  66
1
  10
0
  20
0
  30
0
  0
VERTEX
  5
495
  8
Layer_0
  10
173.07214
  20
425.59784
  0
VERTEX
  5
496
  8
Layer_0
  10
173.07214
  20
432.20184
  0
SEQEND
  0
POLYLINE
  5
498
  8
Layer_0
  66
1
  10
0
  20
0
  30
0
  0
VERTEX
  5
498
  8
Layer_0
  10
161.04944
  20
352.69986
  0
VERTEX
  5
499
  8
Layer_0
  10
161.04944
  20
364.97653
  0
SEQEND
  0
POLYLINE
  5
49b
  8
Layer_0
  66
1
  10
0
  20
0
  30
0
  0
VERTEX
  5
49b
  8
Layer_0
  10
161.04944
  20
371.91922
  0
VERTEX
  5
49c
  8
Layer_0
  10
161.04944
  20
412.89786
  0
SEQEND
  0
POLYLINE
  5
49e
  8
Layer_0
  66
1
  10
0
  20
0
  30
0
  0
VERTEX
  5
49e
  8
Layer_0
  10
161.04944
  20
419.9252
  0
VERTEX
  5
49f
  8
Layer_0
  10
161.04944
  20
432.20184
  0
SEQEND
  0
POLYLINE
  5
4a1
  8
Layer_0
  66
1
  10
0
  20
0
  30
0
  0
VERTEX
  5
4a1
  8
Layer_0
  10
149.11145
  20
352.69986
  0
VERTEX
  5
4a2
  8
Layer_0
  10
149.11145
  20
386.39719
  0
SEQEND
  0
POLYLINE
  5
4a4
  8
Layer_0
  66
1
  10
0
  20
0
  30
0
  0
VERTEX
  5
4a4
  8
Layer_0
  10
149.11145
  20
398.41983
  0
VERTEX
  5
4a5
  8
Layer_0
  10
149.11145
  20
432.20184
  0
SEQEND
  0
POLYLINE
  5
4a7
  8
Layer_0
  66
1
  10
0
  20
0
  30
0
  0
VERTEX
  5
4a7
  8
Layer_0
  10
137.08881
  20
352.69986
  0
VERTEX
  5
4a8
  8
Layer_0
  10
137.08881
  20
366.16187
  0
SEQEND
  0
POLYLINE
  5
4aa
  8
Layer_0
  66
1
  10
0
  20
0
  30
0
  0
VERTEX
  5
4aa
  8
Layer_0
  10
137.08881
  20
418.65521
  0
VERTEX
  5
4ab
  8
Layer_0
  10
137.08881
  20
432.20184
  0
SEQEND
  0
POLYLINE
  5
4ad
  8
Layer_0
  66
1
  10
0
  20
0
  30
0
  0
VERTEX
  5
4ad
  8
Layer_0
  10
125.0661
  20
352.69986
  0
VERTEX
  5
4ae
  8
Layer_0
  10
125.0661
  20
360.06586
  0
SEQEND
  0
POLYLINE
  5
4b0
  8
Layer_0
  66
1
  10
0
  20
0
  30
0
  0
VERTEX
  5
4b0
  8
Layer_0
  10
125.0661
  20
424.75122
  0
VERTEX
  5
4b1
  8
Layer_0
  10
125.0661
  20
432.20184
  0
SEQEND
  0
POLYLINE
  5
4b3
  8
Layer_0
  66
1
  10
0
  20
0
  30
0
  0
VERTEX
  5
4b3
  8
Layer_0
  10
113.12811
  20
352.69986
  0
VERTEX
  5
4b4
  8
Layer_0
  10
113.12811
  20
358.96521
  0
SEQEND
  0
POLYLINE
  5
4b6
  8
Layer_0
  66
1
  10
0
  20
0
  30
0
  0
VERTEX
  5
4b6
  8
Layer_0
  10
113.12811
  20
425.85184
  0
VERTEX
  5
4b7
  8
Layer_0
  10
113.12811
  20
432.20184
  0
SEQEND
  0
POLYLINE
  5
4b9
  8
Layer_0
  66
1
  10
0
  20
0
  30
0
  0
VERTEX
  5
4b9
  8
Layer_0
  10
101.10547
  20
352.69986
  0
VERTEX
  5
4ba
  8
Layer_0
  10
101.10547
  20
362.35187
  0
SEQEND
  0
POLYLINE
  5
4bc
  8
Layer_0
  66
1
  10
0
  20
0
  30
0
  0
VERTEX
  5
4bc
  8
Layer_0
  10
101.10547
  20
422.38052
  0
VERTEX
  5
4bd
  8
Layer_0
  10
101.10547
  20
432.20184
  0
SEQEND
  0
POLYLINE
  5
4bf
  8
Layer_0
  66
1
  10
0
  20
0
  30
0
  0
VERTEX
  5
4bf
  8
Layer_0
  10
89.082764
  20
352.69986
  0
VERTEX
  5
4c0
  8
Layer_0
  10
89.082764
  20
372.42719
  0
SEQEND
  0
POLYLINE
  5
4c2
  8
Layer_0
  66
1
  10
0
  20
0
  30
0
  0
VERTEX
  5
4c2
  8
Layer_0
  10
89.082764
  20
412.38986
  0
VERTEX
  5
4c3
  8
Layer_0
  10
89.082764
  20
432.20184
  0
SEQEND
  0
POLYLINE
  5
4c5
  8
Layer_0
  66
1
  10
0
  20
0
  30
0
  0
VERTEX
  5
4c5
  8
Layer_0
  10
77.06012
  20
352.69986
  0
VERTEX
  5
4c6
  8
Layer_0
  10
77.06012
  20
432.20184
  0
SEQEND
  0
POLYLINE
  5
4c8
  8
Layer_1
  70
1
  66
1
  10
0
  20
0
  30
0
  0
VERTEX
  5
4c8
  8
Layer_1
  10
77.086426
  20
435.20251
  0
VERTEX
  5
4c9
  8
Layer_1
  10
77.086426
  20
432.20251
  0
VERTEX
  5
4ca
  8
Layer_1
  10
89.086426
  20
432.20251
  0
VERTEX
  5
4cb
  8
Layer_1
  10
89.086426
  20
435.20251
  0
VERTEX
  5
4cc
  8
Layer_1
  10
101.08643
  20
435.20251
  0
VERTEX
  5
4cd
  8
Layer_1
  10
101.08643
  20
432.20251
  0
VERTEX
  5
4ce
  8
Layer_1
  10
113.08643
  20
432.20251
  0
VERTEX
  5
4cf
  8
Layer_1
  10
113.08643
  20
435.20251
  0
VERTEX
  5
4d0
  8
Layer_1
  10
125.08643
  20
435.20251
  0
VERTEX
  5
4d1
  8
Layer_1
  10
125.08643
  20
432.20251
  0
VERTEX
  5
4d2
  8
Layer_1
  10
137.08643
  20
432.20251
  0
VERTEX
  5
4d3
  8
Layer_1
  10
137.08643
  20
435.20251
  0
VERTEX
  5
4d4
  8
Layer_1
  10
149.08643
  20
435.20251
  0
VERTEX
  5
4d5
  8
Layer_1
  10
149.08643
  20
432.20251
  0
VERTEX
  5
4d6
  8
Layer_1
  10
161.08643
  20
432.20251
  0
VERTEX
  5
4d7
  8
Layer_1
  10
161.08643
  20
435.20251
  0
VERTEX
  5
4d8
  8
Layer_1
  10
173.08643
  20
435.20251
  0
VERTEX
  5
4d9
  8
Layer_1
  10
173.08643
  20
432.20251
  0
VERTEX
  5
4da
  8
Layer_1
  10
185.08643
  20
432.20251
  0
VERTEX
  5
4db
  8
Layer_1
  10
185.08643
  20
435.20251
  0
VERTEX
  5
4dc
  8
Layer_1
  10
197.08643
  20
435.20251
  0
VERTEX
  5
4dd
  8
Layer_1
  10
197.08643
  20
422.45251
  0
VERTEX
  5
4de
  8
Layer_1
  10
194.08643
  20
422.45251
  0
VERTEX
  5
4df
  8
Layer_1
  10
194.08643
  20
410.45251
  0
VERTEX
  5
4e0
  8
Layer_1
  10
197.08643
  20
410.45251
  0
VERTEX
  5
4e1
  8
Layer_1
  10
197.08643
  20
398.45251
  0
VERTEX
  5
4e2
  8
Layer_1
  10
194.08643
  20
398.45251
  0
VERTEX
  5
4e3
  8
Layer_1
  10
194.08643
  20
386.45251
  0
VERTEX
  5
4e4
  8
Layer_1
  10
197.08643
  20
386.45251
  0
VERTEX
  5
4e5
  8
Layer_1
  10
197.08643
  20
374.45251
  0
VERTEX
  5
4e6
  8
Layer_1
  10
194.08643
  20
374.45251
  0
VERTEX
  5
4e7
  8
Layer_1
  10
194.08643
  20
362.45251
  0
VERTEX
  5
4e8
  8
Layer_1
  10
197.08643
  20
362.45251
  0
VERTEX
  5
4e9
  8
Layer_1
  10
197.08643
  20
349.70251
  0
VERTEX
  5
4ea
  8
Layer_1
  10
185.08643
  20
349.70251
  0
VERTEX
  5
4eb
  8
Layer_1
  10
185.08643
  20
352.70251
  0
VERTEX
  5
4ec
  8
Layer_1
  10
173.08643
  20
352.70251
  0
VERTEX
  5
4ed
  8
Layer_1
  10
173.08643
  20
349.70251
  0
VERTEX
  5
4ee
  8
Layer_1
  10
161.08643
  20
349.70251
  0
VERTEX
  5
4ef
  8
Layer_1
  10
161.08643
  20
352.70251
  0
VERTEX
  5
4f0
  8
Layer_1
  10
149.08643
  20
352.70251
  0
VERTEX
  5
4f1
  8
Layer_1
  10
149.08643
  20
349.70251
  0
VERTEX
  5
4f2
  8
Layer_1
  10
137.08643
  20
349.70251
  0
VERTEX
  5
4f3
  8
Layer_1
  10
137.08643
  20
352.70251
  0
VERTEX
  5
4f4
  8
Layer_1
  10
125.08643
  20
352.70251
  0
VERTEX
  5
4f5
  8
Layer_1
  10
125.08643
  20
349.70251
  0
VERTEX
  5
4f6
  8
Layer_1
  10
113.08643
  20
349.70251
  0
VERTEX
  5
4f7
  8
Layer_1
  10
113.08643
  20
352.70251
  0
VERTEX
  5
4f8
  8
Layer_1
  10
101.08643
  20
352.70251
  0
VERTEX
  5
4f9
  8
Layer_1
  10
101.08643
  20
349.70251
  0
VERTEX
  5
4fa
  8
Layer_1
  10
89.086426
  20
349.70251
  0
VERTEX
  5
4fb
  8
Layer_1
  10
89.086426
  20
352.70251
  0
VERTEX
  5
4fc
  8
Layer_1
  10
77.086426
  20
352.70251
  0
VERTEX
  5
4fd
  8
Layer_1
  10
77.086426
  20
349.70251
  0
VERTEX
  5
4fe
  8
Layer_1
  10
65.086426
  20
349.70251
  0
VERTEX
  5
4ff
  8
Layer_1
  10
65.086426
  20
362.45251
  0
VERTEX
  5
500
  8
Layer_1
  10
68.086426
  20
362.45251
  0
VERTEX
  5
501
  8
Layer_1
  10
68.086426
  20
374.45251
  0
VERTEX
  5
502
  8
Layer_1
  10
65.086426
  20
374.45251
  0
VERTEX
  5
503
  8
Layer_1
  10
65.086426
  20
386.45251
  0
VERTEX
  5
504
  8
Layer_1
  10
68.086426
  20
386.45251
  0
VERTEX
  5
505
  8
Layer_1
  10
68.086426
  20
398.45251
  0
VERTEX
  5
506
  8
Layer_1
  10
65.086426
  20
398.45251
  0
VERTEX
  5
507
  8
Layer_1
  10
65.086426
  20
410.45251
  0
VERTEX
  5
508
  8
Layer_1
  10
68.086426
  20
410.45251
  0
VERTEX
  5
509
  8
Layer_1
  10
68.086426
  20
422.45251
  0
VERTEX
  5
50a
  8
Layer_1
  10
65.086426
  20
422.45251
  0
VERTEX
  5
50b
  8
Layer_1
  10
65.086426
  20
435.20251
  0
VERTEX
  5
50c
  8
Layer_1
  10
77.086426
  20
435.20251
  0
SEQEND
  0
POLYLINE
  5
50e
  8
Layer_0
  66
1
  10
0
  20
0
  30
0
  0
VERTEX
  5
50e
  8
Layer_0
  10
185.10248
  20
344.65186
  0
VERTEX
  5
50f
  8
Layer_0
  10
197.12512
  20
310.70053
  0
SEQEND
  0
POLYLINE
  5
511
  8
Layer_0
  66
1
  10
0
  20
0
  30
0
  0
VERTEX
  5
511
  8
Layer_0
  10
197.12512
  20
344.65186
  0
VERTEX
  5
512
  8
Layer_0
  10
185.10248
  20
310.70053
  0
SEQEND
  0
POLYLINE
  5
514
  8
Layer_0
  66
1
  10
0
  20
0
  30
0
  0
VERTEX
  5
514
  8
Layer_0
  10
161.05713
  20
344.65186
  0
VERTEX
  5
515
  8
Layer_0
  10
149.11914
  20
310.70053
  0
SEQEND
  0
POLYLINE
  5
517
  8
Layer_0
  66
1
  10
0
  20
0
  30
0
  0
VERTEX
  5
517
  8
Layer_0
  10
149.11914
  20
344.65186
  0
VERTEX
  5
518
  8
Layer_0
  10
161.05713
  20
310.70053
  0
SEQEND
  0
POLYLINE
  5
51a
  8
Layer_0
  66
1
  10
0
  20
0
  30
0
  0
VERTEX
  5
51a
  8
Layer_0
  10
113.1358
  20
344.65186
  0
VERTEX
  5
51b
  8
Layer_0
  10
101.11316
  20
310.70053
  0
SEQEND
  0
POLYLINE
  5
51d
  8
Layer_0
  66
1
  10
0
  20
0
  30
0
  0
VERTEX
  5
51d
  8
Layer_0
  10
101.11316
  20
344.65186
  0
VERTEX
  5
51e
  8
Layer_0
  10
113.1358
  20
310.70053
  0
SEQEND
  0
POLYLINE
  5
520
  8
Layer_0
  66
1
  10
0
  20
0
  30
0
  0
VERTEX
  5
520
  8
Layer_0
  10
89.090454
  20
344.65186
  0
VERTEX
  5
521
  8
Layer_0
  10
77.06781
  20
310.70053
  0
SEQEND
  0
POLYLINE
  5
523
  8
Layer_0
  66
1
  10
0
  20
0
  30
0
  0
VERTEX
  5
523
  8
Layer_0
  10
77.06781
  20
344.65186
  0
VERTEX
  5
524
  8
Layer_0
  10
89.090454
  20
310.70053
  0
SEQEND
  0
POLYLINE
  5
526
  8
Layer_0
  66
1
  10
0
  20
0
  30
0
  0
VERTEX
  5
526
  8
Layer_0
  10
77.06781
  20
344.65186
  0
VERTEX
  5
527
  8
Layer_0
  10
65.129822
  20
310.70053
  0
SEQEND
  0
POLYLINE
  5
529
  8
Layer_0
  66
1
  10
0
  20
0
  30
0
  0
VERTEX
  5
529
  8
Layer_0
  10
65.129822
  20
344.65186
  0
VERTEX
  5
52a
  8
Layer_0
  10
77.06781
  20
310.70053
  0
SEQEND
  0
POLYLINE
  5
52c
  8
Layer_0
  66
1
  10
0
  20
0
  30
0
  0
VERTEX
  5
52c
  8
Layer_0
  10
173.07983
  20
344.65186
  0
VERTEX
  5
52d
  8
Layer_0
  10
185.10248
  20
310.70053
  0
SEQEND
  0
POLYLINE
  5
52f
  8
Layer_0
  66
1
  10
0
  20
0
  30
0
  0
VERTEX
  5
52f
  8
Layer_0
  10
185.10248
  20
344.65186
  0
VERTEX
  5
530
  8
Layer_0
  10
173.07983
  20
310.70053
  0
SEQEND
  0
POLYLINE
  5
532
  8
Layer_0
  66
1
  10
0
  20
0
  30
0
  0
VERTEX
  5
532
  8
Layer_0
  10
89.090454
  20
344.65186
  0
VERTEX
  5
533
  8
Layer_0
  10
101.11316
  20
310.70053
  0
SEQEND
  0
POLYLINE
  5
535
  8
Layer_0
  66
1
  10
0
  20
0
  30
0
  0
VERTEX
  5
535
  8
Layer_0
  10
101.11316
  20
344.65186
  0
VERTEX
  5
536
  8
Layer_0
  10
89.090454
  20
310.70053
  0
SEQEND
  0
POLYLINE
  5
538
  8
Layer_0
  66
1
  10
0
  20
0
  30
0
  0
VERTEX
  5
538
  8
Layer_0
  10
125.07379
  20
344.65186
  0
VERTEX
  5
539
  8
Layer_0
  10
113.1358
  20
310.70053
  0
SEQEND
  0
POLYLINE
  5
53b
  8
Layer_0
  66
1
  10
0
  20
0
  30
0
  0
VERTEX
  5
53b
  8
Layer_0
  10
113.1358
  20
344.65186
  0
VERTEX
  5
53c
  8
Layer_0
  10
125.07379
  20
310.70053
  0
SEQEND
  0
POLYLINE
  5
53e
  8
Layer_0
  66
1
  10
0
  20
0
  30
0
  0
VERTEX
  5
53e
  8
Layer_0
  10
137.0965
  20
344.65186
  0
VERTEX
  5
53f
  8
Layer_0
  10
149.11914
  20
310.70053
  0
SEQEND
  0
POLYLINE
  5
541
  8
Layer_0
  66
1
  10
0
  20
0
  30
0
  0
VERTEX
  5
541
  8
Layer_0
  10
149.11914
  20
344.65186
  0
VERTEX
  5
542
  8
Layer_0
  10
137.0965
  20
310.70053
  0
SEQEND
  0
POLYLINE
  5
544
  8
Layer_0
  66
1
  10
0
  20
0
  30
0
  0
VERTEX
  5
544
  8
Layer_0
  10
173.07983
  20
344.65186
  0
VERTEX
  5
545
  8
Layer_0
  10
161.05713
  20
310.70053
  0
SEQEND
  0
POLYLINE
  5
547
  8
Layer_0
  66
1
  10
0
  20
0
  30
0
  0
VERTEX
  5
547
  8
Layer_0
  10
161.05713
  20
344.65186
  0
VERTEX
  5
548
  8
Layer_0
  10
173.07983
  20
310.70053
  0
SEQEND
  0
POLYLINE
  5
54a
  8
Layer_1
  70
1
  66
1
  10
0
  20
0
  30
0
  0
VERTEX
  5
54a
  8
Layer_1
  10
77.08606
  20
344.67651
  0
VERTEX
  5
54b
  8
Layer_1
  10
77.08606
  20
347.67651
  0
VERTEX
  5
54c
  8
Layer_1
  10
89.08606
  20
347.67651
  0
VERTEX
  5
54d
  8
Layer_1
  10
89.08606
  20
344.67651
  0
VERTEX
  5
54e
  8
Layer_1
  10
101.08606
  20
344.67651
  0
VERTEX
  5
54f
  8
Layer_1
  10
101.08606
  20
347.67651
  0
VERTEX
  5
550
  8
Layer_1
  10
113.08606
  20
347.67651
  0
VERTEX
  5
551
  8
Layer_1
  10
113.08606
  20
344.67651
  0
VERTEX
  5
552
  8
Layer_1
  10
125.08606
  20
344.67651
  0
VERTEX
  5
553
  8
Layer_1
  10
125.08606
  20
347.67651
  0
VERTEX
  5
554
  8
Layer_1
  10
137.08606
  20
347.67651
  0
VERTEX
  5
555
  8
Layer_1
  10
137.08606
  20
344.67651
  0
VERTEX
  5
556
  8
Layer_1
  10
149.08606
  20
344.67651
  0
VERTEX
  5
557
  8
Layer_1
  10
149.08606
  20
347.67651
  0
VERTEX
  5
558
  8
Layer_1
  10
161.08606
  20
347.67651
  0
VERTEX
  5
559
  8
Layer_1
  10
161.08606
  20
344.67651
  0
VERTEX
  5
55a
  8
Layer_1
  10
173.08606
  20
344.67651
  0
VERTEX
  5
55b
  8
Layer_1
  10
173.08606
  20
347.67651
  0
VERTEX
  5
55c
  8
Layer_1
  10
185.08606
  20
347.67651
  0
VERTEX
  5
55d
  8
Layer_1
  10
185.08606
  20
344.67651
  0
VERTEX
  5
55e
  8
Layer_1
  10
194.08606
  20
344.67651
  0
VERTEX
  5
55f
  8
Layer_1
  10
194.08606
  20
333.67651
  0
VERTEX
  5
560
  8
Layer_1
  10
197.08606
  20
333.67651
  0
VERTEX
  5
561
  8
Layer_1
  10
197.08606
  20
321.67651
  0
VERTEX
  5
562
  8
Layer_1
  10
194.08606
  20
321.67651
  0
VERTEX
  5
563
  8
Layer_1
  10
194.08606
  20
310.67651
  0
VERTEX
  5
564
  8
Layer_1
  10
185.08606
  20
310.67651
  0
VERTEX
  5
565
  8
Layer_1
  10
185.08606
  20
307.67651
  0
VERTEX
  5
566
  8
Layer_1
  10
173.08606
  20
307.67651
  0
VERTEX
  5
567
  8
Layer_1
  10
173.08606
  20
310.67651
  0
VERTEX
  5
568
  8
Layer_1
  10
161.08606
  20
310.67651
  0
VERTEX
  5
569
  8
Layer_1
  10
161.08606
  20
307.67651
  0
VERTEX
  5
56a
  8
Layer_1
  10
149.08606
  20
307.67651
  0
VERTEX
  5
56b
  8
Layer_1
  10
149.08606
  20
310.67651
  0
VERTEX
  5
56c
  8
Layer_1
  10
137.08606
  20
310.67651
  0
VERTEX
  5
56d
  8
Layer_1
  10
137.08606
  20
307.67651
  0
VERTEX
  5
56e
  8
Layer_1
  10
125.08606
  20
307.67651
  0
VERTEX
  5
56f
  8
Layer_1
  10
125.08606
  20
310.67651
  0
VERTEX
  5
570
  8
Layer_1
  10
113.08606
  20
310.67651
  0
VERTEX
  5
571
  8
Layer_1
  10
113.08606
  20
307.67651
  0
VERTEX
  5
572
  8
Layer_1
  10
101.08606
  20
307.67651
  0
VERTEX
  5
573
  8
Layer_1
  10
101.08606
  20
310.67651
  0
VERTEX
  5
574
  8
Layer_1
  10
89.08606
  20
310.67651
  0
VERTEX
  5
575
  8
Layer_1
  10
89.08606
  20
307.67651
  0
VERTEX
  5
576
  8
Layer_1
  10
77.08606
  20
307.67651
  0
VERTEX
  5
577
  8
Layer_1
  10
77.08606
  20
310.67651
  0
VERTEX
  5
578
  8
Layer_1
  10
68.08606
  20
310.67651
  0
VERTEX
  5
579
  8
Layer_1
  10
68.08606
  20
321.67651
  0
VERTEX
  5
57a
  8
Layer_1
  10
65.08606
  20
321.67651
  0
VERTEX
  5
57b
  8
Layer_1
  10
65.08606
  20
333.67651
  0
VERTEX
  5
57c
  8
Layer_1
  10
68.08606
  20
333.67651
  0
VERTEX
  5
57d
  8
Layer_1
  10
68.08606
  20
344.67651
  0
VERTEX
  5
57e
  8
Layer_1
  10
77.08606
  20
344.67651
  0
SEQEND
  0
POLYLINE
  5
580
  8
Layer_0
  66
1
  10
0
  20
0
  30
0
  0
VERTEX
  5
580
  8
Layer_0
  10
137.0965
  20
344.65186
  0
VERTEX
  5
581
  8
Layer_0
  10
125.07379
  20
310.70053
  0
SEQEND
  0
POLYLINE
  5
583
  8
Layer_0
  66
1
  10
0
  20
0
  30
0
  0
VERTEX
  5
583
  8
Layer_0
  10
125.07379
  20
344.65186
  0
VERTEX
  5
584
  8
Layer_0
  10
137.0965
  20
310.70053
  0
SEQEND
  0
POLYLINE
  5
586
  8
Layer_1
  70
1
  66
1
  10
0
  20
0
  30
0
  0
VERTEX
  5
586
  8
Layer_1
  10
183.81775
  20
285.42337
  0
VERTEX
  5
587
  8
Layer_1
  10
183.79193
  20
285.67081
  0
VERTEX
  5
588
  8
Layer_1
  10
183.71796
  20
285.90125
  0
VERTEX
  5
589
  8
Layer_1
  10
183.60083
  20
286.10974
  0
VERTEX
  5
58a
  8
Layer_1
  10
183.4458
  20
286.29144
  0
VERTEX
  5
58b
  8
Layer_1
  10
183.25781
  20
286.44135
  0
VERTEX
  5
58c
  8
Layer_1
  10
183.04211
  20
286.55457
  0
VERTEX
  5
58d
  8
Layer_1
  10
182.80371
  20
286.6261
  0
VERTEX
  5
58e
  8
Layer_1
  10
182.54773
  20
286.65103
  0
VERTEX
  5
58f
  8
Layer_1
  10
182.29175
  20
286.6261
  0
VERTEX
  5
590
  8
Layer_1
  10
182.05341
  20
286.55457
  0
VERTEX
  5
591
  8
Layer_1
  10
181.83771
  20
286.44135
  0
VERTEX
  5
592
  8
Layer_1
  10
181.64972
  20
286.29144
  0
VERTEX
  5
593
  8
Layer_1
  10
181.49463
  20
286.10974
  0
VERTEX
  5
594
  8
Layer_1
  10
181.37756
  20
285.90125
  0
VERTEX
  5
595
  8
Layer_1
  10
181.30359
  20
285.67081
  0
VERTEX
  5
596
  8
Layer_1
  10
181.27777
  20
285.42337
  0
VERTEX
  5
597
  8
Layer_1
  10
181.30359
  20
285.17593
  0
VERTEX
  5
598
  8
Layer_1
  10
181.37756
  20
284.9455
  0
VERTEX
  5
599
  8
Layer_1
  10
181.49463
  20
284.73694
  0
VERTEX
  5
59a
  8
Layer_1
  10
181.64972
  20
284.55527
  0
VERTEX
  5
59b
  8
Layer_1
  10
181.83771
  20
284.40533
  0
VERTEX
  5
59c
  8
Layer_1
  10
182.05341
  20
284.29218
  0
VERTEX
  5
59d
  8
Layer_1
  10
182.29175
  20
284.22064
  0
VERTEX
  5
59e
  8
Layer_1
  10
182.54773
  20
284.19568
  0
VERTEX
  5
59f
  8
Layer_1
  10
182.80371
  20
284.22064
  0
VERTEX
  5
5a0
  8
Layer_1
  10
183.04211
  20
284.29218
  0
VERTEX
  5
5a1
  8
Layer_1
  10
183.25781
  20
284.40533
  0
VERTEX
  5
5a2
  8
Layer_1
  10
183.4458
  20
284.55527
  0
VERTEX
  5
5a3
  8
Layer_1
  10
183.60083
  20
284.73694
  0
VERTEX
  5
5a4
  8
Layer_1
  10
183.71796
  20
284.9455
  0
VERTEX
  5
5a5
  8
Layer_1
  10
183.79193
  20
285.17593
  0
VERTEX
  5
5a6
  8
Layer_1
  10
183.81775
  20
285.42337
  0
SEQEND
  0
POLYLINE
  5
5a8
  8
Layer_1
  70
1
  66
1
  10
0
  20
0
  30
0
  0
VERTEX
  5
5a8
  8
Layer_1
  10
183.81775
  20
227.4267
  0
VERTEX
  5
5a9
  8
Layer_1
  10
183.79193
  20
227.6741
  0
VERTEX
  5
5aa
  8
Layer_1
  10
183.71796
  20
227.90454
  0
VERTEX
  5
5ab
  8
Layer_1
  10
183.60083
  20
228.1131
  0
VERTEX
  5
5ac
  8
Layer_1
  10
183.4458
  20
228.29477
  0
VERTEX
  5
5ad
  8
Layer_1
  10
183.25781
  20
228.4447
  0
VERTEX
  5
5ae
  8
Layer_1
  10
183.04211
  20
228.55786
  0
VERTEX
  5
5af
  8
Layer_1
  10
182.80371
  20
228.62939
  0
VERTEX
  5
5b0
  8
Layer_1
  10
182.54773
  20
228.65436
  0
VERTEX
  5
5b1
  8
Layer_1
  10
182.29175
  20
228.62939
  0
VERTEX
  5
5b2
  8
Layer_1
  10
182.05341
  20
228.55786
  0
VERTEX
  5
5b3
  8
Layer_1
  10
181.83771
  20
228.4447
  0
VERTEX
  5
5b4
  8
Layer_1
  10
181.64972
  20
228.29477
  0
VERTEX
  5
5b5
  8
Layer_1
  10
181.49463
  20
228.1131
  0
VERTEX
  5
5b6
  8
Layer_1
  10
181.37756
  20
227.90454
  0
VERTEX
  5
5b7
  8
Layer_1
  10
181.30359
  20
227.6741
  0
VERTEX
  5
5b8
  8
Layer_1
  10
181.27777
  20
227.4267
  0
VERTEX
  5
5b9
  8
Layer_1
  10
181.30359
  20
227.17929
  0
VERTEX
  5
5ba
  8
Layer_1
  10
181.37756
  20
226.94885
  0
VERTEX
  5
5bb
  8
Layer_1
  10
181.49463
  20
226.7403
  0
VERTEX
  5
5bc
  8
Layer_1
  10
181.64972
  20
226.55862
  0
VERTEX
  5
5bd
  8
Layer_1
  10
181.83771
  20
226.40869
  0
VERTEX
  5
5be
  8
Layer_1
  10
182.05341
  20
226.29553
  0
VERTEX
  5
5bf
  8
Layer_1
  10
182.29175
  20
226.224
  0
VERTEX
  5
5c0
  8
Layer_1
  10
182.54773
  20
226.19904
  0
VERTEX
  5
5c1
  8
Layer_1
  10
182.80371
  20
226.224
  0
VERTEX
  5
5c2
  8
Layer_1
  10
183.04211
  20
226.29553
  0
VERTEX
  5
5c3
  8
Layer_1
  10
183.25781
  20
226.40869
  0
VERTEX
  5
5c4
  8
Layer_1
  10
183.4458
  20
226.55862
  0
VERTEX
  5
5c5
  8
Layer_1
  10
183.60083
  20
226.7403
  0
VERTEX
  5
5c6
  8
Layer_1
  10
183.71796
  20
226.94885
  0
VERTEX
  5
5c7
  8
Layer_1
  10
183.79193
  20
227.17929
  0
VERTEX
  5
5c8
  8
Layer_1
  10
183.81775
  20
227.4267
  0
SEQEND
  0
POLYLINE
  5
5ca
  8
Layer_1
  70
1
  66
1
  10
0
  20
0
  30
0
  0
VERTEX
  5
5ca
  8
Layer_1
  10
160.78839
  20
285.42337
  0
VERTEX
  5
5cb
  8
Layer_1
  10
160.76343
  20
285.67081
  0
VERTEX
  5
5cc
  8
Layer_1
  10
160.69189
  20
285.90125
  0
VERTEX
  5
5cd
  8
Layer_1
  10
160.57874
  20
286.10974
  0
VERTEX
  5
5ce
  8
Layer_1
  10
160.42883
  20
286.29144
  0
VERTEX
  5
5cf
  8
Layer_1
  10
160.24713
  20
286.44135
  0
VERTEX
  5
5d0
  8
Layer_1
  10
160.03857
  20
286.55457
  0
VERTEX
  5
5d1
  8
Layer_1
  10
159.80817
  20
286.6261
  0
VERTEX
  5
5d2
  8
Layer_1
  10
159.56073
  20
286.65103
  0
VERTEX
  5
5d3
  8
Layer_1
  10
159.31329
  20
286.6261
  0
VERTEX
  5
5d4
  8
Layer_1
  10
159.08289
  20
286.55457
  0
VERTEX
  5
5d5
  8
Layer_1
  10
158.87433
  20
286.44135
  0
VERTEX
  5
5d6
  8
Layer_1
  10
158.69263
  20
286.29144
  0
VERTEX
  5
5d7
  8
Layer_1
  10
158.54272
  20
286.10974
  0
VERTEX
  5
5d8
  8
Layer_1
  10
158.42957
  20
285.90125
  0
VERTEX
  5
5d9
  8
Layer_1
  10
158.35803
  20
285.67081
  0
VERTEX
  5
5da
  8
Layer_1
  10
158.33307
  20
285.42337
  0
VERTEX
  5
5db
  8
Layer_1
  10
158.35803
  20
285.17593
  0
VERTEX
  5
5dc
  8
Layer_1
  10
158.42957
  20
284.9455
  0
VERTEX
  5
5dd
  8
Layer_1
  10
158.54272
  20
284.73694
  0
VERTEX
  5
5de
  8
Layer_1
  10
158.69263
  20
284.55527
  0
VERTEX
  5
5df
  8
Layer_1
  10
158.87433
  20
284.40533
  0
VERTEX
  5
5e0
  8
Layer_1
  10
159.08289
  20
284.29218
  0
VERTEX
  5
5e1
  8
Layer_1
  10
159.31329
  20
284.22064
  0
VERTEX
  5
5e2
  8
Layer_1
  10
159.56073
  20
284.19568
  0
VERTEX
  5
5e3
  8
Layer_1
  10
159.80817
  20
284.22064
  0
VERTEX
  5
5e4
  8
Layer_1
  10
160.03857
  20
284.29218
  0
VERTEX
  5
5e5
  8
Layer_1
  10
160.24713
  20
284.40533
  0
VERTEX
  5
5e6
  8
Layer_1
  10
160.42883
  20
284.55527
  0
VERTEX
  5
5e7
  8
Layer_1
  10
160.57874
  20
284.73694
  0
VERTEX
  5
5e8
  8
Layer_1
  10
160.69189
  20
284.9455
  0
VERTEX
  5
5e9
  8
Layer_1
  10
160.76343
  20
285.17593
  0
VERTEX
  5
5ea
  8
Layer_1
  10
160.78839
  20
285.42337
  0
SEQEND
  0
POLYLINE
  5
5ec
  8
Layer_1
  70
1
  66
1
  10
0
  20
0
  30
0
  0
VERTEX
  5
5ec
  8
Layer_1
  10
160.78839
  20
227.4267
  0
VERTEX
  5
5ed
  8
Layer_1
  10
160.76343
  20
227.6741
  0
VERTEX
  5
5ee
  8
Layer_1
  10
160.69189
  20
227.90454
  0
VERTEX
  5
5ef
  8
Layer_1
  10
160.57874
  20
228.1131
  0
VERTEX
  5
5f0
  8
Layer_1
  10
160.42883
  20
228.29477
  0
VERTEX
  5
5f1
  8
Layer_1
  10
160.24713
  20
228.4447
  0
VERTEX
  5
5f2
  8
Layer_1
  10
160.03857
  20
228.55786
  0
VERTEX
  5
5f3
  8
Layer_1
  10
159.80817
  20
228.62939
  0
VERTEX
  5
5f4
  8
Layer_1
  10
159.56073
  20
228.65436
  0
VERTEX
  5
5f5
  8
Layer_1
  10
159.31329
  20
228.62939
  0
VERTEX
  5
5f6
  8
Layer_1
  10
159.08289
  20
228.55786
  0
VERTEX
  5
5f7
  8
Layer_1
  10
158.87433
  20
228.4447
  0
VERTEX
  5
5f8
  8
Layer_1
  10
158.69263
  20
228.29477
  0
VERTEX
  5
5f9
  8
Layer_1
  10
158.54272
  20
228.1131
  0
VERTEX
  5
5fa
  8
Layer_1
  10
158.42957
  20
227.90454
  0
VERTEX
  5
5fb
  8
Layer_1
  10
158.35803
  20
227.6741
  0
VERTEX
  5
5fc
  8
Layer_1
  10
158.33307
  20
227.4267
  0
VERTEX
  5
5fd
  8
Layer_1
  10
158.35803
  20
227.17929
  0
VERTEX
  5
5fe
  8
Layer_1
  10
158.42957
  20
226.94885
  0
VERTEX
  5
5ff
  8
Layer_1
  10
158.54272
  20
226.7403
  0
VERTEX
  5
600
  8
Layer_1
  10
158.69263
  20
226.55862
  0
VERTEX
  5
601
  8
Layer_1
  10
158.87433
  20
226.40869
  0
VERTEX
  5
602
  8
Layer_1
  10
159.08289
  20
226.29553
  0
VERTEX
  5
603
  8
Layer_1
  10
159.31329
  20
226.224
  0
VERTEX
  5
604
  8
Layer_1
  10
159.56073
  20
226.19904
  0
VERTEX
  5
605
  8
Layer_1
  10
159.80817
  20
226.224
  0
VERTEX
  5
606
  8
Layer_1
  10
160.03857
  20
226.29553
  0
VERTEX
  5
607
  8
Layer_1
  10
160.24713
  20
226.40869
  0
VERTEX
  5
608
  8
Layer_1
  10
160.42883
  20
226.55862
  0
VERTEX
  5
609
  8
Layer_1
  10
160.57874
  20
226.7403
  0
VERTEX
  5
60a
  8
Layer_1
  10
160.69189
  20
226.94885
  0
VERTEX
  5
60b
  8
Layer_1
  10
160.76343
  20
227.17929
  0
VERTEX
  5
60c
  8
Layer_1
  10
160.78839
  20
227.4267
  0
SEQEND
  0
POLYLINE
  5
60e
  8
Layer_0
  66
1
  10
0
  20
0
  30
0
  0
VERTEX
  5
60e
  8
Layer_0
  10
184.9184
  20
223.15182
  0
VERTEX
  5
60f
  8
Layer_0
  10
184.9184
  20
302.85278
  0
SEQEND
  0
POLYLINE
  5
611
  8
Layer_0
  66
1
  10
0
  20
0
  30
0
  0
VERTEX
  5
611
  8
Layer_0
  10
67.917969
  20
280.89368
  0
VERTEX
  5
612
  8
Layer_0
  10
194.03973
  20
280.89368
  0
SEQEND
  0
POLYLINE
  5
614
  8
Layer_0
  66
1
  10
0
  20
0
  30
0
  0
VERTEX
  5
614
  8
Layer_0
  10
67.909119
  20
292.91635
  0
VERTEX
  5
615
  8
Layer_0
  10
193.89307
  20
292.91635
  0
SEQEND
  0
POLYLINE
  5
617
  8
Layer_0
  66
1
  10
0
  20
0
  30
0
  0
VERTEX
  5
617
  8
Layer_0
  10
67.912415
  20
268.95569
  0
VERTEX
  5
618
  8
Layer_0
  10
194.24481
  20
268.95569
  0
SEQEND
  0
POLYLINE
  5
61a
  8
Layer_0
  66
1
  10
0
  20
0
  30
0
  0
VERTEX
  5
61a
  8
Layer_0
  10
67.909119
  20
256.93301
  0
VERTEX
  5
61b
  8
Layer_0
  10
193.89307
  20
256.93301
  0
SEQEND
  0
POLYLINE
  5
61d
  8
Layer_0
  66
1
  10
0
  20
0
  30
0
  0
VERTEX
  5
61d
  8
Layer_0
  10
67.909119
  20
244.91034
  0
VERTEX
  5
61e
  8
Layer_0
  10
193.89307
  20
244.91034
  0
SEQEND
  0
POLYLINE
  5
620
  8
Layer_0
  66
1
  10
0
  20
0
  30
0
  0
VERTEX
  5
620
  8
Layer_0
  10
67.909119
  20
232.8877
  0
VERTEX
  5
621
  8
Layer_0
  10
193.89307
  20
232.8877
  0
SEQEND
  0
POLYLINE
  5
623
  8
Layer_0
  66
1
  10
0
  20
0
  30
0
  0
VERTEX
  5
623
  8
Layer_0
  10
172.89575
  20
223.15106
  0
VERTEX
  5
624
  8
Layer_0
  10
172.89575
  20
302.65302
  0
SEQEND
  0
POLYLINE
  5
626
  8
Layer_0
  66
1
  10
0
  20
0
  30
0
  0
VERTEX
  5
626
  8
Layer_0
  10
160.87305
  20
223.15106
  0
VERTEX
  5
627
  8
Layer_0
  10
160.87305
  20
302.65302
  0
SEQEND
  0
POLYLINE
  5
629
  8
Layer_0
  66
1
  10
0
  20
0
  30
0
  0
VERTEX
  5
629
  8
Layer_0
  10
148.93506
  20
223.15106
  0
VERTEX
  5
62a
  8
Layer_0
  10
148.93506
  20
302.65302
  0
SEQEND
  0
POLYLINE
  5
62c
  8
Layer_0
  66
1
  10
0
  20
0
  30
0
  0
VERTEX
  5
62c
  8
Layer_0
  10
136.91241
  20
223.15106
  0
VERTEX
  5
62d
  8
Layer_0
  10
136.91241
  20
302.65302
  0
SEQEND
  0
POLYLINE
  5
62f
  8
Layer_0
  66
1
  10
0
  20
0
  30
0
  0
VERTEX
  5
62f
  8
Layer_0
  10
124.88971
  20
223.15106
  0
VERTEX
  5
630
  8
Layer_0
  10
124.88971
  20
302.65302
  0
SEQEND
  0
POLYLINE
  5
632
  8
Layer_0
  66
1
  10
0
  20
0
  30
0
  0
VERTEX
  5
632
  8
Layer_0
  10
112.95172
  20
223.15106
  0
VERTEX
  5
633
  8
Layer_0
  10
112.95172
  20
302.65302
  0
SEQEND
  0
POLYLINE
  5
635
  8
Layer_0
  66
1
  10
0
  20
0
  30
0
  0
VERTEX
  5
635
  8
Layer_0
  10
100.92908
  20
223.15106
  0
VERTEX
  5
636
  8
Layer_0
  10
100.92908
  20
302.65302
  0
SEQEND
  0
POLYLINE
  5
638
  8
Layer_0
  66
1
  10
0
  20
0
  30
0
  0
VERTEX
  5
638
  8
Layer_0
  10
88.906372
  20
223.15106
  0
VERTEX
  5
639
  8
Layer_0
  10
88.906372
  20
302.65302
  0
SEQEND
  0
POLYLINE
  5
63b
  8
Layer_0
  66
1
  10
0
  20
0
  30
0
  0
VERTEX
  5
63b
  8
Layer_0
  10
76.883728
  20
223.15106
  0
VERTEX
  5
63c
  8
Layer_0
  10
76.883728
  20
302.65302
  0
SEQEND
  0
POLYLINE
  5
63e
  8
Layer_1
  70
1
  66
1
  10
0
  20
0
  30
0
  0
VERTEX
  5
63e
  8
Layer_1
  10
76.912048
  20
305.65302
  0
VERTEX
  5
63f
  8
Layer_1
  10
76.912048
  20
302.65302
  0
VERTEX
  5
640
  8
Layer_1
  10
88.912048
  20
302.65302
  0
VERTEX
  5
641
  8
Layer_1
  10
88.912048
  20
305.65302
  0
VERTEX
  5
642
  8
Layer_1
  10
100.91205
  20
305.65302
  0
VERTEX
  5
643
  8
Layer_1
  10
100.91205
  20
302.65302
  0
VERTEX
  5
644
  8
Layer_1
  10
112.91205
  20
302.65302
  0
VERTEX
  5
645
  8
Layer_1
  10
112.91205
  20
305.65302
  0
VERTEX
  5
646
  8
Layer_1
  10
124.91205
  20
305.65302
  0
VERTEX
  5
647
  8
Layer_1
  10
124.91205
  20
302.65302
  0
VERTEX
  5
648
  8
Layer_1
  10
136.91205
  20
302.65302
  0
VERTEX
  5
649
  8
Layer_1
  10
136.91205
  20
305.65302
  0
VERTEX
  5
64a
  8
Layer_1
  10
148.91205
  20
305.65302
  0
VERTEX
  5
64b
  8
Layer_1
  10
148.91205
  20
302.65302
  0
VERTEX
  5
64c
  8
Layer_1
  10
160.91205
  20
302.65302
  0
VERTEX
  5
64d
  8
Layer_1
  10
160.91205
  20
305.65302
  0
VERTEX
  5
64e
  8
Layer_1
  10
172.91205
  20
305.65302
  0
VERTEX
  5
64f
  8
Layer_1
  10
172.91205
  20
302.65302
  0
VERTEX
  5
650
  8
Layer_1
  10
184.91205
  20
302.65302
  0
VERTEX
  5
651
  8
Layer_1
  10
184.91205
  20
305.65302
  0
VERTEX
  5
652
  8
Layer_1
  10
196.91205
  20
305.65302
  0
VERTEX
  5
653
  8
Layer_1
  10
196.91205
  20
292.90302
  0
VERTEX
  5
654
  8
Layer_1
  10
193.91205
  20
292.90302
  0
VERTEX
  5
655
  8
Layer_1
  10
193.91205
  20
280.90302
  0
VERTEX
  5
656
  8
Layer_1
  10
196.91205
  20
280.90302
  0
VERTEX
  5
657
  8
Layer_1
  10
196.91205
  20
268.90302
  0
VERTEX
  5
658
  8
Layer_1
  10
193.91205
  20
268.90302
  0
VERTEX
  5
659
  8
Layer_1
  10
193.91205
  20
256.90302
  0
VERTEX
  5
65a
  8
Layer_1
  10
196.91205
  20
256.90302
  0
VERTEX
  5
65b
  8
Layer_1
  10
196.91205
  20
244.90302
  0
VERTEX
  5
65c
  8
Layer_1
  10
193.91205
  20
244.90302
  0
VERTEX
  5
65d
  8
Layer_1
  10
193.91205
  20
232.90302
  0
VERTEX
  5
65e
  8
Layer_1
  10
196.91205
  20
232.90302
  0
VERTEX
  5
65f
  8
Layer_1
  10
196.91205
  20
220.15302
  0
VERTEX
  5
660
  8
Layer_1
  10
184.91205
  20
220.15302
  0
VERTEX
  5
661
  8
Layer_1
  10
184.91205
  20
223.15302
  0
VERTEX
  5
662
  8
Layer_1
  10
172.91205
  20
223.15302
  0
VERTEX
  5
663
  8
Layer_1
  10
172.91205
  20
220.15302
  0
VERTEX
  5
664
  8
Layer_1
  10
160.91205
  20
220.15302
  0
VERTEX
  5
665
  8
Layer_1
  10
160.91205
  20
223.15302
  0
VERTEX
  5
666
  8
Layer_1
  10
148.91205
  20
223.15302
  0
VERTEX
  5
667
  8
Layer_1
  10
148.91205
  20
220.15302
  0
VERTEX
  5
668
  8
Layer_1
  10
136.91205
  20
220.15302
  0
VERTEX
  5
669
  8
Layer_1
  10
136.91205
  20
223.15302
  0
VERTEX
  5
66a
  8
Layer_1
  10
124.91205
  20
223.15302
  0
VERTEX
  5
66b
  8
Layer_1
  10
124.91205
  20
220.15302
  0
VERTEX
  5
66c
  8
Layer_1
  10
112.91205
  20
220.15302
  0
VERTEX
  5
66d
  8
Layer_1
  10
112.91205
  20
223.15302
  0
VERTEX
  5
66e
  8
Layer_1
  10
100.91205
  20
223.15302
  0
VERTEX
  5
66f
  8
Layer_1
  10
100.91205
  20
220.15302
  0
VERTEX
  5
670
  8
Layer_1
  10
88.912048
  20
220.15302
  0
VERTEX
  5
671
  8
Layer_1
  10
88.912048
  20
223.15302
  0
VERTEX
  5
672
  8
Layer_1
  10
76.912048
  20
223.15302
  0
VERTEX
  5
673
  8
Layer_1
  10
76.912048
  20
220.15302
  0
VERTEX
  5
674
  8
Layer_1
  10
64.912048
  20
220.15302
  0
VERTEX
  5
675
  8
Layer_1
  10
64.912048
  20
232.90302
  0
VERTEX
  5
676
  8
Layer_1
  10
67.912048
  20
232.90302
  0
VERTEX
  5
677
  8
Layer_1
  10
67.912048
  20
244.90302
  0
VERTEX
  5
678
  8
Layer_1
  10
64.912048
  20
244.90302
  0
VERTEX
  5
679
  8
Layer_1
  10
64.912048
  20
256.90302
  0
VERTEX
  5
67a
  8
Layer_1
  10
67.912048
  20
256.90302
  0
VERTEX
  5
67b
  8
Layer_1
  10
67.912048
  20
268.90302
  0
VERTEX
  5
67c
  8
Layer_1
  10
64.912048
  20
268.90302
  0
VERTEX
  5
67d
  8
Layer_1
  10
64.912048
  20
280.90302
  0
VERTEX
  5
67e
  8
Layer_1
  10
67.912048
  20
280.90302
  0
VERTEX
  5
67f
  8
Layer_1
  10
67.912048
  20
292.90302
  0
VERTEX
  5
680
  8
Layer_1
  10
64.912048
  20
292.90302
  0
VERTEX
  5
681
  8
Layer_1
  10
64.912048
  20
305.65302
  0
VERTEX
  5
682
  8
Layer_1
  10
76.912048
  20
305.65302
  0
SEQEND
  0
POLYLINE
  5
684
  8
Layer_2
  66
1
  10
0
  20
0
  30
0
  0
VERTEX
  5
684
  8
Layer_2
  10
67.479919
  20
502.20963
  0
VERTEX
  5
685
  8
Layer_2
  10
67.479919
  20
513.21631
  0
SEQEND
  0
POLYLINE
  5
687
  8
Layer_0
  66
1
  10
0
  20
0
  30
0
  0
VERTEX
  5
687
  8
Layer_0
  10
187.45258
  20
502.20963
  0
VERTEX
  5
688
  8
Layer_0
  10
199.47522
  20
536.24567
  0
SEQEND
  0
POLYLINE
  5
68a
  8
Layer_0
  66
1
  10
0
  20
0
  30
0
  0
VERTEX
  5
68a
  8
Layer_0
  10
199.47522
  20
502.20963
  0
VERTEX
  5
68b
  8
Layer_0
  10
187.45258
  20
536.24567
  0
SEQEND
  0
POLYLINE
  5
68d
  8
Layer_0
  66
1
  10
0
  20
0
  30
0
  0
VERTEX
  5
68d
  8
Layer_0
  10
163.40723
  20
502.20963
  0
VERTEX
  5
68e
  8
Layer_0
  10
151.46924
  20
536.24567
  0
SEQEND
  0
POLYLINE
  5
690
  8
Layer_0
  66
1
  10
0
  20
0
  30
0
  0
VERTEX
  5
690
  8
Layer_0
  10
151.46924
  20
502.20963
  0
VERTEX
  5
691
  8
Layer_0
  10
163.40723
  20
536.24567
  0
SEQEND
  0
POLYLINE
  5
693
  8
Layer_0
  66
1
  10
0
  20
0
  30
0
  0
VERTEX
  5
693
  8
Layer_0
  10
139.44659
  20
502.20963
  0
VERTEX
  5
694
  8
Layer_0
  10
135.21326
  20
514.2323
  0
SEQEND
  0
POLYLINE
  5
696
  8
Layer_0
  66
1
  10
0
  20
0
  30
0
  0
VERTEX
  5
696
  8
Layer_0
  10
131.65723
  20
524.22296
  0
VERTEX
  5
697
  8
Layer_0
  10
127.42389
  20
536.24567
  0
SEQEND
  0
POLYLINE
  5
699
  8
Layer_0
  66
1
  10
0
  20
0
  30
0
  0
VERTEX
  5
699
  8
Layer_0
  10
127.42389
  20
502.20963
  0
VERTEX
  5
69a
  8
Layer_0
  10
131.65723
  20
514.2323
  0
SEQEND
  0
POLYLINE
  5
69c
  8
Layer_0
  66
1
  10
0
  20
0
  30
0
  0
VERTEX
  5
69c
  8
Layer_0
  10
135.21326
  20
524.22296
  0
VERTEX
  5
69d
  8
Layer_0
  10
139.44659
  20
536.24567
  0
SEQEND
  0
POLYLINE
  5
69f
  8
Layer_0
  66
1
  10
0
  20
0
  30
0
  0
VERTEX
  5
69f
  8
Layer_0
  10
115.4859
  20
502.20963
  0
VERTEX
  5
6a0
  8
Layer_0
  10
103.46326
  20
536.24567
  0
SEQEND
  0
POLYLINE
  5
6a2
  8
Layer_0
  66
1
  10
0
  20
0
  30
0
  0
VERTEX
  5
6a2
  8
Layer_0
  10
103.46326
  20
502.20963
  0
VERTEX
  5
6a3
  8
Layer_0
  10
115.4859
  20
536.24567
  0
SEQEND
  0
POLYLINE
  5
6a5
  8
Layer_0
  66
1
  10
0
  20
0
  30
0
  0
VERTEX
  5
6a5
  8
Layer_0
  10
91.440552
  20
502.20963
  0
VERTEX
  5
6a6
  8
Layer_0
  10
79.417908
  20
536.24567
  0
SEQEND
  0
POLYLINE
  5
6a8
  8
Layer_0
  66
1
  10
0
  20
0
  30
0
  0
VERTEX
  5
6a8
  8
Layer_0
  10
79.417908
  20
502.20963
  0
VERTEX
  5
6a9
  8
Layer_0
  10
91.440552
  20
536.24567
  0
SEQEND
  0
POLYLINE
  5
6ab
  8
Layer_0
  70
1
  66
1
  10
0
  20
0
  30
0
  0
VERTEX
  5
6ab
  8
Layer_0
  10
138.76923
  20
519.1853
  0
VERTEX
  5
6ac
  8
Layer_0
  10
138.74194
  20
519.72632
  0
VERTEX
  5
6ad
  8
Layer_0
  10
138.66174
  20
520.25171
  0
VERTEX
  5
6ae
  8
Layer_0
  10
138.53137
  20
520.75885
  0
VERTEX
  5
6af
  8
Layer_0
  10
138.35339
  20
521.24506
  0
VERTEX
  5
6b0
  8
Layer_0
  10
138.13055
  20
521.70764
  0
VERTEX
  5
6b1
  8
Layer_0
  10
137.86548
  20
522.14392
  0
VERTEX
  5
6b2
  8
Layer_0
  10
137.56085
  20
522.55127
  0
VERTEX
  5
6b3
  8
Layer_0
  10
137.21936
  20
522.92706
  0
VERTEX
  5
6b4
  8
Layer_0
  10
136.84357
  20
523.26862
  0
VERTEX
  5
6b5
  8
Layer_0
  10
136.43616
  20
523.57324
  0
VERTEX
  5
6b6
  8
Layer_0
  10
135.99988
  20
523.83826
  0
VERTEX
  5
6b7
  8
Layer_0
  10
135.53735
  20
524.0611
  0
VERTEX
  5
6b8
  8
Layer_0
  10
135.05121
  20
524.23907
  0
VERTEX
  5
6b9
  8
Layer_0
  10
134.54407
  20
524.36945
  0
VERTEX
  5
6ba
  8
Layer_0
  10
134.01868
  20
524.44965
  0
VERTEX
  5
6bb
  8
Layer_0
  10
133.4776
  20
524.47693
  0
VERTEX
  5
6bc
  8
Layer_0
  10
132.93652
  20
524.44965
  0
VERTEX
  5
6bd
  8
Layer_0
  10
132.41113
  20
524.36945
  0
VERTEX
  5
6be
  8
Layer_0
  10
131.90399
  20
524.23907
  0
VERTEX
  5
6bf
  8
Layer_0
  10
131.41785
  20
524.0611
  0
VERTEX
  5
6c0
  8
Layer_0
  10
130.95526
  20
523.83826
  0
VERTEX
  5
6c1
  8
Layer_0
  10
130.51892
  20
523.57324
  0
VERTEX
  5
6c2
  8
Layer_0
  10
130.11157
  20
523.26862
  0
VERTEX
  5
6c3
  8
Layer_0
  10
129.73584
  20
522.92706
  0
VERTEX
  5
6c4
  8
Layer_0
  10
129.39429
  20
522.55127
  0
VERTEX
  5
6c5
  8
Layer_0
  10
129.0896
  20
522.14392
  0
VERTEX
  5
6c6
  8
Layer_0
  10
128.82458
  20
521.70764
  0
VERTEX
  5
6c7
  8
Layer_0
  10
128.60175
  20
521.24506
  0
VERTEX
  5
6c8
  8
Layer_0
  10
128.42383
  20
520.75885
  0
VERTEX
  5
6c9
  8
Layer_0
  10
128.2934
  20
520.25171
  0
VERTEX
  5
6ca
  8
Layer_0
  10
128.21326
  20
519.72632
  0
VERTEX
  5
6cb
  8
Layer_0
  10
128.18591
  20
519.1853
  0
VERTEX
  5
6cc
  8
Layer_0
  10
128.21326
  20
518.64423
  0
VERTEX
  5
6cd
  8
Layer_0
  10
128.2934
  20
518.11884
  0
VERTEX
  5
6ce
  8
Layer_0
  10
128.42383
  20
517.61169
  0
VERTEX
  5
6cf
  8
Layer_0
  10
128.60175
  20
517.12549
  0
VERTEX
  5
6d0
  8
Layer_0
  10
128.82458
  20
516.66296
  0
VERTEX
  5
6d1
  8
Layer_0
  10
129.0896
  20
516.22668
  0
VERTEX
  5
6d2
  8
Layer_0
  10
129.39429
  20
515.81927
  0
VERTEX
  5
6d3
  8
Layer_0
  10
129.73584
  20
515.44348
  0
VERTEX
  5
6d4
  8
Layer_0
  10
130.11157
  20
515.10199
  0
VERTEX
  5
6d5
  8
Layer_0
  10
130.51892
  20
514.79736
  0
VERTEX
  5
6d6
  8
Layer_0
  10
130.95526
  20
514.53229
  0
VERTEX
  5
6d7
  8
Layer_0
  10
131.41785
  20
514.30945
  0
VERTEX
  5
6d8
  8
Layer_0
  10
131.90399
  20
514.13153
  0
VERTEX
  5
6d9
  8
Layer_0
  10
132.41113
  20
514.0011
  0
VERTEX
  5
6da
  8
Layer_0
  10
132.93652
  20
513.92096
  0
VERTEX
  5
6db
  8
Layer_0
  10
133.4776
  20
513.89362
  0
VERTEX
  5
6dc
  8
Layer_0
  10
134.01868
  20
513.92096
  0
VERTEX
  5
6dd
  8
Layer_0
  10
134.54407
  20
514.0011
  0
VERTEX
  5
6de
  8
Layer_0
  10
135.05121
  20
514.13153
  0
VERTEX
  5
6df
  8
Layer_0
  10
135.53735
  20
514.30945
  0
VERTEX
  5
6e0
  8
Layer_0
  10
135.99988
  20
514.53229
  0
VERTEX
  5
6e1
  8
Layer_0
  10
136.43616
  20
514.79736
  0
VERTEX
  5
6e2
  8
Layer_0
  10
136.84357
  20
515.10199
  0
VERTEX
  5
6e3
  8
Layer_0
  10
137.21936
  20
515.44348
  0
VERTEX
  5
6e4
  8
Layer_0
  10
137.56085
  20
515.81927
  0
VERTEX
  5
6e5
  8
Layer_0
  10
137.86548
  20
516.22668
  0
VERTEX
  5
6e6
  8
Layer_0
  10
138.13055
  20
516.66296
  0
VERTEX
  5
6e7
  8
Layer_0
  10
138.35339
  20
517.12549
  0
VERTEX
  5
6e8
  8
Layer_0
  10
138.53137
  20
517.61169
  0
VERTEX
  5
6e9
  8
Layer_0
  10
138.66174
  20
518.11884
  0
VERTEX
  5
6ea
  8
Layer_0
  10
138.74194
  20
518.64423
  0
VERTEX
  5
6eb
  8
Layer_0
  10
138.76923
  20
519.1853
  0
SEQEND
  0
POLYLINE
  5
6ed
  8
Layer_0
  66
1
  10
0
  20
0
  30
0
  0
VERTEX
  5
6ed
  8
Layer_0
  10
79.417908
  20
502.20963
  0
VERTEX
  5
6ee
  8
Layer_0
  10
67.479919
  20
536.24567
  0
SEQEND
  0
POLYLINE
  5
6f0
  8
Layer_0
  66
1
  10
0
  20
0
  30
0
  0
VERTEX
  5
6f0
  8
Layer_0
  10
67.479919
  20
502.20963
  0
VERTEX
  5
6f1
  8
Layer_0
  10
79.417908
  20
536.24567
  0
SEQEND
  0
POLYLINE
  5
6f3
  8
Layer_0
  66
1
  10
0
  20
0
  30
0
  0
VERTEX
  5
6f3
  8
Layer_0
  10
175.42993
  20
502.20963
  0
VERTEX
  5
6f4
  8
Layer_0
  10
187.45258
  20
536.24567
  0
SEQEND
  0
POLYLINE
  5
6f6
  8
Layer_0
  66
1
  10
0
  20
0
  30
0
  0
VERTEX
  5
6f6
  8
Layer_0
  10
187.45258
  20
502.20963
  0
VERTEX
  5
6f7
  8
Layer_0
  10
175.42993
  20
536.24567
  0
SEQEND
  0
POLYLINE
  5
6f9
  8
Layer_0
  66
1
  10
0
  20
0
  30
0
  0
VERTEX
  5
6f9
  8
Layer_0
  10
91.440552
  20
502.20963
  0
VERTEX
  5
6fa
  8
Layer_0
  10
103.46326
  20
536.24567
  0
SEQEND
  0
POLYLINE
  5
6fc
  8
Layer_0
  66
1
  10
0
  20
0
  30
0
  0
VERTEX
  5
6fc
  8
Layer_0
  10
103.46326
  20
502.20963
  0
VERTEX
  5
6fd
  8
Layer_0
  10
91.440552
  20
536.24567
  0
SEQEND
  0
POLYLINE
  5
6ff
  8
Layer_0
  66
1
  10
0
  20
0
  30
0
  0
VERTEX
  5
6ff
  8
Layer_0
  10
127.42389
  20
502.20963
  0
VERTEX
  5
700
  8
Layer_0
  10
115.4859
  20
536.24567
  0
SEQEND
  0
POLYLINE
  5
702
  8
Layer_0
  66
1
  10
0
  20
0
  30
0
  0
VERTEX
  5
702
  8
Layer_0
  10
115.4859
  20
502.20963
  0
VERTEX
  5
703
  8
Layer_0
  10
127.42389
  20
536.24567
  0
SEQEND
  0
POLYLINE
  5
705
  8
Layer_0
  66
1
  10
0
  20
0
  30
0
  0
VERTEX
  5
705
  8
Layer_0
  10
139.44659
  20
502.20963
  0
VERTEX
  5
706
  8
Layer_0
  10
151.46924
  20
536.24567
  0
SEQEND
  0
POLYLINE
  5
708
  8
Layer_0
  66
1
  10
0
  20
0
  30
0
  0
VERTEX
  5
708
  8
Layer_0
  10
151.46924
  20
502.20963
  0
VERTEX
  5
709
  8
Layer_0
  10
139.44659
  20
536.24567
  0
SEQEND
  0
POLYLINE
  5
70b
  8
Layer_0
  66
1
  10
0
  20
0
  30
0
  0
VERTEX
  5
70b
  8
Layer_0
  10
175.42993
  20
502.20963
  0
VERTEX
  5
70c
  8
Layer_0
  10
163.40723
  20
536.24567
  0
SEQEND
  0
POLYLINE
  5
70e
  8
Layer_0
  66
1
  10
0
  20
0
  30
0
  0
VERTEX
  5
70e
  8
Layer_0
  10
163.40723
  20
502.20963
  0
VERTEX
  5
70f
  8
Layer_0
  10
175.42993
  20
536.24567
  0
SEQEND
  0
POLYLINE
  5
711
  8
Layer_1
  70
1
  66
1
  10
0
  20
0
  30
0
  0
VERTEX
  5
711
  8
Layer_1
  10
137.68927
  20
519.18536
  0
VERTEX
  5
712
  8
Layer_1
  10
137.66736
  20
519.61993
  0
VERTEX
  5
713
  8
Layer_1
  10
137.60291
  20
520.04193
  0
VERTEX
  5
714
  8
Layer_1
  10
137.49817
  20
520.44922
  0
VERTEX
  5
715
  8
Layer_1
  10
137.35529
  20
520.83972
  0
VERTEX
  5
716
  8
Layer_1
  10
137.17639
  20
521.21118
  0
VERTEX
  5
717
  8
Layer_1
  10
136.9635
  20
521.56165
  0
VERTEX
  5
718
  8
Layer_1
  10
136.71887
  20
521.88879
  0
VERTEX
  5
719
  8
Layer_1
  10
136.44452
  20
522.19061
  0
VERTEX
  5
71a
  8
Layer_1
  10
136.1427
  20
522.46497
  0
VERTEX
  5
71b
  8
Layer_1
  10
135.81555
  20
522.70959
  0
VERTEX
  5
71c
  8
Layer_1
  10
135.46509
  20
522.92249
  0
VERTEX
  5
71d
  8
Layer_1
  10
135.09363
  20
523.10144
  0
VERTEX
  5
71e
  8
Layer_1
  10
134.70313
  20
523.24438
  0
VERTEX
  5
71f
  8
Layer_1
  10
134.29584
  20
523.34906
  0
VERTEX
  5
720
  8
Layer_1
  10
133.87384
  20
523.41345
  0
VERTEX
  5
721
  8
Layer_1
  10
133.43927
  20
523.43542
  0
VERTEX
  5
722
  8
Layer_1
  10
133.0047
  20
523.41345
  0
VERTEX
  5
723
  8
Layer_1
  10
132.5827
  20
523.34906
  0
VERTEX
  5
724
  8
Layer_1
  10
132.17542
  20
523.24438
  0
VERTEX
  5
725
  8
Layer_1
  10
131.78491
  20
523.10144
  0
VERTEX
  5
726
  8
Layer_1
  10
131.41345
  20
522.92249
  0
VERTEX
  5
727
  8
Layer_1
  10
131.06299
  20
522.70959
  0
VERTEX
  5
728
  8
Layer_1
  10
130.73584
  20
522.46497
  0
VERTEX
  5
729
  8
Layer_1
  10
130.43402
  20
522.19061
  0
VERTEX
  5
72a
  8
Layer_1
  10
130.15967
  20
521.88879
  0
VERTEX
  5
72b
  8
Layer_1
  10
129.91504
  20
521.56165
  0
VERTEX
  5
72c
  8
Layer_1
  10
129.70215
  20
521.21118
  0
VERTEX
  5
72d
  8
Layer_1
  10
129.52325
  20
520.83972
  0
VERTEX
  5
72e
  8
Layer_1
  10
129.38037
  20
520.44922
  0
VERTEX
  5
72f
  8
Layer_1
  10
129.27563
  20
520.04193
  0
VERTEX
  5
730
  8
Layer_1
  10
129.21118
  20
519.61993
  0
VERTEX
  5
731
  8
Layer_1
  10
129.18927
  20
519.18536
  0
VERTEX
  5
732
  8
Layer_1
  10
129.21118
  20
518.75085
  0
VERTEX
  5
733
  8
Layer_1
  10
129.27563
  20
518.32886
  0
VERTEX
  5
734
  8
Layer_1
  10
129.38037
  20
517.92157
  0
VERTEX
  5
735
  8
Layer_1
  10
129.52325
  20
517.53113
  0
VERTEX
  5
736
  8
Layer_1
  10
129.70215
  20
517.15961
  0
VERTEX
  5
737
  8
Layer_1
  10
129.91504
  20
516.8092
  0
VERTEX
  5
738
  8
Layer_1
  10
130.15967
  20
516.48199
  0
VERTEX
  5
739
  8
Layer_1
  10
130.43402
  20
516.18018
  0
VERTEX
  5
73a
  8
Layer_1
  10
130.73584
  20
515.90588
  0
VERTEX
  5
73b
  8
Layer_1
  10
131.06299
  20
515.66125
  0
VERTEX
  5
73c
  8
Layer_1
  10
131.41345
  20
515.44836
  0
VERTEX
  5
73d
  8
Layer_1
  10
131.78491
  20
515.26941
  0
VERTEX
  5
73e
  8
Layer_1
  10
132.17542
  20
515.12646
  0
VERTEX
  5
73f
  8
Layer_1
  10
132.5827
  20
515.02179
  0
VERTEX
  5
740
  8
Layer_1
  10
133.0047
  20
514.9574
  0
VERTEX
  5
741
  8
Layer_1
  10
133.43927
  20
514.93542
  0
VERTEX
  5
742
  8
Layer_1
  10
133.87384
  20
514.9574
  0
VERTEX
  5
743
  8
Layer_1
  10
134.29584
  20
515.02179
  0
VERTEX
  5
744
  8
Layer_1
  10
134.70313
  20
515.12646
  0
VERTEX
  5
745
  8
Layer_1
  10
135.09363
  20
515.26941
  0
VERTEX
  5
746
  8
Layer_1
  10
135.46509
  20
515.44836
  0
VERTEX
  5
747
  8
Layer_1
  10
135.81555
  20
515.66125
  0
VERTEX
  5
748
  8
Layer_1
  10
136.1427
  20
515.90588
  0
VERTEX
  5
749
  8
Layer_1
  10
136.44452
  20
516.18018
  0
VERTEX
  5
74a
  8
Layer_1
  10
136.71887
  20
516.48199
  0
VERTEX
  5
74b
  8
Layer_1
  10
136.9635
  20
516.8092
  0
VERTEX
  5
74c
  8
Layer_1
  10
137.17639
  20
517.15961
  0
VERTEX
  5
74d
  8
Layer_1
  10
137.35529
  20
517.53113
  0
VERTEX
  5
74e
  8
Layer_1
  10
137.49817
  20
517.92157
  0
VERTEX
  5
74f
  8
Layer_1
  10
137.60291
  20
518.32886
  0
VERTEX
  5
750
  8
Layer_1
  10
137.66736
  20
518.75085
  0
VERTEX
  5
751
  8
Layer_1
  10
137.68927
  20
519.18536
  0
SEQEND
  0
POLYLINE
  5
753
  8
Layer_1
  70
1
  66
1
  10
0
  20
0
  30
0
  0
VERTEX
  5
753
  8
Layer_1
  10
79.436218
  20
536.18591
  0
VERTEX
  5
754
  8
Layer_1
  10
79.436218
  20
539.18591
  0
VERTEX
  5
755
  8
Layer_1
  10
91.436218
  20
539.18591
  0
VERTEX
  5
756
  8
Layer_1
  10
91.436218
  20
536.18591
  0
VERTEX
  5
757
  8
Layer_1
  10
103.43622
  20
536.18591
  0
VERTEX
  5
758
  8
Layer_1
  10
103.43622
  20
539.18591
  0
VERTEX
  5
759
  8
Layer_1
  10
115.43622
  20
539.18591
  0
VERTEX
  5
75a
  8
Layer_1
  10
115.43622
  20
536.18591
  0
VERTEX
  5
75b
  8
Layer_1
  10
127.43622
  20
536.18591
  0
VERTEX
  5
75c
  8
Layer_1
  10
127.43622
  20
539.18591
  0
VERTEX
  5
75d
  8
Layer_1
  10
139.43622
  20
539.18591
  0
VERTEX
  5
75e
  8
Layer_1
  10
139.43622
  20
536.18591
  0
VERTEX
  5
75f
  8
Layer_1
  10
151.43622
  20
536.18591
  0
VERTEX
  5
760
  8
Layer_1
  10
151.43622
  20
539.18591
  0
VERTEX
  5
761
  8
Layer_1
  10
163.43622
  20
539.18591
  0
VERTEX
  5
762
  8
Layer_1
  10
163.43622
  20
536.18591
  0
VERTEX
  5
763
  8
Layer_1
  10
175.43622
  20
536.18591
  0
VERTEX
  5
764
  8
Layer_1
  10
175.43622
  20
539.18591
  0
VERTEX
  5
765
  8
Layer_1
  10
187.43622
  20
539.18591
  0
VERTEX
  5
766
  8
Layer_1
  10
187.43622
  20
536.18591
  0
VERTEX
  5
767
  8
Layer_1
  10
196.43622
  20
536.18591
  0
VERTEX
  5
768
  8
Layer_1
  10
196.43622
  20
525.18591
  0
VERTEX
  5
769
  8
Layer_1
  10
199.43622
  20
525.18591
  0
VERTEX
  5
76a
  8
Layer_1
  10
199.43622
  20
513.18591
  0
VERTEX
  5
76b
  8
Layer_1
  10
196.43622
  20
513.18591
  0
VERTEX
  5
76c
  8
Layer_1
  10
196.43622
  20
502.18591
  0
VERTEX
  5
76d
  8
Layer_1
  10
187.43622
  20
502.18591
  0
VERTEX
  5
76e
  8
Layer_1
  10
187.43622
  20
499.18591
  0
VERTEX
  5
76f
  8
Layer_1
  10
175.43622
  20
499.18591
  0
VERTEX
  5
770
  8
Layer_1
  10
175.43622
  20
502.18591
  0
VERTEX
  5
771
  8
Layer_1
  10
163.43622
  20
502.18591
  0
VERTEX
  5
772
  8
Layer_1
  10
163.43622
  20
499.18591
  0
VERTEX
  5
773
  8
Layer_1
  10
151.43622
  20
499.18591
  0
VERTEX
  5
774
  8
Layer_1
  10
151.43622
  20
502.18591
  0
VERTEX
  5
775
  8
Layer_1
  10
139.43622
  20
502.18591
  0
VERTEX
  5
776
  8
Layer_1
  10
139.43622
  20
499.18591
  0
VERTEX
  5
777
  8
Layer_1
  10
127.43622
  20
499.18591
  0
VERTEX
  5
778
  8
Layer_1
  10
127.43622
  20
502.18591
  0
VERTEX
  5
779
  8
Layer_1
  10
115.43622
  20
502.18591
  0
VERTEX
  5
77a
  8
Layer_1
  10
115.43622
  20
499.18591
  0
VERTEX
  5
77b
  8
Layer_1
  10
103.43622
  20
499.18591
  0
VERTEX
  5
77c
  8
Layer_1
  10
103.43622
  20
502.18591
  0
VERTEX
  5
77d
  8
Layer_1
  10
91.436218
  20
502.18591
  0
VERTEX
  5
77e
  8
Layer_1
  10
91.436218
  20
499.18591
  0
VERTEX
  5
77f
  8
Layer_1
  10
79.436218
  20
499.18591
  0
VERTEX
  5
780
  8
Layer_1
  10
79.436218
  20
502.18591
  0
VERTEX
  5
781
  8
Layer_1
  10
70.436218
  20
502.18591
  0
VERTEX
  5
782
  8
Layer_1
  10
70.436218
  20
513.18591
  0
VERTEX
  5
783
  8
Layer_1
  10
67.436218
  20
513.18591
  0
VERTEX
  5
784
  8
Layer_1
  10
67.436218
  20
525.18591
  0
VERTEX
  5
785
  8
Layer_1
  10
70.436218
  20
525.18591
  0
VERTEX
  5
786
  8
Layer_1
  10
70.436218
  20
536.18591
  0
VERTEX
  5
787
  8
Layer_1
  10
79.436218
  20
536.18591
  0
SEQEND
  0
POLYLINE
  5
789
  8
Layer_0
  66
1
  10
0
  20
0
  30
0
  0
VERTEX
  5
789
  8
Layer_0
  10
191.47272
  20
179.74179
  0
VERTEX
  5
78a
  8
Layer_0
  10
157.43671
  20
167.71915
  0
SEQEND
  0
POLYLINE
  5
78c
  8
Layer_0
  66
1
  10
0
  20
0
  30
0
  0
VERTEX
  5
78c
  8
Layer_0
  10
191.47272
  20
167.71915
  0
VERTEX
  5
78d
  8
Layer_0
  10
157.43671
  20
179.74179
  0
SEQEND
  0
POLYLINE
  5
78f
  8
Layer_0
  66
1
  10
0
  20
0
  30
0
  0
VERTEX
  5
78f
  8
Layer_0
  10
191.47272
  20
167.71915
  0
VERTEX
  5
790
  8
Layer_0
  10
157.43671
  20
155.78116
  0
SEQEND
  0
POLYLINE
  5
792
  8
Layer_0
  66
1
  10
0
  20
0
  30
0
  0
VERTEX
  5
792
  8
Layer_0
  10
191.47272
  20
155.78116
  0
VERTEX
  5
793
  8
Layer_0
  10
157.43671
  20
167.71915
  0
SEQEND
  0
POLYLINE
  5
795
  8
Layer_0
  66
1
  10
0
  20
0
  30
0
  0
VERTEX
  5
795
  8
Layer_0
  10
191.4837
  20
203.70465
  0
VERTEX
  5
796
  8
Layer_0
  10
157.15668
  20
215.88184
  0
SEQEND
  0
POLYLINE
  5
798
  8
Layer_0
  66
1
  10
0
  20
0
  30
0
  0
VERTEX
  5
798
  8
Layer_0
  10
192.09222
  20
216.03381
  0
VERTEX
  5
799
  8
Layer_0
  10
157.44031
  20
203.70374
  0
SEQEND
  0
POLYLINE
  5
79b
  8
Layer_1
  70
1
  66
1
  10
0
  20
0
  30
0
  0
VERTEX
  5
79b
  8
Layer_1
  10
168.41309
  20
216.52551
  0
VERTEX
  5
79c
  8
Layer_1
  10
168.41309
  20
213.52551
  0
VERTEX
  5
79d
  8
Layer_1
  10
180.41309
  20
213.52551
  0
VERTEX
  5
79e
  8
Layer_1
  10
180.41309
  20
216.52551
  0
VERTEX
  5
79f
  8
Layer_1
  10
191.41309
  20
216.52551
  0
VERTEX
  5
7a0
  8
Layer_1
  10
191.41309
  20
203.77551
  0
VERTEX
  5
7a1
  8
Layer_1
  10
194.41309
  20
203.77551
  0
VERTEX
  5
7a2
  8
Layer_1
  10
194.41309
  20
191.77551
  0
VERTEX
  5
7a3
  8
Layer_1
  10
191.41309
  20
191.77551
  0
VERTEX
  5
7a4
  8
Layer_1
  10
191.41309
  20
179.77551
  0
VERTEX
  5
7a5
  8
Layer_1
  10
194.41309
  20
179.77551
  0
VERTEX
  5
7a6
  8
Layer_1
  10
194.41309
  20
167.77551
  0
VERTEX
  5
7a7
  8
Layer_1
  10
191.41309
  20
167.77551
  0
VERTEX
  5
7a8
  8
Layer_1
  10
191.41309
  20
155.77551
  0
VERTEX
  5
7a9
  8
Layer_1
  10
194.41309
  20
155.77551
  0
VERTEX
  5
7aa
  8
Layer_1
  10
194.41309
  20
143.77551
  0
VERTEX
  5
7ab
  8
Layer_1
  10
191.41309
  20
143.77551
  0
VERTEX
  5
7ac
  8
Layer_1
  10
191.41309
  20
131.02551
  0
VERTEX
  5
7ad
  8
Layer_1
  10
180.41309
  20
131.02551
  0
VERTEX
  5
7ae
  8
Layer_1
  10
180.41309
  20
134.02551
  0
VERTEX
  5
7af
  8
Layer_1
  10
168.41309
  20
134.02551
  0
VERTEX
  5
7b0
  8
Layer_1
  10
168.41309
  20
131.02551
  0
VERTEX
  5
7b1
  8
Layer_1
  10
157.41309
  20
131.02551
  0
VERTEX
  5
7b2
  8
Layer_1
  10
157.41309
  20
143.77551
  0
VERTEX
  5
7b3
  8
Layer_1
  10
154.41309
  20
143.77551
  0
VERTEX
  5
7b4
  8
Layer_1
  10
154.41309
  20
155.77551
  0
VERTEX
  5
7b5
  8
Layer_1
  10
157.41309
  20
155.77551
  0
VERTEX
  5
7b6
  8
Layer_1
  10
157.41309
  20
167.77551
  0
VERTEX
  5
7b7
  8
Layer_1
  10
154.41309
  20
167.77551
  0
VERTEX
  5
7b8
  8
Layer_1
  10
154.41309
  20
179.77551
  0
VERTEX
  5
7b9
  8
Layer_1
  10
157.41309
  20
179.77551
  0
VERTEX
  5
7ba
  8
Layer_1
  10
157.41309
  20
191.77551
  0
VERTEX
  5
7bb
  8
Layer_1
  10
154.41309
  20
191.77551
  0
VERTEX
  5
7bc
  8
Layer_1
  10
154.41309
  20
203.77551
  0
VERTEX
  5
7bd
  8
Layer_1
  10
157.41309
  20
203.77551
  0
VERTEX
  5
7be
  8
Layer_1
  10
157.41309
  20
216.52551
  0
VERTEX
  5
7bf
  8
Layer_1
  10
168.41309
  20
216.52551
  0
SEQEND
  0
POLYLINE
  5
7c1
  8
Layer_0
  66
1
  10
0
  20
0
  30
0
  0
VERTEX
  5
7c1
  8
Layer_0
  10
192.40417
  20
131.42642
  0
VERTEX
  5
7c2
  8
Layer_0
  10
157.43823
  20
143.76102
  0
SEQEND
  0
POLYLINE
  5
7c4
  8
Layer_0
  66
1
  10
0
  20
0
  30
0
  0
VERTEX
  5
7c4
  8
Layer_0
  10
191.47333
  20
143.75974
  0
VERTEX
  5
7c5
  8
Layer_0
  10
157.42816
  20
131.78665
  0
SEQEND
  0
POLYLINE
  5
7c7
  8
Layer_0
  70
1
  66
1
  10
0
  20
0
  30
0
  0
VERTEX
  5
7c7
  8
Layer_0
  10
180.95313
  20
149.77252
  0
VERTEX
  5
7c8
  8
Layer_0
  10
180.91956
  20
150.4371
  0
VERTEX
  5
7c9
  8
Layer_0
  10
180.82104
  20
151.08249
  0
VERTEX
  5
7ca
  8
Layer_0
  10
180.66089
  20
151.70544
  0
VERTEX
  5
7cb
  8
Layer_0
  10
180.44232
  20
152.30261
  0
VERTEX
  5
7cc
  8
Layer_0
  10
180.16858
  20
152.87079
  0
VERTEX
  5
7cd
  8
Layer_0
  10
179.84302
  20
153.40674
  0
VERTEX
  5
7ce
  8
Layer_0
  10
179.46887
  20
153.9071
  0
VERTEX
  5
7cf
  8
Layer_0
  10
179.04938
  20
154.36871
  0
VERTEX
  5
7d0
  8
Layer_0
  10
178.58783
  20
154.78821
  0
VERTEX
  5
7d1
  8
Layer_0
  10
178.08746
  20
155.16241
  0
VERTEX
  5
7d2
  8
Layer_0
  10
177.55151
  20
155.48801
  0
VERTEX
  5
7d3
  8
Layer_0
  10
176.98334
  20
155.76172
  0
VERTEX
  5
7d4
  8
Layer_0
  10
176.38611
  20
155.98029
  0
VERTEX
  5
7d5
  8
Layer_0
  10
175.76318
  20
156.14047
  0
VERTEX
  5
7d6
  8
Layer_0
  10
175.1178
  20
156.23898
  0
VERTEX
  5
7d7
  8
Layer_0
  10
174.45325
  20
156.27252
  0
VERTEX
  5
7d8
  8
Layer_0
  10
173.7887
  20
156.23898
  0
VERTEX
  5
7d9
  8
Layer_0
  10
173.14325
  20
156.14047
  0
VERTEX
  5
7da
  8
Layer_0
  10
172.52026
  20
155.98029
  0
VERTEX
  5
7db
  8
Layer_0
  10
171.9231
  20
155.76172
  0
VERTEX
  5
7dc
  8
Layer_0
  10
171.35486
  20
155.48801
  0
VERTEX
  5
7dd
  8
Layer_0
  10
170.81897
  20
155.16241
  0
VERTEX
  5
7de
  8
Layer_0
  10
170.31854
  20
154.78821
  0
VERTEX
  5
7df
  8
Layer_0
  10
169.85693
  20
154.36871
  0
VERTEX
  5
7e0
  8
Layer_0
  10
169.43738
  20
153.9071
  0
VERTEX
  5
7e1
  8
Layer_0
  10
169.06323
  20
153.40674
  0
VERTEX
  5
7e2
  8
Layer_0
  10
168.73767
  20
152.87079
  0
VERTEX
  5
7e3
  8
Layer_0
  10
168.46393
  20
152.30261
  0
VERTEX
  5
7e4
  8
Layer_0
  10
168.24536
  20
151.70544
  0
VERTEX
  5
7e5
  8
Layer_0
  10
168.08521
  20
151.08249
  0
VERTEX
  5
7e6
  8
Layer_0
  10
167.98669
  20
150.4371
  0
VERTEX
  5
7e7
  8
Layer_0
  10
167.95313
  20
149.77252
  0
VERTEX
  5
7e8
  8
Layer_0
  10
167.98669
  20
149.10794
  0
VERTEX
  5
7e9
  8
Layer_0
  10
168.08521
  20
148.46255
  0
VERTEX
  5
7ea
  8
Layer_0
  10
168.24536
  20
147.8396
  0
VERTEX
  5
7eb
  8
Layer_0
  10
168.46393
  20
147.24243
  0
VERTEX
  5
7ec
  8
Layer_0
  10
168.73767
  20
146.67426
  0
VERTEX
  5
7ed
  8
Layer_0
  10
169.06323
  20
146.13831
  0
VERTEX
  5
7ee
  8
Layer_0
  10
169.43738
  20
145.63794
  0
VERTEX
  5
7ef
  8
Layer_0
  10
169.85693
  20
145.17633
  0
VERTEX
  5
7f0
  8
Layer_0
  10
170.31854
  20
144.75684
  0
VERTEX
  5
7f1
  8
Layer_0
  10
170.81897
  20
144.38263
  0
VERTEX
  5
7f2
  8
Layer_0
  10
171.35486
  20
144.05707
  0
VERTEX
  5
7f3
  8
Layer_0
  10
171.9231
  20
143.78339
  0
VERTEX
  5
7f4
  8
Layer_0
  10
172.52026
  20
143.56482
  0
VERTEX
  5
7f5
  8
Layer_0
  10
173.14325
  20
143.40463
  0
VERTEX
  5
7f6
  8
Layer_0
  10
173.7887
  20
143.30612
  0
VERTEX
  5
7f7
  8
Layer_0
  10
174.45325
  20
143.27258
  0
VERTEX
  5
7f8
  8
Layer_0
  10
175.1178
  20
143.30612
  0
VERTEX
  5
7f9
  8
Layer_0
  10
175.76318
  20
143.40463
  0
VERTEX
  5
7fa
  8
Layer_0
  10
176.38611
  20
143.56482
  0
VERTEX
  5
7fb
  8
Layer_0
  10
176.98334
  20
143.78339
  0
VERTEX
  5
7fc
  8
Layer_0
  10
177.55151
  20
144.05707
  0
VERTEX
  5
7fd
  8
Layer_0
  10
178.08746
  20
144.38263
  0
VERTEX
  5
7fe
  8
Layer_0
  10
178.58783
  20
144.75684
  0
VERTEX
  5
7ff
  8
Layer_0
  10
179.04938
  20
145.17633
  0
VERTEX
  5
800
  8
Layer_0
  10
179.46887
  20
145.63794
  0
VERTEX
  5
801
  8
Layer_0
  10
179.84302
  20
146.13831
  0
VERTEX
  5
802
  8
Layer_0
  10
180.16858
  20
146.67426
  0
VERTEX
  5
803
  8
Layer_0
  10
180.44232
  20
147.24243
  0
VERTEX
  5
804
  8
Layer_0
  10
180.66089
  20
147.8396
  0
VERTEX
  5
805
  8
Layer_0
  10
180.82104
  20
148.46255
  0
VERTEX
  5
806
  8
Layer_0
  10
180.91956
  20
149.10794
  0
VERTEX
  5
807
  8
Layer_0
  10
180.95313
  20
149.77252
  0
SEQEND
  0
POLYLINE
  5
809
  8
Layer_1
  70
1
  66
1
  10
0
  20
0
  30
0
  0
VERTEX
  5
809
  8
Layer_1
  10
179.38782
  20
149.76801
  0
VERTEX
  5
80a
  8
Layer_1
  10
179.3623
  20
150.27286
  0
VERTEX
  5
80b
  8
Layer_1
  10
179.28748
  20
150.76309
  0
VERTEX
  5
80c
  8
Layer_1
  10
179.16583
  20
151.23627
  0
VERTEX
  5
80d
  8
Layer_1
  10
178.99982
  20
151.68991
  0
VERTEX
  5
80e
  8
Layer_1
  10
178.79187
  20
152.12152
  0
VERTEX
  5
80f
  8
Layer_1
  10
178.54456
  20
152.52863
  0
VERTEX
  5
810
  8
Layer_1
  10
178.26038
  20
152.90872
  0
VERTEX
  5
811
  8
Layer_1
  10
177.94171
  20
153.25934
  0
VERTEX
  5
812
  8
Layer_1
  10
177.59119
  20
153.578
  0
VERTEX
  5
813
  8
Layer_1
  10
177.21106
  20
153.86224
  0
VERTEX
  5
814
  8
Layer_1
  10
176.80396
  20
154.10953
  0
VERTEX
  5
815
  8
Layer_1
  10
176.37231
  20
154.31744
  0
VERTEX
  5
816
  8
Layer_1
  10
175.9187
  20
154.48346
  0
VERTEX
  5
817
  8
Layer_1
  10
175.44556
  20
154.60513
  0
VERTEX
  5
818
  8
Layer_1
  10
174.9552
  20
154.67993
  0
VERTEX
  5
819
  8
Layer_1
  10
174.45044
  20
154.70544
  0
VERTEX
  5
81a
  8
Layer_1
  10
173.94556
  20
154.67993
  0
VERTEX
  5
81b
  8
Layer_1
  10
173.45532
  20
154.60513
  0
VERTEX
  5
81c
  8
Layer_1
  10
172.98212
  20
154.48346
  0
VERTEX
  5
81d
  8
Layer_1
  10
172.52844
  20
154.31744
  0
VERTEX
  5
81e
  8
Layer_1
  10
172.0968
  20
154.10953
  0
VERTEX
  5
81f
  8
Layer_1
  10
171.6897
  20
153.86224
  0
VERTEX
  5
820
  8
Layer_1
  10
171.30957
  20
153.578
  0
VERTEX
  5
821
  8
Layer_1
  10
170.95898
  20
153.25934
  0
VERTEX
  5
822
  8
Layer_1
  10
170.64026
  20
152.90872
  0
VERTEX
  5
823
  8
Layer_1
  10
170.35608
  20
152.52863
  0
VERTEX
  5
824
  8
Layer_1
  10
170.10876
  20
152.12152
  0
VERTEX
  5
825
  8
Layer_1
  10
169.90082
  20
151.68991
  0
VERTEX
  5
826
  8
Layer_1
  10
169.7348
  20
151.23627
  0
VERTEX
  5
827
  8
Layer_1
  10
169.61316
  20
150.76309
  0
VERTEX
  5
828
  8
Layer_1
  10
169.53833
  20
150.27286
  0
VERTEX
  5
829
  8
Layer_1
  10
169.51282
  20
149.76801
  0
VERTEX
  5
82a
  8
Layer_1
  10
169.53833
  20
149.26315
  0
VERTEX
  5
82b
  8
Layer_1
  10
169.61316
  20
148.77292
  0
VERTEX
  5
82c
  8
Layer_1
  10
169.7348
  20
148.29974
  0
VERTEX
  5
82d
  8
Layer_1
  10
169.90082
  20
147.8461
  0
VERTEX
  5
82e
  8
Layer_1
  10
170.10876
  20
147.41449
  0
VERTEX
  5
82f
  8
Layer_1
  10
170.35608
  20
147.00739
  0
VERTEX
  5
830
  8
Layer_1
  10
170.64026
  20
146.62729
  0
VERTEX
  5
831
  8
Layer_1
  10
170.95898
  20
146.27667
  0
VERTEX
  5
832
  8
Layer_1
  10
171.30957
  20
145.95798
  0
VERTEX
  5
833
  8
Layer_1
  10
171.6897
  20
145.67374
  0
VERTEX
  5
834
  8
Layer_1
  10
172.0968
  20
145.42642
  0
VERTEX
  5
835
  8
Layer_1
  10
172.52844
  20
145.21851
  0
VERTEX
  5
836
  8
Layer_1
  10
172.98212
  20
145.05249
  0
VERTEX
  5
837
  8
Layer_1
  10
173.45532
  20
144.93082
  0
VERTEX
  5
838
  8
Layer_1
  10
173.94556
  20
144.85602
  0
VERTEX
  5
839
  8
Layer_1
  10
174.45044
  20
144.83051
  0
VERTEX
  5
83a
  8
Layer_1
  10
174.9552
  20
144.85602
  0
VERTEX
  5
83b
  8
Layer_1
  10
175.44556
  20
144.93082
  0
VERTEX
  5
83c
  8
Layer_1
  10
175.9187
  20
145.05249
  0
VERTEX
  5
83d
  8
Layer_1
  10
176.37231
  20
145.21851
  0
VERTEX
  5
83e
  8
Layer_1
  10
176.80396
  20
145.42642
  0
VERTEX
  5
83f
  8
Layer_1
  10
177.21106
  20
145.67374
  0
VERTEX
  5
840
  8
Layer_1
  10
177.59119
  20
145.95798
  0
VERTEX
  5
841
  8
Layer_1
  10
177.94171
  20
146.27667
  0
VERTEX
  5
842
  8
Layer_1
  10
178.26038
  20
146.62729
  0
VERTEX
  5
843
  8
Layer_1
  10
178.54456
  20
147.00739
  0
VERTEX
  5
844
  8
Layer_1
  10
178.79187
  20
147.41449
  0
VERTEX
  5
845
  8
Layer_1
  10
178.99982
  20
147.8461
  0
VERTEX
  5
846
  8
Layer_1
  10
179.16583
  20
148.29974
  0
VERTEX
  5
847
  8
Layer_1
  10
179.28748
  20
148.77292
  0
VERTEX
  5
848
  8
Layer_1
  10
179.3623
  20
149.26315
  0
VERTEX
  5
849
  8
Layer_1
  10
179.38782
  20
149.76801
  0
SEQEND
  0
POLYLINE
  5
84b
  8
Layer_0
  66
1
  10
0
  20
0
  30
0
  0
VERTEX
  5
84b
  8
Layer_0
  10
168.35187
  20
147.57544
  0
VERTEX
  5
84c
  8
Layer_0
  10
157.43652
  20
143.75842
  0
SEQEND
  0
POLYLINE
  5
84e
  8
Layer_0
  66
1
  10
0
  20
0
  30
0
  0
VERTEX
  5
84e
  8
Layer_0
  10
168.31909
  20
151.90967
  0
VERTEX
  5
84f
  8
Layer_0
  10
157.4364
  20
155.78201
  0
SEQEND
  0
POLYLINE
  5
851
  8
Layer_0
  66
1
  10
0
  20
0
  30
0
  0
VERTEX
  5
851
  8
Layer_0
  10
191.47296
  20
155.78186
  0
VERTEX
  5
852
  8
Layer_0
  10
180.59021
  20
151.90948
  0
SEQEND
  0
POLYLINE
  5
854
  8
Layer_0
  66
1
  10
0
  20
0
  30
0
  0
VERTEX
  5
854
  8
Layer_0
  10
191.47217
  20
143.75876
  0
VERTEX
  5
855
  8
Layer_0
  10
180.60425
  20
147.55923
  0
SEQEND
  0
POLYLINE
  5
857
  8
Layer_0
  66
1
  10
0
  20
0
  30
0
  0
VERTEX
  5
857
  8
Layer_0
  10
191.47211
  20
191.71658
  0
VERTEX
  5
858
  8
Layer_0
  10
157.4361
  20
179.77859
  0
SEQEND
  0
POLYLINE
  5
85a
  8
Layer_0
  66
1
  10
0
  20
0
  30
0
  0
VERTEX
  5
85a
  8
Layer_0
  10
191.47211
  20
179.77859
  0
VERTEX
  5
85b
  8
Layer_0
  10
157.4361
  20
191.71658
  0
SEQEND
  0
POLYLINE
  5
85d
  8
Layer_0
  66
1
  10
0
  20
0
  30
0
  0
VERTEX
  5
85d
  8
Layer_0
  10
191.47211
  20
203.74545
  0
VERTEX
  5
85e
  8
Layer_0
  10
177.67145
  20
198.83481
  0
SEQEND
  0
POLYLINE
  5
860
  8
Layer_0
  66
1
  10
0
  20
0
  30
0
  0
VERTEX
  5
860
  8
Layer_0
  10
191.47211
  20
191.72275
  0
VERTEX
  5
861
  8
Layer_0
  10
177.67145
  20
196.54877
  0
SEQEND
  0
POLYLINE
  5
863
  8
Layer_1
  70
1
  66
1
  10
0
  20
0
  30
0
  0
VERTEX
  5
863
  8
Layer_1
  10
176.76019
  20
197.6904
  0
VERTEX
  5
864
  8
Layer_1
  10
176.71246
  20
198.16403
  0
VERTEX
  5
865
  8
Layer_1
  10
176.57556
  20
198.60516
  0
VERTEX
  5
866
  8
Layer_1
  10
176.35889
  20
199.00433
  0
VERTEX
  5
867
  8
Layer_1
  10
176.0719
  20
199.35211
  0
VERTEX
  5
868
  8
Layer_1
  10
175.72412
  20
199.63904
  0
VERTEX
  5
869
  8
Layer_1
  10
175.32495
  20
199.85571
  0
VERTEX
  5
86a
  8
Layer_1
  10
174.88385
  20
199.99261
  0
VERTEX
  5
86b
  8
Layer_1
  10
174.41022
  20
200.04037
  0
VERTEX
  5
86c
  8
Layer_1
  10
173.93652
  20
199.99261
  0
VERTEX
  5
86d
  8
Layer_1
  10
173.49542
  20
199.85571
  0
VERTEX
  5
86e
  8
Layer_1
  10
173.09619
  20
199.63904
  0
VERTEX
  5
86f
  8
Layer_1
  10
172.74847
  20
199.35211
  0
VERTEX
  5
870
  8
Layer_1
  10
172.46155
  20
199.00433
  0
VERTEX
  5
871
  8
Layer_1
  10
172.24487
  20
198.60516
  0
VERTEX
  5
872
  8
Layer_1
  10
172.10797
  20
198.16403
  0
VERTEX
  5
873
  8
Layer_1
  10
172.06018
  20
197.6904
  0
VERTEX
  5
874
  8
Layer_1
  10
172.10797
  20
197.21677
  0
VERTEX
  5
875
  8
Layer_1
  10
172.24487
  20
196.77563
  0
VERTEX
  5
876
  8
Layer_1
  10
172.46155
  20
196.37646
  0
VERTEX
  5
877
  8
Layer_1
  10
172.74847
  20
196.02869
  0
VERTEX
  5
878
  8
Layer_1
  10
173.09619
  20
195.74173
  0
VERTEX
  5
879
  8
Layer_1
  10
173.49542
  20
195.52509
  0
VERTEX
  5
87a
  8
Layer_1
  10
173.93652
  20
195.38815
  0
VERTEX
  5
87b
  8
Layer_1
  10
174.41022
  20
195.34039
  0
VERTEX
  5
87c
  8
Layer_1
  10
174.88385
  20
195.38815
  0
VERTEX
  5
87d
  8
Layer_1
  10
175.32495
  20
195.52509
  0
VERTEX
  5
87e
  8
Layer_1
  10
175.72412
  20
195.74173
  0
VERTEX
  5
87f
  8
Layer_1
  10
176.0719
  20
196.02869
  0
VERTEX
  5
880
  8
Layer_1
  10
176.35889
  20
196.37646
  0
VERTEX
  5
881
  8
Layer_1
  10
176.57556
  20
196.77563
  0
VERTEX
  5
882
  8
Layer_1
  10
176.71246
  20
197.21677
  0
VERTEX
  5
883
  8
Layer_1
  10
176.76019
  20
197.6904
  0
SEQEND
  0
POLYLINE
  5
885
  8
Layer_0
  66
1
  10
0
  20
0
  30
0
  0
VERTEX
  5
885
  8
Layer_0
  10
171.23682
  20
196.54877
  0
VERTEX
  5
886
  8
Layer_0
  10
157.4361
  20
191.72275
  0
SEQEND
  0
POLYLINE
  5
888
  8
Layer_0
  66
1
  10
0
  20
0
  30
0
  0
VERTEX
  5
888
  8
Layer_0
  10
171.23682
  20
198.83481
  0
VERTEX
  5
889
  8
Layer_0
  10
157.4361
  20
203.74545
  0
SEQEND
  0
POLYLINE
  5
88b
  8
Layer_0
  70
1
  66
1
  10
0
  20
0
  30
0
  0
VERTEX
  5
88b
  8
Layer_0
  10
177.85962
  20
197.68939
  0
VERTEX
  5
88c
  8
Layer_0
  10
177.8418
  20
198.04211
  0
VERTEX
  5
88d
  8
Layer_0
  10
177.78949
  20
198.3847
  0
VERTEX
  5
88e
  8
Layer_0
  10
177.70447
  20
198.71533
  0
VERTEX
  5
88f
  8
Layer_0
  10
177.5885
  20
199.03229
  0
VERTEX
  5
890
  8
Layer_0
  10
177.44324
  20
199.33386
  0
VERTEX
  5
891
  8
Layer_0
  10
177.27045
  20
199.61832
  0
VERTEX
  5
892
  8
Layer_0
  10
177.0719
  20
199.88391
  0
VERTEX
  5
893
  8
Layer_0
  10
176.84924
  20
200.12891
  0
VERTEX
  5
894
  8
Layer_0
  10
176.60425
  20
200.35156
  0
VERTEX
  5
895
  8
Layer_0
  10
176.33868
  20
200.55017
  0
VERTEX
  5
896
  8
Layer_0
  10
176.05426
  20
200.72302
  0
VERTEX
  5
897
  8
Layer_0
  10
175.75269
  20
200.86829
  0
VERTEX
  5
898
  8
Layer_0
  10
175.43567
  20
200.98428
  0
VERTEX
  5
899
  8
Layer_0
  10
175.1051
  20
201.06931
  0
VERTEX
  5
89a
  8
Layer_0
  10
174.76251
  20
201.12158
  0
VERTEX
  5
89b
  8
Layer_0
  10
174.40973
  20
201.1394
  0
VERTEX
  5
89c
  8
Layer_0
  10
174.05695
  20
201.12158
  0
VERTEX
  5
89d
  8
Layer_0
  10
173.71436
  20
201.06931
  0
VERTEX
  5
89e
  8
Layer_0
  10
173.38379
  20
200.98428
  0
VERTEX
  5
89f
  8
Layer_0
  10
173.06677
  20
200.86829
  0
VERTEX
  5
8a0
  8
Layer_0
  10
172.7652
  20
200.72302
  0
VERTEX
  5
8a1
  8
Layer_0
  10
172.48077
  20
200.55017
  0
VERTEX
  5
8a2
  8
Layer_0
  10
172.21521
  20
200.35156
  0
VERTEX
  5
8a3
  8
Layer_0
  10
171.97015
  20
200.12891
  0
VERTEX
  5
8a4
  8
Layer_0
  10
171.74744
  20
199.88391
  0
VERTEX
  5
8a5
  8
Layer_0
  10
171.54883
  20
199.61832
  0
VERTEX
  5
8a6
  8
Layer_0
  10
171.37598
  20
199.33386
  0
VERTEX
  5
8a7
  8
Layer_0
  10
171.23071
  20
199.03229
  0
VERTEX
  5
8a8
  8
Layer_0
  10
171.11475
  20
198.71533
  0
VERTEX
  5
8a9
  8
Layer_0
  10
171.02972
  20
198.3847
  0
VERTEX
  5
8aa
  8
Layer_0
  10
170.97742
  20
198.04211
  0
VERTEX
  5
8ab
  8
Layer_0
  10
170.95966
  20
197.68939
  0
VERTEX
  5
8ac
  8
Layer_0
  10
170.97742
  20
197.33667
  0
VERTEX
  5
8ad
  8
Layer_0
  10
171.02972
  20
196.99408
  0
VERTEX
  5
8ae
  8
Layer_0
  10
171.11475
  20
196.66345
  0
VERTEX
  5
8af
  8
Layer_0
  10
171.23071
  20
196.3465
  0
VERTEX
  5
8b0
  8
Layer_0
  10
171.37598
  20
196.04492
  0
VERTEX
  5
8b1
  8
Layer_0
  10
171.54883
  20
195.76047
  0
VERTEX
  5
8b2
  8
Layer_0
  10
171.74744
  20
195.49487
  0
VERTEX
  5
8b3
  8
Layer_0
  10
171.97015
  20
195.24988
  0
VERTEX
  5
8b4
  8
Layer_0
  10
172.21521
  20
195.02722
  0
VERTEX
  5
8b5
  8
Layer_0
  10
172.48077
  20
194.82864
  0
VERTEX
  5
8b6
  8
Layer_0
  10
172.7652
  20
194.65582
  0
VERTEX
  5
8b7
  8
Layer_0
  10
173.06677
  20
194.51056
  0
VERTEX
  5
8b8
  8
Layer_0
  10
173.38379
  20
194.39456
  0
VERTEX
  5
8b9
  8
Layer_0
  10
173.71436
  20
194.30954
  0
VERTEX
  5
8ba
  8
Layer_0
  10
174.05695
  20
194.25726
  0
VERTEX
  5
8bb
  8
Layer_0
  10
174.40973
  20
194.23944
  0
VERTEX
  5
8bc
  8
Layer_0
  10
174.76251
  20
194.25726
  0
VERTEX
  5
8bd
  8
Layer_0
  10
175.1051
  20
194.30954
  0
VERTEX
  5
8be
  8
Layer_0
  10
175.43567
  20
194.39456
  0
VERTEX
  5
8bf
  8
Layer_0
  10
175.75269
  20
194.51056
  0
VERTEX
  5
8c0
  8
Layer_0
  10
176.05426
  20
194.65582
  0
VERTEX
  5
8c1
  8
Layer_0
  10
176.33868
  20
194.82864
  0
VERTEX
  5
8c2
  8
Layer_0
  10
176.60425
  20
195.02722
  0
VERTEX
  5
8c3
  8
Layer_0
  10
176.84924
  20
195.24988
  0
VERTEX
  5
8c4
  8
Layer_0
  10
177.0719
  20
195.49487
  0
VERTEX
  5
8c5
  8
Layer_0
  10
177.27045
  20
195.76047
  0
VERTEX
  5
8c6
  8
Layer_0
  10
177.44324
  20
196.04492
  0
VERTEX
  5
8c7
  8
Layer_0
  10
177.5885
  20
196.3465
  0
VERTEX
  5
8c8
  8
Layer_0
  10
177.70447
  20
196.66345
  0
VERTEX
  5
8c9
  8
Layer_0
  10
177.78949
  20
196.99408
  0
VERTEX
  5
8ca
  8
Layer_0
  10
177.8418
  20
197.33667
  0
VERTEX
  5
8cb
  8
Layer_0
  10
177.85962
  20
197.68939
  0
SEQEND
  0
POLYLINE
  5
8cd
  8
Layer_1
  70
1
  66
1
  10
0
  20
0
  30
0
  0
VERTEX
  5
8cd
  8
Layer_1
  10
91.187256
  20
153.50958
  0
VERTEX
  5
8ce
  8
Layer_1
  10
92.257263
  20
152.57321
  0
VERTEX
  5
8cf
  8
Layer_1
  10
93.366638
  20
151.68497
  0
VERTEX
  5
8d0
  8
Layer_1
  10
94.513794
  20
150.84607
  0
VERTEX
  5
8d1
  8
Layer_1
  10
95.697144
  20
150.0578
  0
VERTEX
  5
8d2
  8
Layer_1
  10
96.913757
  20
149.32196
  0
VERTEX
  5
8d3
  8
Layer_1
  10
98.160828
  20
148.64041
  0
VERTEX
  5
8d4
  8
Layer_1
  10
99.436523
  20
148.01401
  0
VERTEX
  5
8d5
  8
Layer_1
  10
100.73901
  20
147.44373
  0
VERTEX
  5
8d6
  8
Layer_1
  10
102.06519
  20
146.93097
  0
VERTEX
  5
8d7
  8
Layer_1
  10
103.41187
  20
146.47693
  0
VERTEX
  5
8d8
  8
Layer_1
  10
104.7771
  20
146.08218
  0
VERTEX
  5
8d9
  8
Layer_1
  10
106.15894
  20
145.74734
  0
VERTEX
  5
8da
  8
Layer_1
  10
107.55414
  20
145.47321
  0
VERTEX
  5
8db
  8
Layer_1
  10
108.95929
  20
145.2605
  0
VERTEX
  5
8dc
  8
Layer_1
  10
110.37244
  20
145.10941
  0
VERTEX
  5
8dd
  8
Layer_1
  10
111.7915
  20
145.0202
  0
VERTEX
  5
8de
  8
Layer_1
  10
91.187256
  20
153.50958
  0
SEQEND
  0
POLYLINE
  5
8e0
  8
Layer_1
  70
1
  66
1
  10
0
  20
0
  30
0
  0
VERTEX
  5
8e0
  8
Layer_1
  10
116.57965
  20
145.1778
  0
VERTEX
  5
8e1
  8
Layer_1
  10
117.04456
  20
145.2276
  0
VERTEX
  5
8e2
  8
Layer_1
  10
117.50781
  20
145.29065
  0
VERTEX
  5
8e3
  8
Layer_1
  10
117.97095
  20
145.35382
  0
VERTEX
  5
8e4
  8
Layer_1
  10
118.43225
  20
145.43018
  0
VERTEX
  5
8e5
  8
Layer_1
  10
118.89343
  20
145.50665
  0
VERTEX
  5
8e6
  8
Layer_1
  10
119.35229
  20
145.59631
  0
VERTEX
  5
8e7
  8
Layer_1
  10
119.81128
  20
145.68594
  0
VERTEX
  5
8e8
  8
Layer_1
  10
120.26721
  20
145.78876
  0
VERTEX
  5
8e9
  8
Layer_1
  10
85.712891
  20
160.02582
  0
VERTEX
  5
8ea
  8
Layer_1
  10
85.964233
  20
159.6315
  0
VERTEX
  5
8eb
  8
Layer_1
  10
86.226685
  20
159.24466
  0
VERTEX
  5
8ec
  8
Layer_1
  10
86.489197
  20
158.8577
  0
VERTEX
  5
8ed
  8
Layer_1
  10
86.762756
  20
158.47858
  0
VERTEX
  5
8ee
  8
Layer_1
  10
87.036194
  20
158.09943
  0
VERTEX
  5
8ef
  8
Layer_1
  10
87.320557
  20
157.72836
  0
VERTEX
  5
8f0
  8
Layer_1
  10
87.60498
  20
157.35718
  0
VERTEX
  5
8f1
  8
Layer_1
  10
87.89978
  20
156.99438
  0
VERTEX
  5
8f2
  8
Layer_1
  10
116.57965
  20
145.1778
  0
SEQEND
  0
POLYLINE
  5
8f4
  8
Layer_1
  70
1
  66
1
  10
0
  20
0
  30
0
  0
VERTEX
  5
8f4
  8
Layer_1
  10
84.125793
  20
162.81009
  0
VERTEX
  5
8f5
  8
Layer_1
  10
123.3551
  20
146.64685
  0
VERTEX
  5
8f6
  8
Layer_1
  10
123.69604
  20
146.76004
  0
VERTEX
  5
8f7
  8
Layer_1
  10
124.03442
  20
146.88071
  0
VERTEX
  5
8f8
  8
Layer_1
  10
124.3728
  20
147.00134
  0
VERTEX
  5
8f9
  8
Layer_1
  10
124.7085
  20
147.12943
  0
VERTEX
  5
8fa
  8
Layer_1
  10
125.04407
  20
147.25754
  0
VERTEX
  5
8fb
  8
Layer_1
  10
125.37683
  20
147.39301
  0
VERTEX
  5
8fc
  8
Layer_1
  10
125.70959
  20
147.52847
  0
VERTEX
  5
8fd
  8
Layer_1
  10
126.03918
  20
147.6713
  0
VERTEX
  5
8fe
  8
Layer_1
  10
82.942383
  20
165.42792
  0
VERTEX
  5
8ff
  8
Layer_1
  10
83.075684
  20
165.09436
  0
VERTEX
  5
900
  8
Layer_1
  10
83.216431
  20
164.76379
  0
VERTEX
  5
901
  8
Layer_1
  10
83.357178
  20
164.43329
  0
VERTEX
  5
902
  8
Layer_1
  10
83.505127
  20
164.10587
  0
VERTEX
  5
903
  8
Layer_1
  10
83.653076
  20
163.77853
  0
VERTEX
  5
904
  8
Layer_1
  10
83.808289
  20
163.45453
  0
VERTEX
  5
905
  8
Layer_1
  10
83.963501
  20
163.13052
  0
VERTEX
  5
906
  8
Layer_1
  10
84.125793
  20
162.81009
  0
SEQEND
  0
POLYLINE
  5
908
  8
Layer_1
  70
1
  66
1
  10
0
  20
0
  30
0
  0
VERTEX
  5
908
  8
Layer_1
  10
128.4209
  20
148.82031
  0
VERTEX
  5
909
  8
Layer_1
  10
128.69421
  20
148.96622
  0
VERTEX
  5
90a
  8
Layer_1
  10
128.9646
  20
149.11716
  0
VERTEX
  5
90b
  8
Layer_1
  10
129.23499
  20
149.26822
  0
VERTEX
  5
90c
  8
Layer_1
  10
129.50256
  20
149.42435
  0
VERTEX
  5
90d
  8
Layer_1
  10
129.77014
  20
149.58044
  0
VERTEX
  5
90e
  8
Layer_1
  10
130.03467
  20
149.74167
  0
VERTEX
  5
90f
  8
Layer_1
  10
130.29907
  20
149.90289
  0
VERTEX
  5
910
  8
Layer_1
  10
130.56055
  20
150.06915
  0
VERTEX
  5
911
  8
Layer_1
  10
81.422485
  20
170.31479
  0
VERTEX
  5
912
  8
Layer_1
  10
81.490967
  20
170.01276
  0
VERTEX
  5
913
  8
Layer_1
  10
81.565063
  20
169.71198
  0
VERTEX
  5
914
  8
Layer_1
  10
81.639282
  20
169.41113
  0
VERTEX
  5
915
  8
Layer_1
  10
81.719177
  20
169.11194
  0
VERTEX
  5
916
  8
Layer_1
  10
81.799011
  20
168.81265
  0
VERTEX
  5
917
  8
Layer_1
  10
81.884644
  20
168.51498
  0
VERTEX
  5
918
  8
Layer_1
  10
81.970093
  20
168.21729
  0
VERTEX
  5
919
  8
Layer_1
  10
82.061401
  20
167.92123
  0
VERTEX
  5
91a
  8
Layer_1
  10
128.4209
  20
148.82031
  0
SEQEND
  0
POLYLINE
  5
91c
  8
Layer_1
  70
1
  66
1
  10
0
  20
0
  30
0
  0
VERTEX
  5
91c
  8
Layer_1
  10
132.49719
  20
151.40155
  0
VERTEX
  5
91d
  8
Layer_1
  10
132.72321
  20
151.56946
  0
VERTEX
  5
91e
  8
Layer_1
  10
132.94635
  20
151.74124
  0
VERTEX
  5
91f
  8
Layer_1
  10
133.16956
  20
151.91302
  0
VERTEX
  5
920
  8
Layer_1
  10
133.38971
  20
152.08871
  0
VERTEX
  5
921
  8
Layer_1
  10
133.60986
  20
152.26431
  0
VERTEX
  5
922
  8
Layer_1
  10
133.8269
  20
152.44382
  0
VERTEX
  5
923
  8
Layer_1
  10
134.04395
  20
152.6232
  0
VERTEX
  5
924
  8
Layer_1
  10
134.25787
  20
152.80643
  0
VERTEX
  5
925
  8
Layer_1
  10
80.726501
  20
174.86224
  0
VERTEX
  5
926
  8
Layer_1
  10
80.749268
  20
174.58151
  0
VERTEX
  5
927
  8
Layer_1
  10
80.776978
  20
174.3013
  0
VERTEX
  5
928
  8
Layer_1
  10
80.804688
  20
174.02103
  0
VERTEX
  5
929
  8
Layer_1
  10
80.837158
  20
173.7413
  0
VERTEX
  5
92a
  8
Layer_1
  10
80.86969
  20
173.46146
  0
VERTEX
  5
92b
  8
Layer_1
  10
80.907104
  20
173.18231
  0
VERTEX
  5
92c
  8
Layer_1
  10
80.944336
  20
172.90326
  0
VERTEX
  5
92d
  8
Layer_1
  10
80.986572
  20
172.62479
  0
VERTEX
  5
92e
  8
Layer_1
  10
132.49719
  20
151.40155
  0
SEQEND
  0
POLYLINE
  5
930
  8
Layer_1
  70
1
  66
1
  10
0
  20
0
  30
0
  0
VERTEX
  5
930
  8
Layer_1
  10
135.86206
  20
154.27582
  0
VERTEX
  5
931
  8
Layer_1
  10
136.0509
  20
154.46082
  0
VERTEX
  5
932
  8
Layer_1
  10
136.23669
  20
154.64886
  0
VERTEX
  5
933
  8
Layer_1
  10
136.42255
  20
154.83691
  0
VERTEX
  5
934
  8
Layer_1
  10
136.60535
  20
155.02792
  0
VERTEX
  5
935
  8
Layer_1
  10
136.78802
  20
155.21899
  0
VERTEX
  5
936
  8
Layer_1
  10
136.96765
  20
155.41296
  0
VERTEX
  5
937
  8
Layer_1
  10
137.14734
  20
155.60696
  0
VERTEX
  5
938
  8
Layer_1
  10
137.32373
  20
155.80389
  0
VERTEX
  5
939
  8
Layer_1
  10
80.662109
  20
179.14944
  0
VERTEX
  5
93a
  8
Layer_1
  10
80.648682
  20
178.88538
  0
VERTEX
  5
93b
  8
Layer_1
  10
80.639404
  20
178.62119
  0
VERTEX
  5
93c
  8
Layer_1
  10
80.630249
  20
178.35693
  0
VERTEX
  5
93d
  8
Layer_1
  10
80.625366
  20
178.09262
  0
VERTEX
  5
93e
  8
Layer_1
  10
80.620483
  20
177.82828
  0
VERTEX
  5
93f
  8
Layer_1
  10
80.619934
  20
177.56387
  0
VERTEX
  5
940
  8
Layer_1
  10
80.619385
  20
177.29956
  0
VERTEX
  5
941
  8
Layer_1
  10
80.623047
  20
177.03516
  0
VERTEX
  5
942
  8
Layer_1
  10
135.86206
  20
154.27582
  0
SEQEND
  0
POLYLINE
  5
944
  8
Layer_1
  70
1
  66
1
  10
0
  20
0
  30
0
  0
VERTEX
  5
944
  8
Layer_1
  10
138.6535
  20
157.38629
  0
VERTEX
  5
945
  8
Layer_1
  10
138.81055
  20
157.58578
  0
VERTEX
  5
946
  8
Layer_1
  10
138.96442
  20
157.78766
  0
VERTEX
  5
947
  8
Layer_1
  10
139.11835
  20
157.98944
  0
VERTEX
  5
948
  8
Layer_1
  10
139.26917
  20
158.19366
  0
VERTEX
  5
949
  8
Layer_1
  10
139.4198
  20
158.39792
  0
VERTEX
  5
94a
  8
Layer_1
  10
139.56732
  20
158.60449
  0
VERTEX
  5
94b
  8
Layer_1
  10
139.7149
  20
158.81107
  0
VERTEX
  5
94c
  8
Layer_1
  10
139.85913
  20
159.01987
  0
VERTEX
  5
94d
  8
Layer_1
  10
81.128113
  20
183.21811
  0
VERTEX
  5
94e
  8
Layer_1
  10
81.083374
  20
182.96823
  0
VERTEX
  5
94f
  8
Layer_1
  10
81.042603
  20
182.71774
  0
VERTEX
  5
950
  8
Layer_1
  10
81.00177
  20
182.46719
  0
VERTEX
  5
951
  8
Layer_1
  10
80.964844
  20
182.21606
  0
VERTEX
  5
952
  8
Layer_1
  10
80.927979
  20
181.96487
  0
VERTEX
  5
953
  8
Layer_1
  10
80.89502
  20
181.71323
  0
VERTEX
  5
954
  8
Layer_1
  10
80.862061
  20
181.46152
  0
VERTEX
  5
955
  8
Layer_1
  10
80.833008
  20
181.20932
  0
VERTEX
  5
956
  8
Layer_1
  10
138.6535
  20
157.38629
  0
SEQEND
  0
POLYLINE
  5
958
  8
Layer_1
  70
1
  66
1
  10
0
  20
0
  30
0
  0
VERTEX
  5
958
  8
Layer_1
  10
140.94647
  20
160.7023
  0
VERTEX
  5
959
  8
Layer_1
  10
141.07452
  20
160.91467
  0
VERTEX
  5
95a
  8
Layer_1
  10
141.19952
  20
161.129
  0
VERTEX
  5
95b
  8
Layer_1
  10
141.3244
  20
161.34338
  0
VERTEX
  5
95c
  8
Layer_1
  10
141.44604
  20
161.5596
  0
VERTEX
  5
95d
  8
Layer_1
  10
141.56769
  20
161.77588
  0
VERTEX
  5
95e
  8
Layer_1
  10
141.68604
  20
161.99387
  0
VERTEX
  5
95f
  8
Layer_1
  10
141.80432
  20
162.21194
  0
VERTEX
  5
960
  8
Layer_1
  10
141.91931
  20
162.43176
  0
VERTEX
  5
961
  8
Layer_1
  10
82.069458
  20
187.09094
  0
VERTEX
  5
962
  8
Layer_1
  10
81.996094
  20
186.85391
  0
VERTEX
  5
963
  8
Layer_1
  10
81.926514
  20
186.61578
  0
VERTEX
  5
964
  8
Layer_1
  10
81.856812
  20
186.37769
  0
VERTEX
  5
965
  8
Layer_1
  10
81.790894
  20
186.13852
  0
VERTEX
  5
966
  8
Layer_1
  10
81.724854
  20
185.89941
  0
VERTEX
  5
967
  8
Layer_1
  10
81.662537
  20
185.6593
  0
VERTEX
  5
968
  8
Layer_1
  10
81.60022
  20
185.41916
  0
VERTEX
  5
969
  8
Layer_1
  10
81.541504
  20
185.17807
  0
VERTEX
  5
96a
  8
Layer_1
  10
140.94647
  20
160.7023
  0
SEQEND
  0
POLYLINE
  5
96c
  8
Layer_1
  70
1
  66
1
  10
0
  20
0
  30
0
  0
VERTEX
  5
96c
  8
Layer_1
  10
142.78027
  20
164.20743
  0
VERTEX
  5
96d
  8
Layer_1
  10
142.88092
  20
164.43213
  0
VERTEX
  5
96e
  8
Layer_1
  10
142.97821
  20
164.65829
  0
VERTEX
  5
96f
  8
Layer_1
  10
143.07544
  20
164.88455
  0
VERTEX
  5
970
  8
Layer_1
  10
143.16919
  20
165.11221
  0
VERTEX
  5
971
  8
Layer_1
  10
143.263
  20
165.34
  0
VERTEX
  5
972
  8
Layer_1
  10
143.35333
  20
165.569
  0
VERTEX
  5
973
  8
Layer_1
  10
143.44373
  20
165.7981
  0
VERTEX
  5
974
  8
Layer_1
  10
143.53058
  20
166.02859
  0
VERTEX
  5
975
  8
Layer_1
  10
83.459473
  20
190.77884
  0
VERTEX
  5
976
  8
Layer_1
  10
83.358826
  20
190.55414
  0
VERTEX
  5
977
  8
Layer_1
  10
83.261536
  20
190.32788
  0
VERTEX
  5
978
  8
Layer_1
  10
83.164307
  20
190.10165
  0
VERTEX
  5
979
  8
Layer_1
  10
83.070496
  20
189.87399
  0
VERTEX
  5
97a
  8
Layer_1
  10
82.976685
  20
189.64627
  0
VERTEX
  5
97b
  8
Layer_1
  10
82.886353
  20
189.41724
  0
VERTEX
  5
97c
  8
Layer_1
  10
82.796021
  20
189.18814
  0
VERTEX
  5
97d
  8
Layer_1
  10
82.709106
  20
188.95767
  0
VERTEX
  5
97e
  8
Layer_1
  10
142.78027
  20
164.20743
  0
SEQEND
  0
POLYLINE
  5
980
  8
Layer_1
  70
1
  66
1
  10
0
  20
0
  30
0
  0
VERTEX
  5
980
  8
Layer_1
  10
84.320435
  20
192.55447
  0
VERTEX
  5
981
  8
Layer_1
  10
144.17029
  20
167.89529
  0
VERTEX
  5
982
  8
Layer_1
  10
144.24365
  20
168.13223
  0
VERTEX
  5
983
  8
Layer_1
  10
144.31317
  20
168.37048
  0
VERTEX
  5
984
  8
Layer_1
  10
144.38293
  20
168.60852
  0
VERTEX
  5
985
  8
Layer_1
  10
144.44885
  20
168.84769
  0
VERTEX
  5
986
  8
Layer_1
  10
144.51483
  20
169.08679
  0
VERTEX
  5
987
  8
Layer_1
  10
144.57721
  20
169.3269
  0
VERTEX
  5
988
  8
Layer_1
  10
144.63953
  20
169.56705
  0
VERTEX
  5
989
  8
Layer_1
  10
144.69824
  20
169.80811
  0
VERTEX
  5
98a
  8
Layer_1
  10
85.293274
  20
194.28397
  0
VERTEX
  5
98b
  8
Layer_1
  10
85.165161
  20
194.07153
  0
VERTEX
  5
98c
  8
Layer_1
  10
85.040283
  20
193.85724
  0
VERTEX
  5
98d
  8
Layer_1
  10
84.915283
  20
193.64282
  0
VERTEX
  5
98e
  8
Layer_1
  10
84.793701
  20
193.42661
  0
VERTEX
  5
98f
  8
Layer_1
  10
84.672119
  20
193.21039
  0
VERTEX
  5
990
  8
Layer_1
  10
84.553711
  20
192.99234
  0
VERTEX
  5
991
  8
Layer_1
  10
84.435425
  20
192.77423
  0
VERTEX
  5
992
  8
Layer_1
  10
84.320435
  20
192.55447
  0
SEQEND
  0
POLYLINE
  5
994
  8
Layer_1
  70
1
  66
1
  10
0
  20
0
  30
0
  0
VERTEX
  5
994
  8
Layer_1
  10
86.380615
  20
195.96637
  0
VERTEX
  5
995
  8
Layer_1
  10
145.11163
  20
171.7681
  0
VERTEX
  5
996
  8
Layer_1
  10
145.15631
  20
172.01797
  0
VERTEX
  5
997
  8
Layer_1
  10
145.19714
  20
172.26852
  0
VERTEX
  5
998
  8
Layer_1
  10
145.23798
  20
172.51904
  0
VERTEX
  5
999
  8
Layer_1
  10
145.2749
  20
172.77017
  0
VERTEX
  5
99a
  8
Layer_1
  10
145.31177
  20
173.02136
  0
VERTEX
  5
99b
  8
Layer_1
  10
145.34473
  20
173.27301
  0
VERTEX
  5
99c
  8
Layer_1
  10
145.37762
  20
173.52469
  0
VERTEX
  5
99d
  8
Layer_1
  10
145.40668
  20
173.77686
  0
VERTEX
  5
99e
  8
Layer_1
  10
87.586182
  20
197.59991
  0
VERTEX
  5
99f
  8
Layer_1
  10
87.429199
  20
197.40045
  0
VERTEX
  5
9a0
  8
Layer_1
  10
87.275269
  20
197.19861
  0
VERTEX
  5
9a1
  8
Layer_1
  10
87.12146
  20
196.9967
  0
VERTEX
  5
9a2
  8
Layer_1
  10
86.970581
  20
196.79251
  0
VERTEX
  5
9a3
  8
Layer_1
  10
86.819946
  20
196.58829
  0
VERTEX
  5
9a4
  8
Layer_1
  10
86.672302
  20
196.38171
  0
VERTEX
  5
9a5
  8
Layer_1
  10
86.524902
  20
196.17514
  0
VERTEX
  5
9a6
  8
Layer_1
  10
86.380615
  20
195.96637
  0
SEQEND
  0
POLYLINE
  5
9a8
  8
Layer_1
  70
1
  66
1
  10
0
  20
0
  30
0
  0
VERTEX
  5
9a8
  8
Layer_1
  10
145.57764
  20
175.83676
  0
VERTEX
  5
9a9
  8
Layer_1
  10
145.59113
  20
176.10083
  0
VERTEX
  5
9aa
  8
Layer_1
  10
145.60022
  20
176.36499
  0
VERTEX
  5
9ab
  8
Layer_1
  10
145.60944
  20
176.62927
  0
VERTEX
  5
9ac
  8
Layer_1
  10
145.61426
  20
176.89355
  0
VERTEX
  5
9ad
  8
Layer_1
  10
145.6192
  20
177.15793
  0
VERTEX
  5
9ae
  8
Layer_1
  10
145.61981
  20
177.42233
  0
VERTEX
  5
9af
  8
Layer_1
  10
145.62042
  20
177.68671
  0
VERTEX
  5
9b0
  8
Layer_1
  10
145.61664
  20
177.95108
  0
VERTEX
  5
9b1
  8
Layer_1
  10
90.377686
  20
200.71039
  0
VERTEX
  5
9b2
  8
Layer_1
  10
90.188843
  20
200.52539
  0
VERTEX
  5
9b3
  8
Layer_1
  10
90.003052
  20
200.33734
  0
VERTEX
  5
9b4
  8
Layer_1
  10
89.8172
  20
200.14932
  0
VERTEX
  5
9b5
  8
Layer_1
  10
89.634399
  20
199.95828
  0
VERTEX
  5
9b6
  8
Layer_1
  10
89.45166
  20
199.76721
  0
VERTEX
  5
9b7
  8
Layer_1
  10
89.272034
  20
199.57327
  0
VERTEX
  5
9b8
  8
Layer_1
  10
89.092407
  20
199.37927
  0
VERTEX
  5
9b9
  8
Layer_1
  10
88.916016
  20
199.18237
  0
VERTEX
  5
9ba
  8
Layer_1
  10
145.57764
  20
175.83676
  0
SEQEND
  0
POLYLINE
  5
9bc
  8
Layer_1
  70
1
  66
1
  10
0
  20
0
  30
0
  0
VERTEX
  5
9bc
  8
Layer_1
  10
145.51318
  20
180.12393
  0
VERTEX
  5
9bd
  8
Layer_1
  10
145.49042
  20
180.40469
  0
VERTEX
  5
9be
  8
Layer_1
  10
145.46271
  20
180.68497
  0
VERTEX
  5
9bf
  8
Layer_1
  10
145.43506
  20
180.96521
  0
VERTEX
  5
9c0
  8
Layer_1
  10
145.40253
  20
181.24496
  0
VERTEX
  5
9c1
  8
Layer_1
  10
145.37006
  20
181.52475
  0
VERTEX
  5
9c2
  8
Layer_1
  10
145.3327
  20
181.80392
  0
VERTEX
  5
9c3
  8
Layer_1
  10
145.29535
  20
182.08298
  0
VERTEX
  5
9c4
  8
Layer_1
  10
145.25317
  20
182.36142
  0
VERTEX
  5
9c5
  8
Layer_1
  10
93.742554
  20
203.58469
  0
VERTEX
  5
9c6
  8
Layer_1
  10
93.516479
  20
203.41678
  0
VERTEX
  5
9c7
  8
Layer_1
  10
93.293335
  20
203.245
  0
VERTEX
  5
9c8
  8
Layer_1
  10
93.07019
  20
203.07318
  0
VERTEX
  5
9c9
  8
Layer_1
  10
92.849976
  20
202.89752
  0
VERTEX
  5
9ca
  8
Layer_1
  10
92.629883
  20
202.72189
  0
VERTEX
  5
9cb
  8
Layer_1
  10
92.412842
  20
202.54242
  0
VERTEX
  5
9cc
  8
Layer_1
  10
92.19574
  20
202.36301
  0
VERTEX
  5
9cd
  8
Layer_1
  10
91.981812
  20
202.17978
  0
VERTEX
  5
9ce
  8
Layer_1
  10
145.51318
  20
180.12393
  0
SEQEND
  0
POLYLINE
  5
9d0
  8
Layer_1
  70
1
  66
1
  10
0
  20
0
  30
0
  0
VERTEX
  5
9d0
  8
Layer_1
  10
144.81726
  20
184.67136
  0
VERTEX
  5
9d1
  8
Layer_1
  10
144.74872
  20
184.97351
  0
VERTEX
  5
9d2
  8
Layer_1
  10
144.67468
  20
185.27426
  0
VERTEX
  5
9d3
  8
Layer_1
  10
144.60046
  20
185.57507
  0
VERTEX
  5
9d4
  8
Layer_1
  10
144.52057
  20
185.87427
  0
VERTEX
  5
9d5
  8
Layer_1
  10
144.44073
  20
186.17352
  0
VERTEX
  5
9d6
  8
Layer_1
  10
144.35516
  20
186.47125
  0
VERTEX
  5
9d7
  8
Layer_1
  10
144.26959
  20
186.76892
  0
VERTEX
  5
9d8
  8
Layer_1
  10
144.17834
  20
187.06503
  0
VERTEX
  5
9d9
  8
Layer_1
  10
97.818848
  20
206.16592
  0
VERTEX
  5
9da
  8
Layer_1
  10
97.545593
  20
206.02002
  0
VERTEX
  5
9db
  8
Layer_1
  10
97.275146
  20
205.86905
  0
VERTEX
  5
9dc
  8
Layer_1
  10
97.004639
  20
205.71802
  0
VERTEX
  5
9dd
  8
Layer_1
  10
96.737183
  20
205.56186
  0
VERTEX
  5
9de
  8
Layer_1
  10
96.469604
  20
205.40576
  0
VERTEX
  5
9df
  8
Layer_1
  10
96.205139
  20
205.24454
  0
VERTEX
  5
9e0
  8
Layer_1
  10
95.940674
  20
205.08334
  0
VERTEX
  5
9e1
  8
Layer_1
  10
95.67926
  20
204.91708
  0
VERTEX
  5
9e2
  8
Layer_1
  10
144.81726
  20
184.67136
  0
SEQEND
  0
POLYLINE
  5
9e4
  8
Layer_1
  70
1
  66
1
  10
0
  20
0
  30
0
  0
VERTEX
  5
9e4
  8
Layer_1
  10
143.29742
  20
189.55829
  0
VERTEX
  5
9e5
  8
Layer_1
  10
143.16394
  20
189.89191
  0
VERTEX
  5
9e6
  8
Layer_1
  10
143.02319
  20
190.22235
  0
VERTEX
  5
9e7
  8
Layer_1
  10
142.88251
  20
190.55292
  0
VERTEX
  5
9e8
  8
Layer_1
  10
142.73468
  20
190.88034
  0
VERTEX
  5
9e9
  8
Layer_1
  10
142.58667
  20
191.20767
  0
VERTEX
  5
9ea
  8
Layer_1
  10
142.43146
  20
191.53168
  0
VERTEX
  5
9eb
  8
Layer_1
  10
142.27625
  20
191.85568
  0
VERTEX
  5
9ec
  8
Layer_1
  10
142.11395
  20
192.17618
  0
VERTEX
  5
9ed
  8
Layer_1
  10
102.88464
  20
208.33939
  0
VERTEX
  5
9ee
  8
Layer_1
  10
102.5437
  20
208.22617
  0
VERTEX
  5
9ef
  8
Layer_1
  10
102.20526
  20
208.1055
  0
VERTEX
  5
9f0
  8
Layer_1
  10
101.86682
  20
207.98489
  0
VERTEX
  5
9f1
  8
Layer_1
  10
101.53125
  20
207.85678
  0
VERTEX
  5
9f2
  8
Layer_1
  10
101.19562
  20
207.72867
  0
VERTEX
  5
9f3
  8
Layer_1
  10
100.86292
  20
207.59323
  0
VERTEX
  5
9f4
  8
Layer_1
  10
100.53015
  20
207.45773
  0
VERTEX
  5
9f5
  8
Layer_1
  10
100.20056
  20
207.31491
  0
VERTEX
  5
9f6
  8
Layer_1
  10
143.29742
  20
189.55829
  0
SEQEND
  0
POLYLINE
  5
9f8
  8
Layer_1
  70
1
  66
1
  10
0
  20
0
  30
0
  0
VERTEX
  5
9f8
  8
Layer_1
  10
140.52686
  20
194.96045
  0
VERTEX
  5
9f9
  8
Layer_1
  10
140.27551
  20
195.35474
  0
VERTEX
  5
9fa
  8
Layer_1
  10
140.013
  20
195.74158
  0
VERTEX
  5
9fb
  8
Layer_1
  10
139.75055
  20
196.12842
  0
VERTEX
  5
9fc
  8
Layer_1
  10
139.47699
  20
196.50763
  0
VERTEX
  5
9fd
  8
Layer_1
  10
139.20349
  20
196.88678
  0
VERTEX
  5
9fe
  8
Layer_1
  10
138.91907
  20
197.25784
  0
VERTEX
  5
9ff
  8
Layer_1
  10
138.63483
  20
197.62906
  0
VERTEX
  5
a00
  8
Layer_1
  10
138.3399
  20
197.99182
  0
VERTEX
  5
a01
  8
Layer_1
  10
109.6601
  20
209.80841
  0
VERTEX
  5
a02
  8
Layer_1
  10
109.19519
  20
209.75864
  0
VERTEX
  5
a03
  8
Layer_1
  10
108.73193
  20
209.69556
  0
VERTEX
  5
a04
  8
Layer_1
  10
108.26868
  20
209.63242
  0
VERTEX
  5
a05
  8
Layer_1
  10
107.8075
  20
209.55594
  0
VERTEX
  5
a06
  8
Layer_1
  10
107.34625
  20
209.47958
  0
VERTEX
  5
a07
  8
Layer_1
  10
106.88745
  20
209.38992
  0
VERTEX
  5
a08
  8
Layer_1
  10
106.42859
  20
209.30026
  0
VERTEX
  5
a09
  8
Layer_1
  10
105.97253
  20
209.19748
  0
VERTEX
  5
a0a
  8
Layer_1
  10
140.52686
  20
194.96045
  0
SEQEND
  0
POLYLINE
  5
a0c
  8
Layer_1
  70
1
  66
1
  10
0
  20
0
  30
0
  0
VERTEX
  5
a0c
  8
Layer_1
  10
114.44824
  20
209.96591
  0
VERTEX
  5
a0d
  8
Layer_1
  10
135.05249
  20
201.47662
  0
VERTEX
  5
a0e
  8
Layer_1
  10
133.98248
  20
202.41299
  0
VERTEX
  5
a0f
  8
Layer_1
  10
132.87311
  20
203.30121
  0
VERTEX
  5
a10
  8
Layer_1
  10
131.72595
  20
204.14011
  0
VERTEX
  5
a11
  8
Layer_1
  10
130.5426
  20
204.92841
  0
VERTEX
  5
a12
  8
Layer_1
  10
129.32593
  20
205.66425
  0
VERTEX
  5
a13
  8
Layer_1
  10
128.07886
  20
206.34583
  0
VERTEX
  5
a14
  8
Layer_1
  10
126.80322
  20
206.97223
  0
VERTEX
  5
a15
  8
Layer_1
  10
125.50073
  20
207.54251
  0
VERTEX
  5
a16
  8
Layer_1
  10
124.17456
  20
208.05524
  0
VERTEX
  5
a17
  8
Layer_1
  10
122.82788
  20
208.50928
  0
VERTEX
  5
a18
  8
Layer_1
  10
121.46265
  20
208.90405
  0
VERTEX
  5
a19
  8
Layer_1
  10
120.08081
  20
209.23886
  0
VERTEX
  5
a1a
  8
Layer_1
  10
118.68561
  20
209.51297
  0
VERTEX
  5
a1b
  8
Layer_1
  10
117.28046
  20
209.72568
  0
VERTEX
  5
a1c
  8
Layer_1
  10
115.86731
  20
209.87677
  0
VERTEX
  5
a1d
  8
Layer_1
  10
114.44824
  20
209.96591
  0
SEQEND
  0
POLYLINE
  5
a1f
  8
Layer_1
  70
1
  66
1
  10
0
  20
0
  30
0
  0
VERTEX
  5
a1f
  8
Layer_1
  10
65.085571
  20
217.27576
  0
VERTEX
  5
a20
  8
Layer_1
  10
149.15955
  20
217.27576
  0
VERTEX
  5
a21
  8
Layer_1
  10
149.15955
  20
137.77377
  0
VERTEX
  5
a22
  8
Layer_1
  10
65.085571
  20
137.77377
  0
VERTEX
  5
a23
  8
Layer_1
  10
65.085571
  20
217.27576
  0
SEQEND
  0
POLYLINE
  5
a25
  8
Layer_1
  70
1
  66
1
  10
0
  20
0
  30
0
  0
VERTEX
  5
a25
  8
Layer_1
  10
86.510864
  20
205.62988
  0
VERTEX
  5
a26
  8
Layer_1
  10
86.479919
  20
205.33127
  0
VERTEX
  5
a27
  8
Layer_1
  10
86.391113
  20
205.05313
  0
VERTEX
  5
a28
  8
Layer_1
  10
86.25061
  20
204.80142
  0
VERTEX
  5
a29
  8
Layer_1
  10
86.064514
  20
204.58215
  0
VERTEX
  5
a2a
  8
Layer_1
  10
85.838989
  20
204.40125
  0
VERTEX
  5
a2b
  8
Layer_1
  10
85.580078
  20
204.26462
  0
VERTEX
  5
a2c
  8
Layer_1
  10
85.293945
  20
204.17828
  0
VERTEX
  5
a2d
  8
Layer_1
  10
84.986877
  20
204.14819
  0
VERTEX
  5
a2e
  8
Layer_1
  10
84.67981
  20
204.17828
  0
VERTEX
  5
a2f
  8
Layer_1
  10
84.393677
  20
204.26462
  0
VERTEX
  5
a30
  8
Layer_1
  10
84.134827
  20
204.40125
  0
VERTEX
  5
a31
  8
Layer_1
  10
83.909302
  20
204.58215
  0
VERTEX
  5
a32
  8
Layer_1
  10
83.723145
  20
204.80142
  0
VERTEX
  5
a33
  8
Layer_1
  10
83.582642
  20
205.05313
  0
VERTEX
  5
a34
  8
Layer_1
  10
83.493896
  20
205.33127
  0
VERTEX
  5
a35
  8
Layer_1
  10
83.462891
  20
205.62988
  0
VERTEX
  5
a36
  8
Layer_1
  10
83.493896
  20
205.9285
  0
VERTEX
  5
a37
  8
Layer_1
  10
83.582642
  20
206.2066
  0
VERTEX
  5
a38
  8
Layer_1
  10
83.723145
  20
206.45828
  0
VERTEX
  5
a39
  8
Layer_1
  10
83.909302
  20
206.67755
  0
VERTEX
  5
a3a
  8
Layer_1
  10
84.134827
  20
206.85846
  0
VERTEX
  5
a3b
  8
Layer_1
  10
84.393677
  20
206.99509
  0
VERTEX
  5
a3c
  8
Layer_1
  10
84.67981
  20
207.08142
  0
VERTEX
  5
a3d
  8
Layer_1
  10
84.986877
  20
207.11151
  0
VERTEX
  5
a3e
  8
Layer_1
  10
85.293945
  20
207.08142
  0
VERTEX
  5
a3f
  8
Layer_1
  10
85.580078
  20
206.99509
  0
VERTEX
  5
a40
  8
Layer_1
  10
85.838989
  20
206.85846
  0
VERTEX
  5
a41
  8
Layer_1
  10
86.064514
  20
206.67755
  0
VERTEX
  5
a42
  8
Layer_1
  10
86.25061
  20
206.45828
  0
VERTEX
  5
a43
  8
Layer_1
  10
86.391113
  20
206.2066
  0
VERTEX
  5
a44
  8
Layer_1
  10
86.479919
  20
205.9285
  0
VERTEX
  5
a45
  8
Layer_1
  10
86.510864
  20
205.62988
  0
SEQEND
  0
POLYLINE
  5
a47
  8
Layer_1
  70
1
  66
1
  10
0
  20
0
  30
0
  0
VERTEX
  5
a47
  8
Layer_1
  10
139.39008
  20
146.78851
  0
VERTEX
  5
a48
  8
Layer_1
  10
144.39008
  20
146.78851
  0
VERTEX
  5
a49
  8
Layer_1
  10
144.39008
  20
141.78851
  0
VERTEX
  5
a4a
  8
Layer_1
  10
139.39008
  20
141.78851
  0
VERTEX
  5
a4b
  8
Layer_1
  10
139.39008
  20
146.78851
  0
SEQEND
  0
POLYLINE
  5
a4d
  8
Layer_0
  66
1
  10
0
  20
0
  30
0
  0
VERTEX
  5
a4d
  8
Layer_0
  10
157.41382
  20
66.407043
  0
VERTEX
  5
a4e
  8
Layer_0
  10
191.36523
  20
54.384399
  0
SEQEND
  0
POLYLINE
  5
a50
  8
Layer_0
  66
1
  10
0
  20
0
  30
0
  0
VERTEX
  5
a50
  8
Layer_0
  10
157.41382
  20
54.384399
  0
VERTEX
  5
a51
  8
Layer_0
  10
191.36523
  20
66.407104
  0
SEQEND
  0
POLYLINE
  5
a53
  8
Layer_0
  66
1
  10
0
  20
0
  30
0
  0
VERTEX
  5
a53
  8
Layer_0
  10
157.41382
  20
90.367676
  0
VERTEX
  5
a54
  8
Layer_0
  10
191.36523
  20
78.345093
  0
SEQEND
  0
POLYLINE
  5
a56
  8
Layer_0
  66
1
  10
0
  20
0
  30
0
  0
VERTEX
  5
a56
  8
Layer_0
  10
157.41382
  20
78.345032
  0
VERTEX
  5
a57
  8
Layer_0
  10
191.36523
  20
90.367706
  0
SEQEND
  0
POLYLINE
  5
a59
  8
Layer_0
  66
1
  10
0
  20
0
  30
0
  0
VERTEX
  5
a59
  8
Layer_0
  10
157.41382
  20
78.345032
  0
VERTEX
  5
a5a
  8
Layer_0
  10
191.36523
  20
66.407104
  0
SEQEND
  0
POLYLINE
  5
a5c
  8
Layer_0
  66
1
  10
0
  20
0
  30
0
  0
VERTEX
  5
a5c
  8
Layer_0
  10
157.41382
  20
66.407043
  0
VERTEX
  5
a5d
  8
Layer_0
  10
191.36523
  20
78.345093
  0
SEQEND
  0
POLYLINE
  5
a5f
  8
Layer_0
  66
1
  10
0
  20
0
  30
0
  0
VERTEX
  5
a5f
  8
Layer_0
  10
156.88324
  20
42.220947
  0
VERTEX
  5
a60
  8
Layer_0
  10
191.367
  20
54.385498
  0
SEQEND
  0
POLYLINE
  5
a62
  8
Layer_0
  66
1
  10
0
  20
0
  30
0
  0
VERTEX
  5
a62
  8
Layer_0
  10
157.41223
  20
54.383545
  0
VERTEX
  5
a63
  8
Layer_0
  10
192.10815
  20
42.144287
  0
SEQEND
  0
POLYLINE
  5
a65
  8
Layer_0
  66
1
  10
0
  20
0
  30
0
  0
VERTEX
  5
a65
  8
Layer_0
  10
157.4162
  20
114.33057
  0
VERTEX
  5
a66
  8
Layer_0
  10
191.46503
  20
126.44611
  0
SEQEND
  0
POLYLINE
  5
a68
  8
Layer_0
  66
1
  10
0
  20
0
  30
0
  0
VERTEX
  5
a68
  8
Layer_0
  10
157.31317
  20
126.44165
  0
VERTEX
  5
a69
  8
Layer_0
  10
191.36169
  20
114.32635
  0
SEQEND
  0
POLYLINE
  5
a6b
  8
Layer_0
  66
1
  10
0
  20
0
  30
0
  0
VERTEX
  5
a6b
  8
Layer_0
  10
191.46014
  20
114.37152
  0
VERTEX
  5
a6c
  8
Layer_0
  10
177.65948
  20
109.46085
  0
SEQEND
  0
POLYLINE
  5
a6e
  8
Layer_0
  66
1
  10
0
  20
0
  30
0
  0
VERTEX
  5
a6e
  8
Layer_0
  10
191.46014
  20
102.34882
  0
VERTEX
  5
a6f
  8
Layer_0
  10
177.65948
  20
107.1748
  0
SEQEND
  0
POLYLINE
  5
a71
  8
Layer_1
  70
1
  66
1
  10
0
  20
0
  30
0
  0
VERTEX
  5
a71
  8
Layer_1
  10
176.74823
  20
108.31644
  0
VERTEX
  5
a72
  8
Layer_1
  10
176.7005
  20
108.79007
  0
VERTEX
  5
a73
  8
Layer_1
  10
176.5636
  20
109.2312
  0
VERTEX
  5
a74
  8
Layer_1
  10
176.34692
  20
109.63037
  0
VERTEX
  5
a75
  8
Layer_1
  10
176.05994
  20
109.97815
  0
VERTEX
  5
a76
  8
Layer_1
  10
175.71216
  20
110.26508
  0
VERTEX
  5
a77
  8
Layer_1
  10
175.31299
  20
110.48175
  0
VERTEX
  5
a78
  8
Layer_1
  10
174.87189
  20
110.61865
  0
VERTEX
  5
a79
  8
Layer_1
  10
174.39825
  20
110.66641
  0
VERTEX
  5
a7a
  8
Layer_1
  10
173.92456
  20
110.61865
  0
VERTEX
  5
a7b
  8
Layer_1
  10
173.48346
  20
110.48175
  0
VERTEX
  5
a7c
  8
Layer_1
  10
173.08423
  20
110.26508
  0
VERTEX
  5
a7d
  8
Layer_1
  10
172.73651
  20
109.97815
  0
VERTEX
  5
a7e
  8
Layer_1
  10
172.44958
  20
109.63037
  0
VERTEX
  5
a7f
  8
Layer_1
  10
172.23291
  20
109.2312
  0
VERTEX
  5
a80
  8
Layer_1
  10
172.09601
  20
108.79007
  0
VERTEX
  5
a81
  8
Layer_1
  10
172.04822
  20
108.31644
  0
VERTEX
  5
a82
  8
Layer_1
  10
172.09601
  20
107.8428
  0
VERTEX
  5
a83
  8
Layer_1
  10
172.23291
  20
107.40167
  0
VERTEX
  5
a84
  8
Layer_1
  10
172.44958
  20
107.0025
  0
VERTEX
  5
a85
  8
Layer_1
  10
172.73651
  20
106.65472
  0
VERTEX
  5
a86
  8
Layer_1
  10
173.08423
  20
106.36777
  0
VERTEX
  5
a87
  8
Layer_1
  10
173.48346
  20
106.15112
  0
VERTEX
  5
a88
  8
Layer_1
  10
173.92456
  20
106.01419
  0
VERTEX
  5
a89
  8
Layer_1
  10
174.39825
  20
105.96643
  0
VERTEX
  5
a8a
  8
Layer_1
  10
174.87189
  20
106.01419
  0
VERTEX
  5
a8b
  8
Layer_1
  10
175.31299
  20
106.15112
  0
VERTEX
  5
a8c
  8
Layer_1
  10
175.71216
  20
106.36777
  0
VERTEX
  5
a8d
  8
Layer_1
  10
176.05994
  20
106.65472
  0
VERTEX
  5
a8e
  8
Layer_1
  10
176.34692
  20
107.0025
  0
VERTEX
  5
a8f
  8
Layer_1
  10
176.5636
  20
107.40167
  0
VERTEX
  5
a90
  8
Layer_1
  10
176.7005
  20
107.8428
  0
VERTEX
  5
a91
  8
Layer_1
  10
176.74823
  20
108.31644
  0
SEQEND
  0
POLYLINE
  5
a93
  8
Layer_0
  66
1
  10
0
  20
0
  30
0
  0
VERTEX
  5
a93
  8
Layer_0
  10
171.22485
  20
107.1748
  0
VERTEX
  5
a94
  8
Layer_0
  10
157.42413
  20
102.34879
  0
SEQEND
  0
POLYLINE
  5
a96
  8
Layer_0
  66
1
  10
0
  20
0
  30
0
  0
VERTEX
  5
a96
  8
Layer_0
  10
171.22485
  20
109.46085
  0
VERTEX
  5
a97
  8
Layer_0
  10
157.42413
  20
114.37149
  0
SEQEND
  0
POLYLINE
  5
a99
  8
Layer_0
  70
1
  66
1
  10
0
  20
0
  30
0
  0
VERTEX
  5
a99
  8
Layer_0
  10
177.84766
  20
108.31543
  0
VERTEX
  5
a9a
  8
Layer_0
  10
177.82983
  20
108.66815
  0
VERTEX
  5
a9b
  8
Layer_0
  10
177.77753
  20
109.01074
  0
VERTEX
  5
a9c
  8
Layer_0
  10
177.6925
  20
109.34137
  0
VERTEX
  5
a9d
  8
Layer_0
  10
177.57654
  20
109.65833
  0
VERTEX
  5
a9e
  8
Layer_0
  10
177.43127
  20
109.9599
  0
VERTEX
  5
a9f
  8
Layer_0
  10
177.25848
  20
110.24435
  0
VERTEX
  5
aa0
  8
Layer_0
  10
177.05994
  20
110.50995
  0
VERTEX
  5
aa1
  8
Layer_0
  10
176.83728
  20
110.75494
  0
VERTEX
  5
aa2
  8
Layer_0
  10
176.59229
  20
110.9776
  0
VERTEX
  5
aa3
  8
Layer_0
  10
176.32672
  20
111.17621
  0
VERTEX
  5
aa4
  8
Layer_0
  10
176.0423
  20
111.34906
  0
VERTEX
  5
aa5
  8
Layer_0
  10
175.74072
  20
111.49432
  0
VERTEX
  5
aa6
  8
Layer_0
  10
175.42371
  20
111.61032
  0
VERTEX
  5
aa7
  8
Layer_0
  10
175.09314
  20
111.69534
  0
VERTEX
  5
aa8
  8
Layer_0
  10
174.75055
  20
111.74762
  0
VERTEX
  5
aa9
  8
Layer_0
  10
174.39777
  20
111.76544
  0
VERTEX
  5
aaa
  8
Layer_0
  10
174.04498
  20
111.74762
  0
VERTEX
  5
aab
  8
Layer_0
  10
173.70239
  20
111.69534
  0
VERTEX
  5
aac
  8
Layer_0
  10
173.37183
  20
111.61032
  0
VERTEX
  5
aad
  8
Layer_0
  10
173.05481
  20
111.49432
  0
VERTEX
  5
aae
  8
Layer_0
  10
172.75323
  20
111.34906
  0
VERTEX
  5
aaf
  8
Layer_0
  10
172.46881
  20
111.17621
  0
VERTEX
  5
ab0
  8
Layer_0
  10
172.20325
  20
110.9776
  0
VERTEX
  5
ab1
  8
Layer_0
  10
171.95819
  20
110.75494
  0
VERTEX
  5
ab2
  8
Layer_0
  10
171.73547
  20
110.50995
  0
VERTEX
  5
ab3
  8
Layer_0
  10
171.53687
  20
110.24435
  0
VERTEX
  5
ab4
  8
Layer_0
  10
171.36401
  20
109.9599
  0
VERTEX
  5
ab5
  8
Layer_0
  10
171.21875
  20
109.65833
  0
VERTEX
  5
ab6
  8
Layer_0
  10
171.10278
  20
109.34137
  0
VERTEX
  5
ab7
  8
Layer_0
  10
171.01776
  20
109.01074
  0
VERTEX
  5
ab8
  8
Layer_0
  10
170.96545
  20
108.66815
  0
VERTEX
  5
ab9
  8
Layer_0
  10
170.94769
  20
108.31543
  0
VERTEX
  5
aba
  8
Layer_0
  10
170.96545
  20
107.96271
  0
VERTEX
  5
abb
  8
Layer_0
  10
171.01776
  20
107.62012
  0
VERTEX
  5
abc
  8
Layer_0
  10
171.10278
  20
107.28949
  0
VERTEX
  5
abd
  8
Layer_0
  10
171.21875
  20
106.97253
  0
VERTEX
  5
abe
  8
Layer_0
  10
171.36401
  20
106.67096
  0
VERTEX
  5
abf
  8
Layer_0
  10
171.53687
  20
106.38651
  0
VERTEX
  5
ac0
  8
Layer_0
  10
171.73547
  20
106.12091
  0
VERTEX
  5
ac1
  8
Layer_0
  10
171.95819
  20
105.87592
  0
VERTEX
  5
ac2
  8
Layer_0
  10
172.20325
  20
105.65326
  0
VERTEX
  5
ac3
  8
Layer_0
  10
172.46881
  20
105.45468
  0
VERTEX
  5
ac4
  8
Layer_0
  10
172.75323
  20
105.28186
  0
VERTEX
  5
ac5
  8
Layer_0
  10
173.05481
  20
105.1366
  0
VERTEX
  5
ac6
  8
Layer_0
  10
173.37183
  20
105.0206
  0
VERTEX
  5
ac7
  8
Layer_0
  10
173.70239
  20
104.93558
  0
VERTEX
  5
ac8
  8
Layer_0
  10
174.04498
  20
104.8833
  0
VERTEX
  5
ac9
  8
Layer_0
  10
174.39777
  20
104.86548
  0
VERTEX
  5
aca
  8
Layer_0
  10
174.75055
  20
104.8833
  0
VERTEX
  5
acb
  8
Layer_0
  10
175.09314
  20
104.93558
  0
VERTEX
  5
acc
  8
Layer_0
  10
175.42371
  20
105.0206
  0
VERTEX
  5
acd
  8
Layer_0
  10
175.74072
  20
105.1366
  0
VERTEX
  5
ace
  8
Layer_0
  10
176.0423
  20
105.28186
  0
VERTEX
  5
acf
  8
Layer_0
  10
176.32672
  20
105.45468
  0
VERTEX
  5
ad0
  8
Layer_0
  10
176.59229
  20
105.65326
  0
VERTEX
  5
ad1
  8
Layer_0
  10
176.83728
  20
105.87592
  0
VERTEX
  5
ad2
  8
Layer_0
  10
177.05994
  20
106.12091
  0
VERTEX
  5
ad3
  8
Layer_0
  10
177.25848
  20
106.38651
  0
VERTEX
  5
ad4
  8
Layer_0
  10
177.43127
  20
106.67096
  0
VERTEX
  5
ad5
  8
Layer_0
  10
177.57654
  20
106.97253
  0
VERTEX
  5
ad6
  8
Layer_0
  10
177.6925
  20
107.28949
  0
VERTEX
  5
ad7
  8
Layer_0
  10
177.77753
  20
107.62012
  0
VERTEX
  5
ad8
  8
Layer_0
  10
177.82983
  20
107.96271
  0
VERTEX
  5
ad9
  8
Layer_0
  10
177.84766
  20
108.31543
  0
SEQEND
  0
POLYLINE
  5
adb
  8
Layer_0
  66
1
  10
0
  20
0
  30
0
  0
VERTEX
  5
adb
  8
Layer_0
  10
191.46014
  20
102.34247
  0
VERTEX
  5
adc
  8
Layer_0
  10
157.42413
  20
90.404449
  0
SEQEND
  0
POLYLINE
  5
ade
  8
Layer_0
  66
1
  10
0
  20
0
  30
0
  0
VERTEX
  5
ade
  8
Layer_0
  10
191.46014
  20
90.40448
  0
VERTEX
  5
adf
  8
Layer_0
  10
157.42413
  20
102.34244
  0
SEQEND
  0
POLYLINE
  5
ae1
  8
Layer_1
  70
1
  66
1
  10
0
  20
0
  30
0
  0
VERTEX
  5
ae1
  8
Layer_1
  10
168.41327
  20
127.14767
  0
VERTEX
  5
ae2
  8
Layer_1
  10
168.41327
  20
124.14767
  0
VERTEX
  5
ae3
  8
Layer_1
  10
180.41327
  20
124.14771
  0
VERTEX
  5
ae4
  8
Layer_1
  10
180.41327
  20
127.14771
  0
VERTEX
  5
ae5
  8
Layer_1
  10
191.41327
  20
127.14771
  0
VERTEX
  5
ae6
  8
Layer_1
  10
191.41327
  20
114.39771
  0
VERTEX
  5
ae7
  8
Layer_1
  10
194.41327
  20
114.39771
  0
VERTEX
  5
ae8
  8
Layer_1
  10
194.41327
  20
102.39771
  0
VERTEX
  5
ae9
  8
Layer_1
  10
191.41327
  20
102.39771
  0
VERTEX
  5
aea
  8
Layer_1
  10
191.41333
  20
90.397705
  0
VERTEX
  5
aeb
  8
Layer_1
  10
194.41333
  20
90.397705
  0
VERTEX
  5
aec
  8
Layer_1
  10
194.41333
  20
78.397705
  0
VERTEX
  5
aed
  8
Layer_1
  10
191.41333
  20
78.397705
  0
VERTEX
  5
aee
  8
Layer_1
  10
191.41333
  20
66.397705
  0
VERTEX
  5
aef
  8
Layer_1
  10
194.41333
  20
66.397705
  0
VERTEX
  5
af0
  8
Layer_1
  10
194.41333
  20
54.397705
  0
VERTEX
  5
af1
  8
Layer_1
  10
191.41333
  20
54.397705
  0
VERTEX
  5
af2
  8
Layer_1
  10
191.41333
  20
41.647705
  0
VERTEX
  5
af3
  8
Layer_1
  10
180.41333
  20
41.647705
  0
VERTEX
  5
af4
  8
Layer_1
  10
180.41333
  20
44.647705
  0
VERTEX
  5
af5
  8
Layer_1
  10
168.41333
  20
44.647705
  0
VERTEX
  5
af6
  8
Layer_1
  10
168.41333
  20
41.647705
  0
VERTEX
  5
af7
  8
Layer_1
  10
157.41333
  20
41.647644
  0
VERTEX
  5
af8
  8
Layer_1
  10
157.41333
  20
54.397644
  0
VERTEX
  5
af9
  8
Layer_1
  10
154.41333
  20
54.397644
  0
VERTEX
  5
afa
  8
Layer_1
  10
154.41333
  20
66.397644
  0
VERTEX
  5
afb
  8
Layer_1
  10
157.41333
  20
66.397644
  0
VERTEX
  5
afc
  8
Layer_1
  10
157.41333
  20
78.397705
  0
VERTEX
  5
afd
  8
Layer_1
  10
154.41333
  20
78.397644
  0
VERTEX
  5
afe
  8
Layer_1
  10
154.41333
  20
90.397675
  0
VERTEX
  5
aff
  8
Layer_1
  10
157.41333
  20
90.397675
  0
VERTEX
  5
b00
  8
Layer_1
  10
157.41327
  20
102.39767
  0
VERTEX
  5
b01
  8
Layer_1
  10
154.41327
  20
102.39767
  0
VERTEX
  5
b02
  8
Layer_1
  10
154.41327
  20
114.39767
  0
VERTEX
  5
b03
  8
Layer_1
  10
157.41327
  20
114.39767
  0
VERTEX
  5
b04
  8
Layer_1
  10
157.41327
  20
127.14767
  0
VERTEX
  5
b05
  8
Layer_1
  10
168.41327
  20
127.14767
  0
SEQEND
  0
POLYLINE
  5
b07
  8
Layer_2
  66
1
  10
0
  20
0
  30
0
  0
VERTEX
  5
b07
  8
Layer_2
  10
65.129822
  20
439.2142
  0
VERTEX
  5
b08
  8
Layer_2
  10
65.129822
  20
450.22089
  0
SEQEND
  0
POLYLINE
  5
b0a
  8
Layer_0
  66
1
  10
0
  20
0
  30
0
  0
VERTEX
  5
b0a
  8
Layer_0
  10
185.10248
  20
439.2142
  0
VERTEX
  5
b0b
  8
Layer_0
  10
197.12512
  20
473.25024
  0
SEQEND
  0
POLYLINE
  5
b0d
  8
Layer_0
  66
1
  10
0
  20
0
  30
0
  0
VERTEX
  5
b0d
  8
Layer_0
  10
197.12512
  20
439.2142
  0
VERTEX
  5
b0e
  8
Layer_0
  10
185.10248
  20
473.25024
  0
SEQEND
  0
POLYLINE
  5
b10
  8
Layer_0
  66
1
  10
0
  20
0
  30
0
  0
VERTEX
  5
b10
  8
Layer_0
  10
161.05713
  20
439.2142
  0
VERTEX
  5
b11
  8
Layer_0
  10
149.11914
  20
473.25024
  0
SEQEND
  0
POLYLINE
  5
b13
  8
Layer_0
  66
1
  10
0
  20
0
  30
0
  0
VERTEX
  5
b13
  8
Layer_0
  10
149.11914
  20
439.2142
  0
VERTEX
  5
b14
  8
Layer_0
  10
161.05713
  20
473.25024
  0
SEQEND
  0
POLYLINE
  5
b16
  8
Layer_0
  66
1
  10
0
  20
0
  30
0
  0
VERTEX
  5
b16
  8
Layer_0
  10
137.09399
  20
439.21146
  0
VERTEX
  5
b17
  8
Layer_0
  10
132.74432
  20
451.56464
  0
SEQEND
  0
POLYLINE
  5
b19
  8
Layer_0
  66
1
  10
0
  20
0
  30
0
  0
VERTEX
  5
b19
  8
Layer_0
  10
129.45441
  20
460.79813
  0
VERTEX
  5
b1a
  8
Layer_0
  10
125.07013
  20
473.24957
  0
SEQEND
  0
POLYLINE
  5
b1c
  8
Layer_0
  66
1
  10
0
  20
0
  30
0
  0
VERTEX
  5
b1c
  8
Layer_0
  10
125.07788
  20
439.2135
  0
VERTEX
  5
b1d
  8
Layer_0
  10
129.43408
  20
451.58521
  0
SEQEND
  0
POLYLINE
  5
b1f
  8
Layer_0
  66
1
  10
0
  20
0
  30
0
  0
VERTEX
  5
b1f
  8
Layer_0
  10
132.72308
  20
460.82468
  0
VERTEX
  5
b20
  8
Layer_0
  10
137.0979
  20
473.24905
  0
SEQEND
  0
POLYLINE
  5
b22
  8
Layer_0
  66
1
  10
0
  20
0
  30
0
  0
VERTEX
  5
b22
  8
Layer_0
  10
113.1358
  20
439.2142
  0
VERTEX
  5
b23
  8
Layer_0
  10
101.11316
  20
473.25024
  0
SEQEND
  0
POLYLINE
  5
b25
  8
Layer_0
  66
1
  10
0
  20
0
  30
0
  0
VERTEX
  5
b25
  8
Layer_0
  10
101.11316
  20
439.2142
  0
VERTEX
  5
b26
  8
Layer_0
  10
113.1358
  20
473.25024
  0
SEQEND
  0
POLYLINE
  5
b28
  8
Layer_0
  66
1
  10
0
  20
0
  30
0
  0
VERTEX
  5
b28
  8
Layer_0
  10
89.090454
  20
439.2142
  0
VERTEX
  5
b29
  8
Layer_0
  10
77.06781
  20
473.25024
  0
SEQEND
  0
POLYLINE
  5
b2b
  8
Layer_0
  66
1
  10
0
  20
0
  30
0
  0
VERTEX
  5
b2b
  8
Layer_0
  10
77.06781
  20
439.2142
  0
VERTEX
  5
b2c
  8
Layer_0
  10
89.090454
  20
473.25024
  0
SEQEND
  0
POLYLINE
  5
b2e
  8
Layer_0
  70
1
  66
1
  10
0
  20
0
  30
0
  0
VERTEX
  5
b2e
  8
Layer_0
  10
136.02972
  20
456.18967
  0
VERTEX
  5
b2f
  8
Layer_0
  10
136.00439
  20
456.69086
  0
VERTEX
  5
b30
  8
Layer_0
  10
135.93018
  20
457.17758
  0
VERTEX
  5
b31
  8
Layer_0
  10
135.80933
  20
457.64737
  0
VERTEX
  5
b32
  8
Layer_0
  10
135.64453
  20
458.09775
  0
VERTEX
  5
b33
  8
Layer_0
  10
135.43811
  20
458.52628
  0
VERTEX
  5
b34
  8
Layer_0
  10
135.19263
  20
458.93042
  0
VERTEX
  5
b35
  8
Layer_0
  10
134.9104
  20
459.3078
  0
VERTEX
  5
b36
  8
Layer_0
  10
134.59399
  20
459.65591
  0
VERTEX
  5
b37
  8
Layer_0
  10
134.24585
  20
459.97229
  0
VERTEX
  5
b38
  8
Layer_0
  10
133.86853
  20
460.25449
  0
VERTEX
  5
b39
  8
Layer_0
  10
133.46436
  20
460.50003
  0
VERTEX
  5
b3a
  8
Layer_0
  10
133.03583
  20
460.70645
  0
VERTEX
  5
b3b
  8
Layer_0
  10
132.58539
  20
460.87128
  0
VERTEX
  5
b3c
  8
Layer_0
  10
132.11566
  20
460.99207
  0
VERTEX
  5
b3d
  8
Layer_0
  10
131.62891
  20
461.06635
  0
VERTEX
  5
b3e
  8
Layer_0
  10
131.12775
  20
461.09167
  0
VERTEX
  5
b3f
  8
Layer_0
  10
130.62659
  20
461.06635
  0
VERTEX
  5
b40
  8
Layer_0
  10
130.13983
  20
460.99207
  0
VERTEX
  5
b41
  8
Layer_0
  10
129.6701
  20
460.87128
  0
VERTEX
  5
b42
  8
Layer_0
  10
129.21967
  20
460.70645
  0
VERTEX
  5
b43
  8
Layer_0
  10
128.79114
  20
460.50003
  0
VERTEX
  5
b44
  8
Layer_0
  10
128.38696
  20
460.25449
  0
VERTEX
  5
b45
  8
Layer_0
  10
128.00964
  20
459.97229
  0
VERTEX
  5
b46
  8
Layer_0
  10
127.6615
  20
459.65591
  0
VERTEX
  5
b47
  8
Layer_0
  10
127.34509
  20
459.3078
  0
VERTEX
  5
b48
  8
Layer_0
  10
127.06287
  20
458.93042
  0
VERTEX
  5
b49
  8
Layer_0
  10
126.81738
  20
458.52628
  0
VERTEX
  5
b4a
  8
Layer_0
  10
126.61096
  20
458.09775
  0
VERTEX
  5
b4b
  8
Layer_0
  10
126.44617
  20
457.64737
  0
VERTEX
  5
b4c
  8
Layer_0
  10
126.32532
  20
457.17758
  0
VERTEX
  5
b4d
  8
Layer_0
  10
126.2511
  20
456.69086
  0
VERTEX
  5
b4e
  8
Layer_0
  10
126.22577
  20
456.18967
  0
VERTEX
  5
b4f
  8
Layer_0
  10
126.2511
  20
455.68848
  0
VERTEX
  5
b50
  8
Layer_0
  10
126.32532
  20
455.20175
  0
VERTEX
  5
b51
  8
Layer_0
  10
126.44617
  20
454.73196
  0
VERTEX
  5
b52
  8
Layer_0
  10
126.61096
  20
454.28162
  0
VERTEX
  5
b53
  8
Layer_0
  10
126.81738
  20
453.85309
  0
VERTEX
  5
b54
  8
Layer_0
  10
127.06287
  20
453.44891
  0
VERTEX
  5
b55
  8
Layer_0
  10
127.34509
  20
453.07156
  0
VERTEX
  5
b56
  8
Layer_0
  10
127.6615
  20
452.72345
  0
VERTEX
  5
b57
  8
Layer_0
  10
128.00964
  20
452.40704
  0
VERTEX
  5
b58
  8
Layer_0
  10
128.38696
  20
452.12488
  0
VERTEX
  5
b59
  8
Layer_0
  10
128.79114
  20
451.87933
  0
VERTEX
  5
b5a
  8
Layer_0
  10
129.21967
  20
451.67291
  0
VERTEX
  5
b5b
  8
Layer_0
  10
129.6701
  20
451.50806
  0
VERTEX
  5
b5c
  8
Layer_0
  10
130.13983
  20
451.38727
  0
VERTEX
  5
b5d
  8
Layer_0
  10
130.62659
  20
451.31299
  0
VERTEX
  5
b5e
  8
Layer_0
  10
131.12775
  20
451.28769
  0
VERTEX
  5
b5f
  8
Layer_0
  10
131.62891
  20
451.31299
  0
VERTEX
  5
b60
  8
Layer_0
  10
132.11566
  20
451.38727
  0
VERTEX
  5
b61
  8
Layer_0
  10
132.58539
  20
451.50806
  0
VERTEX
  5
b62
  8
Layer_0
  10
133.03583
  20
451.67291
  0
VERTEX
  5
b63
  8
Layer_0
  10
133.46436
  20
451.87933
  0
VERTEX
  5
b64
  8
Layer_0
  10
133.86853
  20
452.12488
  0
VERTEX
  5
b65
  8
Layer_0
  10
134.24585
  20
452.40704
  0
VERTEX
  5
b66
  8
Layer_0
  10
134.59399
  20
452.72345
  0
VERTEX
  5
b67
  8
Layer_0
  10
134.9104
  20
453.07156
  0
VERTEX
  5
b68
  8
Layer_0
  10
135.19263
  20
453.44891
  0
VERTEX
  5
b69
  8
Layer_0
  10
135.43811
  20
453.85309
  0
VERTEX
  5
b6a
  8
Layer_0
  10
135.64453
  20
454.28162
  0
VERTEX
  5
b6b
  8
Layer_0
  10
135.80933
  20
454.73196
  0
VERTEX
  5
b6c
  8
Layer_0
  10
135.93018
  20
455.20175
  0
VERTEX
  5
b6d
  8
Layer_0
  10
136.00439
  20
455.68848
  0
VERTEX
  5
b6e
  8
Layer_0
  10
136.02972
  20
456.18967
  0
SEQEND
  0
POLYLINE
  5
b70
  8
Layer_0
  66
1
  10
0
  20
0
  30
0
  0
VERTEX
  5
b70
  8
Layer_0
  10
77.06781
  20
439.2142
  0
VERTEX
  5
b71
  8
Layer_0
  10
65.129822
  20
473.25024
  0
SEQEND
  0
POLYLINE
  5
b73
  8
Layer_0
  66
1
  10
0
  20
0
  30
0
  0
VERTEX
  5
b73
  8
Layer_0
  10
65.129822
  20
439.2142
  0
VERTEX
  5
b74
  8
Layer_0
  10
77.06781
  20
473.25024
  0
SEQEND
  0
POLYLINE
  5
b76
  8
Layer_0
  66
1
  10
0
  20
0
  30
0
  0
VERTEX
  5
b76
  8
Layer_0
  10
173.07983
  20
439.2142
  0
VERTEX
  5
b77
  8
Layer_0
  10
185.10248
  20
473.25024
  0
SEQEND
  0
POLYLINE
  5
b79
  8
Layer_0
  66
1
  10
0
  20
0
  30
0
  0
VERTEX
  5
b79
  8
Layer_0
  10
185.10248
  20
439.2142
  0
VERTEX
  5
b7a
  8
Layer_0
  10
173.07983
  20
473.25024
  0
SEQEND
  0
POLYLINE
  5
b7c
  8
Layer_0
  66
1
  10
0
  20
0
  30
0
  0
VERTEX
  5
b7c
  8
Layer_0
  10
89.090454
  20
439.2142
  0
VERTEX
  5
b7d
  8
Layer_0
  10
101.11316
  20
473.25024
  0
SEQEND
  0
POLYLINE
  5
b7f
  8
Layer_0
  66
1
  10
0
  20
0
  30
0
  0
VERTEX
  5
b7f
  8
Layer_0
  10
101.11316
  20
439.2142
  0
VERTEX
  5
b80
  8
Layer_0
  10
89.090454
  20
473.25024
  0
SEQEND
  0
POLYLINE
  5
b82
  8
Layer_0
  66
1
  10
0
  20
0
  30
0
  0
VERTEX
  5
b82
  8
Layer_0
  10
125.07379
  20
439.2142
  0
VERTEX
  5
b83
  8
Layer_0
  10
113.1358
  20
473.25024
  0
SEQEND
  0
POLYLINE
  5
b85
  8
Layer_0
  66
1
  10
0
  20
0
  30
0
  0
VERTEX
  5
b85
  8
Layer_0
  10
113.1358
  20
439.2142
  0
VERTEX
  5
b86
  8
Layer_0
  10
125.07379
  20
473.25024
  0
SEQEND
  0
POLYLINE
  5
b88
  8
Layer_0
  66
1
  10
0
  20
0
  30
0
  0
VERTEX
  5
b88
  8
Layer_0
  10
137.0965
  20
439.2142
  0
VERTEX
  5
b89
  8
Layer_0
  10
149.11914
  20
473.25024
  0
SEQEND
  0
POLYLINE
  5
b8b
  8
Layer_0
  66
1
  10
0
  20
0
  30
0
  0
VERTEX
  5
b8b
  8
Layer_0
  10
149.11914
  20
439.2142
  0
VERTEX
  5
b8c
  8
Layer_0
  10
137.0965
  20
473.25024
  0
SEQEND
  0
POLYLINE
  5
b8e
  8
Layer_0
  66
1
  10
0
  20
0
  30
0
  0
VERTEX
  5
b8e
  8
Layer_0
  10
173.07983
  20
439.2142
  0
VERTEX
  5
b8f
  8
Layer_0
  10
161.05713
  20
473.25024
  0
SEQEND
  0
POLYLINE
  5
b91
  8
Layer_0
  66
1
  10
0
  20
0
  30
0
  0
VERTEX
  5
b91
  8
Layer_0
  10
161.05713
  20
439.2142
  0
VERTEX
  5
b92
  8
Layer_0
  10
173.07983
  20
473.25024
  0
SEQEND
  0
POLYLINE
  5
b94
  8
Layer_1
  70
1
  66
1
  10
0
  20
0
  30
0
  0
VERTEX
  5
b94
  8
Layer_1
  10
77.08606
  20
473.19052
  0
VERTEX
  5
b95
  8
Layer_1
  10
77.08606
  20
476.19052
  0
VERTEX
  5
b96
  8
Layer_1
  10
89.08606
  20
476.19052
  0
VERTEX
  5
b97
  8
Layer_1
  10
89.08606
  20
473.19052
  0
VERTEX
  5
b98
  8
Layer_1
  10
101.08606
  20
473.19052
  0
VERTEX
  5
b99
  8
Layer_1
  10
101.08606
  20
476.19052
  0
VERTEX
  5
b9a
  8
Layer_1
  10
113.08606
  20
476.19052
  0
VERTEX
  5
b9b
  8
Layer_1
  10
113.08606
  20
473.19052
  0
VERTEX
  5
b9c
  8
Layer_1
  10
125.08606
  20
473.19052
  0
VERTEX
  5
b9d
  8
Layer_1
  10
125.08606
  20
476.19052
  0
VERTEX
  5
b9e
  8
Layer_1
  10
137.08606
  20
476.19052
  0
VERTEX
  5
b9f
  8
Layer_1
  10
137.08606
  20
473.19052
  0
VERTEX
  5
ba0
  8
Layer_1
  10
149.08606
  20
473.19052
  0
VERTEX
  5
ba1
  8
Layer_1
  10
149.08606
  20
476.19052
  0
VERTEX
  5
ba2
  8
Layer_1
  10
161.08606
  20
476.19052
  0
VERTEX
  5
ba3
  8
Layer_1
  10
161.08606
  20
473.19052
  0
VERTEX
  5
ba4
  8
Layer_1
  10
173.08606
  20
473.19052
  0
VERTEX
  5
ba5
  8
Layer_1
  10
173.08606
  20
476.19052
  0
VERTEX
  5
ba6
  8
Layer_1
  10
185.08606
  20
476.19052
  0
VERTEX
  5
ba7
  8
Layer_1
  10
185.08606
  20
473.19052
  0
VERTEX
  5
ba8
  8
Layer_1
  10
194.08606
  20
473.19052
  0
VERTEX
  5
ba9
  8
Layer_1
  10
194.08606
  20
462.19052
  0
VERTEX
  5
baa
  8
Layer_1
  10
197.08606
  20
462.19052
  0
VERTEX
  5
bab
  8
Layer_1
  10
197.08606
  20
450.19052
  0
VERTEX
  5
bac
  8
Layer_1
  10
194.08606
  20
450.19052
  0
VERTEX
  5
bad
  8
Layer_1
  10
194.08606
  20
439.19052
  0
VERTEX
  5
bae
  8
Layer_1
  10
185.08606
  20
439.19052
  0
VERTEX
  5
baf
  8
Layer_1
  10
185.08606
  20
436.19052
  0
VERTEX
  5
bb0
  8
Layer_1
  10
173.08606
  20
436.19052
  0
VERTEX
  5
bb1
  8
Layer_1
  10
173.08606
  20
439.19052
  0
VERTEX
  5
bb2
  8
Layer_1
  10
161.08606
  20
439.19052
  0
VERTEX
  5
bb3
  8
Layer_1
  10
161.08606
  20
436.19052
  0
VERTEX
  5
bb4
  8
Layer_1
  10
149.08606
  20
436.19052
  0
VERTEX
  5
bb5
  8
Layer_1
  10
149.08606
  20
439.19052
  0
VERTEX
  5
bb6
  8
Layer_1
  10
137.08606
  20
439.19052
  0
VERTEX
  5
bb7
  8
Layer_1
  10
137.08606
  20
436.19052
  0
VERTEX
  5
bb8
  8
Layer_1
  10
125.08606
  20
436.19052
  0
VERTEX
  5
bb9
  8
Layer_1
  10
125.08606
  20
439.19052
  0
VERTEX
  5
bba
  8
Layer_1
  10
113.08606
  20
439.19052
  0
VERTEX
  5
bbb
  8
Layer_1
  10
113.08606
  20
436.19052
  0
VERTEX
  5
bbc
  8
Layer_1
  10
101.08606
  20
436.19052
  0
VERTEX
  5
bbd
  8
Layer_1
  10
101.08606
  20
439.19052
  0
VERTEX
  5
bbe
  8
Layer_1
  10
89.08606
  20
439.19052
  0
VERTEX
  5
bbf
  8
Layer_1
  10
89.08606
  20
436.19052
  0
VERTEX
  5
bc0
  8
Layer_1
  10
77.08606
  20
436.19052
  0
VERTEX
  5
bc1
  8
Layer_1
  10
77.08606
  20
439.19052
  0
VERTEX
  5
bc2
  8
Layer_1
  10
68.08606
  20
439.19052
  0
VERTEX
  5
bc3
  8
Layer_1
  10
68.08606
  20
450.19052
  0
VERTEX
  5
bc4
  8
Layer_1
  10
65.08606
  20
450.19052
  0
VERTEX
  5
bc5
  8
Layer_1
  10
65.08606
  20
462.19052
  0
VERTEX
  5
bc6
  8
Layer_1
  10
68.08606
  20
462.19052
  0
VERTEX
  5
bc7
  8
Layer_1
  10
68.08606
  20
473.19052
  0
VERTEX
  5
bc8
  8
Layer_1
  10
77.08606
  20
473.19052
  0
SEQEND
  0
POLYLINE
  5
bca
  8
Layer_1
  70
1
  66
1
  10
0
  20
0
  30
0
  0
VERTEX
  5
bca
  8
Layer_1
  10
133.96393
  20
456.19
  0
VERTEX
  5
bcb
  8
Layer_1
  10
133.9491
  20
456.48398
  0
VERTEX
  5
bcc
  8
Layer_1
  10
133.90552
  20
456.76944
  0
VERTEX
  5
bcd
  8
Layer_1
  10
133.83466
  20
457.04498
  0
VERTEX
  5
bce
  8
Layer_1
  10
133.73792
  20
457.30911
  0
VERTEX
  5
bcf
  8
Layer_1
  10
133.61688
  20
457.56042
  0
VERTEX
  5
bd0
  8
Layer_1
  10
133.47284
  20
457.79749
  0
VERTEX
  5
bd1
  8
Layer_1
  10
133.30737
  20
458.0188
  0
VERTEX
  5
bd2
  8
Layer_1
  10
133.12183
  20
458.22296
  0
VERTEX
  5
bd3
  8
Layer_1
  10
132.91766
  20
458.40851
  0
VERTEX
  5
bd4
  8
Layer_1
  10
132.69629
  20
458.57404
  0
VERTEX
  5
bd5
  8
Layer_1
  10
132.45929
  20
458.71802
  0
VERTEX
  5
bd6
  8
Layer_1
  10
132.20801
  20
458.83911
  0
VERTEX
  5
bd7
  8
Layer_1
  10
131.94385
  20
458.93579
  0
VERTEX
  5
bd8
  8
Layer_1
  10
131.66833
  20
459.00662
  0
VERTEX
  5
bd9
  8
Layer_1
  10
131.38281
  20
459.05017
  0
VERTEX
  5
bda
  8
Layer_1
  10
131.08893
  20
459.06503
  0
VERTEX
  5
bdb
  8
Layer_1
  10
130.79504
  20
459.05017
  0
VERTEX
  5
bdc
  8
Layer_1
  10
130.50952
  20
459.00662
  0
VERTEX
  5
bdd
  8
Layer_1
  10
130.23401
  20
458.93579
  0
VERTEX
  5
bde
  8
Layer_1
  10
129.96985
  20
458.83911
  0
VERTEX
  5
bdf
  8
Layer_1
  10
129.71857
  20
458.71802
  0
VERTEX
  5
be0
  8
Layer_1
  10
129.48157
  20
458.57404
  0
VERTEX
  5
be1
  8
Layer_1
  10
129.26019
  20
458.40851
  0
VERTEX
  5
be2
  8
Layer_1
  10
129.05603
  20
458.22296
  0
VERTEX
  5
be3
  8
Layer_1
  10
128.87048
  20
458.0188
  0
VERTEX
  5
be4
  8
Layer_1
  10
128.70502
  20
457.79749
  0
VERTEX
  5
be5
  8
Layer_1
  10
128.56097
  20
457.56042
  0
VERTEX
  5
be6
  8
Layer_1
  10
128.43994
  20
457.30911
  0
VERTEX
  5
be7
  8
Layer_1
  10
128.3432
  20
457.04498
  0
VERTEX
  5
be8
  8
Layer_1
  10
128.27234
  20
456.76944
  0
VERTEX
  5
be9
  8
Layer_1
  10
128.22876
  20
456.48398
  0
VERTEX
  5
bea
  8
Layer_1
  10
128.21393
  20
456.19
  0
VERTEX
  5
beb
  8
Layer_1
  10
128.22876
  20
455.89606
  0
VERTEX
  5
bec
  8
Layer_1
  10
128.27234
  20
455.6106
  0
VERTEX
  5
bed
  8
Layer_1
  10
128.3432
  20
455.33508
  0
VERTEX
  5
bee
  8
Layer_1
  10
128.43994
  20
455.07095
  0
VERTEX
  5
bef
  8
Layer_1
  10
128.56097
  20
454.81964
  0
VERTEX
  5
bf0
  8
Layer_1
  10
128.70502
  20
454.58258
  0
VERTEX
  5
bf1
  8
Layer_1
  10
128.87048
  20
454.36127
  0
VERTEX
  5
bf2
  8
Layer_1
  10
129.05603
  20
454.1571
  0
VERTEX
  5
bf3
  8
Layer_1
  10
129.26019
  20
453.97156
  0
VERTEX
  5
bf4
  8
Layer_1
  10
129.48157
  20
453.80603
  0
VERTEX
  5
bf5
  8
Layer_1
  10
129.71857
  20
453.66205
  0
VERTEX
  5
bf6
  8
Layer_1
  10
129.96985
  20
453.54095
  0
VERTEX
  5
bf7
  8
Layer_1
  10
130.23401
  20
453.44427
  0
VERTEX
  5
bf8
  8
Layer_1
  10
130.50952
  20
453.37344
  0
VERTEX
  5
bf9
  8
Layer_1
  10
130.79504
  20
453.3299
  0
VERTEX
  5
bfa
  8
Layer_1
  10
131.08893
  20
453.31503
  0
VERTEX
  5
bfb
  8
Layer_1
  10
131.38281
  20
453.3299
  0
VERTEX
  5
bfc
  8
Layer_1
  10
131.66833
  20
453.37344
  0
VERTEX
  5
bfd
  8
Layer_1
  10
131.94385
  20
453.44427
  0
VERTEX
  5
bfe
  8
Layer_1
  10
132.20801
  20
453.54095
  0
VERTEX
  5
bff
  8
Layer_1
  10
132.45929
  20
453.66205
  0
VERTEX
  5
c00
  8
Layer_1
  10
132.69629
  20
453.80603
  0
VERTEX
  5
c01
  8
Layer_1
  10
132.91766
  20
453.97156
  0
VERTEX
  5
c02
  8
Layer_1
  10
133.12183
  20
454.1571
  0
VERTEX
  5
c03
  8
Layer_1
  10
133.30737
  20
454.36127
  0
VERTEX
  5
c04
  8
Layer_1
  10
133.47284
  20
454.58258
  0
VERTEX
  5
c05
  8
Layer_1
  10
133.61688
  20
454.81964
  0
VERTEX
  5
c06
  8
Layer_1
  10
133.73792
  20
455.07095
  0
VERTEX
  5
c07
  8
Layer_1
  10
133.83466
  20
455.33508
  0
VERTEX
  5
c08
  8
Layer_1
  10
133.90552
  20
455.6106
  0
VERTEX
  5
c09
  8
Layer_1
  10
133.9491
  20
455.89606
  0
VERTEX
  5
c0a
  8
Layer_1
  10
133.96393
  20
456.19
  0
SEQEND
  0
POLYLINE
  5
c0c
  8
Layer_1
  70
1
  66
1
  10
0
  20
0
  30
0
  0
VERTEX
  5
c0c
  8
Layer_1
  10
149.16003
  20
128.73083
  0
VERTEX
  5
c0d
  8
Layer_1
  10
65.08606
  20
128.73083
  0
VERTEX
  5
c0e
  8
Layer_1
  10
65.08606
  20
49.228882
  0
VERTEX
  5
c0f
  8
Layer_1
  10
149.16003
  20
49.228882
  0
VERTEX
  5
c10
  8
Layer_1
  10
149.16003
  20
128.73083
  0
SEQEND
  0
POLYLINE
  5
c12
  8
Layer_1
  70
1
  66
1
  10
0
  20
0
  30
0
  0
VERTEX
  5
c12
  8
Layer_1
  10
74.856079
  20
58.24353
  0
VERTEX
  5
c13
  8
Layer_1
  10
69.856079
  20
58.24353
  0
VERTEX
  5
c14
  8
Layer_1
  10
69.856079
  20
53.24353
  0
VERTEX
  5
c15
  8
Layer_1
  10
74.856079
  20
53.24353
  0
VERTEX
  5
c16
  8
Layer_1
  10
74.856079
  20
58.24353
  0
SEQEND
  0
POLYLINE
  5
c18
  8
Layer_1
  70
1
  66
1
  10
0
  20
0
  30
0
  0
VERTEX
  5
c18
  8
Layer_1
  10
82.78009
  20
94.563538
  0
VERTEX
  5
c19
  8
Layer_1
  10
82.811279
  20
95.798584
  0
VERTEX
  5
c1a
  8
Layer_1
  10
82.903992
  20
97.017395
  0
VERTEX
  5
c1b
  8
Layer_1
  10
83.056641
  20
98.218506
  0
VERTEX
  5
c1c
  8
Layer_1
  10
83.2677
  20
99.400391
  0
VERTEX
  5
c1d
  8
Layer_1
  10
83.535767
  20
100.56152
  0
VERTEX
  5
c1e
  8
Layer_1
  10
83.859131
  20
101.70044
  0
VERTEX
  5
c1f
  8
Layer_1
  10
84.236389
  20
102.81555
  0
VERTEX
  5
c20
  8
Layer_1
  10
84.666138
  20
103.90543
  0
VERTEX
  5
c21
  8
Layer_1
  10
85.14679
  20
104.96851
  0
VERTEX
  5
c22
  8
Layer_1
  10
85.676758
  20
106.00336
  0
VERTEX
  5
c23
  8
Layer_1
  10
86.254639
  20
107.00842
  0
VERTEX
  5
c24
  8
Layer_1
  10
86.878906
  20
107.98218
  0
VERTEX
  5
c25
  8
Layer_1
  10
87.547974
  20
108.92313
  0
VERTEX
  5
c26
  8
Layer_1
  10
88.260498
  20
109.82977
  0
VERTEX
  5
c27
  8
Layer_1
  10
89.014893
  20
110.70059
  0
VERTEX
  5
c28
  8
Layer_1
  10
89.80957
  20
111.53412
  0
VERTEX
  5
c29
  8
Layer_1
  10
90.643066
  20
112.3288
  0
VERTEX
  5
c2a
  8
Layer_1
  10
91.513916
  20
113.08313
  0
VERTEX
  5
c2b
  8
Layer_1
  10
92.420593
  20
113.79559
  0
VERTEX
  5
c2c
  8
Layer_1
  10
93.361511
  20
114.46472
  0
VERTEX
  5
c2d
  8
Layer_1
  10
94.335266
  20
115.08896
  0
VERTEX
  5
c2e
  8
Layer_1
  10
95.340271
  20
115.66687
  0
VERTEX
  5
c2f
  8
Layer_1
  10
96.375122
  20
116.19684
  0
VERTEX
  5
c30
  8
Layer_1
  10
97.438232
  20
116.67749
  0
VERTEX
  5
c31
  8
Layer_1
  10
98.528076
  20
117.10724
  0
VERTEX
  5
c32
  8
Layer_1
  10
99.64325
  20
117.48453
  0
VERTEX
  5
c33
  8
Layer_1
  10
100.78217
  20
117.80792
  0
VERTEX
  5
c34
  8
Layer_1
  10
101.9433
  20
118.07593
  0
VERTEX
  5
c35
  8
Layer_1
  10
103.12512
  20
118.28699
  0
VERTEX
  5
c36
  8
Layer_1
  10
104.32629
  20
118.43961
  0
VERTEX
  5
c37
  8
Layer_1
  10
105.54504
  20
118.53229
  0
VERTEX
  5
c38
  8
Layer_1
  10
106.78009
  20
118.56354
  0
VERTEX
  5
c39
  8
Layer_1
  10
108.01514
  20
118.53229
  0
VERTEX
  5
c3a
  8
Layer_1
  10
109.23389
  20
118.43961
  0
VERTEX
  5
c3b
  8
Layer_1
  10
110.43506
  20
118.28699
  0
VERTEX
  5
c3c
  8
Layer_1
  10
111.61688
  20
118.07593
  0
VERTEX
  5
c3d
  8
Layer_1
  10
112.77802
  20
117.80792
  0
VERTEX
  5
c3e
  8
Layer_1
  10
113.91693
  20
117.48453
  0
VERTEX
  5
c3f
  8
Layer_1
  10
115.0321
  20
117.10724
  0
VERTEX
  5
c40
  8
Layer_1
  10
116.12195
  20
116.67749
  0
VERTEX
  5
c41
  8
Layer_1
  10
117.18506
  20
116.19684
  0
VERTEX
  5
c42
  8
Layer_1
  10
118.21991
  20
115.66687
  0
VERTEX
  5
c43
  8
Layer_1
  10
119.22491
  20
115.08896
  0
VERTEX
  5
c44
  8
Layer_1
  10
120.19867
  20
114.46472
  0
VERTEX
  5
c45
  8
Layer_1
  10
121.13959
  20
113.79559
  0
VERTEX
  5
c46
  8
Layer_1
  10
122.04626
  20
113.08313
  0
VERTEX
  5
c47
  8
Layer_1
  10
122.91711
  20
112.3288
  0
VERTEX
  5
c48
  8
Layer_1
  10
123.75061
  20
111.53412
  0
VERTEX
  5
c49
  8
Layer_1
  10
124.54529
  20
110.70059
  0
VERTEX
  5
c4a
  8
Layer_1
  10
125.29968
  20
109.82977
  0
VERTEX
  5
c4b
  8
Layer_1
  10
126.01221
  20
108.92313
  0
VERTEX
  5
c4c
  8
Layer_1
  10
126.68127
  20
107.98218
  0
VERTEX
  5
c4d
  8
Layer_1
  10
127.30554
  20
107.00842
  0
VERTEX
  5
c4e
  8
Layer_1
  10
127.88342
  20
106.00336
  0
VERTEX
  5
c4f
  8
Layer_1
  10
128.41339
  20
104.96851
  0
VERTEX
  5
c50
  8
Layer_1
  10
128.89404
  20
103.90543
  0
VERTEX
  5
c51
  8
Layer_1
  10
129.32379
  20
102.81555
  0
VERTEX
  5
c52
  8
Layer_1
  10
129.70105
  20
101.70044
  0
VERTEX
  5
c53
  8
Layer_1
  10
130.02441
  20
100.56152
  0
VERTEX
  5
c54
  8
Layer_1
  10
130.29248
  20
99.400391
  0
VERTEX
  5
c55
  8
Layer_1
  10
130.50354
  20
98.218506
  0
VERTEX
  5
c56
  8
Layer_1
  10
130.65619
  20
97.017395
  0
VERTEX
  5
c57
  8
Layer_1
  10
130.7489
  20
95.798584
  0
VERTEX
  5
c58
  8
Layer_1
  10
130.78009
  20
94.563538
  0
VERTEX
  5
c59
  8
Layer_1
  10
130.7489
  20
93.328491
  0
VERTEX
  5
c5a
  8
Layer_1
  10
130.65619
  20
92.10968
  0
VERTEX
  5
c5b
  8
Layer_1
  10
130.50354
  20
90.9086
  0
VERTEX
  5
c5c
  8
Layer_1
  10
130.29248
  20
89.726746
  0
VERTEX
  5
c5d
  8
Layer_1
  10
130.02441
  20
88.565613
  0
VERTEX
  5
c5e
  8
Layer_1
  10
129.70105
  20
87.426697
  0
VERTEX
  5
c5f
  8
Layer_1
  10
129.32379
  20
86.311523
  0
VERTEX
  5
c60
  8
Layer_1
  10
128.89404
  20
85.22168
  0
VERTEX
  5
c61
  8
Layer_1
  10
128.41339
  20
84.158569
  0
VERTEX
  5
c62
  8
Layer_1
  10
127.88342
  20
83.123718
  0
VERTEX
  5
c63
  8
Layer_1
  10
127.30554
  20
82.118713
  0
VERTEX
  5
c64
  8
Layer_1
  10
126.68127
  20
81.144958
  0
VERTEX
  5
c65
  8
Layer_1
  10
126.01221
  20
80.204041
  0
VERTEX
  5
c66
  8
Layer_1
  10
125.29968
  20
79.297363
  0
VERTEX
  5
c67
  8
Layer_1
  10
124.54529
  20
78.426514
  0
VERTEX
  5
c68
  8
Layer_1
  10
123.75061
  20
77.593018
  0
VERTEX
  5
c69
  8
Layer_1
  10
122.91711
  20
76.79834
  0
VERTEX
  5
c6a
  8
Layer_1
  10
122.04626
  20
76.043945
  0
VERTEX
  5
c6b
  8
Layer_1
  10
121.13959
  20
75.331421
  0
VERTEX
  5
c6c
  8
Layer_1
  10
120.19867
  20
74.662354
  0
VERTEX
  5
c6d
  8
Layer_1
  10
119.22491
  20
74.038086
  0
VERTEX
  5
c6e
  8
Layer_1
  10
118.21991
  20
73.460205
  0
VERTEX
  5
c6f
  8
Layer_1
  10
117.18506
  20
72.930237
  0
VERTEX
  5
c70
  8
Layer_1
  10
116.12195
  20
72.449585
  0
VERTEX
  5
c71
  8
Layer_1
  10
115.0321
  20
72.019836
  0
VERTEX
  5
c72
  8
Layer_1
  10
113.91693
  20
71.642578
  0
VERTEX
  5
c73
  8
Layer_1
  10
112.77802
  20
71.319214
  0
VERTEX
  5
c74
  8
Layer_1
  10
111.61688
  20
71.051147
  0
VERTEX
  5
c75
  8
Layer_1
  10
110.43506
  20
70.840088
  0
VERTEX
  5
c76
  8
Layer_1
  10
109.23389
  20
70.687439
  0
VERTEX
  5
c77
  8
Layer_1
  10
108.01514
  20
70.594727
  0
VERTEX
  5
c78
  8
Layer_1
  10
106.78009
  20
70.563538
  0
VERTEX
  5
c79
  8
Layer_1
  10
105.54504
  20
70.594727
  0
VERTEX
  5
c7a
  8
Layer_1
  10
104.32629
  20
70.687439
  0
VERTEX
  5
c7b
  8
Layer_1
  10
103.12512
  20
70.840088
  0
VERTEX
  5
c7c
  8
Layer_1
  10
101.9433
  20
71.051147
  0
VERTEX
  5
c7d
  8
Layer_1
  10
100.78217
  20
71.319214
  0
VERTEX
  5
c7e
  8
Layer_1
  10
99.64325
  20
71.642578
  0
VERTEX
  5
c7f
  8
Layer_1
  10
98.528076
  20
72.019836
  0
VERTEX
  5
c80
  8
Layer_1
  10
97.438232
  20
72.449585
  0
VERTEX
  5
c81
  8
Layer_1
  10
96.375122
  20
72.930237
  0
VERTEX
  5
c82
  8
Layer_1
  10
95.340271
  20
73.460205
  0
VERTEX
  5
c83
  8
Layer_1
  10
94.335266
  20
74.038086
  0
VERTEX
  5
c84
  8
Layer_1
  10
93.361511
  20
74.662354
  0
VERTEX
  5
c85
  8
Layer_1
  10
92.420593
  20
75.331421
  0
VERTEX
  5
c86
  8
Layer_1
  10
91.513916
  20
76.043945
  0
VERTEX
  5
c87
  8
Layer_1
  10
90.643066
  20
76.79834
  0
VERTEX
  5
c88
  8
Layer_1
  10
89.80957
  20
77.593018
  0
VERTEX
  5
c89
  8
Layer_1
  10
89.014893
  20
78.426514
  0
VERTEX
  5
c8a
  8
Layer_1
  10
88.260498
  20
79.297363
  0
VERTEX
  5
c8b
  8
Layer_1
  10
87.547974
  20
80.204041
  0
VERTEX
  5
c8c
  8
Layer_1
  10
86.878906
  20
81.144958
  0
VERTEX
  5
c8d
  8
Layer_1
  10
86.254639
  20
82.118713
  0
VERTEX
  5
c8e
  8
Layer_1
  10
85.676758
  20
83.123718
  0
VERTEX
  5
c8f
  8
Layer_1
  10
85.14679
  20
84.158569
  0
VERTEX
  5
c90
  8
Layer_1
  10
84.666138
  20
85.22168
  0
VERTEX
  5
c91
  8
Layer_1
  10
84.236389
  20
86.311523
  0
VERTEX
  5
c92
  8
Layer_1
  10
83.859131
  20
87.426697
  0
VERTEX
  5
c93
  8
Layer_1
  10
83.535767
  20
88.565613
  0
VERTEX
  5
c94
  8
Layer_1
  10
83.2677
  20
89.726746
  0
VERTEX
  5
c95
  8
Layer_1
  10
83.056641
  20
90.9086
  0
VERTEX
  5
c96
  8
Layer_1
  10
82.903992
  20
92.10968
  0
VERTEX
  5
c97
  8
Layer_1
  10
82.811279
  20
93.328491
  0
VERTEX
  5
c98
  8
Layer_1
  10
82.78009
  20
94.563538
  0
SEQEND
  0
POLYLINE
  5
c9a
  8
Layer_1
  70
1
  66
1
  10
0
  20
0
  30
0
  0
VERTEX
  5
c9a
  8
Layer_1
  10
127.73511
  20
72.042236
  0
VERTEX
  5
c9b
  8
Layer_1
  10
127.76605
  20
71.743652
  0
VERTEX
  5
c9c
  8
Layer_1
  10
127.85486
  20
71.465454
  0
VERTEX
  5
c9d
  8
Layer_1
  10
127.99536
  20
71.213745
  0
VERTEX
  5
c9e
  8
Layer_1
  10
128.18146
  20
70.994507
  0
VERTEX
  5
c9f
  8
Layer_1
  10
128.40698
  20
70.813599
  0
VERTEX
  5
ca0
  8
Layer_1
  10
128.66589
  20
70.677002
  0
VERTEX
  5
ca1
  8
Layer_1
  10
128.95203
  20
70.590698
  0
VERTEX
  5
ca2
  8
Layer_1
  10
129.25909
  20
70.560547
  0
VERTEX
  5
ca3
  8
Layer_1
  10
129.56616
  20
70.590698
  0
VERTEX
  5
ca4
  8
Layer_1
  10
129.85229
  20
70.677002
  0
VERTEX
  5
ca5
  8
Layer_1
  10
130.11115
  20
70.813599
  0
VERTEX
  5
ca6
  8
Layer_1
  10
130.33667
  20
70.994507
  0
VERTEX
  5
ca7
  8
Layer_1
  10
130.52283
  20
71.213745
  0
VERTEX
  5
ca8
  8
Layer_1
  10
130.66333
  20
71.465454
  0
VERTEX
  5
ca9
  8
Layer_1
  10
130.75208
  20
71.743652
  0
VERTEX
  5
caa
  8
Layer_1
  10
130.78308
  20
72.042236
  0
VERTEX
  5
cab
  8
Layer_1
  10
130.75208
  20
72.34082
  0
VERTEX
  5
cac
  8
Layer_1
  10
130.66333
  20
72.618958
  0
VERTEX
  5
cad
  8
Layer_1
  10
130.52283
  20
72.870605
  0
VERTEX
  5
cae
  8
Layer_1
  10
130.33667
  20
73.089905
  0
VERTEX
  5
caf
  8
Layer_1
  10
130.11115
  20
73.270874
  0
VERTEX
  5
cb0
  8
Layer_1
  10
129.85229
  20
73.407471
  0
VERTEX
  5
cb1
  8
Layer_1
  10
129.56616
  20
73.493774
  0
VERTEX
  5
cb2
  8
Layer_1
  10
129.25909
  20
73.523865
  0
VERTEX
  5
cb3
  8
Layer_1
  10
128.95203
  20
73.493774
  0
VERTEX
  5
cb4
  8
Layer_1
  10
128.66589
  20
73.407471
  0
VERTEX
  5
cb5
  8
Layer_1
  10
128.40698
  20
73.270874
  0
VERTEX
  5
cb6
  8
Layer_1
  10
128.18146
  20
73.089905
  0
VERTEX
  5
cb7
  8
Layer_1
  10
127.99536
  20
72.870605
  0
VERTEX
  5
cb8
  8
Layer_1
  10
127.85486
  20
72.618958
  0
VERTEX
  5
cb9
  8
Layer_1
  10
127.76605
  20
72.34082
  0
VERTEX
  5
cba
  8
Layer_1
  10
127.73511
  20
72.042236
  0
SEQEND
  0
POLYLINE
  5
cbc
  8
Layer_1
  70
1
  66
1
  10
0
  20
0
  30
0
  0
VERTEX
  5
cbc
  8
Layer_1
  10
82.7771
  20
117.08487
  0
VERTEX
  5
cbd
  8
Layer_1
  10
82.807251
  20
116.78629
  0
VERTEX
  5
cbe
  8
Layer_1
  10
82.893555
  20
116.50815
  0
VERTEX
  5
cbf
  8
Layer_1
  10
83.030151
  20
116.25644
  0
VERTEX
  5
cc0
  8
Layer_1
  10
83.21106
  20
116.03717
  0
VERTEX
  5
cc1
  8
Layer_1
  10
83.430298
  20
115.85626
  0
VERTEX
  5
cc2
  8
Layer_1
  10
83.682007
  20
115.71964
  0
VERTEX
  5
cc3
  8
Layer_1
  10
83.960205
  20
115.6333
  0
VERTEX
  5
cc4
  8
Layer_1
  10
84.258789
  20
115.60321
  0
VERTEX
  5
cc5
  8
Layer_1
  10
84.557373
  20
115.6333
  0
VERTEX
  5
cc6
  8
Layer_1
  10
84.83551
  20
115.71964
  0
VERTEX
  5
cc7
  8
Layer_1
  10
85.087158
  20
115.85626
  0
VERTEX
  5
cc8
  8
Layer_1
  10
85.306458
  20
116.03717
  0
VERTEX
  5
cc9
  8
Layer_1
  10
85.487427
  20
116.25644
  0
VERTEX
  5
cca
  8
Layer_1
  10
85.624023
  20
116.50815
  0
VERTEX
  5
ccb
  8
Layer_1
  10
85.710327
  20
116.78629
  0
VERTEX
  5
ccc
  8
Layer_1
  10
85.740417
  20
117.08487
  0
VERTEX
  5
ccd
  8
Layer_1
  10
85.710327
  20
117.38345
  0
VERTEX
  5
cce
  8
Layer_1
  10
85.624023
  20
117.66159
  0
VERTEX
  5
ccf
  8
Layer_1
  10
85.487427
  20
117.9133
  0
VERTEX
  5
cd0
  8
Layer_1
  10
85.306458
  20
118.13257
  0
VERTEX
  5
cd1
  8
Layer_1
  10
85.087158
  20
118.31348
  0
VERTEX
  5
cd2
  8
Layer_1
  10
84.83551
  20
118.4501
  0
VERTEX
  5
cd3
  8
Layer_1
  10
84.557373
  20
118.53644
  0
VERTEX
  5
cd4
  8
Layer_1
  10
84.258789
  20
118.56653
  0
VERTEX
  5
cd5
  8
Layer_1
  10
83.960205
  20
118.53644
  0
VERTEX
  5
cd6
  8
Layer_1
  10
83.682007
  20
118.4501
  0
VERTEX
  5
cd7
  8
Layer_1
  10
83.430298
  20
118.31348
  0
VERTEX
  5
cd8
  8
Layer_1
  10
83.21106
  20
118.13257
  0
VERTEX
  5
cd9
  8
Layer_1
  10
83.030151
  20
117.9133
  0
VERTEX
  5
cda
  8
Layer_1
  10
82.893555
  20
117.66159
  0
VERTEX
  5
cdb
  8
Layer_1
  10
82.807251
  20
117.38345
  0
VERTEX
  5
cdc
  8
Layer_1
  10
82.7771
  20
117.08487
  0
SEQEND
  0
POLYLINE
  5
cde
  8
Layer_1
  70
1
  66
1
  10
0
  20
0
  30
0
  0
VERTEX
  5
cde
  8
Layer_1
  10
127.73511
  20
117.08487
  0
VERTEX
  5
cdf
  8
Layer_1
  10
127.76605
  20
116.78629
  0
VERTEX
  5
ce0
  8
Layer_1
  10
127.85486
  20
116.50815
  0
VERTEX
  5
ce1
  8
Layer_1
  10
127.99536
  20
116.25644
  0
VERTEX
  5
ce2
  8
Layer_1
  10
128.18146
  20
116.03717
  0
VERTEX
  5
ce3
  8
Layer_1
  10
128.40698
  20
115.85626
  0
VERTEX
  5
ce4
  8
Layer_1
  10
128.66589
  20
115.71964
  0
VERTEX
  5
ce5
  8
Layer_1
  10
128.95203
  20
115.6333
  0
VERTEX
  5
ce6
  8
Layer_1
  10
129.25909
  20
115.60321
  0
VERTEX
  5
ce7
  8
Layer_1
  10
129.56616
  20
115.6333
  0
VERTEX
  5
ce8
  8
Layer_1
  10
129.85229
  20
115.71964
  0
VERTEX
  5
ce9
  8
Layer_1
  10
130.11115
  20
115.85626
  0
VERTEX
  5
cea
  8
Layer_1
  10
130.33667
  20
116.03717
  0
VERTEX
  5
ceb
  8
Layer_1
  10
130.52283
  20
116.25644
  0
VERTEX
  5
cec
  8
Layer_1
  10
130.66333
  20
116.50815
  0
VERTEX
  5
ced
  8
Layer_1
  10
130.75208
  20
116.78629
  0
VERTEX
  5
cee
  8
Layer_1
  10
130.78308
  20
117.08487
  0
VERTEX
  5
cef
  8
Layer_1
  10
130.75208
  20
117.38345
  0
VERTEX
  5
cf0
  8
Layer_1
  10
130.66333
  20
117.66159
  0
VERTEX
  5
cf1
  8
Layer_1
  10
130.52283
  20
117.9133
  0
VERTEX
  5
cf2
  8
Layer_1
  10
130.33667
  20
118.13257
  0
VERTEX
  5
cf3
  8
Layer_1
  10
130.11115
  20
118.31348
  0
VERTEX
  5
cf4
  8
Layer_1
  10
129.85229
  20
118.4501
  0
VERTEX
  5
cf5
  8
Layer_1
  10
129.56616
  20
118.53644
  0
VERTEX
  5
cf6
  8
Layer_1
  10
129.25909
  20
118.56653
  0
VERTEX
  5
cf7
  8
Layer_1
  10
128.95203
  20
118.53644
  0
VERTEX
  5
cf8
  8
Layer_1
  10
128.66589
  20
118.4501
  0
VERTEX
  5
cf9
  8
Layer_1
  10
128.40698
  20
118.31348
  0
VERTEX
  5
cfa
  8
Layer_1
  10
128.18146
  20
118.13257
  0
VERTEX
  5
cfb
  8
Layer_1
  10
127.99536
  20
117.9133
  0
VERTEX
  5
cfc
  8
Layer_1
  10
127.85486
  20
117.66159
  0
VERTEX
  5
cfd
  8
Layer_1
  10
127.76605
  20
117.38345
  0
VERTEX
  5
cfe
  8
Layer_1
  10
127.73511
  20
117.08487
  0
SEQEND
  0
ENDSEC
  0
EOF
