0
SECTION
2
HEADER
9
$INSUNITS
70
1
0
ENDSEC
0
SECTION
2
TABLES
0
TABLE
2
LAYER
0
ENDTAB
0
ENDSEC
0
SECTION
2
ENTITIES
0
LINE
8
front_outsideCutPath
10
0
20
40
11
0
21
32.65625
0
LINE
8
front_outsideCutPath
10
0
20
32.65625
11
3.5
21
32.65625
0
LINE
8
front_outsideCutPath
10
3.5
20
32.65625
11
3.5
21
25.21875
0
LINE
8
front_outsideCutPath
10
3.5
20
25.21875
11
0
21
25.21875
0
LINE
8
front_outsideCutPath
10
0
20
25.21875
11
0
21
17.78125
0
LINE
8
front_outsideCutPath
10
0
20
17.78125
11
3.5
21
17.78125
0
LINE
8
front_outsideCutPath
10
3.5
20
17.78125
11
3.5
21
10.34375
0
LINE
8
front_outsideCutPath
10
3.5
20
10.34375
11
0
21
10.34375
0
LINE
8
front_outsideCutPath
10
0
20
10.34375
11
0
21
3
0
LINE
8
front_outsideCutPath
10
0
20
3
11
9.90625
21
3
0
LINE
8
front_outsideCutPath
10
9.90625
20
3
11
9.90625
21
6.5
0
LINE
8
front_outsideCutPath
10
9.90625
20
6.5
11
17.34375
21
6.5
0
LINE
8
front_outsideCutPath
10
17.34375
20
6.5
11
17.34375
21
3
0
LINE
8
front_outsideCutPath
10
17.34375
20
3
11
24.78125
21
3
0
LINE
8
front_outsideCutPath
10
24.78125
20
3
11
24.78125
21
6.5
0
LINE
8
front_outsideCutPath
10
24.78125
20
6.5
11
32.21875
21
6.5
0
LINE
8
front_outsideCutPath
10
32.21875
20
6.5
11
32.21875
21
3
0
LINE
8
front_outsideCutPath
10
32.21875
20
3
11
39.65625
21
3
0
LINE
8
front_outsideCutPath
10
39.65625
20
3
11
39.65625
21
6.5
0
LINE
8
front_outsideCutPath
10
39.65625
20
6.5
11
47.09375
21
6.5
0
LINE
8
front_outsideCutPath
10
47.09375
20
6.5
11
47.09375
21
3
0
LINE
8
front_outsideCutPath
10
47.09375
20
3
11
54.53125
21
3
0
LINE
8
front_outsideCutPath
10
54.53125
20
3
11
57
21
3
0
LINE
8
front_outsideCutPath
10
57
20
3
11
57
21
10.34375
0
LINE
8
front_outsideCutPath
10
57
20
10.34375
11
53.5
21
10.34375
0
LINE
8
front_outsideCutPath
10
53.5
20
10.34375
11
53.5
21
17.78125
0
LINE
8
front_outsideCutPath
10
53.5
20
17.78125
11
57
21
17.78125
0
LINE
8
front_outsideCutPath
10
57
20
17.78125
11
57
21
25.21875
0
LINE
8
front_outsideCutPath
10
57
20
25.21875
11
53.5
21
25.21875
0
LINE
8
front_outsideCutPath
10
53.5
20
25.21875
11
53.5
21
32.65625
0
LINE
8
front_outsideCutPath
10
53.5
20
32.65625
11
57
21
32.65625
0
LINE
8
front_outsideCutPath
10
57
20
32.65625
11
57
21
40
0
LINE
8
front_outsideCutPath
10
57
20
40
11
47.09375
21
40
0
LINE
8
front_outsideCutPath
10
47.09375
20
40
11
47.09375
21
36.5
0
LINE
8
front_outsideCutPath
10
47.09375
20
36.5
11
39.65625
21
36.5
0
LINE
8
front_outsideCutPath
10
39.65625
20
36.5
11
39.65625
21
40
0
LINE
8
front_outsideCutPath
10
39.65625
20
40
11
32.21875
21
40
0
LINE
8
front_outsideCutPath
10
32.21875
20
40
11
32.21875
21
36.5
0
LINE
8
front_outsideCutPath
10
32.21875
20
36.5
11
24.78125
21
36.5
0
LINE
8
front_outsideCutPath
10
24.78125
20
36.5
11
24.78125
21
40
0
LINE
8
front_outsideCutPath
10
24.78125
20
40
11
17.34375
21
40
0
LINE
8
front_outsideCutPath
10
17.34375
20
40
11
17.34375
21
36.5
0
LINE
8
front_outsideCutPath
10
17.34375
20
36.5
11
9.90625
21
36.5
0
LINE
8
front_outsideCutPath
10
9.90625
20
36.5
11
9.90625
21
40
0
LINE
8
front_outsideCutPath
10
9.90625
20
40
11
2.46875
21
40
0
LINE
8
front_outsideCutPath
10
2.46875
20
40
11
0
21
40
0
LINE
8
left_outsideCutPath
10
63.5
20
40
11
63.5
21
32.65625
0
LINE
8
left_outsideCutPath
10
63.5
20
32.65625
11
60
21
32.65625
0
LINE
8
left_outsideCutPath
10
60
20
32.65625
11
60
21
25.21875
0
LINE
8
left_outsideCutPath
10
60
20
25.21875
11
63.5
21
25.21875
0
LINE
8
left_outsideCutPath
10
63.5
20
25.21875
11
63.5
21
17.78125
0
LINE
8
left_outsideCutPath
10
63.5
20
17.78125
11
60
21
17.78125
0
LINE
8
left_outsideCutPath
10
60
20
17.78125
11
60
21
10.34375
0
LINE
8
left_outsideCutPath
10
60
20
10.34375
11
63.5
21
10.34375
0
LINE
8
left_outsideCutPath
10
63.5
20
10.34375
11
63.5
21
3
0
LINE
8
left_outsideCutPath
10
63.5
20
3
11
67.65625
21
3
0
LINE
8
left_outsideCutPath
10
67.65625
20
3
11
67.65625
21
6.5
0
LINE
8
left_outsideCutPath
10
67.65625
20
6.5
11
75.09375
21
6.5
0
LINE
8
left_outsideCutPath
10
75.09375
20
6.5
11
75.09375
21
3
0
LINE
8
left_outsideCutPath
10
75.09375
20
3
11
82.53125
21
3
0
LINE
8
left_outsideCutPath
10
82.53125
20
3
11
82.53125
21
6.5
0
LINE
8
left_outsideCutPath
10
82.53125
20
6.5
11
89.96875
21
6.5
0
LINE
8
left_outsideCutPath
10
89.96875
20
6.5
11
89.96875
21
3
0
LINE
8
left_outsideCutPath
10
89.96875
20
3
11
97.40625
21
3
0
LINE
8
left_outsideCutPath
10
97.40625
20
3
11
97.40625
21
6.5
0
LINE
8
left_outsideCutPath
10
97.40625
20
6.5
11
104.84375
21
6.5
0
LINE
8
left_outsideCutPath
10
104.84375
20
6.5
11
104.84375
21
3
0
LINE
8
left_outsideCutPath
10
104.84375
20
3
11
112.28125
21
3
0
LINE
8
left_outsideCutPath
10
112.28125
20
3
11
112.28125
21
6.5
0
LINE
8
left_outsideCutPath
10
112.28125
20
6.5
11
119.71875
21
6.5
0
LINE
8
left_outsideCutPath
10
119.71875
20
6.5
11
119.71875
21
3
0
LINE
8
left_outsideCutPath
10
119.71875
20
3
11
127.15625
21
3
0
LINE
8
left_outsideCutPath
10
127.15625
20
3
11
127.15625
21
6.5
0
LINE
8
left_outsideCutPath
10
127.15625
20
6.5
11
134.59375
21
6.5
0
LINE
8
left_outsideCutPath
10
134.59375
20
6.5
11
134.59375
21
3
0
LINE
8
left_outsideCutPath
10
134.59375
20
3
11
142.03125
21
3
0
LINE
8
left_outsideCutPath
10
142.03125
20
3
11
142.03125
21
6.5
0
LINE
8
left_outsideCutPath
10
142.03125
20
6.5
11
149.46875
21
6.5
0
LINE
8
left_outsideCutPath
10
149.46875
20
6.5
11
149.46875
21
3
0
LINE
8
left_outsideCutPath
10
149.46875
20
3
11
156.90625
21
3
0
LINE
8
left_outsideCutPath
10
156.90625
20
3
11
156.90625
21
6.5
0
LINE
8
left_outsideCutPath
10
156.90625
20
6.5
11
164.34375
21
6.5
0
LINE
8
left_outsideCutPath
10
164.34375
20
6.5
11
164.34375
21
3
0
LINE
8
left_outsideCutPath
10
164.34375
20
3
11
168.5
21
3
0
LINE
8
left_outsideCutPath
10
168.5
20
3
11
168.5
21
10.34375
0
LINE
8
left_outsideCutPath
10
168.5
20
10.34375
11
172
21
10.34375
0
LINE
8
left_outsideCutPath
10
172
20
10.34375
11
172
21
17.78125
0
LINE
8
left_outsideCutPath
10
172
20
17.78125
11
168.5
21
17.78125
0
LINE
8
left_outsideCutPath
10
168.5
20
17.78125
11
168.5
21
25.21875
0
LINE
8
left_outsideCutPath
10
168.5
20
25.21875
11
172
21
25.21875
0
LINE
8
left_outsideCutPath
10
172
20
25.21875
11
172
21
32.65625
0
LINE
8
left_outsideCutPath
10
172
20
32.65625
11
168.5
21
32.65625
0
LINE
8
left_outsideCutPath
10
168.5
20
32.65625
11
168.5
21
40
0
LINE
8
left_outsideCutPath
10
168.5
20
40
11
164.34375
21
40
0
LINE
8
left_outsideCutPath
10
164.34375
20
40
11
164.34375
21
36.5
0
LINE
8
left_outsideCutPath
10
164.34375
20
36.5
11
156.90625
21
36.5
0
LINE
8
left_outsideCutPath
10
156.90625
20
36.5
11
156.90625
21
40
0
LINE
8
left_outsideCutPath
10
156.90625
20
40
11
149.46875
21
40
0
LINE
8
left_outsideCutPath
10
149.46875
20
40
11
149.46875
21
36.5
0
LINE
8
left_outsideCutPath
10
149.46875
20
36.5
11
142.03125
21
36.5
0
LINE
8
left_outsideCutPath
10
142.03125
20
36.5
11
142.03125
21
40
0
LINE
8
left_outsideCutPath
10
142.03125
20
40
11
134.59375
21
40
0
LINE
8
left_outsideCutPath
10
134.59375
20
40
11
134.59375
21
36.5
0
LINE
8
left_outsideCutPath
10
134.59375
20
36.5
11
127.15625
21
36.5
0
LINE
8
left_outsideCutPath
10
127.15625
20
36.5
11
127.15625
21
40
0
LINE
8
left_outsideCutPath
10
127.15625
20
40
11
119.71875
21
40
0
LINE
8
left_outsideCutPath
10
119.71875
20
40
11
119.71875
21
36.5
0
LINE
8
left_outsideCutPath
10
119.71875
20
36.5
11
112.28125
21
36.5
0
LINE
8
left_outsideCutPath
10
112.28125
20
36.5
11
112.28125
21
40
0
LINE
8
left_outsideCutPath
10
112.28125
20
40
11
104.84375
21
40
0
LINE
8
left_outsideCutPath
10
104.84375
20
40
11
104.84375
21
36.5
0
LINE
8
left_outsideCutPath
10
104.84375
20
36.5
11
97.40625
21
36.5
0
LINE
8
left_outsideCutPath
10
97.40625
20
36.5
11
97.40625
21
40
0
LINE
8
left_outsideCutPath
10
97.40625
20
40
11
89.96875
21
40
0
LINE
8
left_outsideCutPath
10
89.96875
20
40
11
89.96875
21
36.5
0
LINE
8
left_outsideCutPath
10
89.96875
20
36.5
11
82.53125
21
36.5
0
LINE
8
left_outsideCutPath
10
82.53125
20
36.5
11
82.53125
21
40
0
LINE
8
left_outsideCutPath
10
82.53125
20
40
11
75.09375
21
40
0
LINE
8
left_outsideCutPath
10
75.09375
20
40
11
75.09375
21
36.5
0
LINE
8
left_outsideCutPath
10
75.09375
20
36.5
11
67.65625
21
36.5
0
LINE
8
left_outsideCutPath
10
67.65625
20
36.5
11
67.65625
21
40
0
LINE
8
left_outsideCutPath
10
67.65625
20
40
11
63.5
21
40
0
LINE
8
top_outsideCutPath
10
178.5
20
111.5
11
178.5
21
107.34375
0
LINE
8
top_outsideCutPath
10
178.5
20
107.34375
11
175
21
107.34375
0
LINE
8
top_outsideCutPath
10
175
20
107.34375
11
175
21
99.90625
0
LINE
8
top_outsideCutPath
10
175
20
99.90625
11
178.5
21
99.90625
0
LINE
8
top_outsideCutPath
10
178.5
20
99.90625
11
178.5
21
92.46875
0
LINE
8
top_outsideCutPath
10
178.5
20
92.46875
11
175
21
92.46875
0
LINE
8
top_outsideCutPath
10
175
20
92.46875
11
175
21
85.03125
0
LINE
8
top_outsideCutPath
10
175
20
85.03125
11
178.5
21
85.03125
0
LINE
8
top_outsideCutPath
10
178.5
20
85.03125
11
178.5
21
77.59375
0
LINE
8
top_outsideCutPath
10
178.5
20
77.59375
11
175
21
77.59375
0
LINE
8
top_outsideCutPath
10
175
20
77.59375
11
175
21
70.15625
0
LINE
8
top_outsideCutPath
10
175
20
70.15625
11
178.5
21
70.15625
0
LINE
8
top_outsideCutPath
10
178.5
20
70.15625
11
178.5
21
62.71875
0
LINE
8
top_outsideCutPath
10
178.5
20
62.71875
11
175
21
62.71875
0
LINE
8
top_outsideCutPath
10
175
20
62.71875
11
175
21
55.28125
0
LINE
8
top_outsideCutPath
10
175
20
55.28125
11
178.5
21
55.28125
0
LINE
8
top_outsideCutPath
10
178.5
20
55.28125
11
178.5
21
47.84375
0
LINE
8
top_outsideCutPath
10
178.5
20
47.84375
11
175
21
47.84375
0
LINE
8
top_outsideCutPath
10
175
20
47.84375
11
175
21
40.40625
0
LINE
8
top_outsideCutPath
10
175
20
40.40625
11
178.5
21
40.40625
0
LINE
8
top_outsideCutPath
10
178.5
20
40.40625
11
178.5
21
32.96875
0
LINE
8
top_outsideCutPath
10
178.5
20
32.96875
11
175
21
32.96875
0
LINE
8
top_outsideCutPath
10
175
20
32.96875
11
175
21
25.53125
0
LINE
8
top_outsideCutPath
10
175
20
25.53125
11
178.5
21
25.53125
0
LINE
8
top_outsideCutPath
10
178.5
20
25.53125
11
178.5
21
18.09375
0
LINE
8
top_outsideCutPath
10
178.5
20
18.09375
11
175
21
18.09375
0
LINE
8
top_outsideCutPath
10
175
20
18.09375
11
175
21
10.65625
0
LINE
8
top_outsideCutPath
10
175
20
10.65625
11
178.5
21
10.65625
0
LINE
8
top_outsideCutPath
10
178.5
20
10.65625
11
178.5
21
6.5
0
LINE
8
top_outsideCutPath
10
178.5
20
6.5
11
184.90625
21
6.5
0
LINE
8
top_outsideCutPath
10
184.90625
20
6.5
11
184.90625
21
3
0
LINE
8
top_outsideCutPath
10
184.90625
20
3
11
192.34375
21
3
0
LINE
8
top_outsideCutPath
10
192.34375
20
3
11
192.34375
21
6.5
0
LINE
8
top_outsideCutPath
10
192.34375
20
6.5
11
199.78125
21
6.5
0
LINE
8
top_outsideCutPath
10
199.78125
20
6.5
11
199.78125
21
3
0
LINE
8
top_outsideCutPath
10
199.78125
20
3
11
207.21875
21
3
0
LINE
8
top_outsideCutPath
10
207.21875
20
3
11
207.21875
21
6.5
0
LINE
8
top_outsideCutPath
10
207.21875
20
6.5
11
214.65625
21
6.5
0
LINE
8
top_outsideCutPath
10
214.65625
20
6.5
11
214.65625
21
3
0
LINE
8
top_outsideCutPath
10
214.65625
20
3
11
222.09375
21
3
0
LINE
8
top_outsideCutPath
10
222.09375
20
3
11
222.09375
21
6.5
0
LINE
8
top_outsideCutPath
10
222.09375
20
6.5
11
228.5
21
6.5
0
LINE
8
top_outsideCutPath
10
228.5
20
6.5
11
228.5
21
10.65625
0
LINE
8
top_outsideCutPath
10
228.5
20
10.65625
11
232
21
10.65625
0
LINE
8
top_outsideCutPath
10
232
20
10.65625
11
232
21
18.09375
0
LINE
8
top_outsideCutPath
10
232
20
18.09375
11
228.5
21
18.09375
0
LINE
8
top_outsideCutPath
10
228.5
20
18.09375
11
228.5
21
25.53125
0
LINE
8
top_outsideCutPath
10
228.5
20
25.53125
11
232
21
25.53125
0
LINE
8
top_outsideCutPath
10
232
20
25.53125
11
232
21
32.96875
0
LINE
8
top_outsideCutPath
10
232
20
32.96875
11
228.5
21
32.96875
0
LINE
8
top_outsideCutPath
10
228.5
20
32.96875
11
228.5
21
40.40625
0
LINE
8
top_outsideCutPath
10
228.5
20
40.40625
11
232
21
40.40625
0
LINE
8
top_outsideCutPath
10
232
20
40.40625
11
232
21
47.84375
0
LINE
8
top_outsideCutPath
10
232
20
47.84375
11
228.5
21
47.84375
0
LINE
8
top_outsideCutPath
10
228.5
20
47.84375
11
228.5
21
55.28125
0
LINE
8
top_outsideCutPath
10
228.5
20
55.28125
11
232
21
55.28125
0
LINE
8
top_outsideCutPath
10
232
20
55.28125
11
232
21
62.71875
0
LINE
8
top_outsideCutPath
10
232
20
62.71875
11
228.5
21
62.71875
0
LINE
8
top_outsideCutPath
10
228.5
20
62.71875
11
228.5
21
70.15625
0
LINE
8
top_outsideCutPath
10
228.5
20
70.15625
11
232
21
70.15625
0
LINE
8
top_outsideCutPath
10
232
20
70.15625
11
232
21
77.59375
0
LINE
8
top_outsideCutPath
10
232
20
77.59375
11
228.5
21
77.59375
0
LINE
8
top_outsideCutPath
10
228.5
20
77.59375
11
228.5
21
85.03125
0
LINE
8
top_outsideCutPath
10
228.5
20
85.03125
11
232
21
85.03125
0
LINE
8
top_outsideCutPath
10
232
20
85.03125
11
232
21
92.46875
0
LINE
8
top_outsideCutPath
10
232
20
92.46875
11
228.5
21
92.46875
0
LINE
8
top_outsideCutPath
10
228.5
20
92.46875
11
228.5
21
99.90625
0
LINE
8
top_outsideCutPath
10
228.5
20
99.90625
11
232
21
99.90625
0
LINE
8
top_outsideCutPath
10
232
20
99.90625
11
232
21
107.34375
0
LINE
8
top_outsideCutPath
10
232
20
107.34375
11
228.5
21
107.34375
0
LINE
8
top_outsideCutPath
10
228.5
20
107.34375
11
228.5
21
111.5
0
LINE
8
top_outsideCutPath
10
228.5
20
111.5
11
222.09375
21
111.5
0
LINE
8
top_outsideCutPath
10
222.09375
20
111.5
11
222.09375
21
115
0
LINE
8
top_outsideCutPath
10
222.09375
20
115
11
214.65625
21
115
0
LINE
8
top_outsideCutPath
10
214.65625
20
115
11
214.65625
21
111.5
0
LINE
8
top_outsideCutPath
10
214.65625
20
111.5
11
207.21875
21
111.5
0
LINE
8
top_outsideCutPath
10
207.21875
20
111.5
11
207.21875
21
115
0
LINE
8
top_outsideCutPath
10
207.21875
20
115
11
199.78125
21
115
0
LINE
8
top_outsideCutPath
10
199.78125
20
115
11
199.78125
21
111.5
0
LINE
8
top_outsideCutPath
10
199.78125
20
111.5
11
192.34375
21
111.5
0
LINE
8
top_outsideCutPath
10
192.34375
20
111.5
11
192.34375
21
115
0
LINE
8
top_outsideCutPath
10
192.34375
20
115
11
184.90625
21
115
0
LINE
8
top_outsideCutPath
10
184.90625
20
115
11
184.90625
21
111.5
0
LINE
8
top_outsideCutPath
10
184.90625
20
111.5
11
178.5
21
111.5
0
LINE
8
back_outsideCutPath
10
0
20
80
11
0
21
72.65625
0
LINE
8
back_outsideCutPath
10
0
20
72.65625
11
3.5
21
72.65625
0
LINE
8
back_outsideCutPath
10
3.5
20
72.65625
11
3.5
21
65.21875
0
LINE
8
back_outsideCutPath
10
3.5
20
65.21875
11
0
21
65.21875
0
LINE
8
back_outsideCutPath
10
0
20
65.21875
11
0
21
57.78125
0
LINE
8
back_outsideCutPath
10
0
20
57.78125
11
3.5
21
57.78125
0
LINE
8
back_outsideCutPath
10
3.5
20
57.78125
11
3.5
21
50.34375
0
LINE
8
back_outsideCutPath
10
3.5
20
50.34375
11
0
21
50.34375
0
LINE
8
back_outsideCutPath
10
0
20
50.34375
11
0
21
43
0
LINE
8
back_outsideCutPath
10
0
20
43
11
9.90625
21
43
0
LINE
8
back_outsideCutPath
10
9.90625
20
43
11
9.90625
21
46.5
0
LINE
8
back_outsideCutPath
10
9.90625
20
46.5
11
17.34375
21
46.5
0
LINE
8
back_outsideCutPath
10
17.34375
20
46.5
11
17.34375
21
43
0
LINE
8
back_outsideCutPath
10
17.34375
20
43
11
24.78125
21
43
0
LINE
8
back_outsideCutPath
10
24.78125
20
43
11
24.78125
21
46.5
0
LINE
8
back_outsideCutPath
10
24.78125
20
46.5
11
32.21875
21
46.5
0
LINE
8
back_outsideCutPath
10
32.21875
20
46.5
11
32.21875
21
43
0
LINE
8
back_outsideCutPath
10
32.21875
20
43
11
39.65625
21
43
0
LINE
8
back_outsideCutPath
10
39.65625
20
43
11
39.65625
21
46.5
0
LINE
8
back_outsideCutPath
10
39.65625
20
46.5
11
47.09375
21
46.5
0
LINE
8
back_outsideCutPath
10
47.09375
20
46.5
11
47.09375
21
43
0
LINE
8
back_outsideCutPath
10
47.09375
20
43
11
54.53125
21
43
0
LINE
8
back_outsideCutPath
10
54.53125
20
43
11
57
21
43
0
LINE
8
back_outsideCutPath
10
57
20
43
11
57
21
50.34375
0
LINE
8
back_outsideCutPath
10
57
20
50.34375
11
53.5
21
50.34375
0
LINE
8
back_outsideCutPath
10
53.5
20
50.34375
11
53.5
21
57.78125
0
LINE
8
back_outsideCutPath
10
53.5
20
57.78125
11
57
21
57.78125
0
LINE
8
back_outsideCutPath
10
57
20
57.78125
11
57
21
65.21875
0
LINE
8
back_outsideCutPath
10
57
20
65.21875
11
53.5
21
65.21875
0
LINE
8
back_outsideCutPath
10
53.5
20
65.21875
11
53.5
21
72.65625
0
LINE
8
back_outsideCutPath
10
53.5
20
72.65625
11
57
21
72.65625
0
LINE
8
back_outsideCutPath
10
57
20
72.65625
11
57
21
80
0
LINE
8
back_outsideCutPath
10
57
20
80
11
47.09375
21
80
0
LINE
8
back_outsideCutPath
10
47.09375
20
80
11
47.09375
21
76.5
0
LINE
8
back_outsideCutPath
10
47.09375
20
76.5
11
39.65625
21
76.5
0
LINE
8
back_outsideCutPath
10
39.65625
20
76.5
11
39.65625
21
80
0
LINE
8
back_outsideCutPath
10
39.65625
20
80
11
32.21875
21
80
0
LINE
8
back_outsideCutPath
10
32.21875
20
80
11
32.21875
21
76.5
0
LINE
8
back_outsideCutPath
10
32.21875
20
76.5
11
24.78125
21
76.5
0
LINE
8
back_outsideCutPath
10
24.78125
20
76.5
11
24.78125
21
80
0
LINE
8
back_outsideCutPath
10
24.78125
20
80
11
17.34375
21
80
0
LINE
8
back_outsideCutPath
10
17.34375
20
80
11
17.34375
21
76.5
0
LINE
8
back_outsideCutPath
10
17.34375
20
76.5
11
9.90625
21
76.5
0
LINE
8
back_outsideCutPath
10
9.90625
20
76.5
11
9.90625
21
80
0
LINE
8
back_outsideCutPath
10
9.90625
20
80
11
2.46875
21
80
0
LINE
8
back_outsideCutPath
10
2.46875
20
80
11
0
21
80
0
LINE
8
right_outsideCutPath
10
63.5
20
80
11
63.5
21
72.65625
0
LINE
8
right_outsideCutPath
10
63.5
20
72.65625
11
60
21
72.65625
0
LINE
8
right_outsideCutPath
10
60
20
72.65625
11
60
21
65.21875
0
LINE
8
right_outsideCutPath
10
60
20
65.21875
11
63.5
21
65.21875
0
LINE
8
right_outsideCutPath
10
63.5
20
65.21875
11
63.5
21
57.78125
0
LINE
8
right_outsideCutPath
10
63.5
20
57.78125
11
60
21
57.78125
0
LINE
8
right_outsideCutPath
10
60
20
57.78125
11
60
21
50.34375
0
LINE
8
right_outsideCutPath
10
60
20
50.34375
11
63.5
21
50.34375
0
LINE
8
right_outsideCutPath
10
63.5
20
50.34375
11
63.5
21
43
0
LINE
8
right_outsideCutPath
10
63.5
20
43
11
67.65625
21
43
0
LINE
8
right_outsideCutPath
10
67.65625
20
43
11
67.65625
21
46.5
0
LINE
8
right_outsideCutPath
10
67.65625
20
46.5
11
75.09375
21
46.5
0
LINE
8
right_outsideCutPath
10
75.09375
20
46.5
11
75.09375
21
43
0
LINE
8
right_outsideCutPath
10
75.09375
20
43
11
82.53125
21
43
0
LINE
8
right_outsideCutPath
10
82.53125
20
43
11
82.53125
21
46.5
0
LINE
8
right_outsideCutPath
10
82.53125
20
46.5
11
89.96875
21
46.5
0
LINE
8
right_outsideCutPath
10
89.96875
20
46.5
11
89.96875
21
43
0
LINE
8
right_outsideCutPath
10
89.96875
20
43
11
97.40625
21
43
0
LINE
8
right_outsideCutPath
10
97.40625
20
43
11
97.40625
21
46.5
0
LINE
8
right_outsideCutPath
10
97.40625
20
46.5
11
104.84375
21
46.5
0
LINE
8
right_outsideCutPath
10
104.84375
20
46.5
11
104.84375
21
43
0
LINE
8
right_outsideCutPath
10
104.84375
20
43
11
112.28125
21
43
0
LINE
8
right_outsideCutPath
10
112.28125
20
43
11
112.28125
21
46.5
0
LINE
8
right_outsideCutPath
10
112.28125
20
46.5
11
119.71875
21
46.5
0
LINE
8
right_outsideCutPath
10
119.71875
20
46.5
11
119.71875
21
43
0
LINE
8
right_outsideCutPath
10
119.71875
20
43
11
127.15625
21
43
0
LINE
8
right_outsideCutPath
10
127.15625
20
43
11
127.15625
21
46.5
0
LINE
8
right_outsideCutPath
10
127.15625
20
46.5
11
134.59375
21
46.5
0
LINE
8
right_outsideCutPath
10
134.59375
20
46.5
11
134.59375
21
43
0
LINE
8
right_outsideCutPath
10
134.59375
20
43
11
142.03125
21
43
0
LINE
8
right_outsideCutPath
10
142.03125
20
43
11
142.03125
21
46.5
0
LINE
8
right_outsideCutPath
10
142.03125
20
46.5
11
149.46875
21
46.5
0
LINE
8
right_outsideCutPath
10
149.46875
20
46.5
11
149.46875
21
43
0
LINE
8
right_outsideCutPath
10
149.46875
20
43
11
156.90625
21
43
0
LINE
8
right_outsideCutPath
10
156.90625
20
43
11
156.90625
21
46.5
0
LINE
8
right_outsideCutPath
10
156.90625
20
46.5
11
164.34375
21
46.5
0
LINE
8
right_outsideCutPath
10
164.34375
20
46.5
11
164.34375
21
43
0
LINE
8
right_outsideCutPath
10
164.34375
20
43
11
168.5
21
43
0
LINE
8
right_outsideCutPath
10
168.5
20
43
11
168.5
21
50.34375
0
LINE
8
right_outsideCutPath
10
168.5
20
50.34375
11
172
21
50.34375
0
LINE
8
right_outsideCutPath
10
172
20
50.34375
11
172
21
57.78125
0
LINE
8
right_outsideCutPath
10
172
20
57.78125
11
168.5
21
57.78125
0
LINE
8
right_outsideCutPath
10
168.5
20
57.78125
11
168.5
21
65.21875
0
LINE
8
right_outsideCutPath
10
168.5
20
65.21875
11
172
21
65.21875
0
LINE
8
right_outsideCutPath
10
172
20
65.21875
11
172
21
72.65625
0
LINE
8
right_outsideCutPath
10
172
20
72.65625
11
168.5
21
72.65625
0
LINE
8
right_outsideCutPath
10
168.5
20
72.65625
11
168.5
21
80
0
LINE
8
right_outsideCutPath
10
168.5
20
80
11
164.34375
21
80
0
LINE
8
right_outsideCutPath
10
164.34375
20
80
11
164.34375
21
76.5
0
LINE
8
right_outsideCutPath
10
164.34375
20
76.5
11
156.90625
21
76.5
0
LINE
8
right_outsideCutPath
10
156.90625
20
76.5
11
156.90625
21
80
0
LINE
8
right_outsideCutPath
10
156.90625
20
80
11
149.46875
21
80
0
LINE
8
right_outsideCutPath
10
149.46875
20
80
11
149.46875
21
76.5
0
LINE
8
right_outsideCutPath
10
149.46875
20
76.5
11
142.03125
21
76.5
0
LINE
8
right_outsideCutPath
10
142.03125
20
76.5
11
142.03125
21
80
0
LINE
8
right_outsideCutPath
10
142.03125
20
80
11
134.59375
21
80
0
LINE
8
right_outsideCutPath
10
134.59375
20
80
11
134.59375
21
76.5
0
LINE
8
right_outsideCutPath
10
134.59375
20
76.5
11
127.15625
21
76.5
0
LINE
8
right_outsideCutPath
10
127.15625
20
76.5
11
127.15625
21
80
0
LINE
8
right_outsideCutPath
10
127.15625
20
80
11
119.71875
21
80
0
LINE
8
right_outsideCutPath
10
119.71875
20
80
11
119.71875
21
76.5
0
LINE
8
right_outsideCutPath
10
119.71875
20
76.5
11
112.28125
21
76.5
0
LINE
8
right_outsideCutPath
10
112.28125
20
76.5
11
112.28125
21
80
0
LINE
8
right_outsideCutPath
10
112.28125
20
80
11
104.84375
21
80
0
LINE
8
right_outsideCutPath
10
104.84375
20
80
11
104.84375
21
76.5
0
LINE
8
right_outsideCutPath
10
104.84375
20
76.5
11
97.40625
21
76.5
0
LINE
8
right_outsideCutPath
10
97.40625
20
76.5
11
97.40625
21
80
0
LINE
8
right_outsideCutPath
10
97.40625
20
80
11
89.96875
21
80
0
LINE
8
right_outsideCutPath
10
89.96875
20
80
11
89.96875
21
76.5
0
LINE
8
right_outsideCutPath
10
89.96875
20
76.5
11
82.53125
21
76.5
0
LINE
8
right_outsideCutPath
10
82.53125
20
76.5
11
82.53125
21
80
0
LINE
8
right_outsideCutPath
10
82.53125
20
80
11
75.09375
21
80
0
LINE
8
right_outsideCutPath
10
75.09375
20
80
11
75.09375
21
76.5
0
LINE
8
right_outsideCutPath
10
75.09375
20
76.5
11
67.65625
21
76.5
0
LINE
8
right_outsideCutPath
10
67.65625
20
76.5
11
67.65625
21
80
0
LINE
8
right_outsideCutPath
10
67.65625
20
80
11
63.5
21
80
0
LINE
8
bottom_outsideCutPath
10
178.5
20
226.5
11
178.5
21
222.34375
0
LINE
8
bottom_outsideCutPath
10
178.5
20
222.34375
11
175
21
222.34375
0
LINE
8
bottom_outsideCutPath
10
175
20
222.34375
11
175
21
214.90625
0
LINE
8
bottom_outsideCutPath
10
175
20
214.90625
11
178.5
21
214.90625
0
LINE
8
bottom_outsideCutPath
10
178.5
20
214.90625
11
178.5
21
207.46875
0
LINE
8
bottom_outsideCutPath
10
178.5
20
207.46875
11
175
21
207.46875
0
LINE
8
bottom_outsideCutPath
10
175
20
207.46875
11
175
21
200.03125
0
LINE
8
bottom_outsideCutPath
10
175
20
200.03125
11
178.5
21
200.03125
0
LINE
8
bottom_outsideCutPath
10
178.5
20
200.03125
11
178.5
21
192.59375
0
LINE
8
bottom_outsideCutPath
10
178.5
20
192.59375
11
175
21
192.59375
0
LINE
8
bottom_outsideCutPath
10
175
20
192.59375
11
175
21
185.15625
0
LINE
8
bottom_outsideCutPath
10
175
20
185.15625
11
178.5
21
185.15625
0
LINE
8
bottom_outsideCutPath
10
178.5
20
185.15625
11
178.5
21
177.71875
0
LINE
8
bottom_outsideCutPath
10
178.5
20
177.71875
11
175
21
177.71875
0
LINE
8
bottom_outsideCutPath
10
175
20
177.71875
11
175
21
170.28125
0
LINE
8
bottom_outsideCutPath
10
175
20
170.28125
11
178.5
21
170.28125
0
LINE
8
bottom_outsideCutPath
10
178.5
20
170.28125
11
178.5
21
162.84375
0
LINE
8
bottom_outsideCutPath
10
178.5
20
162.84375
11
175
21
162.84375
0
LINE
8
bottom_outsideCutPath
10
175
20
162.84375
11
175
21
155.40625
0
LINE
8
bottom_outsideCutPath
10
175
20
155.40625
11
178.5
21
155.40625
0
LINE
8
bottom_outsideCutPath
10
178.5
20
155.40625
11
178.5
21
147.96875
0
LINE
8
bottom_outsideCutPath
10
178.5
20
147.96875
11
175
21
147.96875
0
LINE
8
bottom_outsideCutPath
10
175
20
147.96875
11
175
21
140.53125
0
LINE
8
bottom_outsideCutPath
10
175
20
140.53125
11
178.5
21
140.53125
0
LINE
8
bottom_outsideCutPath
10
178.5
20
140.53125
11
178.5
21
133.09375
0
LINE
8
bottom_outsideCutPath
10
178.5
20
133.09375
11
175
21
133.09375
0
LINE
8
bottom_outsideCutPath
10
175
20
133.09375
11
175
21
125.65625
0
LINE
8
bottom_outsideCutPath
10
175
20
125.65625
11
178.5
21
125.65625
0
LINE
8
bottom_outsideCutPath
10
178.5
20
125.65625
11
178.5
21
121.5
0
LINE
8
bottom_outsideCutPath
10
178.5
20
121.5
11
184.90625
21
121.5
0
LINE
8
bottom_outsideCutPath
10
184.90625
20
121.5
11
184.90625
21
118
0
LINE
8
bottom_outsideCutPath
10
184.90625
20
118
11
192.34375
21
118
0
LINE
8
bottom_outsideCutPath
10
192.34375
20
118
11
192.34375
21
121.5
0
LINE
8
bottom_outsideCutPath
10
192.34375
20
121.5
11
199.78125
21
121.5
0
LINE
8
bottom_outsideCutPath
10
199.78125
20
121.5
11
199.78125
21
118
0
LINE
8
bottom_outsideCutPath
10
199.78125
20
118
11
207.21875
21
118
0
LINE
8
bottom_outsideCutPath
10
207.21875
20
118
11
207.21875
21
121.5
0
LINE
8
bottom_outsideCutPath
10
207.21875
20
121.5
11
214.65625
21
121.5
0
LINE
8
bottom_outsideCutPath
10
214.65625
20
121.5
11
214.65625
21
118
0
LINE
8
bottom_outsideCutPath
10
214.65625
20
118
11
222.09375
21
118
0
LINE
8
bottom_outsideCutPath
10
222.09375
20
118
11
222.09375
21
121.5
0
LINE
8
bottom_outsideCutPath
10
222.09375
20
121.5
11
228.5
21
121.5
0
LINE
8
bottom_outsideCutPath
10
228.5
20
121.5
11
228.5
21
125.65625
0
LINE
8
bottom_outsideCutPath
10
228.5
20
125.65625
11
232
21
125.65625
0
LINE
8
bottom_outsideCutPath
10
232
20
125.65625
11
232
21
133.09375
0
LINE
8
bottom_outsideCutPath
10
232
20
133.09375
11
228.5
21
133.09375
0
LINE
8
bottom_outsideCutPath
10
228.5
20
133.09375
11
228.5
21
140.53125
0
LINE
8
bottom_outsideCutPath
10
228.5
20
140.53125
11
232
21
140.53125
0
LINE
8
bottom_outsideCutPath
10
232
20
140.53125
11
232
21
147.96875
0
LINE
8
bottom_outsideCutPath
10
232
20
147.96875
11
228.5
21
147.96875
0
LINE
8
bottom_outsideCutPath
10
228.5
20
147.96875
11
228.5
21
155.40625
0
LINE
8
bottom_outsideCutPath
10
228.5
20
155.40625
11
232
21
155.40625
0
LINE
8
bottom_outsideCutPath
10
232
20
155.40625
11
232
21
162.84375
0
LINE
8
bottom_outsideCutPath
10
232
20
162.84375
11
228.5
21
162.84375
0
LINE
8
bottom_outsideCutPath
10
228.5
20
162.84375
11
228.5
21
170.28125
0
LINE
8
bottom_outsideCutPath
10
228.5
20
170.28125
11
232
21
170.28125
0
LINE
8
bottom_outsideCutPath
10
232
20
170.28125
11
232
21
177.71875
0
LINE
8
bottom_outsideCutPath
10
232
20
177.71875
11
228.5
21
177.71875
0
LINE
8
bottom_outsideCutPath
10
228.5
20
177.71875
11
228.5
21
185.15625
0
LINE
8
bottom_outsideCutPath
10
228.5
20
185.15625
11
232
21
185.15625
0
LINE
8
bottom_outsideCutPath
10
232
20
185.15625
11
232
21
192.59375
0
LINE
8
bottom_outsideCutPath
10
232
20
192.59375
11
228.5
21
192.59375
0
LINE
8
bottom_outsideCutPath
10
228.5
20
192.59375
11
228.5
21
200.03125
0
LINE
8
bottom_outsideCutPath
10
228.5
20
200.03125
11
232
21
200.03125
0
LINE
8
bottom_outsideCutPath
10
232
20
200.03125
11
232
21
207.46875
0
LINE
8
bottom_outsideCutPath
10
232
20
207.46875
11
228.5
21
207.46875
0
LINE
8
bottom_outsideCutPath
10
228.5
20
207.46875
11
228.5
21
214.90625
0
LINE
8
bottom_outsideCutPath
10
228.5
20
214.90625
11
232
21
214.90625
0
LINE
8
bottom_outsideCutPath
10
232
20
214.90625
11
232
21
222.34375
0
LINE
8
bottom_outsideCutPath
10
232
20
222.34375
11
228.5
21
222.34375
0
LINE
8
bottom_outsideCutPath
10
228.5
20
222.34375
11
228.5
21
226.5
0
LINE
8
bottom_outsideCutPath
10
228.5
20
226.5
11
222.09375
21
226.5
0
LINE
8
bottom_outsideCutPath
10
222.09375
20
226.5
11
222.09375
21
230
0
LINE
8
bottom_outsideCutPath
10
222.09375
20
230
11
214.65625
21
230
0
LINE
8
bottom_outsideCutPath
10
214.65625
20
230
11
214.65625
21
226.5
0
LINE
8
bottom_outsideCutPath
10
214.65625
20
226.5
11
207.21875
21
226.5
0
LINE
8
bottom_outsideCutPath
10
207.21875
20
226.5
11
207.21875
21
230
0
LINE
8
bottom_outsideCutPath
10
207.21875
20
230
11
199.78125
21
230
0
LINE
8
bottom_outsideCutPath
10
199.78125
20
230
11
199.78125
21
226.5
0
LINE
8
bottom_outsideCutPath
10
199.78125
20
226.5
11
192.34375
21
226.5
0
LINE
8
bottom_outsideCutPath
10
192.34375
20
226.5
11
192.34375
21
230
0
LINE
8
bottom_outsideCutPath
10
192.34375
20
230
11
184.90625
21
230
0
LINE
8
bottom_outsideCutPath
10
184.90625
20
230
11
184.90625
21
226.5
0
LINE
8
bottom_outsideCutPath
10
184.90625
20
226.5
11
178.5
21
226.5
0
ENDSEC
0
EOF