  0
SECTION
  2
BLOCKS
  0
ENDSEC
  0
SECTION
  2
ENTITIES
  0
LINE
  8
0
 10
0
 20
3
 11
9.90625
 21
3
  0
LINE
  8
0
 10
9.90625
 20
3
 11
9.90625
 21
6.5
  0
LINE
  8
0
 10
9.90625
 20
6.5
 11
17.3438
 21
6.5
  0
LINE
  8
0
 10
17.3438
 20
6.5
 11
17.3438
 21
3
  0
LINE
  8
0
 10
17.3438
 20
3
 11
24.7812
 21
3
  0
LINE
  8
0
 10
24.7812
 20
3
 11
24.7812
 21
6.5
  0
LINE
  8
0
 10
24.7812
 20
6.5
 11
32.2188
 21
6.5
  0
LINE
  8
0
 10
32.2188
 20
6.5
 11
32.2188
 21
3
  0
LINE
  8
0
 10
32.2188
 20
3
 11
39.6562
 21
3
  0
LINE
  8
0
 10
39.6562
 20
3
 11
39.6562
 21
6.5
  0
LINE
  8
0
 10
39.6562
 20
6.5
 11
47.0938
 21
6.5
  0
LINE
  8
0
 10
47.0938
 20
6.5
 11
47.0938
 21
3
  0
LINE
  8
0
 10
47.0938
 20
3
 11
57
 21
3
  0
LINE
  8
0
 10
57
 20
3
 11
57
 21
10.3438
  0
LINE
  8
0
 10
57
 20
10.3438
 11
53.5
 21
10.3438
  0
LINE
  8
0
 10
53.5
 20
10.3438
 11
53.5
 21
17.7812
  0
LINE
  8
0
 10
53.5
 20
17.7812
 11
57
 21
17.7812
  0
LINE
  8
0
 10
57
 20
17.7812
 11
57
 21
25.2188
  0
LINE
  8
0
 10
57
 20
25.2188
 11
53.5
 21
25.2188
  0
LINE
  8
0
 10
53.5
 20
25.2188
 11
53.5
 21
32.6562
  0
LINE
  8
0
 10
53.5
 20
32.6562
 11
57
 21
32.6562
  0
LINE
  8
0
 10
57
 20
32.6562
 11
57
 21
40
  0
LINE
  8
0
 10
57
 20
40
 11
47.0938
 21
40
  0
LINE
  8
0
 10
47.0938
 20
40
 11
47.0938
 21
36.5
  0
LINE
  8
0
 10
47.0938
 20
36.5
 11
39.6562
 21
36.5
  0
LINE
  8
0
 10
39.6562
 20
36.5
 11
39.6562
 21
40
  0
LINE
  8
0
 10
39.6562
 20
40
 11
32.2188
 21
40
  0
LINE
  8
0
 10
32.2188
 20
40
 11
32.2188
 21
36.5
  0
LINE
  8
0
 10
32.2188
 20
36.5
 11
24.7812
 21
36.5
  0
LINE
  8
0
 10
24.7812
 20
36.5
 11
24.7812
 21
40
  0
LINE
  8
0
 10
24.7812
 20
40
 11
17.3438
 21
40
  0
LINE
  8
0
 10
17.3438
 20
40
 11
17.3438
 21
36.5
  0
LINE
  8
0
 10
17.3438
 20
36.5
 11
9.90625
 21
36.5
  0
LINE
  8
0
 10
9.90625
 20
36.5
 11
9.90625
 21
40
  0
LINE
  8
0
 10
9.90625
 20
40
 11
0
 21
40
  0
LINE
  8
0
 10
0
 20
40
 11
0
 21
32.6562
  0
LINE
  8
0
 10
0
 20
32.6562
 11
3.5
 21
32.6562
  0
LINE
  8
0
 10
3.5
 20
32.6562
 11
3.5
 21
25.2188
  0
LINE
  8
0
 10
3.5
 20
25.2188
 11
0
 21
25.2188
  0
LINE
  8
0
 10
0
 20
25.2188
 11
0
 21
17.7812
  0
LINE
  8
0
 10
0
 20
17.7812
 11
3.5
 21
17.7812
  0
LINE
  8
0
 10
3.5
 20
17.7812
 11
3.5
 21
10.3438
  0
LINE
  8
0
 10
3.5
 20
10.3438
 11
0
 21
10.3438
  0
LINE
  8
0
 10
0
 20
10.3438
 11
0
 21
3
  0
LINE
  8
0
 10
27.5
 20
14.5
 11
27.5
 21
15.5
  0
LINE
  8
0
 10
27.5
 20
15.5
 11
32.25
 21
15.5
  0
LINE
  8
0
 10
32.25
 20
15.5
 11
32.25
 21
18
  0
LINE
  8
0
 10
32.25
 20
18
 11
39.75
 21
18
  0
LINE
  8
0
 10
39.75
 20
18
 11
39.75
 21
15.5
  0
LINE
  8
0
 10
39.75
 20
15.5
 11
44.5
 21
15.5
  0
LINE
  8
0
 10
44.5
 20
15.5
 11
44.5
 21
14.5
  0
LINE
  8
0
 10
44.5
 20
14.5
 11
27.5
 21
14.5
  0
LINE
  8
0
 10
27.7
 20
19
 11
27.7392
 21
19.2472
  0
LINE
  8
0
 10
27.7392
 20
19.2472
 11
27.8528
 21
19.4702
  0
LINE
  8
0
 10
27.8528
 20
19.4702
 11
28.0298
 21
19.6472
  0
LINE
  8
0
 10
28.0298
 20
19.6472
 11
28.2528
 21
19.7608
  0
LINE
  8
0
 10
28.2528
 20
19.7608
 11
28.5
 21
19.8
  0
LINE
  8
0
 10
28.5
 20
19.8
 11
28.7472
 21
19.7608
  0
LINE
  8
0
 10
28.7472
 20
19.7608
 11
28.9702
 21
19.6472
  0
LINE
  8
0
 10
28.9702
 20
19.6472
 11
29.1472
 21
19.4702
  0
LINE
  8
0
 10
29.1472
 20
19.4702
 11
29.2608
 21
19.2472
  0
LINE
  8
0
 10
29.2608
 20
19.2472
 11
29.3
 21
19
  0
LINE
  8
0
 10
29.3
 20
19
 11
29.2608
 21
18.7528
  0
LINE
  8
0
 10
29.2608
 20
18.7528
 11
29.1472
 21
18.5298
  0
LINE
  8
0
 10
29.1472
 20
18.5298
 11
28.9702
 21
18.3528
  0
LINE
  8
0
 10
28.9702
 20
18.3528
 11
28.7472
 21
18.2392
  0
LINE
  8
0
 10
28.7472
 20
18.2392
 11
28.5
 21
18.2
  0
LINE
  8
0
 10
28.5
 20
18.2
 11
28.2528
 21
18.2392
  0
LINE
  8
0
 10
28.2528
 20
18.2392
 11
28.0298
 21
18.3528
  0
LINE
  8
0
 10
28.0298
 20
18.3528
 11
27.8528
 21
18.5298
  0
LINE
  8
0
 10
27.8528
 20
18.5298
 11
27.7392
 21
18.7528
  0
LINE
  8
0
 10
27.7392
 20
18.7528
 11
27.7
 21
19
  0
LINE
  8
0
 10
33
 20
28
 11
33.0237
 21
28.376
  0
LINE
  8
0
 10
33.0237
 20
28.376
 11
33.0942
 21
28.7461
  0
LINE
  8
0
 10
33.0942
 20
28.7461
 11
33.2107
 21
29.1044
  0
LINE
  8
0
 10
33.2107
 20
29.1044
 11
33.3711
 21
29.4453
  0
LINE
  8
0
 10
33.3711
 20
29.4453
 11
33.5729
 21
29.7634
  0
LINE
  8
0
 10
33.5729
 20
29.7634
 11
33.8131
 21
30.0536
  0
LINE
  8
0
 10
33.8131
 20
30.0536
 11
34.0877
 21
30.3115
  0
LINE
  8
0
 10
34.0877
 20
30.3115
 11
34.3925
 21
30.533
  0
LINE
  8
0
 10
34.3925
 20
30.533
 11
34.7227
 21
30.7145
  0
LINE
  8
0
 10
34.7227
 20
30.7145
 11
35.0729
 21
30.8532
  0
LINE
  8
0
 10
35.0729
 20
30.8532
 11
35.4379
 21
30.9469
  0
LINE
  8
0
 10
35.4379
 20
30.9469
 11
35.8116
 21
30.9941
  0
LINE
  8
0
 10
35.8116
 20
30.9941
 11
36.1884
 21
30.9941
  0
LINE
  8
0
 10
36.1884
 20
30.9941
 11
36.5621
 21
30.9469
  0
LINE
  8
0
 10
36.5621
 20
30.9469
 11
36.927
 21
30.8532
  0
LINE
  8
0
 10
36.927
 20
30.8532
 11
37.2773
 21
30.7145
  0
LINE
  8
0
 10
37.2773
 20
30.7145
 11
37.6075
 21
30.533
  0
LINE
  8
0
 10
37.6075
 20
30.533
 11
37.9123
 21
30.3115
  0
LINE
  8
0
 10
37.9123
 20
30.3115
 11
38.1869
 21
30.0536
  0
LINE
  8
0
 10
38.1869
 20
30.0536
 11
38.427
 21
29.7634
  0
LINE
  8
0
 10
38.427
 20
29.7634
 11
38.6289
 21
29.4453
  0
LINE
  8
0
 10
38.6289
 20
29.4453
 11
38.7893
 21
29.1044
  0
LINE
  8
0
 10
38.7893
 20
29.1044
 11
38.9057
 21
28.7461
  0
LINE
  8
0
 10
38.9057
 20
28.7461
 11
38.9763
 21
28.376
  0
LINE
  8
0
 10
38.9763
 20
28.376
 11
39
 21
28
  0
LINE
  8
0
 10
39
 20
28
 11
38.9763
 21
27.624
  0
LINE
  8
0
 10
38.9763
 20
27.624
 11
38.9057
 21
27.2539
  0
LINE
  8
0
 10
38.9057
 20
27.2539
 11
38.7893
 21
26.8956
  0
LINE
  8
0
 10
38.7893
 20
26.8956
 11
38.6289
 21
26.5547
  0
LINE
  8
0
 10
38.6289
 20
26.5547
 11
38.427
 21
26.2366
  0
LINE
  8
0
 10
38.427
 20
26.2366
 11
38.1869
 21
25.9464
  0
LINE
  8
0
 10
38.1869
 20
25.9464
 11
37.9123
 21
25.6884
  0
LINE
  8
0
 10
37.9123
 20
25.6884
 11
37.6075
 21
25.467
  0
LINE
  8
0
 10
37.6075
 20
25.467
 11
37.2773
 21
25.2855
  0
LINE
  8
0
 10
37.2773
 20
25.2855
 11
36.927
 21
25.1468
  0
LINE
  8
0
 10
36.927
 20
25.1468
 11
36.5621
 21
25.0531
  0
LINE
  8
0
 10
36.5621
 20
25.0531
 11
36.1884
 21
25.0059
  0
LINE
  8
0
 10
36.1884
 20
25.0059
 11
35.8116
 21
25.0059
  0
LINE
  8
0
 10
35.8116
 20
25.0059
 11
35.4379
 21
25.0531
  0
LINE
  8
0
 10
35.4379
 20
25.0531
 11
35.0729
 21
25.1468
  0
LINE
  8
0
 10
35.0729
 20
25.1468
 11
34.7227
 21
25.2855
  0
LINE
  8
0
 10
34.7227
 20
25.2855
 11
34.3925
 21
25.467
  0
LINE
  8
0
 10
34.3925
 20
25.467
 11
34.0877
 21
25.6884
  0
LINE
  8
0
 10
34.0877
 20
25.6884
 11
33.8131
 21
25.9464
  0
LINE
  8
0
 10
33.8131
 20
25.9464
 11
33.5729
 21
26.2366
  0
LINE
  8
0
 10
33.5729
 20
26.2366
 11
33.3711
 21
26.5547
  0
LINE
  8
0
 10
33.3711
 20
26.5547
 11
33.2107
 21
26.8956
  0
LINE
  8
0
 10
33.2107
 20
26.8956
 11
33.0942
 21
27.2539
  0
LINE
  8
0
 10
33.0942
 20
27.2539
 11
33.0237
 21
27.624
  0
LINE
  8
0
 10
33.0237
 20
27.624
 11
33
 21
28
  0
LINE
  8
0
 10
0
 20
43
 11
9.90625
 21
43
  0
LINE
  8
0
 10
9.90625
 20
43
 11
9.90625
 21
46.5
  0
LINE
  8
0
 10
9.90625
 20
46.5
 11
17.3438
 21
46.5
  0
LINE
  8
0
 10
17.3438
 20
46.5
 11
17.3438
 21
43
  0
LINE
  8
0
 10
17.3438
 20
43
 11
24.7812
 21
43
  0
LINE
  8
0
 10
24.7812
 20
43
 11
24.7812
 21
46.5
  0
LINE
  8
0
 10
24.7812
 20
46.5
 11
32.2188
 21
46.5
  0
LINE
  8
0
 10
32.2188
 20
46.5
 11
32.2188
 21
43
  0
LINE
  8
0
 10
32.2188
 20
43
 11
39.6562
 21
43
  0
LINE
  8
0
 10
39.6562
 20
43
 11
39.6562
 21
46.5
  0
LINE
  8
0
 10
39.6562
 20
46.5
 11
47.0938
 21
46.5
  0
LINE
  8
0
 10
47.0938
 20
46.5
 11
47.0938
 21
43
  0
LINE
  8
0
 10
47.0938
 20
43
 11
57
 21
43
  0
LINE
  8
0
 10
57
 20
43
 11
57
 21
50.3438
  0
LINE
  8
0
 10
57
 20
50.3438
 11
53.5
 21
50.3438
  0
LINE
  8
0
 10
53.5
 20
50.3438
 11
53.5
 21
57.7812
  0
LINE
  8
0
 10
53.5
 20
57.7812
 11
57
 21
57.7812
  0
LINE
  8
0
 10
57
 20
57.7812
 11
57
 21
65.2188
  0
LINE
  8
0
 10
57
 20
65.2188
 11
53.5
 21
65.2188
  0
LINE
  8
0
 10
53.5
 20
65.2188
 11
53.5
 21
72.6562
  0
LINE
  8
0
 10
53.5
 20
72.6562
 11
57
 21
72.6562
  0
LINE
  8
0
 10
57
 20
72.6562
 11
57
 21
80
  0
LINE
  8
0
 10
57
 20
80
 11
47.0938
 21
80
  0
LINE
  8
0
 10
47.0938
 20
80
 11
47.0938
 21
76.5
  0
LINE
  8
0
 10
47.0938
 20
76.5
 11
39.6562
 21
76.5
  0
LINE
  8
0
 10
39.6562
 20
76.5
 11
39.6562
 21
80
  0
LINE
  8
0
 10
39.6562
 20
80
 11
32.2188
 21
80
  0
LINE
  8
0
 10
32.2188
 20
80
 11
32.2188
 21
76.5
  0
LINE
  8
0
 10
32.2188
 20
76.5
 11
24.7812
 21
76.5
  0
LINE
  8
0
 10
24.7812
 20
76.5
 11
24.7812
 21
80
  0
LINE
  8
0
 10
24.7812
 20
80
 11
17.3438
 21
80
  0
LINE
  8
0
 10
17.3438
 20
80
 11
17.3438
 21
76.5
  0
LINE
  8
0
 10
17.3438
 20
76.5
 11
9.90625
 21
76.5
  0
LINE
  8
0
 10
9.90625
 20
76.5
 11
9.90625
 21
80
  0
LINE
  8
0
 10
9.90625
 20
80
 11
0
 21
80
  0
LINE
  8
0
 10
0
 20
80
 11
0
 21
72.6562
  0
LINE
  8
0
 10
0
 20
72.6562
 11
3.5
 21
72.6562
  0
LINE
  8
0
 10
3.5
 20
72.6562
 11
3.5
 21
65.2188
  0
LINE
  8
0
 10
3.5
 20
65.2188
 11
0
 21
65.2188
  0
LINE
  8
0
 10
0
 20
65.2188
 11
0
 21
57.7812
  0
LINE
  8
0
 10
0
 20
57.7812
 11
3.5
 21
57.7812
  0
LINE
  8
0
 10
3.5
 20
57.7812
 11
3.5
 21
50.3438
  0
LINE
  8
0
 10
3.5
 20
50.3438
 11
0
 21
50.3438
  0
LINE
  8
0
 10
0
 20
50.3438
 11
0
 21
43
  0
LINE
  8
0
 10
25
 20
61.5
 11
25.1713
 21
62.5816
  0
LINE
  8
0
 10
25.1713
 20
62.5816
 11
25.6684
 21
63.5572
  0
LINE
  8
0
 10
25.6684
 20
63.5572
 11
26.4427
 21
64.3316
  0
LINE
  8
0
 10
26.4427
 20
64.3316
 11
27.4184
 21
64.8287
  0
LINE
  8
0
 10
27.4184
 20
64.8287
 11
28.5
 21
65
  0
LINE
  8
0
 10
28.5
 20
65
 11
29.5816
 21
64.8287
  0
LINE
  8
0
 10
29.5816
 20
64.8287
 11
30.5572
 21
64.3316
  0
LINE
  8
0
 10
30.5572
 20
64.3316
 11
31.3316
 21
63.5572
  0
LINE
  8
0
 10
31.3316
 20
63.5572
 11
31.8287
 21
62.5816
  0
LINE
  8
0
 10
31.8287
 20
62.5816
 11
32
 21
61.5
  0
LINE
  8
0
 10
32
 20
61.5
 11
31.8287
 21
60.4184
  0
LINE
  8
0
 10
31.8287
 20
60.4184
 11
31.3316
 21
59.4427
  0
LINE
  8
0
 10
31.3316
 20
59.4427
 11
30.5572
 21
58.6684
  0
LINE
  8
0
 10
30.5572
 20
58.6684
 11
29.5816
 21
58.1713
  0
LINE
  8
0
 10
29.5816
 20
58.1713
 11
28.5
 21
58
  0
LINE
  8
0
 10
28.5
 20
58
 11
27.4184
 21
58.1713
  0
LINE
  8
0
 10
27.4184
 20
58.1713
 11
26.4427
 21
58.6684
  0
LINE
  8
0
 10
26.4427
 20
58.6684
 11
25.6684
 21
59.4427
  0
LINE
  8
0
 10
25.6684
 20
59.4427
 11
25.1713
 21
60.4184
  0
LINE
  8
0
 10
25.1713
 20
60.4184
 11
25
 21
61.5
  0
LINE
  8
0
 10
60
 20
10.3438
 11
63.5
 21
10.3438
  0
LINE
  8
0
 10
63.5
 20
10.3438
 11
63.5
 21
3
  0
LINE
  8
0
 10
63.5
 20
3
 11
67.6562
 21
3
  0
LINE
  8
0
 10
67.6562
 20
3
 11
67.6562
 21
6.5
  0
LINE
  8
0
 10
67.6562
 20
6.5
 11
75.0938
 21
6.5
  0
LINE
  8
0
 10
75.0938
 20
6.5
 11
75.0938
 21
3
  0
LINE
  8
0
 10
75.0938
 20
3
 11
82.5312
 21
3
  0
LINE
  8
0
 10
82.5312
 20
3
 11
82.5312
 21
6.5
  0
LINE
  8
0
 10
82.5312
 20
6.5
 11
89.9688
 21
6.5
  0
LINE
  8
0
 10
89.9688
 20
6.5
 11
89.9688
 21
3
  0
LINE
  8
0
 10
89.9688
 20
3
 11
97.4062
 21
3
  0
LINE
  8
0
 10
97.4062
 20
3
 11
97.4062
 21
6.5
  0
LINE
  8
0
 10
97.4062
 20
6.5
 11
104.844
 21
6.5
  0
LINE
  8
0
 10
104.844
 20
6.5
 11
104.844
 21
3
  0
LINE
  8
0
 10
104.844
 20
3
 11
112.281
 21
3
  0
LINE
  8
0
 10
112.281
 20
3
 11
112.281
 21
6.5
  0
LINE
  8
0
 10
112.281
 20
6.5
 11
119.719
 21
6.5
  0
LINE
  8
0
 10
119.719
 20
6.5
 11
119.719
 21
3
  0
LINE
  8
0
 10
119.719
 20
3
 11
127.156
 21
3
  0
LINE
  8
0
 10
127.156
 20
3
 11
127.156
 21
6.5
  0
LINE
  8
0
 10
127.156
 20
6.5
 11
134.594
 21
6.5
  0
LINE
  8
0
 10
134.594
 20
6.5
 11
134.594
 21
3
  0
LINE
  8
0
 10
134.594
 20
3
 11
142.031
 21
3
  0
LINE
  8
0
 10
142.031
 20
3
 11
142.031
 21
6.5
  0
LINE
  8
0
 10
142.031
 20
6.5
 11
149.469
 21
6.5
  0
LINE
  8
0
 10
149.469
 20
6.5
 11
149.469
 21
3
  0
LINE
  8
0
 10
149.469
 20
3
 11
156.906
 21
3
  0
LINE
  8
0
 10
156.906
 20
3
 11
156.906
 21
6.5
  0
LINE
  8
0
 10
156.906
 20
6.5
 11
164.344
 21
6.5
  0
LINE
  8
0
 10
164.344
 20
6.5
 11
164.344
 21
3
  0
LINE
  8
0
 10
164.344
 20
3
 11
168.5
 21
3
  0
LINE
  8
0
 10
168.5
 20
3
 11
168.5
 21
10.3438
  0
LINE
  8
0
 10
168.5
 20
10.3438
 11
172
 21
10.3438
  0
LINE
  8
0
 10
172
 20
10.3438
 11
172
 21
17.7812
  0
LINE
  8
0
 10
172
 20
17.7812
 11
168.5
 21
17.7812
  0
LINE
  8
0
 10
168.5
 20
17.7812
 11
168.5
 21
25.2188
  0
LINE
  8
0
 10
168.5
 20
25.2188
 11
172
 21
25.2188
  0
LINE
  8
0
 10
172
 20
25.2188
 11
172
 21
32.6562
  0
LINE
  8
0
 10
172
 20
32.6562
 11
168.5
 21
32.6562
  0
LINE
  8
0
 10
168.5
 20
32.6562
 11
168.5
 21
40
  0
LINE
  8
0
 10
168.5
 20
40
 11
164.344
 21
40
  0
LINE
  8
0
 10
164.344
 20
40
 11
164.344
 21
36.5
  0
LINE
  8
0
 10
164.344
 20
36.5
 11
156.906
 21
36.5
  0
LINE
  8
0
 10
156.906
 20
36.5
 11
156.906
 21
40
  0
LINE
  8
0
 10
156.906
 20
40
 11
149.469
 21
40
  0
LINE
  8
0
 10
149.469
 20
40
 11
149.469
 21
36.5
  0
LINE
  8
0
 10
149.469
 20
36.5
 11
142.031
 21
36.5
  0
LINE
  8
0
 10
142.031
 20
36.5
 11
142.031
 21
40
  0
LINE
  8
0
 10
142.031
 20
40
 11
134.594
 21
40
  0
LINE
  8
0
 10
134.594
 20
40
 11
134.594
 21
36.5
  0
LINE
  8
0
 10
134.594
 20
36.5
 11
127.156
 21
36.5
  0
LINE
  8
0
 10
127.156
 20
36.5
 11
127.156
 21
40
  0
LINE
  8
0
 10
127.156
 20
40
 11
119.719
 21
40
  0
LINE
  8
0
 10
119.719
 20
40
 11
119.719
 21
36.5
  0
LINE
  8
0
 10
119.719
 20
36.5
 11
112.281
 21
36.5
  0
LINE
  8
0
 10
112.281
 20
36.5
 11
112.281
 21
40
  0
LINE
  8
0
 10
112.281
 20
40
 11
104.844
 21
40
  0
LINE
  8
0
 10
104.844
 20
40
 11
104.844
 21
36.5
  0
LINE
  8
0
 10
104.844
 20
36.5
 11
97.4062
 21
36.5
  0
LINE
  8
0
 10
97.4062
 20
36.5
 11
97.4062
 21
40
  0
LINE
  8
0
 10
97.4062
 20
40
 11
89.9688
 21
40
  0
LINE
  8
0
 10
89.9688
 20
40
 11
89.9688
 21
36.5
  0
LINE
  8
0
 10
89.9688
 20
36.5
 11
82.5312
 21
36.5
  0
LINE
  8
0
 10
82.5312
 20
36.5
 11
82.5312
 21
40
  0
LINE
  8
0
 10
82.5312
 20
40
 11
75.0938
 21
40
  0
LINE
  8
0
 10
75.0938
 20
40
 11
75.0938
 21
36.5
  0
LINE
  8
0
 10
75.0938
 20
36.5
 11
67.6562
 21
36.5
  0
LINE
  8
0
 10
67.6562
 20
36.5
 11
67.6562
 21
40
  0
LINE
  8
0
 10
67.6562
 20
40
 11
63.5
 21
40
  0
LINE
  8
0
 10
63.5
 20
40
 11
63.5
 21
32.6562
  0
LINE
  8
0
 10
63.5
 20
32.6562
 11
60
 21
32.6562
  0
LINE
  8
0
 10
60
 20
32.6562
 11
60
 21
25.2188
  0
LINE
  8
0
 10
60
 20
25.2188
 11
63.5
 21
25.2188
  0
LINE
  8
0
 10
63.5
 20
25.2188
 11
63.5
 21
17.7812
  0
LINE
  8
0
 10
63.5
 20
17.7812
 11
60
 21
17.7812
  0
LINE
  8
0
 10
60
 20
17.7812
 11
60
 21
10.3438
  0
LINE
  8
0
 10
91.7
 20
21.5
 11
91.8615
 21
22.5197
  0
LINE
  8
0
 10
91.8615
 20
22.5197
 11
92.3302
 21
23.4397
  0
LINE
  8
0
 10
92.3302
 20
23.4397
 11
93.0603
 21
24.1698
  0
LINE
  8
0
 10
93.0603
 20
24.1698
 11
93.9802
 21
24.6385
  0
LINE
  8
0
 10
93.9802
 20
24.6385
 11
95
 21
24.8
  0
LINE
  8
0
 10
95
 20
24.8
 11
96.0197
 21
24.6385
  0
LINE
  8
0
 10
96.0197
 20
24.6385
 11
96.9397
 21
24.1698
  0
LINE
  8
0
 10
96.9397
 20
24.1698
 11
97.6698
 21
23.4397
  0
LINE
  8
0
 10
97.6698
 20
23.4397
 11
98.1385
 21
22.5197
  0
LINE
  8
0
 10
98.1385
 20
22.5197
 11
98.3
 21
21.5
  0
LINE
  8
0
 10
98.3
 20
21.5
 11
98.1385
 21
20.4802
  0
LINE
  8
0
 10
98.1385
 20
20.4802
 11
97.6698
 21
19.5603
  0
LINE
  8
0
 10
97.6698
 20
19.5603
 11
96.9397
 21
18.8302
  0
LINE
  8
0
 10
96.9397
 20
18.8302
 11
96.0197
 21
18.3615
  0
LINE
  8
0
 10
96.0197
 20
18.3615
 11
95
 21
18.2
  0
LINE
  8
0
 10
95
 20
18.2
 11
93.9802
 21
18.3615
  0
LINE
  8
0
 10
93.9802
 20
18.3615
 11
93.0603
 21
18.8302
  0
LINE
  8
0
 10
93.0603
 20
18.8302
 11
92.3302
 21
19.5603
  0
LINE
  8
0
 10
92.3302
 20
19.5603
 11
91.8615
 21
20.4802
  0
LINE
  8
0
 10
91.8615
 20
20.4802
 11
91.7
 21
21.5
  0
LINE
  8
0
 10
105.7
 20
21.5
 11
105.862
 21
22.5197
  0
LINE
  8
0
 10
105.862
 20
22.5197
 11
106.33
 21
23.4397
  0
LINE
  8
0
 10
106.33
 20
23.4397
 11
107.06
 21
24.1698
  0
LINE
  8
0
 10
107.06
 20
24.1698
 11
107.98
 21
24.6385
  0
LINE
  8
0
 10
107.98
 20
24.6385
 11
109
 21
24.8
  0
LINE
  8
0
 10
109
 20
24.8
 11
110.02
 21
24.6385
  0
LINE
  8
0
 10
110.02
 20
24.6385
 11
110.94
 21
24.1698
  0
LINE
  8
0
 10
110.94
 20
24.1698
 11
111.67
 21
23.4397
  0
LINE
  8
0
 10
111.67
 20
23.4397
 11
112.138
 21
22.5197
  0
LINE
  8
0
 10
112.138
 20
22.5197
 11
112.3
 21
21.5
  0
LINE
  8
0
 10
112.3
 20
21.5
 11
112.138
 21
20.4802
  0
LINE
  8
0
 10
112.138
 20
20.4802
 11
111.67
 21
19.5603
  0
LINE
  8
0
 10
111.67
 20
19.5603
 11
110.94
 21
18.8302
  0
LINE
  8
0
 10
110.94
 20
18.8302
 11
110.02
 21
18.3615
  0
LINE
  8
0
 10
110.02
 20
18.3615
 11
109
 21
18.2
  0
LINE
  8
0
 10
109
 20
18.2
 11
107.98
 21
18.3615
  0
LINE
  8
0
 10
107.98
 20
18.3615
 11
107.06
 21
18.8302
  0
LINE
  8
0
 10
107.06
 20
18.8302
 11
106.33
 21
19.5603
  0
LINE
  8
0
 10
106.33
 20
19.5603
 11
105.862
 21
20.4802
  0
LINE
  8
0
 10
105.862
 20
20.4802
 11
105.7
 21
21.5
  0
LINE
  8
0
 10
60
 20
50.3438
 11
63.5
 21
50.3438
  0
LINE
  8
0
 10
63.5
 20
50.3438
 11
63.5
 21
43
  0
LINE
  8
0
 10
63.5
 20
43
 11
67.6562
 21
43
  0
LINE
  8
0
 10
67.6562
 20
43
 11
67.6562
 21
46.5
  0
LINE
  8
0
 10
67.6562
 20
46.5
 11
75.0938
 21
46.5
  0
LINE
  8
0
 10
75.0938
 20
46.5
 11
75.0938
 21
43
  0
LINE
  8
0
 10
75.0938
 20
43
 11
82.5312
 21
43
  0
LINE
  8
0
 10
82.5312
 20
43
 11
82.5312
 21
46.5
  0
LINE
  8
0
 10
82.5312
 20
46.5
 11
89.9688
 21
46.5
  0
LINE
  8
0
 10
89.9688
 20
46.5
 11
89.9688
 21
43
  0
LINE
  8
0
 10
89.9688
 20
43
 11
97.4062
 21
43
  0
LINE
  8
0
 10
97.4062
 20
43
 11
97.4062
 21
46.5
  0
LINE
  8
0
 10
97.4062
 20
46.5
 11
104.844
 21
46.5
  0
LINE
  8
0
 10
104.844
 20
46.5
 11
104.844
 21
43
  0
LINE
  8
0
 10
104.844
 20
43
 11
112.281
 21
43
  0
LINE
  8
0
 10
112.281
 20
43
 11
112.281
 21
46.5
  0
LINE
  8
0
 10
112.281
 20
46.5
 11
119.719
 21
46.5
  0
LINE
  8
0
 10
119.719
 20
46.5
 11
119.719
 21
43
  0
LINE
  8
0
 10
119.719
 20
43
 11
127.156
 21
43
  0
LINE
  8
0
 10
127.156
 20
43
 11
127.156
 21
46.5
  0
LINE
  8
0
 10
127.156
 20
46.5
 11
134.594
 21
46.5
  0
LINE
  8
0
 10
134.594
 20
46.5
 11
134.594
 21
43
  0
LINE
  8
0
 10
134.594
 20
43
 11
142.031
 21
43
  0
LINE
  8
0
 10
142.031
 20
43
 11
142.031
 21
46.5
  0
LINE
  8
0
 10
142.031
 20
46.5
 11
149.469
 21
46.5
  0
LINE
  8
0
 10
149.469
 20
46.5
 11
149.469
 21
43
  0
LINE
  8
0
 10
149.469
 20
43
 11
156.906
 21
43
  0
LINE
  8
0
 10
156.906
 20
43
 11
156.906
 21
46.5
  0
LINE
  8
0
 10
156.906
 20
46.5
 11
164.344
 21
46.5
  0
LINE
  8
0
 10
164.344
 20
46.5
 11
164.344
 21
43
  0
LINE
  8
0
 10
164.344
 20
43
 11
168.5
 21
43
  0
LINE
  8
0
 10
168.5
 20
43
 11
168.5
 21
50.3438
  0
LINE
  8
0
 10
168.5
 20
50.3438
 11
172
 21
50.3438
  0
LINE
  8
0
 10
172
 20
50.3438
 11
172
 21
57.7812
  0
LINE
  8
0
 10
172
 20
57.7812
 11
168.5
 21
57.7812
  0
LINE
  8
0
 10
168.5
 20
57.7812
 11
168.5
 21
65.2188
  0
LINE
  8
0
 10
168.5
 20
65.2188
 11
172
 21
65.2188
  0
LINE
  8
0
 10
172
 20
65.2188
 11
172
 21
72.6562
  0
LINE
  8
0
 10
172
 20
72.6562
 11
168.5
 21
72.6562
  0
LINE
  8
0
 10
168.5
 20
72.6562
 11
168.5
 21
80
  0
LINE
  8
0
 10
168.5
 20
80
 11
164.344
 21
80
  0
LINE
  8
0
 10
164.344
 20
80
 11
164.344
 21
76.5
  0
LINE
  8
0
 10
164.344
 20
76.5
 11
156.906
 21
76.5
  0
LINE
  8
0
 10
156.906
 20
76.5
 11
156.906
 21
80
  0
LINE
  8
0
 10
156.906
 20
80
 11
149.469
 21
80
  0
LINE
  8
0
 10
149.469
 20
80
 11
149.469
 21
76.5
  0
LINE
  8
0
 10
149.469
 20
76.5
 11
142.031
 21
76.5
  0
LINE
  8
0
 10
142.031
 20
76.5
 11
142.031
 21
80
  0
LINE
  8
0
 10
142.031
 20
80
 11
134.594
 21
80
  0
LINE
  8
0
 10
134.594
 20
80
 11
134.594
 21
76.5
  0
LINE
  8
0
 10
134.594
 20
76.5
 11
127.156
 21
76.5
  0
LINE
  8
0
 10
127.156
 20
76.5
 11
127.156
 21
80
  0
LINE
  8
0
 10
127.156
 20
80
 11
119.719
 21
80
  0
LINE
  8
0
 10
119.719
 20
80
 11
119.719
 21
76.5
  0
LINE
  8
0
 10
119.719
 20
76.5
 11
112.281
 21
76.5
  0
LINE
  8
0
 10
112.281
 20
76.5
 11
112.281
 21
80
  0
LINE
  8
0
 10
112.281
 20
80
 11
104.844
 21
80
  0
LINE
  8
0
 10
104.844
 20
80
 11
104.844
 21
76.5
  0
LINE
  8
0
 10
104.844
 20
76.5
 11
97.4062
 21
76.5
  0
LINE
  8
0
 10
97.4062
 20
76.5
 11
97.4062
 21
80
  0
LINE
  8
0
 10
97.4062
 20
80
 11
89.9688
 21
80
  0
LINE
  8
0
 10
89.9688
 20
80
 11
89.9688
 21
76.5
  0
LINE
  8
0
 10
89.9688
 20
76.5
 11
82.5312
 21
76.5
  0
LINE
  8
0
 10
82.5312
 20
76.5
 11
82.5312
 21
80
  0
LINE
  8
0
 10
82.5312
 20
80
 11
75.0938
 21
80
  0
LINE
  8
0
 10
75.0938
 20
80
 11
75.0938
 21
76.5
  0
LINE
  8
0
 10
75.0938
 20
76.5
 11
67.6562
 21
76.5
  0
LINE
  8
0
 10
67.6562
 20
76.5
 11
67.6562
 21
80
  0
LINE
  8
0
 10
67.6562
 20
80
 11
63.5
 21
80
  0
LINE
  8
0
 10
63.5
 20
80
 11
63.5
 21
72.6562
  0
LINE
  8
0
 10
63.5
 20
72.6562
 11
60
 21
72.6562
  0
LINE
  8
0
 10
60
 20
72.6562
 11
60
 21
65.2188
  0
LINE
  8
0
 10
60
 20
65.2188
 11
63.5
 21
65.2188
  0
LINE
  8
0
 10
63.5
 20
65.2188
 11
63.5
 21
57.7812
  0
LINE
  8
0
 10
63.5
 20
57.7812
 11
60
 21
57.7812
  0
LINE
  8
0
 10
60
 20
57.7812
 11
60
 21
50.3438
  0
LINE
  8
0
 10
175
 20
10.6562
 11
178.5
 21
10.6562
  0
LINE
  8
0
 10
178.5
 20
10.6562
 11
178.5
 21
6.5
  0
LINE
  8
0
 10
178.5
 20
6.5
 11
184.906
 21
6.5
  0
LINE
  8
0
 10
184.906
 20
6.5
 11
184.906
 21
3
  0
LINE
  8
0
 10
184.906
 20
3
 11
192.344
 21
3
  0
LINE
  8
0
 10
192.344
 20
3
 11
192.344
 21
6.5
  0
LINE
  8
0
 10
192.344
 20
6.5
 11
199.781
 21
6.5
  0
LINE
  8
0
 10
199.781
 20
6.5
 11
199.781
 21
3
  0
LINE
  8
0
 10
199.781
 20
3
 11
207.219
 21
3
  0
LINE
  8
0
 10
207.219
 20
3
 11
207.219
 21
6.5
  0
LINE
  8
0
 10
207.219
 20
6.5
 11
214.656
 21
6.5
  0
LINE
  8
0
 10
214.656
 20
6.5
 11
214.656
 21
3
  0
LINE
  8
0
 10
214.656
 20
3
 11
222.094
 21
3
  0
LINE
  8
0
 10
222.094
 20
3
 11
222.094
 21
6.5
  0
LINE
  8
0
 10
222.094
 20
6.5
 11
228.5
 21
6.5
  0
LINE
  8
0
 10
228.5
 20
6.5
 11
228.5
 21
10.6562
  0
LINE
  8
0
 10
228.5
 20
10.6562
 11
232
 21
10.6562
  0
LINE
  8
0
 10
232
 20
10.6562
 11
232
 21
18.0938
  0
LINE
  8
0
 10
232
 20
18.0938
 11
228.5
 21
18.0938
  0
LINE
  8
0
 10
228.5
 20
18.0938
 11
228.5
 21
25.5312
  0
LINE
  8
0
 10
228.5
 20
25.5312
 11
232
 21
25.5312
  0
LINE
  8
0
 10
232
 20
25.5312
 11
232
 21
32.9688
  0
LINE
  8
0
 10
232
 20
32.9688
 11
228.5
 21
32.9688
  0
LINE
  8
0
 10
228.5
 20
32.9688
 11
228.5
 21
40.4062
  0
LINE
  8
0
 10
228.5
 20
40.4062
 11
232
 21
40.4062
  0
LINE
  8
0
 10
232
 20
40.4062
 11
232
 21
47.8438
  0
LINE
  8
0
 10
232
 20
47.8438
 11
228.5
 21
47.8438
  0
LINE
  8
0
 10
228.5
 20
47.8438
 11
228.5
 21
55.2812
  0
LINE
  8
0
 10
228.5
 20
55.2812
 11
232
 21
55.2812
  0
LINE
  8
0
 10
232
 20
55.2812
 11
232
 21
62.7188
  0
LINE
  8
0
 10
232
 20
62.7188
 11
228.5
 21
62.7188
  0
LINE
  8
0
 10
228.5
 20
62.7188
 11
228.5
 21
70.1562
  0
LINE
  8
0
 10
228.5
 20
70.1562
 11
232
 21
70.1562
  0
LINE
  8
0
 10
232
 20
70.1562
 11
232
 21
77.5938
  0
LINE
  8
0
 10
232
 20
77.5938
 11
228.5
 21
77.5938
  0
LINE
  8
0
 10
228.5
 20
77.5938
 11
228.5
 21
85.0312
  0
LINE
  8
0
 10
228.5
 20
85.0312
 11
232
 21
85.0312
  0
LINE
  8
0
 10
232
 20
85.0312
 11
232
 21
92.4688
  0
LINE
  8
0
 10
232
 20
92.4688
 11
228.5
 21
92.4688
  0
LINE
  8
0
 10
228.5
 20
92.4688
 11
228.5
 21
99.9062
  0
LINE
  8
0
 10
228.5
 20
99.9062
 11
232
 21
99.9062
  0
LINE
  8
0
 10
232
 20
99.9062
 11
232
 21
107.344
  0
LINE
  8
0
 10
232
 20
107.344
 11
228.5
 21
107.344
  0
LINE
  8
0
 10
228.5
 20
107.344
 11
228.5
 21
111.5
  0
LINE
  8
0
 10
228.5
 20
111.5
 11
222.094
 21
111.5
  0
LINE
  8
0
 10
222.094
 20
111.5
 11
222.094
 21
115
  0
LINE
  8
0
 10
222.094
 20
115
 11
214.656
 21
115
  0
LINE
  8
0
 10
214.656
 20
115
 11
214.656
 21
111.5
  0
LINE
  8
0
 10
214.656
 20
111.5
 11
207.219
 21
111.5
  0
LINE
  8
0
 10
207.219
 20
111.5
 11
207.219
 21
115
  0
LINE
  8
0
 10
207.219
 20
115
 11
199.781
 21
115
  0
LINE
  8
0
 10
199.781
 20
115
 11
199.781
 21
111.5
  0
LINE
  8
0
 10
199.781
 20
111.5
 11
192.344
 21
111.5
  0
LINE
  8
0
 10
192.344
 20
111.5
 11
192.344
 21
115
  0
LINE
  8
0
 10
192.344
 20
115
 11
184.906
 21
115
  0
LINE
  8
0
 10
184.906
 20
115
 11
184.906
 21
111.5
  0
LINE
  8
0
 10
184.906
 20
111.5
 11
178.5
 21
111.5
  0
LINE
  8
0
 10
178.5
 20
111.5
 11
178.5
 21
107.344
  0
LINE
  8
0
 10
178.5
 20
107.344
 11
175
 21
107.344
  0
LINE
  8
0
 10
175
 20
107.344
 11
175
 21
99.9062
  0
LINE
  8
0
 10
175
 20
99.9062
 11
178.5
 21
99.9062
  0
LINE
  8
0
 10
178.5
 20
99.9062
 11
178.5
 21
92.4688
  0
LINE
  8
0
 10
178.5
 20
92.4688
 11
175
 21
92.4688
  0
LINE
  8
0
 10
175
 20
92.4688
 11
175
 21
85.0312
  0
LINE
  8
0
 10
175
 20
85.0312
 11
178.5
 21
85.0312
  0
LINE
  8
0
 10
178.5
 20
85.0312
 11
178.5
 21
77.5938
  0
LINE
  8
0
 10
178.5
 20
77.5938
 11
175
 21
77.5938
  0
LINE
  8
0
 10
175
 20
77.5938
 11
175
 21
70.1562
  0
LINE
  8
0
 10
175
 20
70.1562
 11
178.5
 21
70.1562
  0
LINE
  8
0
 10
178.5
 20
70.1562
 11
178.5
 21
62.7188
  0
LINE
  8
0
 10
178.5
 20
62.7188
 11
175
 21
62.7188
  0
LINE
  8
0
 10
175
 20
62.7188
 11
175
 21
55.2812
  0
LINE
  8
0
 10
175
 20
55.2812
 11
178.5
 21
55.2812
  0
LINE
  8
0
 10
178.5
 20
55.2812
 11
178.5
 21
47.8438
  0
LINE
  8
0
 10
178.5
 20
47.8438
 11
175
 21
47.8438
  0
LINE
  8
0
 10
175
 20
47.8438
 11
175
 21
40.4062
  0
LINE
  8
0
 10
175
 20
40.4062
 11
178.5
 21
40.4062
  0
LINE
  8
0
 10
178.5
 20
40.4062
 11
178.5
 21
32.9688
  0
LINE
  8
0
 10
178.5
 20
32.9688
 11
175
 21
32.9688
  0
LINE
  8
0
 10
175
 20
32.9688
 11
175
 21
25.5312
  0
LINE
  8
0
 10
175
 20
25.5312
 11
178.5
 21
25.5312
  0
LINE
  8
0
 10
178.5
 20
25.5312
 11
178.5
 21
18.0938
  0
LINE
  8
0
 10
178.5
 20
18.0938
 11
175
 21
18.0938
  0
LINE
  8
0
 10
175
 20
18.0938
 11
175
 21
10.6562
  0
LINE
  8
0
 10
187.5
 20
27
 11
187.626
 21
29.0053
  0
LINE
  8
0
 10
187.626
 20
29.0053
 11
188.003
 21
30.979
  0
LINE
  8
0
 10
188.003
 20
30.979
 11
188.624
 21
32.89
  0
LINE
  8
0
 10
188.624
 20
32.89
 11
189.479
 21
34.7081
  0
LINE
  8
0
 10
189.479
 20
34.7081
 11
190.556
 21
36.4046
  0
LINE
  8
0
 10
190.556
 20
36.4046
 11
191.836
 21
37.9527
  0
LINE
  8
0
 10
191.836
 20
37.9527
 11
193.301
 21
39.3282
  0
LINE
  8
0
 10
193.301
 20
39.3282
 11
194.927
 21
40.5092
  0
LINE
  8
0
 10
194.927
 20
40.5092
 11
196.688
 21
41.4772
  0
LINE
  8
0
 10
196.688
 20
41.4772
 11
198.556
 21
42.2169
  0
LINE
  8
0
 10
198.556
 20
42.2169
 11
200.502
 21
42.7166
  0
LINE
  8
0
 10
200.502
 20
42.7166
 11
202.495
 21
42.9684
  0
LINE
  8
0
 10
202.495
 20
42.9684
 11
204.505
 21
42.9684
  0
LINE
  8
0
 10
204.505
 20
42.9684
 11
206.498
 21
42.7166
  0
LINE
  8
0
 10
206.498
 20
42.7166
 11
208.444
 21
42.2169
  0
LINE
  8
0
 10
208.444
 20
42.2169
 11
210.312
 21
41.4772
  0
LINE
  8
0
 10
210.312
 20
41.4772
 11
212.073
 21
40.5092
  0
LINE
  8
0
 10
212.073
 20
40.5092
 11
213.699
 21
39.3282
  0
LINE
  8
0
 10
213.699
 20
39.3282
 11
215.163
 21
37.9527
  0
LINE
  8
0
 10
215.163
 20
37.9527
 11
216.444
 21
36.4046
  0
LINE
  8
0
 10
216.444
 20
36.4046
 11
217.521
 21
34.7081
  0
LINE
  8
0
 10
217.521
 20
34.7081
 11
218.376
 21
32.89
  0
LINE
  8
0
 10
218.376
 20
32.89
 11
218.997
 21
30.979
  0
LINE
  8
0
 10
218.997
 20
30.979
 11
219.374
 21
29.0053
  0
LINE
  8
0
 10
219.374
 20
29.0053
 11
219.5
 21
27
  0
LINE
  8
0
 10
219.5
 20
27
 11
219.374
 21
24.9947
  0
LINE
  8
0
 10
219.374
 20
24.9947
 11
218.997
 21
23.021
  0
LINE
  8
0
 10
218.997
 20
23.021
 11
218.376
 21
21.11
  0
LINE
  8
0
 10
218.376
 20
21.11
 11
217.521
 21
19.2919
  0
LINE
  8
0
 10
217.521
 20
19.2919
 11
216.444
 21
17.5954
  0
LINE
  8
0
 10
216.444
 20
17.5954
 11
215.163
 21
16.0472
  0
LINE
  8
0
 10
215.163
 20
16.0472
 11
213.699
 21
14.6718
  0
LINE
  8
0
 10
213.699
 20
14.6718
 11
212.073
 21
13.4908
  0
LINE
  8
0
 10
212.073
 20
13.4908
 11
210.312
 21
12.5228
  0
LINE
  8
0
 10
210.312
 20
12.5228
 11
208.444
 21
11.7831
  0
LINE
  8
0
 10
208.444
 20
11.7831
 11
206.498
 21
11.2834
  0
LINE
  8
0
 10
206.498
 20
11.2834
 11
204.505
 21
11.0316
  0
LINE
  8
0
 10
204.505
 20
11.0316
 11
202.495
 21
11.0316
  0
LINE
  8
0
 10
202.495
 20
11.0316
 11
200.502
 21
11.2834
  0
LINE
  8
0
 10
200.502
 20
11.2834
 11
198.556
 21
11.7831
  0
LINE
  8
0
 10
198.556
 20
11.7831
 11
196.688
 21
12.5228
  0
LINE
  8
0
 10
196.688
 20
12.5228
 11
194.927
 21
13.4908
  0
LINE
  8
0
 10
194.927
 20
13.4908
 11
193.301
 21
14.6718
  0
LINE
  8
0
 10
193.301
 20
14.6718
 11
191.836
 21
16.0472
  0
LINE
  8
0
 10
191.836
 20
16.0472
 11
190.556
 21
17.5954
  0
LINE
  8
0
 10
190.556
 20
17.5954
 11
189.479
 21
19.2919
  0
LINE
  8
0
 10
189.479
 20
19.2919
 11
188.624
 21
21.11
  0
LINE
  8
0
 10
188.624
 20
21.11
 11
188.003
 21
23.021
  0
LINE
  8
0
 10
188.003
 20
23.021
 11
187.626
 21
24.9947
  0
LINE
  8
0
 10
187.626
 20
24.9947
 11
187.5
 21
27
  0
LINE
  8
0
 10
188
 20
12.5
 11
188.049
 21
12.809
  0
LINE
  8
0
 10
188.049
 20
12.809
 11
188.191
 21
13.0878
  0
LINE
  8
0
 10
188.191
 20
13.0878
 11
188.412
 21
13.309
  0
LINE
  8
0
 10
188.412
 20
13.309
 11
188.691
 21
13.451
  0
LINE
  8
0
 10
188.691
 20
13.451
 11
189
 21
13.5
  0
LINE
  8
0
 10
189
 20
13.5
 11
189.309
 21
13.451
  0
LINE
  8
0
 10
189.309
 20
13.451
 11
189.588
 21
13.309
  0
LINE
  8
0
 10
189.588
 20
13.309
 11
189.809
 21
13.0878
  0
LINE
  8
0
 10
189.809
 20
13.0878
 11
189.951
 21
12.809
  0
LINE
  8
0
 10
189.951
 20
12.809
 11
190
 21
12.5
  0
LINE
  8
0
 10
190
 20
12.5
 11
189.951
 21
12.191
  0
LINE
  8
0
 10
189.951
 20
12.191
 11
189.809
 21
11.9122
  0
LINE
  8
0
 10
189.809
 20
11.9122
 11
189.588
 21
11.691
  0
LINE
  8
0
 10
189.588
 20
11.691
 11
189.309
 21
11.5489
  0
LINE
  8
0
 10
189.309
 20
11.5489
 11
189
 21
11.5
  0
LINE
  8
0
 10
189
 20
11.5
 11
188.691
 21
11.5489
  0
LINE
  8
0
 10
188.691
 20
11.5489
 11
188.412
 21
11.691
  0
LINE
  8
0
 10
188.412
 20
11.691
 11
188.191
 21
11.9122
  0
LINE
  8
0
 10
188.191
 20
11.9122
 11
188.049
 21
12.191
  0
LINE
  8
0
 10
188.049
 20
12.191
 11
188
 21
12.5
  0
LINE
  8
0
 10
188
 20
41.5
 11
188.049
 21
41.809
  0
LINE
  8
0
 10
188.049
 20
41.809
 11
188.191
 21
42.0878
  0
LINE
  8
0
 10
188.191
 20
42.0878
 11
188.412
 21
42.309
  0
LINE
  8
0
 10
188.412
 20
42.309
 11
188.691
 21
42.451
  0
LINE
  8
0
 10
188.691
 20
42.451
 11
189
 21
42.5
  0
LINE
  8
0
 10
189
 20
42.5
 11
189.309
 21
42.451
  0
LINE
  8
0
 10
189.309
 20
42.451
 11
189.588
 21
42.309
  0
LINE
  8
0
 10
189.588
 20
42.309
 11
189.809
 21
42.0878
  0
LINE
  8
0
 10
189.809
 20
42.0878
 11
189.951
 21
41.809
  0
LINE
  8
0
 10
189.951
 20
41.809
 11
190
 21
41.5
  0
LINE
  8
0
 10
190
 20
41.5
 11
189.951
 21
41.191
  0
LINE
  8
0
 10
189.951
 20
41.191
 11
189.809
 21
40.9122
  0
LINE
  8
0
 10
189.809
 20
40.9122
 11
189.588
 21
40.691
  0
LINE
  8
0
 10
189.588
 20
40.691
 11
189.309
 21
40.5489
  0
LINE
  8
0
 10
189.309
 20
40.5489
 11
189
 21
40.5
  0
LINE
  8
0
 10
189
 20
40.5
 11
188.691
 21
40.5489
  0
LINE
  8
0
 10
188.691
 20
40.5489
 11
188.412
 21
40.691
  0
LINE
  8
0
 10
188.412
 20
40.691
 11
188.191
 21
40.9122
  0
LINE
  8
0
 10
188.191
 20
40.9122
 11
188.049
 21
41.191
  0
LINE
  8
0
 10
188.049
 20
41.191
 11
188
 21
41.5
  0
LINE
  8
0
 10
201.2
 20
50
 11
201.313
 21
50.7107
  0
LINE
  8
0
 10
201.313
 20
50.7107
 11
201.639
 21
51.3519
  0
LINE
  8
0
 10
201.639
 20
51.3519
 11
202.148
 21
51.8607
  0
LINE
  8
0
 10
202.148
 20
51.8607
 11
202.789
 21
52.1874
  0
LINE
  8
0
 10
202.789
 20
52.1874
 11
203.5
 21
52.3
  0
LINE
  8
0
 10
203.5
 20
52.3
 11
204.211
 21
52.1874
  0
LINE
  8
0
 10
204.211
 20
52.1874
 11
204.852
 21
51.8607
  0
LINE
  8
0
 10
204.852
 20
51.8607
 11
205.361
 21
51.3519
  0
LINE
  8
0
 10
205.361
 20
51.3519
 11
205.687
 21
50.7107
  0
LINE
  8
0
 10
205.687
 20
50.7107
 11
205.8
 21
50
  0
LINE
  8
0
 10
205.8
 20
50
 11
205.687
 21
49.2893
  0
LINE
  8
0
 10
205.687
 20
49.2893
 11
205.361
 21
48.6481
  0
LINE
  8
0
 10
205.361
 20
48.6481
 11
204.852
 21
48.1393
  0
LINE
  8
0
 10
204.852
 20
48.1393
 11
204.211
 21
47.8126
  0
LINE
  8
0
 10
204.211
 20
47.8126
 11
203.5
 21
47.7
  0
LINE
  8
0
 10
203.5
 20
47.7
 11
202.789
 21
47.8126
  0
LINE
  8
0
 10
202.789
 20
47.8126
 11
202.148
 21
48.1393
  0
LINE
  8
0
 10
202.148
 20
48.1393
 11
201.639
 21
48.6481
  0
LINE
  8
0
 10
201.639
 20
48.6481
 11
201.313
 21
49.2893
  0
LINE
  8
0
 10
201.313
 20
49.2893
 11
201.2
 21
50
  0
LINE
  8
0
 10
203
 20
59.3
 11
203.024
 21
59.4545
  0
LINE
  8
0
 10
203.024
 20
59.4545
 11
203.095
 21
59.5939
  0
LINE
  8
0
 10
203.095
 20
59.5939
 11
203.206
 21
59.7045
  0
LINE
  8
0
 10
203.206
 20
59.7045
 11
203.345
 21
59.7755
  0
LINE
  8
0
 10
203.345
 20
59.7755
 11
203.5
 21
59.8
  0
LINE
  8
0
 10
203.5
 20
59.8
 11
203.654
 21
59.7755
  0
LINE
  8
0
 10
203.654
 20
59.7755
 11
203.794
 21
59.7045
  0
LINE
  8
0
 10
203.794
 20
59.7045
 11
203.904
 21
59.5939
  0
LINE
  8
0
 10
203.904
 20
59.5939
 11
203.976
 21
59.4545
  0
LINE
  8
0
 10
203.976
 20
59.4545
 11
204
 21
59.3
  0
LINE
  8
0
 10
204
 20
59.3
 11
203.976
 21
59.1455
  0
LINE
  8
0
 10
203.976
 20
59.1455
 11
203.904
 21
59.0061
  0
LINE
  8
0
 10
203.904
 20
59.0061
 11
203.794
 21
58.8955
  0
LINE
  8
0
 10
203.794
 20
58.8955
 11
203.654
 21
58.8245
  0
LINE
  8
0
 10
203.654
 20
58.8245
 11
203.5
 21
58.8
  0
LINE
  8
0
 10
203.5
 20
58.8
 11
203.345
 21
58.8245
  0
LINE
  8
0
 10
203.345
 20
58.8245
 11
203.206
 21
58.8955
  0
LINE
  8
0
 10
203.206
 20
58.8955
 11
203.095
 21
59.0061
  0
LINE
  8
0
 10
203.095
 20
59.0061
 11
203.024
 21
59.1455
  0
LINE
  8
0
 10
203.024
 20
59.1455
 11
203
 21
59.3
  0
LINE
  8
0
 10
217
 20
12.5
 11
217.049
 21
12.809
  0
LINE
  8
0
 10
217.049
 20
12.809
 11
217.191
 21
13.0878
  0
LINE
  8
0
 10
217.191
 20
13.0878
 11
217.412
 21
13.309
  0
LINE
  8
0
 10
217.412
 20
13.309
 11
217.691
 21
13.451
  0
LINE
  8
0
 10
217.691
 20
13.451
 11
218
 21
13.5
  0
LINE
  8
0
 10
218
 20
13.5
 11
218.309
 21
13.451
  0
LINE
  8
0
 10
218.309
 20
13.451
 11
218.588
 21
13.309
  0
LINE
  8
0
 10
218.588
 20
13.309
 11
218.809
 21
13.0878
  0
LINE
  8
0
 10
218.809
 20
13.0878
 11
218.951
 21
12.809
  0
LINE
  8
0
 10
218.951
 20
12.809
 11
219
 21
12.5
  0
LINE
  8
0
 10
219
 20
12.5
 11
218.951
 21
12.191
  0
LINE
  8
0
 10
218.951
 20
12.191
 11
218.809
 21
11.9122
  0
LINE
  8
0
 10
218.809
 20
11.9122
 11
218.588
 21
11.691
  0
LINE
  8
0
 10
218.588
 20
11.691
 11
218.309
 21
11.5489
  0
LINE
  8
0
 10
218.309
 20
11.5489
 11
218
 21
11.5
  0
LINE
  8
0
 10
218
 20
11.5
 11
217.691
 21
11.5489
  0
LINE
  8
0
 10
217.691
 20
11.5489
 11
217.412
 21
11.691
  0
LINE
  8
0
 10
217.412
 20
11.691
 11
217.191
 21
11.9122
  0
LINE
  8
0
 10
217.191
 20
11.9122
 11
217.049
 21
12.191
  0
LINE
  8
0
 10
217.049
 20
12.191
 11
217
 21
12.5
  0
LINE
  8
0
 10
217
 20
41.5
 11
217.049
 21
41.809
  0
LINE
  8
0
 10
217.049
 20
41.809
 11
217.191
 21
42.0878
  0
LINE
  8
0
 10
217.191
 20
42.0878
 11
217.412
 21
42.309
  0
LINE
  8
0
 10
217.412
 20
42.309
 11
217.691
 21
42.451
  0
LINE
  8
0
 10
217.691
 20
42.451
 11
218
 21
42.5
  0
LINE
  8
0
 10
218
 20
42.5
 11
218.309
 21
42.451
  0
LINE
  8
0
 10
218.309
 20
42.451
 11
218.588
 21
42.309
  0
LINE
  8
0
 10
218.588
 20
42.309
 11
218.809
 21
42.0878
  0
LINE
  8
0
 10
218.809
 20
42.0878
 11
218.951
 21
41.809
  0
LINE
  8
0
 10
218.951
 20
41.809
 11
219
 21
41.5
  0
LINE
  8
0
 10
219
 20
41.5
 11
218.951
 21
41.191
  0
LINE
  8
0
 10
218.951
 20
41.191
 11
218.809
 21
40.9122
  0
LINE
  8
0
 10
218.809
 20
40.9122
 11
218.588
 21
40.691
  0
LINE
  8
0
 10
218.588
 20
40.691
 11
218.309
 21
40.5489
  0
LINE
  8
0
 10
218.309
 20
40.5489
 11
218
 21
40.5
  0
LINE
  8
0
 10
218
 20
40.5
 11
217.691
 21
40.5489
  0
LINE
  8
0
 10
217.691
 20
40.5489
 11
217.412
 21
40.691
  0
LINE
  8
0
 10
217.412
 20
40.691
 11
217.191
 21
40.9122
  0
LINE
  8
0
 10
217.191
 20
40.9122
 11
217.049
 21
41.191
  0
LINE
  8
0
 10
217.049
 20
41.191
 11
217
 21
41.5
  0
LINE
  8
0
 10
175
 20
125.656
 11
178.5
 21
125.656
  0
LINE
  8
0
 10
178.5
 20
125.656
 11
178.5
 21
121.5
  0
LINE
  8
0
 10
178.5
 20
121.5
 11
184.906
 21
121.5
  0
LINE
  8
0
 10
184.906
 20
121.5
 11
184.906
 21
118
  0
LINE
  8
0
 10
184.906
 20
118
 11
192.344
 21
118
  0
LINE
  8
0
 10
192.344
 20
118
 11
192.344
 21
121.5
  0
LINE
  8
0
 10
192.344
 20
121.5
 11
199.781
 21
121.5
  0
LINE
  8
0
 10
199.781
 20
121.5
 11
199.781
 21
118
  0
LINE
  8
0
 10
199.781
 20
118
 11
207.219
 21
118
  0
LINE
  8
0
 10
207.219
 20
118
 11
207.219
 21
121.5
  0
LINE
  8
0
 10
207.219
 20
121.5
 11
214.656
 21
121.5
  0
LINE
  8
0
 10
214.656
 20
121.5
 11
214.656
 21
118
  0
LINE
  8
0
 10
214.656
 20
118
 11
222.094
 21
118
  0
LINE
  8
0
 10
222.094
 20
118
 11
222.094
 21
121.5
  0
LINE
  8
0
 10
222.094
 20
121.5
 11
228.5
 21
121.5
  0
LINE
  8
0
 10
228.5
 20
121.5
 11
228.5
 21
125.656
  0
LINE
  8
0
 10
228.5
 20
125.656
 11
232
 21
125.656
  0
LINE
  8
0
 10
232
 20
125.656
 11
232
 21
133.094
  0
LINE
  8
0
 10
232
 20
133.094
 11
228.5
 21
133.094
  0
LINE
  8
0
 10
228.5
 20
133.094
 11
228.5
 21
140.531
  0
LINE
  8
0
 10
228.5
 20
140.531
 11
232
 21
140.531
  0
LINE
  8
0
 10
232
 20
140.531
 11
232
 21
147.969
  0
LINE
  8
0
 10
232
 20
147.969
 11
228.5
 21
147.969
  0
LINE
  8
0
 10
228.5
 20
147.969
 11
228.5
 21
155.406
  0
LINE
  8
0
 10
228.5
 20
155.406
 11
232
 21
155.406
  0
LINE
  8
0
 10
232
 20
155.406
 11
232
 21
162.844
  0
LINE
  8
0
 10
232
 20
162.844
 11
228.5
 21
162.844
  0
LINE
  8
0
 10
228.5
 20
162.844
 11
228.5
 21
170.281
  0
LINE
  8
0
 10
228.5
 20
170.281
 11
232
 21
170.281
  0
LINE
  8
0
 10
232
 20
170.281
 11
232
 21
177.719
  0
LINE
  8
0
 10
232
 20
177.719
 11
228.5
 21
177.719
  0
LINE
  8
0
 10
228.5
 20
177.719
 11
228.5
 21
185.156
  0
LINE
  8
0
 10
228.5
 20
185.156
 11
232
 21
185.156
  0
LINE
  8
0
 10
232
 20
185.156
 11
232
 21
192.594
  0
LINE
  8
0
 10
232
 20
192.594
 11
228.5
 21
192.594
  0
LINE
  8
0
 10
228.5
 20
192.594
 11
228.5
 21
200.031
  0
LINE
  8
0
 10
228.5
 20
200.031
 11
232
 21
200.031
  0
LINE
  8
0
 10
232
 20
200.031
 11
232
 21
207.469
  0
LINE
  8
0
 10
232
 20
207.469
 11
228.5
 21
207.469
  0
LINE
  8
0
 10
228.5
 20
207.469
 11
228.5
 21
214.906
  0
LINE
  8
0
 10
228.5
 20
214.906
 11
232
 21
214.906
  0
LINE
  8
0
 10
232
 20
214.906
 11
232
 21
222.344
  0
LINE
  8
0
 10
232
 20
222.344
 11
228.5
 21
222.344
  0
LINE
  8
0
 10
228.5
 20
222.344
 11
228.5
 21
226.5
  0
LINE
  8
0
 10
228.5
 20
226.5
 11
222.094
 21
226.5
  0
LINE
  8
0
 10
222.094
 20
226.5
 11
222.094
 21
230
  0
LINE
  8
0
 10
222.094
 20
230
 11
214.656
 21
230
  0
LINE
  8
0
 10
214.656
 20
230
 11
214.656
 21
226.5
  0
LINE
  8
0
 10
214.656
 20
226.5
 11
207.219
 21
226.5
  0
LINE
  8
0
 10
207.219
 20
226.5
 11
207.219
 21
230
  0
LINE
  8
0
 10
207.219
 20
230
 11
199.781
 21
230
  0
LINE
  8
0
 10
199.781
 20
230
 11
199.781
 21
226.5
  0
LINE
  8
0
 10
199.781
 20
226.5
 11
192.344
 21
226.5
  0
LINE
  8
0
 10
192.344
 20
226.5
 11
192.344
 21
230
  0
LINE
  8
0
 10
192.344
 20
230
 11
184.906
 21
230
  0
LINE
  8
0
 10
184.906
 20
230
 11
184.906
 21
226.5
  0
LINE
  8
0
 10
184.906
 20
226.5
 11
178.5
 21
226.5
  0
LINE
  8
0
 10
178.5
 20
226.5
 11
178.5
 21
222.344
  0
LINE
  8
0
 10
178.5
 20
222.344
 11
175
 21
222.344
  0
LINE
  8
0
 10
175
 20
222.344
 11
175
 21
214.906
  0
LINE
  8
0
 10
175
 20
214.906
 11
178.5
 21
214.906
  0
LINE
  8
0
 10
178.5
 20
214.906
 11
178.5
 21
207.469
  0
LINE
  8
0
 10
178.5
 20
207.469
 11
175
 21
207.469
  0
LINE
  8
0
 10
175
 20
207.469
 11
175
 21
200.031
  0
LINE
  8
0
 10
175
 20
200.031
 11
178.5
 21
200.031
  0
LINE
  8
0
 10
178.5
 20
200.031
 11
178.5
 21
192.594
  0
LINE
  8
0
 10
178.5
 20
192.594
 11
175
 21
192.594
  0
LINE
  8
0
 10
175
 20
192.594
 11
175
 21
185.156
  0
LINE
  8
0
 10
175
 20
185.156
 11
178.5
 21
185.156
  0
LINE
  8
0
 10
178.5
 20
185.156
 11
178.5
 21
177.719
  0
LINE
  8
0
 10
178.5
 20
177.719
 11
175
 21
177.719
  0
LINE
  8
0
 10
175
 20
177.719
 11
175
 21
170.281
  0
LINE
  8
0
 10
175
 20
170.281
 11
178.5
 21
170.281
  0
LINE
  8
0
 10
178.5
 20
170.281
 11
178.5
 21
162.844
  0
LINE
  8
0
 10
178.5
 20
162.844
 11
175
 21
162.844
  0
LINE
  8
0
 10
175
 20
162.844
 11
175
 21
155.406
  0
LINE
  8
0
 10
175
 20
155.406
 11
178.5
 21
155.406
  0
LINE
  8
0
 10
178.5
 20
155.406
 11
178.5
 21
147.969
  0
LINE
  8
0
 10
178.5
 20
147.969
 11
175
 21
147.969
  0
LINE
  8
0
 10
175
 20
147.969
 11
175
 21
140.531
  0
LINE
  8
0
 10
175
 20
140.531
 11
178.5
 21
140.531
  0
LINE
  8
0
 10
178.5
 20
140.531
 11
178.5
 21
133.094
  0
LINE
  8
0
 10
178.5
 20
133.094
 11
175
 21
133.094
  0
LINE
  8
0
 10
175
 20
133.094
 11
175
 21
125.656
  0
ENDSEC
  0
SECTION
  2
OBJECTS
  0
DICTIONARY
  0
ENDSEC
  0
EOF
